<svg xmlns="http://www.w3.org/2000/svg" xmlns:xlink="http://www.w3.org/1999/xlink" id="Layer_1" data-name="Layer 1" viewBox="0 0 2048 1080"><script xmlns="" id="eppiocemhmnlbhjplcgkofciiegomcon"/><script xmlns=""/><script xmlns=""/><defs><style>.cls-1{opacity:0;}.cls-2{fill:#fff;}.cls-3{fill:#59c9e6;}.cls-3,.cls-4{fill-rule:evenodd;opacity:0.65;}.cls-4{fill:url(#linear-gradient);}.cls-5{fill:#0b688b;}.cls-6{fill:none;stroke:#0b688b;stroke-miterlimit:10;}</style><linearGradient id="linear-gradient" x1="1113.17" y1="526.41" x2="1169.06" y2="526.41" gradientUnits="userSpaceOnUse"><stop offset="0" stop-color="#fff" stop-opacity="0"/><stop offset="1" stop-color="#aee2fa"/></linearGradient></defs><g class="cls-1"><rect class="cls-2" width="2048" height="1080"/></g><g id="_10_156" data-name="10_156"><path class="cls-3" d="M1169.06,656.17v-.39c-30.81-35-42.7-80.09-42.7-129.37S1138.25,432,1169.06,397v-.38h-45.14a788.52,788.52,0,0,0,0,259.52Z"/><path class="cls-4" d="M1169.06,656.17v-.39c-30.81-35-42.7-80.09-42.7-129.37S1138.25,432,1169.06,397v-.38h-45.14a788.52,788.52,0,0,0,0,259.52Z"/><path class="cls-5" d="M1131.78,314.16V298.94a5.5,5.5,0,0,1-2.54,1.14v-1.26a5.9,5.9,0,0,0,1.52-.72,4.27,4.27,0,0,0,1.3-1.23h1.19v17.29Z"/><path class="cls-5" d="M1137.28,314.16v-2.35h1.57v2.35Z"/><path class="cls-5" d="M1144.75,314.36a3.23,3.23,0,0,1-2.78-1.17,5.92,5.92,0,0,1-.86-3.5h1.48a5.14,5.14,0,0,0,.5,2.55,2.1,2.1,0,0,0,3.51-.19,8.64,8.64,0,0,0,.48-3.36,7.84,7.84,0,0,0-.51-3.35,1.8,1.8,0,0,0-1.74-1,2.42,2.42,0,0,0-2.12,1.45h-1.24v-8.95h6.36l0,1.46h-5l-.07,6a2.94,2.94,0,0,1,2.5-1.14,2.72,2.72,0,0,1,2.54,1.36,8.08,8.08,0,0,1,.78,4,8.65,8.65,0,0,1-.88,4.38A3.11,3.11,0,0,1,1144.75,314.36Z"/><path class="cls-5" d="M1154.6,314.38c-2.52,0-3.77-1.81-3.77-5.43v-6.9c0-3.58,1.25-5.37,3.77-5.37a3.48,3.48,0,0,1,2.73,1,4.44,4.44,0,0,1,.93,3v.17c0,.1,0,.16,0,.17h-1.46a4.18,4.18,0,0,0-.5-2.35,1.9,1.9,0,0,0-1.67-.71q-2.34,0-2.34,3.72V305a3.55,3.55,0,0,1,1.13-.72,3.8,3.8,0,0,1,1.51-.3,3,3,0,0,1,2.74,1.2,7.55,7.55,0,0,1,.78,4Q1158.46,314.38,1154.6,314.38Zm0-1.32a2,2,0,0,0,1.79-.86,5.26,5.26,0,0,0,.57-2.8c0-.52,0-1,0-1.31s-.06-.7-.11-1a2.92,2.92,0,0,0-.25-.83,2,2,0,0,0-.41-.58,1.48,1.48,0,0,0-.65-.36,3.06,3.06,0,0,0-.91-.11,2.92,2.92,0,0,0-1.3.31,3.49,3.49,0,0,0-1,.68v3a6.16,6.16,0,0,0,.55,3A1.89,1.89,0,0,0,1154.6,313.06Z"/><line class="cls-6" x1="1143.56" y1="322.3" x2="1143.56" y2="372.51"/></g></svg>