<svg xmlns="http://www.w3.org/2000/svg" xmlns:xlink="http://www.w3.org/1999/xlink" id="Layer_1" data-name="Layer 1" viewBox="0 0 2048 1080"><script xmlns="" id="eppiocemhmnlbhjplcgkofciiegomcon"/><script xmlns=""/><script xmlns=""/><defs><style>.cls-1{opacity:0;}.cls-2{fill:#fff;}.cls-3{fill:#59c9e6;}.cls-3,.cls-4{fill-rule:evenodd;opacity:0.65;}.cls-4{fill:url(#linear-gradient);}.cls-5{fill:#0b688b;}.cls-6{fill:none;stroke:#0b688b;stroke-miterlimit:10;}</style><linearGradient id="linear-gradient" x1="1113.17" y1="526.65" x2="1157.32" y2="526.65" gradientUnits="userSpaceOnUse"><stop offset="0" stop-color="#fff" stop-opacity="0"/><stop offset="1" stop-color="#aee2fa"/></linearGradient></defs><g class="cls-1"><rect class="cls-2" width="2048" height="1080"/></g><g id="_10_167" data-name="10_167"><path class="cls-3" d="M1122,526.66c0-47.93,13-92.48,35.3-129.52H1120a1229.6,1229.6,0,0,0,0,259h37.31c-22.29-37-35.3-81.59-35.3-129.51Z"/><path class="cls-4" d="M1122,526.66c0-47.93,13-92.48,35.3-129.52H1120a1229.6,1229.6,0,0,0,0,259h37.31c-22.29-37-35.3-81.59-35.3-129.51Z"/><path class="cls-5" d="M1125.79,314.12V298.93a5.43,5.43,0,0,1-2.53,1.14v-1.26a5.9,5.9,0,0,0,1.52-.72,4.38,4.38,0,0,0,1.3-1.23h1.19v17.26Z"/><path class="cls-5" d="M1131.28,314.12v-2.34h1.57v2.34Z"/><path class="cls-5" d="M1138.83,314.34q-3.76,0-3.76-5.42V302q0-5.36,3.76-5.36a3.48,3.48,0,0,1,2.73,1,4.49,4.49,0,0,1,.93,3v.17a1.08,1.08,0,0,0,0,.16H1141a4.08,4.08,0,0,0-.5-2.34,1.89,1.89,0,0,0-1.67-.71q-2.32,0-2.33,3.72v3.26a3.55,3.55,0,0,1,1.13-.72,3.76,3.76,0,0,1,1.5-.3,3,3,0,0,1,2.74,1.19,7.55,7.55,0,0,1,.78,4Q1142.69,314.33,1138.83,314.34Zm0-1.31a2,2,0,0,0,1.79-.87,5.19,5.19,0,0,0,.57-2.79c0-.52,0-.95,0-1.31s-.06-.69-.11-1a3.28,3.28,0,0,0-.24-.84,2.33,2.33,0,0,0-.42-.57,1.6,1.6,0,0,0-.65-.37,3.43,3.43,0,0,0-.91-.11,2.92,2.92,0,0,0-1.29.32,3.69,3.69,0,0,0-1,.67v3a6.07,6.07,0,0,0,.55,3A1.88,1.88,0,0,0,1138.83,313Z"/><path class="cls-5" d="M1146.54,314.12l3.18-16h-4.94v-1.25h6.43v.76l-3.23,16.5Z"/><line class="cls-6" x1="1137.55" y1="322.24" x2="1137.55" y2="372.36"/></g></svg>