<svg xmlns="http://www.w3.org/2000/svg" xmlns:xlink="http://www.w3.org/1999/xlink" id="Layer_1"
  data-name="Layer 1" viewBox="0 0 2048 1080">
  <script xmlns="" id="eppiocemhmnlbhjplcgkofciiegomcon" />
  <script xmlns="" />
  <script xmlns="" />
  <defs>
    <style>
      .cls-1{opacity:0;}.cls-2{fill:#fff;}.cls-3{opacity:0.65;}.cls-4{fill:#59c9e6;}.cls-4,.cls-5{fill-rule:evenodd;}.cls-5{fill:url(#linear-gradient);}.cls-6{fill:#0b688b;}.cls-7{fill:none;stroke:#0b688b;stroke-miterlimit:10;}</style>
    <linearGradient id="linear-gradient" x1="1113.17" y1="526.34" x2="1183.22" y2="526.34"
      gradientUnits="userSpaceOnUse">
      <stop offset="0" stop-color="#fff" stop-opacity="0" />
      <stop offset="1" stop-color="#aee2fa" />
    </linearGradient>
  </defs>
  <g class="cls-1">
    <rect class="cls-2" width="2048" height="1080" />
  </g>
  <g id="_10_150" data-name="10_150">
    <g class="cls-3">
      <path class="cls-4"
        d="M1183.22,656.17v-.38c-30.83-35-49.42-80.14-49.42-129.45s18.59-94.47,49.42-129.44v-.38h-59.29a788.58,788.58,0,0,0,0,259.65Z" />
    </g>
    <g class="cls-3">
      <path class="cls-5"
        d="M1183.22,656.17v-.38c-30.83-35-49.42-80.14-49.42-129.45s18.59-94.47,49.42-129.44v-.38h-59.29a788.58,788.58,0,0,0,0,259.65Z" />
    </g>
    <path class="cls-6"
      d="M1140.56,314.17V298.94a5.5,5.5,0,0,1-2.54,1.14v-1.26a5.59,5.59,0,0,0,1.52-.72,4.42,4.42,0,0,0,1.31-1.23H1142v17.3Z" />
    <path class="cls-6" d="M1146.06,314.17v-2.35h1.57v2.35Z" />
    <path class="cls-6"
      d="M1153.54,314.37a3.22,3.22,0,0,1-2.78-1.17,5.85,5.85,0,0,1-.86-3.5h1.47a5.13,5.13,0,0,0,.51,2.55,1.81,1.81,0,0,0,1.71.86,1.8,1.8,0,0,0,1.8-1.05,8.87,8.87,0,0,0,.47-3.36,7.84,7.84,0,0,0-.5-3.35,1.78,1.78,0,0,0-1.74-1,2.4,2.4,0,0,0-2.12,1.45h-1.24v-9h6.36l0,1.46h-5l-.08,6a2.93,2.93,0,0,1,2.5-1.15,2.7,2.7,0,0,1,2.54,1.36,8,8,0,0,1,.79,4,8.54,8.54,0,0,1-.89,4.38A3.1,3.1,0,0,1,1153.54,314.37Z" />
    <path class="cls-6"
      d="M1163.25,314.39q-3.88,0-3.89-5.12v-7.51q0-5.08,3.89-5.08t3.9,5.08v7.51Q1167.15,314.39,1163.25,314.39Zm0-1.27c1.59,0,2.39-1.23,2.39-3.71v-7.77a9.22,9.22,0,0,0-.11-1.48,4.64,4.64,0,0,0-.37-1.16,1.88,1.88,0,0,0-.75-.8,2.54,2.54,0,0,0-2.32,0,1.85,1.85,0,0,0-.74.8,3.77,3.77,0,0,0-.38,1.16,8.2,8.2,0,0,0-.11,1.48v7.77C1160.86,311.89,1161.65,313.12,1163.25,313.12Z" />
    <line class="cls-7" x1="1152.35" y1="322.31" x2="1152.35" y2="372.55" />
  </g>
</svg>