<svg xmlns="http://www.w3.org/2000/svg" xmlns:xlink="http://www.w3.org/1999/xlink" id="Layer_1" data-name="Layer 1" viewBox="0 0 2048 1080"><script xmlns="" id="eppiocemhmnlbhjplcgkofciiegomcon"/><script xmlns=""/><script xmlns=""/><defs><style>.cls-1{opacity:0;}.cls-2{fill:#fff;}.cls-3{opacity:0.65;}.cls-4{fill:#59c9e6;}.cls-4,.cls-5{fill-rule:evenodd;}.cls-5{fill:url(#linear-gradient);}.cls-6{fill:#0b688b;}.cls-7{fill:none;stroke:#0b688b;stroke-miterlimit:10;}</style><linearGradient id="linear-gradient" x1="1113.17" y1="526.65" x2="1150.19" y2="526.65" gradientUnits="userSpaceOnUse"><stop offset="0" stop-color="#fff" stop-opacity="0"/><stop offset="1" stop-color="#aee2fa"/></linearGradient></defs><g class="cls-1"><rect class="cls-2" width="2048" height="1080"/></g><g id="_10_174" data-name="10_174"><g class="cls-3"><path class="cls-4" d="M1150.19,397.14H1120a1227.81,1227.81,0,0,0,0,259h30.17c-19.11-36.08-30.43-80.92-30.43-129.51s11.32-93.44,30.43-129.52Z"/></g><g class="cls-3"><path class="cls-5" d="M1150.19,397.14H1120a1227.81,1227.81,0,0,0,0,259h30.17c-19.11-36.08-30.43-80.92-30.43-129.51s11.32-93.44,30.43-129.52Z"/></g><path class="cls-6" d="M1120.11,314.12V298.93a5.43,5.43,0,0,1-2.53,1.14v-1.26a5.85,5.85,0,0,0,1.51-.72,4.3,4.3,0,0,0,1.31-1.23h1.19v17.26Z"/><path class="cls-6" d="M1125.6,314.12v-2.34h1.57v2.34Z"/><path class="cls-6" d="M1131,314.12l3.17-16h-4.93v-1.25h6.43v.76l-3.24,16.5Z"/><path class="cls-6" d="M1142.69,314.12v-5h-4.9v-1.63l4.6-10.62h1.78v10.78H1146v1.47h-1.85v5Zm-3.39-6.49h3.39V299Z"/><line class="cls-7" x1="1131.87" y1="322.24" x2="1131.87" y2="372.36"/></g></svg>