<svg xmlns="http://www.w3.org/2000/svg" xmlns:xlink="http://www.w3.org/1999/xlink" id="Layer_1" data-name="Layer 1" viewBox="0 0 2048 1080"><script xmlns="" id="eppiocemhmnlbhjplcgkofciiegomcon"/><script xmlns=""/><script xmlns=""/><defs><style>.cls-1{opacity:0;}.cls-2{fill:#fff;}.cls-3{opacity:0.65;}.cls-4{fill:#59c9e6;}.cls-4,.cls-5{fill-rule:evenodd;}.cls-5{fill:url(#linear-gradient);}.cls-6{fill:#0b688b;}.cls-7{fill:none;stroke:#0b688b;stroke-miterlimit:10;}</style><linearGradient id="linear-gradient" x1="1113.17" y1="526.65" x2="1160.92" y2="526.65" gradientUnits="userSpaceOnUse"><stop offset="0" stop-color="#fff" stop-opacity="0"/><stop offset="1" stop-color="#aee2fa"/></linearGradient></defs><g class="cls-1"><rect class="cls-2" width="2048" height="1080"/></g><g id="_10_161" data-name="10_161"><g class="cls-3"><path class="cls-4" d="M1160.92,656.17v-.39c-23.21-37.22-34.59-79.94-34.59-129.13s10.6-91.82,34.59-129.13v-.38h-37a787,787,0,0,0,0,259Z"/></g><g class="cls-3"><path class="cls-5" d="M1160.92,656.17v-.39c-23.21-37.22-34.59-79.94-34.59-129.13s10.6-91.82,34.59-129.13v-.38h-37a787,787,0,0,0,0,259Z"/></g><path class="cls-6" d="M1127.77,314.12V298.93a5.5,5.5,0,0,1-2.54,1.14v-1.26a5.84,5.84,0,0,0,1.52-.71,4.54,4.54,0,0,0,1.3-1.24h1.19v17.26Z"/><path class="cls-6" d="M1133.26,314.12v-2.34h1.56v2.34Z"/><path class="cls-6" d="M1140.8,314.34q-3.77,0-3.76-5.41V302q0-5.37,3.76-5.37a3.51,3.51,0,0,1,2.73,1,4.44,4.44,0,0,1,.93,3v.17c0,.1,0,.16,0,.17H1143a4.22,4.22,0,0,0-.49-2.35,1.91,1.91,0,0,0-1.68-.7c-1.55,0-2.33,1.23-2.33,3.71v3.26a3.66,3.66,0,0,1,1.13-.72,3.8,3.8,0,0,1,1.51-.3,3,3,0,0,1,2.73,1.2,7.49,7.49,0,0,1,.78,3.95C1144.66,312.58,1143.38,314.34,1140.8,314.34Zm0-1.31a2,2,0,0,0,1.79-.87,5.19,5.19,0,0,0,.57-2.79c0-.52,0-.95,0-1.3s-.06-.7-.11-1.05a3.41,3.41,0,0,0-.24-.84,2.33,2.33,0,0,0-.42-.57,1.45,1.45,0,0,0-.64-.36,3.13,3.13,0,0,0-.92-.11,2.91,2.91,0,0,0-1.29.31,3.49,3.49,0,0,0-1,.68v3a6.19,6.19,0,0,0,.55,3A1.88,1.88,0,0,0,1140.8,313Z"/><path class="cls-6" d="M1149.9,314.12V298.93a5.43,5.43,0,0,1-2.53,1.14v-1.26a5.79,5.79,0,0,0,1.51-.71,4.58,4.58,0,0,0,1.31-1.24h1.19v17.26Z"/><line class="cls-7" x1="1139.53" y1="322.24" x2="1139.53" y2="372.36"/></g></svg>