<svg xmlns="http://www.w3.org/2000/svg" xmlns:xlink="http://www.w3.org/1999/xlink" id="Layer_1"
  data-name="Layer 1" viewBox="0 0 2048 1080">
  <script xmlns="" id="eppiocemhmnlbhjplcgkofciiegomcon" />
  <script xmlns="" />
  <script xmlns="" />
  <defs>
    <style>
      .cls-1{opacity:0;}.cls-2{fill:#fff;}.cls-3{fill:#59c9e6;opacity:0.65;}.cls-3,.cls-4{fill-rule:evenodd;}.cls-4{fill:url(#linear-gradient);}.cls-5{fill:#0b688b;}.cls-6{fill:none;stroke:#0b688b;stroke-miterlimit:10;}</style>
    <linearGradient id="linear-gradient" x1="1115.52" y1="526.65" x2="1150.68" y2="526.65"
      gradientUnits="userSpaceOnUse">
      <stop offset="0" stop-color="#fff" stop-opacity="0" />
      <stop offset="1" stop-color="#aee2fa" />
    </linearGradient>
  </defs>
  <g class="cls-1">
    <rect class="cls-2" width="2048" height="1080" />
  </g>
  <g id="_2_150" data-name="2_150">
    <path class="cls-3"
      d="M1150.68,397.14h-35.16v259h35.16c-16.48-35.68-26.29-80.66-26.29-129.52s9.81-93.82,26.29-129.51Z" />
    <path class="cls-4"
      d="M1150.68,397.14h-35.16v259h35.16c-16.48-35.68-26.29-80.66-26.29-129.52s9.81-93.82,26.29-129.51Z" />
    <path class="cls-5"
      d="M1117.47,314.12V298.93a5.44,5.44,0,0,1-2.54,1.14v-1.26a5.7,5.7,0,0,0,1.52-.71,4.42,4.42,0,0,0,1.3-1.24h1.19v17.26Z" />
    <path class="cls-5" d="M1123,314.12v-2.34h1.56v2.34Z" />
    <path class="cls-5"
      d="M1130.42,314.32a3.23,3.23,0,0,1-2.78-1.17,5.85,5.85,0,0,1-.86-3.48h1.48a5.12,5.12,0,0,0,.5,2.54,1.81,1.81,0,0,0,1.71.86,1.79,1.79,0,0,0,1.79-1.05,8.61,8.61,0,0,0,.48-3.35,8,8,0,0,0-.5-3.35,1.81,1.81,0,0,0-1.74-1,2.4,2.4,0,0,0-2.12,1.44h-1.23v-8.94h6.34l0,1.46h-5l-.08,6a3,3,0,0,1,2.5-1.14,2.68,2.68,0,0,1,2.53,1.36,7.94,7.94,0,0,1,.79,4,8.61,8.61,0,0,1-.88,4.37A3.12,3.12,0,0,1,1130.42,314.32Z" />
    <path class="cls-5"
      d="M1140.1,314.34c-2.58,0-3.88-1.7-3.88-5.1v-7.5c0-3.38,1.3-5.07,3.88-5.07s3.9,1.69,3.9,5.07v7.5Q1144,314.34,1140.1,314.34Zm0-1.26c1.6,0,2.39-1.24,2.39-3.71v-7.75a8,8,0,0,0-.11-1.47A4.64,4.64,0,0,0,1142,299a1.88,1.88,0,0,0-.75-.8,2.52,2.52,0,0,0-2.31,0,1.85,1.85,0,0,0-.74.8,4.05,4.05,0,0,0-.38,1.16,8,8,0,0,0-.11,1.47v7.75Q1137.72,313.07,1140.1,313.08Z" />
    <line class="cls-6" x1="1129.23" y1="322.25" x2="1129.23" y2="372.36" />
  </g>
</svg>