<svg xmlns="http://www.w3.org/2000/svg" xmlns:xlink="http://www.w3.org/1999/xlink" id="Layer_1" data-name="Layer 1" viewBox="0 0 2048 1080"><script xmlns="" id="eppiocemhmnlbhjplcgkofciiegomcon"/><script xmlns=""/><script xmlns=""/><defs><style>.cls-1{opacity:0;}.cls-2{fill:#fff;}.cls-3{fill:#59c9e6;opacity:0.65;}.cls-3,.cls-4{fill-rule:evenodd;}.cls-4{fill:url(#linear-gradient);}.cls-5{fill:#0b688b;}.cls-6{fill:none;stroke:#0b688b;stroke-miterlimit:10;}</style><linearGradient id="linear-gradient" x1="1116.27" y1="526.65" x2="1133.31" y2="526.65" gradientUnits="userSpaceOnUse"><stop offset="0" stop-color="#fff" stop-opacity="0"/><stop offset="1" stop-color="#aee2fa"/></linearGradient></defs><g class="cls-1"><rect class="cls-2" width="2048" height="1080"/></g><g id="_2_174" data-name="2_174"><path class="cls-3" d="M1133.31,397.14H1122c-3.74,41.77-5.72,85.09-5.72,129.51s2,87.75,5.72,129.52h11.32c-8.18-39-12.78-83-12.78-129.52s4.6-90.47,12.78-129.51Z"/><path class="cls-4" d="M1133.31,397.14H1122c-3.74,41.77-5.72,85.09-5.72,129.51s2,87.75,5.72,129.52h11.32c-8.18-39-12.78-83-12.78-129.52s4.6-90.47,12.78-129.51Z"/><path class="cls-5" d="M1117.47,314.12V298.93a5.44,5.44,0,0,1-2.54,1.14v-1.26a5.7,5.7,0,0,0,1.52-.71,4.42,4.42,0,0,0,1.3-1.24h1.19v17.26Z"/><path class="cls-5" d="M1123,314.12v-2.34h1.56v2.34Z"/><path class="cls-5" d="M1128.33,314.12l3.18-16h-4.93v-1.25H1133v.76l-3.23,16.5Z"/><path class="cls-5" d="M1140.05,314.12v-5h-4.91v-1.63l4.6-10.62h1.79v10.79h1.85v1.46h-1.85v5Zm-3.39-6.48h3.39V299Z"/><line class="cls-6" x1="1129.23" y1="322.25" x2="1129.23" y2="372.36"/></g></svg>