<svg xmlns="http://www.w3.org/2000/svg" xmlns:xlink="http://www.w3.org/1999/xlink" id="Layer_1" data-name="Layer 1" viewBox="0 0 2048 1080"><script xmlns="" id="eppiocemhmnlbhjplcgkofciiegomcon"/><script xmlns=""/><script xmlns=""/><defs><style>.cls-1{opacity:0;}.cls-2{fill:#fff;}.cls-3{fill:#59c9e6;opacity:0.65;}.cls-3,.cls-4{fill-rule:evenodd;}.cls-4{fill:url(#linear-gradient);}.cls-5{fill:#0b688b;}.cls-6{fill:none;stroke:#0b688b;stroke-miterlimit:10;}</style><linearGradient id="linear-gradient" x1="1113.17" y1="526.65" x2="1135.51" y2="526.65" gradientUnits="userSpaceOnUse"><stop offset="0" stop-color="#fff" stop-opacity="0"/><stop offset="1" stop-color="#aee2fa"/></linearGradient></defs><g class="cls-1"><rect class="cls-2" width="2048" height="1080"/></g><g id="_2_167" data-name="2_167"><path class="cls-3" d="M1135.51,397.14h-13a903.6,903.6,0,0,0,0,259h13c-10.37-38.17-16.3-82.38-16.3-129.52s5.93-91.35,16.3-129.51Z"/><path class="cls-4" d="M1135.51,397.14h-13a903.6,903.6,0,0,0,0,259h13c-10.37-38.17-16.3-82.38-16.3-129.52s5.93-91.35,16.3-129.51Z"/><path class="cls-5" d="M1118.16,314.12V298.93a5.5,5.5,0,0,1-2.54,1.14v-1.26a5.84,5.84,0,0,0,1.52-.71,4.54,4.54,0,0,0,1.3-1.24h1.19v17.26Z"/><path class="cls-5" d="M1123.65,314.12v-2.34h1.56v2.34Z"/><path class="cls-5" d="M1131.19,314.34q-3.76,0-3.76-5.41V302q0-5.37,3.76-5.37a3.51,3.51,0,0,1,2.73,1,4.44,4.44,0,0,1,.93,3v.17c0,.1,0,.16,0,.17h-1.46a4.22,4.22,0,0,0-.49-2.35,1.91,1.91,0,0,0-1.68-.7c-1.55,0-2.33,1.23-2.33,3.71v3.26a3.66,3.66,0,0,1,1.13-.72,3.8,3.8,0,0,1,1.51-.3,3,3,0,0,1,2.73,1.2,7.49,7.49,0,0,1,.78,3.95C1135.05,312.58,1133.77,314.34,1131.19,314.34Zm0-1.31a2,2,0,0,0,1.79-.87,5.19,5.19,0,0,0,.57-2.79c0-.52,0-.95,0-1.3s-.06-.7-.11-1.05a3.41,3.41,0,0,0-.24-.84,2.33,2.33,0,0,0-.42-.57,1.45,1.45,0,0,0-.64-.36,3.13,3.13,0,0,0-.92-.11,2.91,2.91,0,0,0-1.29.31,3.49,3.49,0,0,0-1,.68v3a6.19,6.19,0,0,0,.55,3A1.88,1.88,0,0,0,1131.19,313Z"/><path class="cls-5" d="M1138.91,314.12l3.17-16h-4.93v-1.25h6.42v.76l-3.23,16.5Z"/><line class="cls-6" x1="1129.92" y1="322.25" x2="1129.92" y2="372.36"/></g></svg>