<svg xmlns="http://www.w3.org/2000/svg" xmlns:xlink="http://www.w3.org/1999/xlink" id="Layer_1" data-name="Layer 1" viewBox="0 0 2048 1080"><script xmlns="" id="eppiocemhmnlbhjplcgkofciiegomcon"/><script xmlns=""/><script xmlns=""/><defs><style>.cls-1{opacity:0;}.cls-2{fill:#fff;}.cls-3{fill:#59c9e6;}.cls-3,.cls-4{fill-rule:evenodd;opacity:0.65;}.cls-4{fill:url(#linear-gradient);}.cls-5{fill:#0b688b;}.cls-6{fill:none;stroke:#0b688b;stroke-miterlimit:10;}</style><linearGradient id="linear-gradient" x1="1113.17" y1="526.65" x2="1154.81" y2="526.65" gradientUnits="userSpaceOnUse"><stop offset="0" stop-color="#fff" stop-opacity="0"/><stop offset="1" stop-color="#aee2fa"/></linearGradient></defs><g class="cls-1"><rect class="cls-2" width="2048" height="1080"/></g><g id="_4_150" data-name="4_150"><path class="cls-3" d="M1154.81,656.17v-.07c-19.48-32.07-31.17-96.61-31.17-141.24s11.69-85.58,31.17-117.65v-.07h-41.64v259Z"/><path class="cls-4" d="M1154.81,656.17v-.07c-19.48-32.07-31.17-96.61-31.17-141.24s11.69-85.58,31.17-117.65v-.07h-41.64v259Z"/><path class="cls-5" d="M1120.17,314.12V298.93a5.5,5.5,0,0,1-2.54,1.14v-1.26a5.84,5.84,0,0,0,1.52-.71,4.54,4.54,0,0,0,1.3-1.24h1.19v17.26Z"/><path class="cls-5" d="M1125.66,314.12v-2.34h1.56v2.34Z"/><path class="cls-5" d="M1133.12,314.32a3.22,3.22,0,0,1-2.78-1.17,5.85,5.85,0,0,1-.86-3.48H1131a5.11,5.11,0,0,0,.51,2.54,2.09,2.09,0,0,0,3.5-.19,8.65,8.65,0,0,0,.47-3.35,7.84,7.84,0,0,0-.5-3.35,1.79,1.79,0,0,0-1.74-1,2.39,2.39,0,0,0-2.11,1.44h-1.24v-8.94h6.35l0,1.46h-5l-.08,6a3,3,0,0,1,2.5-1.14,2.69,2.69,0,0,1,2.53,1.36,7.94,7.94,0,0,1,.79,4,8.6,8.6,0,0,1-.89,4.37A3.1,3.1,0,0,1,1133.12,314.32Z"/><path class="cls-5" d="M1142.8,314.34q-3.88,0-3.88-5.1v-7.5q0-5.07,3.88-5.07c2.6,0,3.89,1.69,3.89,5.07v7.5C1146.69,312.64,1145.4,314.34,1142.8,314.34Zm0-1.26q2.39,0,2.39-3.71v-7.75a9,9,0,0,0-.11-1.47,4.27,4.27,0,0,0-.38-1.16,1.8,1.8,0,0,0-.74-.8,2.34,2.34,0,0,0-1.16-.28,2.3,2.3,0,0,0-1.15.28,1.8,1.8,0,0,0-.74.8,3.77,3.77,0,0,0-.38,1.16,8,8,0,0,0-.11,1.47v7.75Q1140.42,313.07,1142.8,313.08Z"/><line class="cls-6" x1="1131.93" y1="322.25" x2="1131.93" y2="372.36"/></g></svg>