<svg xmlns="http://www.w3.org/2000/svg" xmlns:xlink="http://www.w3.org/1999/xlink" id="Layer_1" data-name="Layer 1" viewBox="0 0 2048 1080"><script xmlns="" id="eppiocemhmnlbhjplcgkofciiegomcon"/><script xmlns=""/><script xmlns=""/><defs><style>.cls-1{opacity:0;}.cls-2{fill:#fff;}.cls-3{fill:#59c9e6;}.cls-3,.cls-4{fill-rule:evenodd;opacity:0.65;}.cls-4{fill:url(#linear-gradient);}.cls-5{fill:#0b688b;}.cls-6{fill:none;stroke:#0b688b;stroke-miterlimit:10;}</style><linearGradient id="linear-gradient" x1="1118.22" y1="526.65" x2="1136.09" y2="526.65" gradientUnits="userSpaceOnUse"><stop offset="0" stop-color="#fff" stop-opacity="0"/><stop offset="1" stop-color="#aee2fa"/></linearGradient></defs><g class="cls-1"><rect class="cls-2" width="2048" height="1080"/></g><g id="_4_167" data-name="4_167"><path class="cls-3" d="M1136.09,397.14h-13.47c-2.87,38.1-4.4,77.45-4.4,117.72s1.53,103.21,4.4,141.31h13.47c-8.36-35.11-13.09-98.75-13.09-141.31s4.73-82.61,13.09-117.72Z"/><path class="cls-4" d="M1136.09,397.14h-13.47c-2.87,38.1-4.4,77.45-4.4,117.72s1.53,103.21,4.4,141.31h13.47c-8.36-35.11-13.09-98.75-13.09-141.31s4.73-82.61,13.09-117.72Z"/><path class="cls-5" d="M1117.47,314.12V298.93a5.44,5.44,0,0,1-2.54,1.14v-1.26a5.7,5.7,0,0,0,1.52-.71,4.42,4.42,0,0,0,1.3-1.24h1.19v17.26Z"/><path class="cls-5" d="M1123,314.12v-2.34h1.56v2.34Z"/><path class="cls-5" d="M1130.51,314.34q-3.77,0-3.77-5.41V302q0-5.37,3.77-5.37a3.54,3.54,0,0,1,2.73,1,4.44,4.44,0,0,1,.92,3s0,.06,0,.17V301h-1.45a4.21,4.21,0,0,0-.5-2.35,1.9,1.9,0,0,0-1.67-.7c-1.56,0-2.33,1.23-2.33,3.71v3.26a3.49,3.49,0,0,1,1.12-.72,3.8,3.8,0,0,1,1.51-.3,3,3,0,0,1,2.74,1.2,7.49,7.49,0,0,1,.78,3.95Q1134.37,314.33,1130.51,314.34Zm0-1.31a2,2,0,0,0,1.78-.87,5.19,5.19,0,0,0,.57-2.79c0-.52,0-.95,0-1.3a7.48,7.48,0,0,0-.11-1.05,2.72,2.72,0,0,0-.24-.84,1.91,1.91,0,0,0-.42-.57,1.39,1.39,0,0,0-.64-.36,3.11,3.11,0,0,0-.91-.11,2.92,2.92,0,0,0-1.3.31,3.42,3.42,0,0,0-1,.68v3a6.07,6.07,0,0,0,.55,3A1.86,1.86,0,0,0,1130.51,313Z"/><path class="cls-5" d="M1138.22,314.12l3.17-16h-4.93v-1.25h6.43v.76l-3.24,16.5Z"/><line class="cls-6" x1="1129.23" y1="322.25" x2="1129.23" y2="372.36"/></g></svg>