<svg xmlns="http://www.w3.org/2000/svg" xmlns:xlink="http://www.w3.org/1999/xlink" id="Layer_1" data-name="Layer 1" viewBox="0 0 2048 1080"><script xmlns="" id="eppiocemhmnlbhjplcgkofciiegomcon"/><script xmlns=""/><script xmlns=""/><defs><style>.cls-1{opacity:0;}.cls-2{fill:#fff;}.cls-3{fill:#0b688b;}.cls-4{fill:none;stroke:#0b688b;stroke-miterlimit:10;}.cls-5{opacity:0.65;}.cls-6{fill:#59c9e6;}.cls-6,.cls-7{fill-rule:evenodd;}.cls-7{fill:url(#linear-gradient);}</style><linearGradient id="linear-gradient" x1="1117.01" y1="526.65" x2="1139.24" y2="526.65" gradientUnits="userSpaceOnUse"><stop offset="0" stop-color="#fff" stop-opacity="0"/><stop offset="1" stop-color="#aee2fa"/></linearGradient></defs><g class="cls-1"><rect class="cls-2" width="2048" height="1080"/></g><g id="_6_174" data-name="6_174"><path class="cls-3" d="M1117.47,314.12V298.93a5.44,5.44,0,0,1-2.54,1.14v-1.26a5.7,5.7,0,0,0,1.52-.71,4.42,4.42,0,0,0,1.3-1.24h1.19v17.26Z"/><path class="cls-3" d="M1123,314.12v-2.34h1.56v2.34Z"/><path class="cls-3" d="M1128.33,314.12l3.18-16h-4.93v-1.25H1133v.76l-3.23,16.5Z"/><path class="cls-3" d="M1140.05,314.12v-5h-4.91v-1.63l4.6-10.62h1.79v10.79h1.85v1.46h-1.85v5Zm-3.39-6.48h3.39V299Z"/><line class="cls-4" x1="1129.23" y1="322.25" x2="1129.23" y2="372.36"/><g class="cls-5"><path class="cls-6" d="M1139.24,397.14H1120.3q-3.22,63.53-3.29,129.51t3.29,129.52h18.94c-10.59-38.87-16.56-82.87-16.56-129.52s6-90.64,16.56-129.51Z"/></g><g class="cls-5"><path class="cls-7" d="M1139.24,397.14H1120.3q-3.22,63.53-3.29,129.51t3.29,129.52h18.94c-10.59-38.87-16.56-82.87-16.56-129.52s6-90.64,16.56-129.51Z"/></g></g></svg>