<svg xmlns="http://www.w3.org/2000/svg" xmlns:xlink="http://www.w3.org/1999/xlink" id="Layer_1" data-name="Layer 1" viewBox="0 0 2048 1080"><script xmlns="" id="eppiocemhmnlbhjplcgkofciiegomcon"/><script xmlns=""/><script xmlns=""/><defs><style>.cls-1{opacity:0;}.cls-2{fill:#fff;}.cls-3{fill:#0b688b;}.cls-4{fill:none;stroke:#0b688b;stroke-miterlimit:10;}.cls-5{fill:#59c9e6;}.cls-5,.cls-6{fill-rule:evenodd;opacity:0.65;}.cls-6{fill:url(#linear-gradient);}</style><linearGradient id="linear-gradient" x1="1114.57" y1="526.65" x2="1144.24" y2="526.65" gradientUnits="userSpaceOnUse"><stop offset="0" stop-color="#fff" stop-opacity="0"/><stop offset="1" stop-color="#aee2fa"/></linearGradient></defs><g class="cls-1"><rect class="cls-2" width="2048" height="1080"/></g><g id="_6_167" data-name="6_167"><path class="cls-3" d="M1117.47,314.12V298.94a5.58,5.58,0,0,1-2.54,1.13v-1.26a5.7,5.7,0,0,0,1.52-.71,4.42,4.42,0,0,0,1.3-1.24h1.19v17.26Z"/><path class="cls-3" d="M1123,314.12v-2.34h1.56v2.34Z"/><path class="cls-3" d="M1130.51,314.34q-3.77,0-3.77-5.41V302c0-3.58,1.26-5.36,3.77-5.36a3.51,3.51,0,0,1,2.73,1,4.39,4.39,0,0,1,.92,3s0,.07,0,.17V301h-1.45a4.21,4.21,0,0,0-.5-2.35,1.9,1.9,0,0,0-1.67-.7c-1.56,0-2.33,1.24-2.33,3.71v3.26a3.49,3.49,0,0,1,1.12-.72,3.8,3.8,0,0,1,1.51-.3,3,3,0,0,1,2.74,1.2,7.54,7.54,0,0,1,.78,3.95C1134.37,312.59,1133.08,314.34,1130.51,314.34Zm0-1.31a2,2,0,0,0,1.78-.86,5.24,5.24,0,0,0,.57-2.79c0-.52,0-1,0-1.31a7.48,7.48,0,0,0-.11-1.05,2.65,2.65,0,0,0-.24-.83,1.83,1.83,0,0,0-.42-.58,1.39,1.39,0,0,0-.64-.36,3.49,3.49,0,0,0-.91-.11,2.92,2.92,0,0,0-1.3.31,3.63,3.63,0,0,0-1,.68v3a6,6,0,0,0,.55,3A1.86,1.86,0,0,0,1130.51,313Z"/><path class="cls-3" d="M1138.22,314.12l3.17-16h-4.93v-1.25h6.43v.76l-3.24,16.5Z"/><line class="cls-4" x1="1129.23" y1="322.25" x2="1129.23" y2="372.36"/><path class="cls-5" d="M1144.24,397.14h-22.82a1227.81,1227.81,0,0,0,0,259h22.82c-13.91-37.8-21.91-82.11-21.91-129.52s8-91.71,21.91-129.51Z"/><path class="cls-6" d="M1144.24,397.14h-22.82a1227.81,1227.81,0,0,0,0,259h22.82c-13.91-37.8-21.91-82.11-21.91-129.52s8-91.71,21.91-129.51Z"/></g></svg>