<svg xmlns="http://www.w3.org/2000/svg" xmlns:xlink="http://www.w3.org/1999/xlink" id="Layer_1" data-name="Layer 1" viewBox="0 0 2048 1080"><script xmlns="" id="eppiocemhmnlbhjplcgkofciiegomcon"/><script xmlns=""/><script xmlns=""/><defs><style>.cls-1{opacity:0;}.cls-2{fill:#fff;}.cls-3{fill:#0b688b;}.cls-4{fill:none;stroke:#0b688b;stroke-miterlimit:10;}.cls-5{opacity:0.65;}.cls-6{fill:#59c9e6;}.cls-6,.cls-7{fill-rule:evenodd;}.cls-7{fill:url(#linear-gradient);}</style><linearGradient id="linear-gradient" x1="1113.17" y1="526.34" x2="1158.56" y2="526.34" gradientUnits="userSpaceOnUse"><stop offset="0" stop-color="#fff" stop-opacity="0"/><stop offset="1" stop-color="#aee2fa"/></linearGradient></defs><g class="cls-1"><rect class="cls-2" width="2048" height="1080"/></g><g id="_6_150" data-name="6_150"><path class="cls-3" d="M1124.31,314.17V298.94a5.5,5.5,0,0,1-2.54,1.14v-1.26a5.9,5.9,0,0,0,1.52-.72,4.45,4.45,0,0,0,1.31-1.24h1.19v17.31Z"/><path class="cls-3" d="M1129.81,314.17v-2.35h1.57v2.35Z"/><path class="cls-3" d="M1137.29,314.36a3.22,3.22,0,0,1-2.78-1.17,5.79,5.79,0,0,1-.86-3.49h1.47a5.13,5.13,0,0,0,.51,2.55,1.81,1.81,0,0,0,1.71.86,1.8,1.8,0,0,0,1.8-1.05,8.74,8.74,0,0,0,.47-3.36,7.81,7.81,0,0,0-.5-3.35,1.78,1.78,0,0,0-1.74-1,2.4,2.4,0,0,0-2.12,1.45H1134v-9h6.36l0,1.47h-5l-.08,6a2.93,2.93,0,0,1,2.5-1.15,2.7,2.7,0,0,1,2.54,1.36,8,8,0,0,1,.79,4,8.65,8.65,0,0,1-.88,4.38A3.14,3.14,0,0,1,1137.29,314.36Z"/><path class="cls-3" d="M1147,314.38q-3.88,0-3.89-5.11v-7.51q0-5.08,3.89-5.08t3.9,5.08v7.51Q1150.9,314.39,1147,314.38Zm0-1.26c1.6,0,2.39-1.24,2.39-3.71v-7.78a8.15,8.15,0,0,0-.11-1.47,4.26,4.26,0,0,0-.37-1.16,1.88,1.88,0,0,0-.75-.8,2.54,2.54,0,0,0-2.32,0,2,2,0,0,0-.74.79,4.23,4.23,0,0,0-.38,1.17,9.09,9.09,0,0,0-.11,1.47v7.78Q1144.61,313.12,1147,313.12Z"/><line class="cls-4" x1="1136.1" y1="322.31" x2="1136.1" y2="372.55"/><g class="cls-5"><path class="cls-6" d="M1113.17,526.34A1218.72,1218.72,0,0,1,1120,396.51h38.53c-19.71,36-31.45,81-31.45,129.83s11.74,93.84,31.45,129.83H1120a1218.44,1218.44,0,0,1-6.86-129.83Z"/></g><g class="cls-5"><path class="cls-7" d="M1113.17,526.34A1218.72,1218.72,0,0,1,1120,396.51h38.53c-19.71,36-31.45,81-31.45,129.83s11.74,93.84,31.45,129.83H1120a1218.44,1218.44,0,0,1-6.86-129.83Z"/></g></g></svg>