<svg xmlns="http://www.w3.org/2000/svg" xmlns:xlink="http://www.w3.org/1999/xlink" id="Layer_1" data-name="Layer 1" viewBox="0 0 2048 1080"><script xmlns="" id="eppiocemhmnlbhjplcgkofciiegomcon"/><script xmlns=""/><script xmlns=""/><defs><style>.cls-1{opacity:0;}.cls-2{fill:#fff;}.cls-3{fill:#0b688b;}.cls-4{fill:none;stroke:#0b688b;stroke-miterlimit:10;}.cls-5{opacity:0.65;}.cls-6{fill:#59c9e6;}.cls-6,.cls-7{fill-rule:evenodd;}.cls-7{fill:url(#linear-gradient);}</style><linearGradient id="linear-gradient" x1="1113.17" y1="526.65" x2="1150.69" y2="526.65" gradientUnits="userSpaceOnUse"><stop offset="0" stop-color="#fff" stop-opacity="0"/><stop offset="1" stop-color="#aee2fa"/></linearGradient></defs><g class="cls-1"><rect class="cls-2" width="2048" height="1080"/></g><g id="_6_161" data-name="6_161"><path class="cls-3" d="M1118,314.12V298.93a5.43,5.43,0,0,1-2.53,1.14v-1.26a5.79,5.79,0,0,0,1.51-.71,4.58,4.58,0,0,0,1.31-1.24h1.18v17.26Z"/><path class="cls-3" d="M1123.53,314.12v-2.34h1.56v2.34Z"/><path class="cls-3" d="M1131.08,314.34q-3.76,0-3.76-5.41V302c0-3.58,1.25-5.36,3.76-5.36a3.48,3.48,0,0,1,2.73,1,4.39,4.39,0,0,1,.92,3s0,.07,0,.17V301h-1.45a4.21,4.21,0,0,0-.5-2.35,1.9,1.9,0,0,0-1.67-.7q-2.32,0-2.33,3.71v3.26a3.61,3.61,0,0,1,1.12-.72,3.8,3.8,0,0,1,1.51-.3,3,3,0,0,1,2.74,1.2,7.51,7.51,0,0,1,.78,3.95Q1134.94,314.33,1131.08,314.34Zm0-1.31a2,2,0,0,0,1.79-.86,5.24,5.24,0,0,0,.57-2.79c0-.53,0-1,0-1.31a9.38,9.38,0,0,0-.12-1.05,2.65,2.65,0,0,0-.24-.83,2,2,0,0,0-.41-.58,1.48,1.48,0,0,0-.65-.36,3.43,3.43,0,0,0-.91-.11,2.91,2.91,0,0,0-1.29.31,3.49,3.49,0,0,0-1,.68v3a6.05,6.05,0,0,0,.55,3A1.88,1.88,0,0,0,1131.08,313Z"/><path class="cls-3" d="M1140.18,314.12V298.93a5.5,5.5,0,0,1-2.54,1.14v-1.26a5.84,5.84,0,0,0,1.52-.71,4.54,4.54,0,0,0,1.3-1.24h1.19v17.26Z"/><line class="cls-4" x1="1129.8" y1="322.24" x2="1129.8" y2="372.36"/><g class="cls-5"><path class="cls-6" d="M1150.69,656.17v0c-17.9-36.47-28.45-81.17-28.45-129.47s10.55-93,28.45-129.45v-.06H1120a1229.6,1229.6,0,0,0,0,259Z"/></g><g class="cls-5"><path class="cls-7" d="M1150.69,656.17v0c-17.9-36.47-28.45-81.17-28.45-129.47s10.55-93,28.45-129.45v-.06H1120a1229.6,1229.6,0,0,0,0,259Z"/></g></g></svg>