<svg xmlns="http://www.w3.org/2000/svg" xmlns:xlink="http://www.w3.org/1999/xlink" id="Layer_1" data-name="Layer 1" viewBox="0 0 2048 1080"><script xmlns="" id="eppiocemhmnlbhjplcgkofciiegomcon"/><script xmlns=""/><script xmlns=""/><defs><style>.cls-1{opacity:0;}.cls-2{fill:#fff;}.cls-3{fill:#0b688b;}.cls-4{fill:none;stroke:#0b688b;stroke-miterlimit:10;}.cls-5{opacity:0.65;}.cls-6{fill:#59c9e6;}.cls-6,.cls-7{fill-rule:evenodd;}.cls-7{fill:url(#linear-gradient);}</style><linearGradient id="linear-gradient" x1="1113.17" y1="526.41" x2="1158.78" y2="526.41" gradientUnits="userSpaceOnUse"><stop offset="0" stop-color="#fff" stop-opacity="0"/><stop offset="1" stop-color="#aee2fa"/></linearGradient></defs><g class="cls-1"><rect class="cls-2" width="2048" height="1080"/></g><g id="_6_156" data-name="6_156"><path class="cls-3" d="M1125.28,314.16V298.94a5.5,5.5,0,0,1-2.54,1.14v-1.26a5.9,5.9,0,0,0,1.52-.72,4.42,4.42,0,0,0,1.31-1.23h1.19v17.29Z"/><path class="cls-3" d="M1130.78,314.16v-2.35h1.57v2.35Z"/><path class="cls-3" d="M1138.25,314.36a3.23,3.23,0,0,1-2.78-1.17,5.92,5.92,0,0,1-.86-3.5h1.48a5.25,5.25,0,0,0,.5,2.55,1.82,1.82,0,0,0,1.71.86,1.8,1.8,0,0,0,1.8-1.05,8.64,8.64,0,0,0,.48-3.36,8,8,0,0,0-.5-3.35,1.82,1.82,0,0,0-1.75-1,2.39,2.39,0,0,0-2.11,1.45H1135v-8.95h6.35l0,1.46h-5l-.08,6a2.94,2.94,0,0,1,2.5-1.14,2.71,2.71,0,0,1,2.54,1.36,8.08,8.08,0,0,1,.78,4,8.65,8.65,0,0,1-.88,4.38A3.11,3.11,0,0,1,1138.25,314.36Z"/><path class="cls-3" d="M1148.1,314.38c-2.52,0-3.77-1.81-3.77-5.43v-6.9c0-3.58,1.25-5.37,3.77-5.37a3.48,3.48,0,0,1,2.73,1,4.39,4.39,0,0,1,.93,3v.17c0,.1,0,.16,0,.17h-1.46a4.26,4.26,0,0,0-.49-2.36,2,2,0,0,0-1.68-.7q-2.34,0-2.34,3.72V305a3.66,3.66,0,0,1,1.13-.72,3.8,3.8,0,0,1,1.51-.3,3,3,0,0,1,2.74,1.2,7.44,7.44,0,0,1,.79,4Q1152,314.38,1148.1,314.38Zm0-1.32a2,2,0,0,0,1.79-.86,5.26,5.26,0,0,0,.57-2.8c0-.52,0-1,0-1.31s-.06-.7-.11-1a3.32,3.32,0,0,0-.24-.83,2.21,2.21,0,0,0-.42-.58,1.48,1.48,0,0,0-.65-.36,3.06,3.06,0,0,0-.91-.11,3,3,0,0,0-1.3.31,3.49,3.49,0,0,0-1,.68v3a6,6,0,0,0,.56,3A1.86,1.86,0,0,0,1148.1,313.06Z"/><line class="cls-4" x1="1137.06" y1="322.29" x2="1137.06" y2="372.5"/><g class="cls-5"><path class="cls-6" d="M1158.78,396.64H1120a1232.55,1232.55,0,0,0,0,259.53h38.76c-21.51-35.36-34.4-80.54-34.4-129.76s12.89-94.41,34.4-129.77Z"/></g><g class="cls-5"><path class="cls-7" d="M1158.78,396.64H1120a1232.55,1232.55,0,0,0,0,259.53h38.76c-21.51-35.36-34.4-80.54-34.4-129.76s12.89-94.41,34.4-129.77Z"/></g></g></svg>