<svg xmlns="http://www.w3.org/2000/svg" xmlns:xlink="http://www.w3.org/1999/xlink" id="Layer_1" data-name="Layer 1" viewBox="0 0 2048 1080"><script xmlns="" id="eppiocemhmnlbhjplcgkofciiegomcon"/><script xmlns=""/><script xmlns=""/><defs><style>.cls-1{opacity:0;}.cls-2{fill:#fff;}.cls-3{fill:#59c9e6;opacity:0.65;}.cls-3,.cls-4{fill-rule:evenodd;}.cls-4{fill:url(#linear-gradient);}.cls-5{fill:#0b688b;}.cls-6{fill:none;stroke:#0b688b;stroke-miterlimit:10;}</style><linearGradient id="linear-gradient" x1="1113.17" y1="531.56" x2="1132.31" y2="531.56" gradientUnits="userSpaceOnUse"><stop offset="0" stop-color="#fff" stop-opacity="0"/><stop offset="1" stop-color="#aee2fa"/></linearGradient></defs><g class="cls-1"><rect class="cls-2" width="2048" height="1080"/></g><g id="_2_167" data-name="+2_167"><path class="cls-3" d="M1132.31,402h-2.17c-10.83,38.76-17,82.8-17,129.52s6.14,90.76,17,129.51h2.17c-5.79-37.71-9.12-82.06-9.12-129.51s3.33-91.78,9.12-129.52Z"/><path class="cls-4" d="M1132.31,402h-2.17c-10.83,38.76-17,82.8-17,129.52s6.14,90.76,17,129.51h2.17c-5.79-37.71-9.12-82.06-9.12-129.51s3.33-91.78,9.12-129.52Z"/><path class="cls-5" d="M1120.47,319V303.84a5.51,5.51,0,0,1-2.53,1.13v-1.26a5.84,5.84,0,0,0,1.52-.71,4.38,4.38,0,0,0,1.3-1.23H1122V319Z"/><path class="cls-5" d="M1126,319v-2.35h1.56V319Z"/><path class="cls-5" d="M1133.51,319.24q-3.77,0-3.76-5.41v-6.89q0-5.35,3.76-5.36a3.48,3.48,0,0,1,2.73,1,4.42,4.42,0,0,1,.93,3v.16a1.33,1.33,0,0,0,0,.17h-1.46a4.22,4.22,0,0,0-.49-2.35,1.91,1.91,0,0,0-1.68-.7q-2.33,0-2.33,3.72v3.25a3.71,3.71,0,0,1,1.13-.71,3.64,3.64,0,0,1,1.51-.31,3,3,0,0,1,2.73,1.2,7.55,7.55,0,0,1,.78,4C1137.37,317.49,1136.09,319.24,1133.51,319.24Zm0-1.31a2,2,0,0,0,1.79-.86,5.24,5.24,0,0,0,.57-2.79c0-.52,0-1,0-1.31s-.06-.7-.11-1a3.28,3.28,0,0,0-.24-.84,2.33,2.33,0,0,0-.42-.57,1.46,1.46,0,0,0-.64-.37,3.51,3.51,0,0,0-.92-.11,3.05,3.05,0,0,0-1.29.31,3.7,3.7,0,0,0-1,.68v3a6.21,6.21,0,0,0,.55,3A1.89,1.89,0,0,0,1133.51,317.93Z"/><path class="cls-5" d="M1141.22,319l3.18-16h-4.93v-1.25h6.42v.76l-3.23,16.5Z"/><line class="cls-6" x1="1132.24" y1="327.15" x2="1132.24" y2="377.26"/></g></svg>