<svg xmlns="http://www.w3.org/2000/svg" xmlns:xlink="http://www.w3.org/1999/xlink" id="Layer_1" data-name="Layer 1" viewBox="0 0 2048 1080"><script xmlns="" id="eppiocemhmnlbhjplcgkofciiegomcon"/><script xmlns=""/><script xmlns=""/><defs><style>.cls-1{opacity:0;}.cls-2{fill:#fff;}.cls-3{fill:#59c9e6;}.cls-3,.cls-4{fill-rule:evenodd;opacity:0.65;}.cls-4{fill:url(#linear-gradient);}.cls-5{fill:#0b688b;}.cls-6{fill:none;stroke:#0b688b;stroke-miterlimit:10;}</style><linearGradient id="linear-gradient" x1="1113.17" y1="531.56" x2="1132.77" y2="531.56" gradientUnits="userSpaceOnUse"><stop offset="0" stop-color="#fff" stop-opacity="0"/><stop offset="1" stop-color="#aee2fa"/></linearGradient></defs><g class="cls-1"><rect class="cls-2" width="2048" height="1080"/></g><g id="_4_167" data-name="+4_167"><path class="cls-3" d="M1132.77,402h-.18c-12.37,38.36-19.42,82.69-19.42,129.89,0,46.91,7,91,19.18,129.14h.37c-2.72-40-4.21-83.59-4.21-129.14,0-45.83,1.5-89.63,4.26-129.89Z"/><path class="cls-4" d="M1132.77,402h-.18c-12.37,38.36-19.42,82.69-19.42,129.89,0,46.91,7,91,19.18,129.14h.37c-2.72-40-4.21-83.59-4.21-129.14,0-45.83,1.5-89.63,4.26-129.89Z"/><path class="cls-5" d="M1119.24,319V303.84a5.58,5.58,0,0,1-2.53,1.13v-1.26a5.79,5.79,0,0,0,1.51-.71,4.27,4.27,0,0,0,1.3-1.23h1.19V319Z"/><path class="cls-5" d="M1124.73,319v-2.35h1.56V319Z"/><path class="cls-5" d="M1132.28,319.24q-3.77,0-3.77-5.41v-6.89q0-5.35,3.77-5.36a3.48,3.48,0,0,1,2.73,1,4.42,4.42,0,0,1,.92,3s0,.06,0,.16v.17h-1.45a4.21,4.21,0,0,0-.5-2.35,1.9,1.9,0,0,0-1.67-.7c-1.56,0-2.33,1.24-2.33,3.72v3.25a4,4,0,0,1,2.63-1,3,3,0,0,1,2.74,1.2,7.55,7.55,0,0,1,.78,4Q1136.14,319.25,1132.28,319.24Zm0-1.31a2,2,0,0,0,1.78-.86,5.24,5.24,0,0,0,.57-2.79c0-.52,0-1,0-1.31a8.94,8.94,0,0,0-.12-1,2.64,2.64,0,0,0-.24-.84,1.91,1.91,0,0,0-.42-.57,1.41,1.41,0,0,0-.64-.37,3.49,3.49,0,0,0-.91-.11,3.06,3.06,0,0,0-1.3.31,3.63,3.63,0,0,0-1,.68v3a6.1,6.1,0,0,0,.55,3A1.87,1.87,0,0,0,1132.28,317.93Z"/><path class="cls-5" d="M1140,319l3.17-16h-4.93v-1.25h6.43v.76l-3.24,16.5Z"/><line class="cls-6" x1="1131" y1="327.15" x2="1131" y2="377.26"/></g></svg>