<svg xmlns="http://www.w3.org/2000/svg" xmlns:xlink="http://www.w3.org/1999/xlink" id="Layer_1" data-name="Layer 1" viewBox="0 0 2048 1080"><script xmlns="" id="eppiocemhmnlbhjplcgkofciiegomcon"/><script xmlns=""/><script xmlns=""/><defs><style>.cls-1{opacity:0;}.cls-2{fill:#fff;}.cls-3{fill:#59c9e6;}.cls-3,.cls-4{fill-rule:evenodd;opacity:0.65;}.cls-4{fill:url(#linear-gradient);}.cls-5{fill:#0b688b;}.cls-6{fill:none;stroke:#0b688b;stroke-miterlimit:10;}</style><linearGradient id="linear-gradient" x1="1115.68" y1="531.56" x2="1129.23" y2="531.56" gradientUnits="userSpaceOnUse"><stop offset="0" stop-color="#fff" stop-opacity="0"/><stop offset="1" stop-color="#aee2fa"/></linearGradient></defs><g class="cls-1"><rect class="cls-2" width="2048" height="1080"/></g><g id="_4_174" data-name="+4_174"><path class="cls-3" d="M1129.23,402h-.14c-8.61,39.6-13.41,83.58-13.41,129.89,0,46,4.73,89.75,13.25,129.14h.25c-2.71-40-4.2-83.59-4.2-129.14,0-45.83,1.51-89.63,4.25-129.89Z"/><path class="cls-4" d="M1129.23,402h-.14c-8.61,39.6-13.41,83.58-13.41,129.89,0,46,4.73,89.75,13.25,129.14h.25c-2.71-40-4.2-83.59-4.2-129.14,0-45.83,1.51-89.63,4.25-129.89Z"/><path class="cls-5" d="M1117.47,319V303.84a5.58,5.58,0,0,1-2.54,1.13v-1.26a5.7,5.7,0,0,0,1.52-.71,4.27,4.27,0,0,0,1.3-1.23h1.19V319Z"/><path class="cls-5" d="M1123,319v-2.35h1.56V319Z"/><path class="cls-5" d="M1128.33,319l3.18-16h-4.93v-1.25H1133v.76l-3.23,16.5Z"/><path class="cls-5" d="M1140.05,319v-5h-4.91v-1.64l4.6-10.61h1.79v10.78h1.85V314h-1.85v5Zm-3.39-6.49h3.39v-8.67Z"/><line class="cls-6" x1="1129.23" y1="327.15" x2="1129.23" y2="377.26"/></g></svg>