<svg xmlns="http://www.w3.org/2000/svg" xmlns:xlink="http://www.w3.org/1999/xlink" id="Layer_1" data-name="Layer 1" viewBox="0 0 2048 1080"><script xmlns="" id="eppiocemhmnlbhjplcgkofciiegomcon"/><script xmlns=""/><script xmlns=""/><defs><style>.cls-1{opacity:0;}.cls-2{fill:#fff;}.cls-3{fill:#59c9e6;}.cls-3,.cls-4{fill-rule:evenodd;opacity:0.65;}.cls-4{fill:url(#linear-gradient);}.cls-5{fill:#0b688b;}.cls-6{fill:none;stroke:#0b688b;stroke-miterlimit:10;}</style><linearGradient id="linear-gradient" x1="1113.17" y1="531.56" x2="1152.12" y2="531.56" gradientUnits="userSpaceOnUse"><stop offset="0" stop-color="#fff" stop-opacity="0"/><stop offset="1" stop-color="#aee2fa"/></linearGradient></defs><g class="cls-1"><rect class="cls-2" width="2048" height="1080"/></g><g id="_6_150" data-name="+6_150"><path class="cls-3" d="M1152.12,402h-2.5c-22.72,34.78-36.45,80-36.45,129.52s13.73,94.73,36.45,129.51h2.5c-5.59-37.87-8.82-82.17-8.82-129.51s3.23-91.64,8.82-129.52Z"/><path class="cls-4" d="M1152.12,402h-2.5c-22.72,34.78-36.45,80-36.45,129.52s13.73,94.73,36.45,129.51h2.5c-5.59-37.87-8.82-82.17-8.82-129.51s3.23-91.64,8.82-129.52Z"/><path class="cls-5" d="M1128.91,317.67V302.48a5.46,5.46,0,0,1-2.53,1.13v-1.26a5.84,5.84,0,0,0,1.52-.71,4.38,4.38,0,0,0,1.3-1.23h1.19v17.26Z"/><path class="cls-5" d="M1134.41,317.67v-2.35H1136v2.35Z"/><path class="cls-5" d="M1141.86,317.86a3.19,3.19,0,0,1-2.77-1.16,5.81,5.81,0,0,1-.86-3.49h1.47a5.18,5.18,0,0,0,.5,2.54,1.82,1.82,0,0,0,1.71.87,1.78,1.78,0,0,0,1.79-1.06,8.58,8.58,0,0,0,.48-3.35,8,8,0,0,0-.5-3.34,1.8,1.8,0,0,0-1.74-1,2.39,2.39,0,0,0-2.11,1.45h-1.24v-8.94h6.35l0,1.46h-5l-.08,6a2.93,2.93,0,0,1,2.49-1.14,2.71,2.71,0,0,1,2.54,1.35,8.11,8.11,0,0,1,.78,4,8.65,8.65,0,0,1-.88,4.38A3.1,3.1,0,0,1,1141.86,317.86Z"/><path class="cls-5" d="M1151.55,317.89q-3.88,0-3.88-5.11v-7.49q0-5.07,3.88-5.07t3.89,5.07v7.49Q1155.44,317.9,1151.55,317.89Zm0-1.26q2.39,0,2.39-3.71v-7.75a7.94,7.94,0,0,0-.12-1.47,4.15,4.15,0,0,0-.37-1.16,1.88,1.88,0,0,0-.74-.81,2.63,2.63,0,0,0-2.32,0,2,2,0,0,0-.74.8,4.65,4.65,0,0,0-.38,1.16,9.22,9.22,0,0,0-.11,1.48v7.75Q1149.16,316.63,1151.55,316.63Z"/><line class="cls-6" x1="1140.67" y1="327.15" x2="1140.67" y2="377.26"/></g></svg>