<svg xmlns="http://www.w3.org/2000/svg" xmlns:xlink="http://www.w3.org/1999/xlink" id="Layer_1" data-name="Layer 1" viewBox="0 0 2048 1080"><script xmlns="" id="eppiocemhmnlbhjplcgkofciiegomcon"/><script xmlns=""/><script xmlns=""/><defs><style>.cls-1{opacity:0;}.cls-2{fill:#fff;}.cls-3{fill:#59c9e6;}.cls-3,.cls-4{fill-rule:evenodd;opacity:0.65;}.cls-4{fill:url(#linear-gradient);}.cls-5{fill:#0b688b;}.cls-6{fill:none;stroke:#0b688b;stroke-miterlimit:10;}</style><linearGradient id="linear-gradient" x1="1117.1" y1="531.56" x2="1141.37" y2="531.56" gradientUnits="userSpaceOnUse"><stop offset="0" stop-color="#fff" stop-opacity="0"/><stop offset="1" stop-color="#aee2fa"/></linearGradient></defs><g class="cls-1"><rect class="cls-2" width="2048" height="1080"/></g><g id="_6_167" data-name="+6_167"><path class="cls-3" d="M1141.37,402H1141c-15.15,37.34-23.93,81.81-23.93,129.52s8.78,92.18,23.93,129.51h.34c-3-39.92-4.69-83.65-4.69-129.51s1.67-89.58,4.69-129.52Z"/><path class="cls-4" d="M1141.37,402H1141c-15.15,37.34-23.93,81.81-23.93,129.52s8.78,92.18,23.93,129.51h.34c-3-39.92-4.69-83.65-4.69-129.51s1.67-89.58,4.69-129.52Z"/><path class="cls-5" d="M1117.47,317.67V302.48c-.21.33-1,.7-2.54,1.13v-1.26a5.7,5.7,0,0,0,1.52-.71,4.27,4.27,0,0,0,1.3-1.23h1.19v17.26Z"/><path class="cls-5" d="M1123,317.67v-2.35h1.56v2.35Z"/><path class="cls-5" d="M1130.51,317.89q-3.77,0-3.77-5.42v-6.89q0-5.35,3.77-5.36a3.51,3.51,0,0,1,2.73,1,4.44,4.44,0,0,1,.92,3s0,.06,0,.16v.17h-1.45a4.21,4.21,0,0,0-.5-2.35,1.92,1.92,0,0,0-1.67-.7c-1.56,0-2.33,1.24-2.33,3.72v3.26a3.49,3.49,0,0,1,1.12-.72,3.8,3.8,0,0,1,1.51-.3,3,3,0,0,1,2.74,1.19,7.55,7.55,0,0,1,.78,4Q1134.37,317.89,1130.51,317.89Zm0-1.32a2,2,0,0,0,1.78-.86,5.24,5.24,0,0,0,.57-2.79c0-.52,0-1,0-1.31a7.19,7.19,0,0,0-.11-1,2.64,2.64,0,0,0-.24-.84,1.91,1.91,0,0,0-.42-.57,1.5,1.5,0,0,0-.64-.37,3.49,3.49,0,0,0-.91-.11,2.93,2.93,0,0,0-1.3.32,3.41,3.41,0,0,0-1,.67v3a6.1,6.1,0,0,0,.55,3A1.87,1.87,0,0,0,1130.51,316.57Z"/><path class="cls-5" d="M1138.22,317.67l3.17-16h-4.93v-1.25h6.43v.76l-3.24,16.5Z"/><line class="cls-6" x1="1129.23" y1="327.15" x2="1129.23" y2="377.26"/></g></svg>