<svg xmlns="http://www.w3.org/2000/svg" xmlns:xlink="http://www.w3.org/1999/xlink" id="Layer_1" data-name="Layer 1" viewBox="0 0 2048 1080"><script xmlns="" id="eppiocemhmnlbhjplcgkofciiegomcon"/><script xmlns=""/><script xmlns=""/><defs><style>.cls-1{opacity:0;}.cls-2{fill:#fff;}.cls-3{fill:#59c9e6;}.cls-3,.cls-4{fill-rule:evenodd;opacity:0.65;}.cls-4{fill:url(#linear-gradient);}.cls-5{fill:#0b688b;}.cls-6{fill:none;stroke:#0b688b;stroke-miterlimit:10;}</style><linearGradient id="linear-gradient" x1="1118.79" y1="531.56" x2="1139.67" y2="531.56" gradientUnits="userSpaceOnUse"><stop offset="0" stop-color="#fff" stop-opacity="0"/><stop offset="1" stop-color="#aee2fa"/></linearGradient></defs><g class="cls-1"><rect class="cls-2" width="2048" height="1080"/></g><g id="_6_174" data-name="+6_174"><path class="cls-3" d="M1139.67,402h-.44c-13,38.06-20.44,82.3-20.44,129.52s7.46,91.46,20.44,129.51h.44c-2.07-40.71-3.19-84.24-3.19-129.51s1.12-88.8,3.19-129.52Z"/><path class="cls-4" d="M1139.67,402h-.44c-13,38.06-20.44,82.3-20.44,129.52s7.46,91.46,20.44,129.51h.44c-2.07-40.71-3.19-84.24-3.19-129.51s1.12-88.8,3.19-129.52Z"/><path class="cls-5" d="M1117.47,317.67V302.48c-.21.33-1,.7-2.54,1.13v-1.26a5.7,5.7,0,0,0,1.52-.71,4.27,4.27,0,0,0,1.3-1.23h1.19v17.26Z"/><path class="cls-5" d="M1123,317.67v-2.35h1.56v2.35Z"/><path class="cls-5" d="M1128.33,317.67l3.18-16h-4.93v-1.25H1133v.76l-3.23,16.5Z"/><path class="cls-5" d="M1140.05,317.67v-5h-4.91V311l4.6-10.62h1.79v10.78h1.85v1.47h-1.85v5Zm-3.39-6.49h3.39v-8.67Z"/><line class="cls-6" x1="1129.23" y1="327.15" x2="1129.23" y2="377.26"/></g></svg>