<svg xmlns="http://www.w3.org/2000/svg" xmlns:xlink="http://www.w3.org/1999/xlink" xmlns:xodm="http://www.corel.com/coreldraw/odm/2003" xml:space="preserve" width="1098px" height="645px" version="1.1" style="shape-rendering:geometricPrecision; text-rendering:geometricPrecision; image-rendering:optimizeQuality; fill-rule:evenodd; clip-rule:evenodd" viewBox="0 0 447 262.74"><script xmlns="" id="eppiocemhmnlbhjplcgkofciiegomcon"/><script xmlns=""/><script xmlns=""/>
 <defs>
  <style type="text/css">
   <![CDATA[
    .str0 {stroke:#0D4176;stroke-width:6.78;stroke-miterlimit:22.9256}
    .str1 {stroke:#0D4176;stroke-width:3.39;stroke-miterlimit:22.9256}
    .fil2 {fill:none}
    .fil1 {fill:none;fill-rule:nonzero}
    .fil0 {fill:#FEFEFE;fill-opacity:0.000000}
   ]]>
  </style>
 </defs>
 <g id="Layer_x0020_1">
  <metadata id="CorelCorpID_0Corel-Layer"/>
  <polygon class="fil0" points="0,0 447,0 447,262.74 0,262.74 "/>
  <g id="_1831156484192">
   <g>
    <path class="fil1 str0" d="M369.27 146.43c2.26,-7.21 3.53,-14.65 4.29,-20.36 0.75,-5.67 1.32,-12.14 0.48,-17.8 -0.78,-5.31 -2.83,-9.89 -7.23,-12.26 -5.16,-2.78 -14.4,-5.58 -25.89,-7.64 -10.31,-1.86 -22.38,-3.11 -34.9,-3.23 -11.15,-0.11 -26.87,1 -40.3,4.4 -9.67,2.45 -18.08,6.05 -22.49,11.19 -4.74,5.5 -4.57,15.78 -1.86,26.56 3.41,13.61 10.85,27.81 17.75,34.57 4.49,4.39 12.01,7.97 20.57,10.6 10.02,3.08 21.39,4.84 31.04,5.11 9.69,0.27 20.49,-0.71 29.84,-3.16 7.86,-2.07 14.66,-5.17 18.81,-9.43 4.53,-4.65 7.68,-11.48 9.89,-18.55z"/>
    <path class="fil1 str0" d="M167.31 172.46c8.56,-2.63 16.08,-6.21 20.57,-10.6 6.89,-6.76 14.33,-20.96 17.75,-34.57 2.71,-10.78 2.87,-21.06 -1.86,-26.56 -4.42,-5.14 -12.82,-8.74 -22.49,-11.19 -13.43,-3.4 -29.15,-4.51 -40.3,-4.4 -12.52,0.12 -24.6,1.37 -34.91,3.23 -11.48,2.06 -20.72,4.86 -25.88,7.64 -4.4,2.37 -6.45,6.95 -7.24,12.26 -0.83,5.66 -0.27,12.13 0.49,17.8 0.76,5.71 2.03,13.15 4.29,20.36 2.21,7.07 5.36,13.9 9.89,18.55 4.15,4.26 10.95,7.36 18.81,9.43 9.35,2.45 20.14,3.43 29.83,3.16 9.66,-0.27 21.03,-2.03 31.05,-5.11z"/>
    <path class="fil2 str0" d="M205.16 102.71c11.44,6.72 23.7,6.89 36.95,0"/>
   </g>
   <line class="fil2 str1" x1="76.04" y1="140.32" x2="201.43" y2="140.32"/>
   <line class="fil2 str1" x1="246.1" y1="140.32" x2="371.48" y2="140.32"/>
  </g>
 </g>
</svg>