<svg xmlns="http://www.w3.org/2000/svg" xmlns:xlink="http://www.w3.org/1999/xlink" xmlns:xodm="http://www.corel.com/coreldraw/odm/2003" xml:space="preserve" width="1098px" height="645px" version="1.1" style="shape-rendering:geometricPrecision; text-rendering:geometricPrecision; image-rendering:optimizeQuality; fill-rule:evenodd; clip-rule:evenodd" viewBox="0 0 152.17 89.44"><script xmlns="" id="eppiocemhmnlbhjplcgkofciiegomcon"/><script xmlns=""/><script xmlns=""/>
 <defs>
  <style type="text/css">
   <![CDATA[
    .str6 {stroke:#0D4176;stroke-width:2.31;stroke-miterlimit:22.9256}
    .str3 {stroke:#0D4176;stroke-width:2.31;stroke-miterlimit:10}
    .str0 {stroke:#0D4176;stroke-width:2.31;stroke-miterlimit:10}
    .str4 {stroke:#0D4176;stroke-width:2.31;stroke-miterlimit:10}
    .str2 {stroke:#0D4176;stroke-width:2.31;stroke-miterlimit:10}
    .str1 {stroke:#0D4176;stroke-width:2.31;stroke-miterlimit:10}
    .str5 {stroke:#0D4176;stroke-width:2.31;stroke-miterlimit:10}
    .fil2 {fill:none}
    .fil1 {fill:none;fill-rule:nonzero}
    .fil0 {fill:#FEFEFE;fill-opacity:0.000000}
   ]]>
  </style>
 </defs>
 <g id="Layer_x0020_1">
  <metadata id="CorelCorpID_0Corel-Layer"/>
  <polygon class="fil0" points="0,0 152.17,0 152.17,89.44 0,89.44 "/>
  <g id="_3100168224720">
   <path class="fil1 str0" d="M53.65 39.03c-1.72,0.04 -3.08,-1.37 -3.08,-3.1 0,-1.67 1.35,-3.02 3.02,-3.02 1.58,0 3.08,1.46 3.08,3.01l0 12.36c0,1.01 2.72,1.91 3.62,2.34 -0.19,1.06 -0.08,2.23 0.23,3.26"/>
   <path class="fil2 str1" d="M67.38 16.4c5.81,-0.67 11.61,-0.67 17.42,0 2.1,0.25 3.58,1.63 3.85,3.57 0.85,6.17 1.33,12.35 1.51,18.52 0.05,1.96 -1.75,3.36 -3.85,3.57l-20.44 0c-2.1,-0.21 -3.91,-1.61 -3.85,-3.57 0.19,-6.17 0.65,-12.35 1.51,-18.52 0.27,-1.94 1.75,-3.32 3.85,-3.57l0 0z"/>
   <path class="fil2 str1" d="M66.88 46.08c3.07,0.34 6.14,0.26 9.21,0.25 3.07,0 6.14,0.09 9.21,-0.25 7.09,-0.77 9.6,9.46 2.52,10.06 -7.82,0.68 -15.64,0.67 -23.46,0 -7.08,-0.6 -4.57,-10.83 2.52,-10.06l0 0z"/>
   <path class="fil2 str2" d="M75.96 67.51c1.67,0 3.02,1.35 3.02,3.01 0,1.67 -1.35,3.02 -3.02,3.02 -1.66,0 -3.01,-1.35 -3.01,-3.02 0,-1.66 1.35,-3.01 3.01,-3.01l0 0z"/>
   <path class="fil2 str3" d="M93.85 67.51c1.66,0 3.01,1.35 3.01,3.01 0,1.67 -1.35,3.02 -3.01,3.02 -1.67,0 -3.02,-1.35 -3.02,-3.02 0,-1.66 1.35,-3.01 3.02,-3.01l0 0z"/>
   <path class="fil2 str1" d="M58.55 67.99c-0.08,-0.13 -0.15,-0.28 -0.2,-0.43 -0.33,-1.06 0.25,-2.18 1.31,-2.52l14.42 -4.59 4.02 0.01 14.42 4.58c1.06,0.34 1.64,1.46 1.31,2.52 -0.04,0.12 -0.09,0.23 -0.14,0.33"/>
   <path class="fil2 str4" d="M58.19 67.51c1.66,0 3.01,1.35 3.01,3.01 0,1.67 -1.35,3.02 -3.01,3.02 -1.67,0 -3.02,-1.35 -3.02,-3.02 0,-1.66 1.35,-3.01 3.02,-3.01l0 0z"/>
   <path class="fil1 str5" d="M98.52 39.03c1.71,0.04 3.08,-1.37 3.08,-3.1 0,-1.67 -1.35,-3.02 -3.02,-3.02 -1.58,0 -3.08,1.46 -3.08,3.01l0 12.36c0,1.01 -2.73,1.91 -3.62,2.34 0.19,1.06 0.08,2.23 -0.23,3.26"/>
   <line class="fil2 str6" x1="76.09" y1="42.06" x2="76.09" y2="46.34"/>
   <line class="fil2 str6" x1="75.96" y1="67.41" x2="75.96" y2="56.65"/>
  </g>
 </g>
</svg>