<svg xmlns="http://www.w3.org/2000/svg" xmlns:xlink="http://www.w3.org/1999/xlink" xmlns:xodm="http://www.corel.com/coreldraw/odm/2003" xml:space="preserve" width="1098px" height="645px" version="1.1" style="shape-rendering:geometricPrecision; text-rendering:geometricPrecision; image-rendering:optimizeQuality; fill-rule:evenodd; clip-rule:evenodd" viewBox="0 0 28629.24 16827.85"><script xmlns="" id="eppiocemhmnlbhjplcgkofciiegomcon"/><script xmlns=""/><script xmlns=""/>
 <defs>
  <style type="text/css">
   <![CDATA[
    .str2 {stroke:#0D4176;stroke-width:434.56;stroke-miterlimit:22.9256}
    .str1 {stroke:#0D4176;stroke-width:434.56;stroke-linecap:round;stroke-miterlimit:22.9256}
    .str0 {stroke:#0D4176;stroke-width:434.56;stroke-linecap:round;stroke-linejoin:round;stroke-miterlimit:22.9256}
    .fil1 {fill:none}
    .fil2 {fill:#0D4176;fill-rule:nonzero}
    .fil0 {fill:#FEFEFE;fill-opacity:0.000000}
   ]]>
  </style>
 </defs>
 <g id="Layer_x0020_1">
  <metadata id="CorelCorpID_0Corel-Layer"/>
  <polygon class="fil0" points="0,0 28629.24,0 28629.24,16827.85 0,16827.85 "/>
  <g id="_3100161683888">
   <path class="fil1 str0" d="M19068.75 7471.01c313.75,2314.97 -1673.21,4416.67 -4461.85,4721.3 -2788.6,304.61 -5368.17,-1888.5 -5681.85,-4188.22 -313.75,-2314.96 1864.88,-3030.75 4653.58,-3335.39 2771.17,-304.6 5176.4,502.59 5490.12,2802.31z"/>
   <g>
    <g>
     <path class="fil2" d="M5449.63 5879.91c0,-119.98 97.28,-217.27 217.26,-217.27 119.98,0 217.27,97.29 217.27,217.27l-434.53 0zm0 432.65l0 -432.65 434.53 0 0 432.65 -434.53 0zm434.53 0c0,119.98 -97.29,217.27 -217.27,217.27 -119.98,0 -217.26,-97.29 -217.26,-217.27l434.53 0z"/>
    </g>
    <g>
     <path class="fil2" d="M7135.86 6467.53c84.81,-84.85 222.44,-84.88 307.28,-0.07 84.85,84.82 84.88,222.44 0.06,307.29l-307.34 -307.22zm-240.92 241.01l240.92 -241.01 307.34 307.22 -240.91 241.01 -307.35 -307.22zm307.35 307.22c-84.81,84.84 -222.44,84.87 -307.28,0.06 -84.85,-84.81 -84.88,-222.44 -0.07,-307.28l307.35 307.22z"/>
    </g>
    <g>
     <path class="fil2" d="M7926.15 7996.05c119.98,0 217.26,97.29 217.26,217.27 0,119.98 -97.28,217.27 -217.26,217.27l0 -434.54zm-340.73 0l340.73 0 0 434.54 -340.73 0 0 -434.54zm0 434.54c-119.98,0 -217.27,-97.29 -217.27,-217.27 0,-119.98 97.29,-217.27 217.27,-217.27l0 434.54z"/>
    </g>
    <g>
     <path class="fil2" d="M7614.92 9432.01c84.85,84.84 84.85,222.44 0,307.28 -84.84,84.84 -222.44,84.84 -307.28,0l307.28 -307.28zm-240.94 -240.98l240.94 240.98 -307.28 307.28 -240.95 -240.98 307.29 -307.28zm-307.29 307.28c-84.84,-84.84 -84.84,-222.44 0,-307.28 84.85,-84.84 222.44,-84.84 307.29,0l-307.29 307.28z"/>
    </g>
    <g>
     <path class="fil2" d="M3794.96 6667.18c-84.81,-84.85 -84.78,-222.47 0.06,-307.29 84.84,-84.81 222.47,-84.78 307.28,0.07l-307.34 307.22zm240.88 241.01l-240.88 -241.01 307.34 -307.22 240.89 241.01 -307.35 307.22zm307.35 -307.22c84.81,84.84 84.78,222.47 -0.06,307.28 -84.85,84.81 -222.47,84.78 -307.29,-0.06l307.35 -307.22z"/>
    </g>
    <g>
     <path class="fil2" d="M3302.19 8361.02c-119.98,0 -217.26,-97.29 -217.26,-217.27 0,-119.98 97.28,-217.26 217.26,-217.26l0 434.53zm340.76 0l-340.76 0 0 -434.53 340.76 0 0 434.53zm0 -434.53c119.98,0 217.26,97.28 217.26,217.26 0,119.98 -97.28,217.27 -217.26,217.27l0 -434.53z"/>
    </g>
    <g>
     <path class="fil2" d="M4063.1 9721.37c-84.84,84.84 -222.44,84.84 -307.28,0 -84.85,-84.84 -84.85,-222.44 0,-307.28l307.28 307.28zm240.98 -241.01l-240.98 241.01 -307.28 -307.28 240.98 -241.01 307.28 307.28zm-307.28 -307.28c84.84,-84.85 222.43,-84.85 307.28,0 84.84,84.84 84.84,222.44 0,307.28l-307.28 -307.28z"/>
    </g>
    <path class="fil1 str1" d="M5165.44 9875.9c-11.36,-430.8 -328.38,-756.75 -488.3,-1136.58 -77.79,-151.77 -121.71,-323.82 -121.71,-506.14 0,-613.85 497.61,-1111.45 1111.46,-1111.45 613.83,0 1111.43,497.6 1111.43,1111.45 0,182.32 -43.92,354.37 -121.71,506.14 -132.45,314.64 -372.72,592.29 -457.75,923.2"/>
    <g>
     <path class="fil2" d="M5215.02 10685.44c-116.07,30.42 -234.88,-38.99 -265.3,-155.06 -30.43,-116.07 38.98,-234.88 155.05,-265.31l110.25 420.37zm1013.99 -265.96l-1013.99 265.96 -110.25 -420.37 1013.99 -265.95 110.25 420.36zm-110.25 -420.36c116.07,-30.43 234.88,38.98 265.31,155.05 30.43,116.07 -38.99,234.89 -155.06,265.31l-110.25 -420.36z"/>
    </g>
    <g>
     <path class="fil2" d="M5781.55 10633.05c0,-119.98 97.28,-217.26 217.26,-217.26 119.98,0 217.27,97.28 217.27,217.26l-434.53 0zm-144.75 532.13l0 -434.54 0 0 9.06 -0.21 8.81 -0.59 8.71 -0.95 8.38 -1.29 8.25 -1.67 7.88 -1.94 7.49 -2.21 7.3 -2.5 7.23 -2.86 6.66 -2.93 6.46 -3.26 6.29 -3.48 5.57 -3.45 5.54 -3.79 5.08 -3.82 4.62 -3.85 4.38 -3.97 4 -4.03 3.66 -4.07 3.33 -4.07 2.8 -3.78 2.5 -3.76 2.28 -3.91 1.88 -3.54 1.6 -3.54 1.38 -3.58 1.08 -3.29 0.92 -3.57 0.71 -3.24 0.46 -3.32 0.34 -3.58 0.1 -3.54 434.53 0 -0.83 28.86 -2.5 28.45 -4.09 28.21 -5.7 27.75 -7.15 26.92 -8.65 26.57 -10.01 25.69 -11.33 25.1 -12.66 24.35 -13.67 23.19 -14.94 22.67 -16.04 21.71 -16.88 20.63 -17.83 19.71 -18.72 18.82 -19.59 17.89 -20.51 17.03 -21.22 15.96 -21.8 14.93 -22.82 14.11 -23.1 12.84 -23.84 11.95 -24.57 10.93 -24.85 9.76 -25.53 8.78 -26.21 7.7 -26.49 6.5 -26.73 5.35 -27.28 4.25 -27.56 3.05 -27.97 1.88 -28.21 0.59 0 0zm0 0c-119.98,0 -217.26,-97.29 -217.26,-217.27 0,-119.98 97.28,-217.27 217.26,-217.27l0 434.54zm-474.72 -226.66l345.72 -263.31 1.85 2.34 2.34 2.77 2.31 2.62 2.15 2.25 2.44 2.43 2.74 2.56 2.89 2.49 3.24 2.68 2.98 2.34 3.11 2.28 3.39 2.31 3.6 2.34 3.73 2.25 3.76 2.13 4 2.12 4.1 2.03 4.37 2 4.25 1.82 4.53 1.79 4.55 1.66 4.59 1.51 4.75 1.42 5.02 1.35 4.83 1.17 5.08 1.05 5.3 0.98 5.14 0.8 5.61 0.68 5.54 0.56 5.45 0.37 5.61 0.24 5.75 0.09 0 434.54 -17.76 -0.22 -17.74 -0.74 -17.71 -1.23 -17.43 -1.72 -17.12 -2.16 -17.34 -2.65 -16.94 -3.08 -16.97 -3.57 -16.84 -4.07 -16.48 -4.43 -16.38 -4.93 -16.29 -5.39 -15.96 -5.79 -15.67 -6.16 -15.65 -6.68 -15.15 -6.99 -15.12 -7.45 -14.78 -7.86 -14.66 -8.28 -14.32 -8.71 -14.01 -9 -13.8 -9.51 -13.7 -9.98 -13.34 -10.41 -12.65 -10.44 -12.51 -10.99 -12.22 -11.37 -12.04 -11.85 -11.83 -12.48 -11.12 -12.47 -10.59 -12.63 -10.6 -13.42zm0 0c-72.7,-95.44 -54.23,-231.8 41.21,-304.51 95.44,-72.71 231.8,-54.23 304.51,41.2l-345.72 263.31z"/>
    </g>
   </g>
   <g>
    <ellipse class="fil1 str2" cx="22793.26" cy="8413.93" rx="1280.17" ry="1280.16"/>
    <g>
     <g>
      <path class="fil2" d="M22575.98 5880.09c0,-119.98 97.29,-217.26 217.27,-217.26 119.98,0 217.26,97.28 217.26,217.26l-434.53 0zm0 562.77l0 -562.77 434.53 0 0 562.77 -434.53 0zm434.53 0c0,119.98 -97.28,217.26 -217.26,217.26 -119.98,0 -217.27,-97.28 -217.27,-217.26l434.53 0z"/>
     </g>
     <g>
      <path class="fil2" d="M22575.98 10385.02c0,-119.98 97.29,-217.26 217.27,-217.26 119.98,0 217.26,97.28 217.26,217.26l-434.53 0zm0 562.74l0 -562.74 434.53 0 0 562.74 -434.53 0zm434.53 0c0,119.98 -97.28,217.26 -217.26,217.26 -119.98,0 -217.27,-97.28 -217.27,-217.26l434.53 0z"/>
     </g>
    </g>
    <g>
     <g>
      <path class="fil2" d="M20847.93 6775.89c-84.85,-84.85 -84.85,-222.44 0,-307.29 84.84,-84.84 222.44,-84.84 307.28,0l-307.28 307.29zm397.97 397.94l-397.97 -397.94 307.28 -307.29 397.98 397.95 -307.29 307.28zm307.29 -307.28c84.84,84.84 84.84,222.44 0,307.28 -84.85,84.84 -222.44,84.84 -307.29,0l307.29 -307.28z"/>
     </g>
     <g>
      <path class="fil2" d="M24033.4 9961.36c-84.84,-84.84 -84.84,-222.44 0,-307.28 84.84,-84.84 222.44,-84.84 307.28,0l-307.28 307.28zm397.92 397.89l-397.92 -397.89 307.28 -307.28 397.92 397.88 -307.28 307.29zm307.28 -307.29c84.84,84.85 84.84,222.44 0,307.29 -84.84,84.84 -222.44,84.84 -307.28,0l307.28 -307.29z"/>
     </g>
    </g>
    <g>
     <g>
      <path class="fil2" d="M20259.41 8631.19c-119.98,0 -217.26,-97.28 -217.26,-217.27 0,-119.98 97.28,-217.26 217.26,-217.26l0 434.53zm562.74 0l-562.74 0 0 -434.53 562.74 0 0 434.53zm0 -434.53c119.98,0 217.27,97.28 217.27,217.26 0,119.99 -97.29,217.27 -217.27,217.27l0 -434.53z"/>
     </g>
     <g>
      <path class="fil2" d="M24764.34 8631.19c-119.98,0 -217.26,-97.28 -217.26,-217.27 0,-119.98 97.28,-217.26 217.26,-217.26l0 434.53zm562.74 0l-562.74 0 0 -434.53 562.74 0 0 434.53zm0 -434.53c119.98,0 217.26,97.28 217.26,217.26 0,119.99 -97.28,217.27 -217.26,217.27l0 -434.53z"/>
     </g>
    </g>
    <g>
     <g>
      <path class="fil2" d="M21155.21 10359.25c-84.84,84.84 -222.44,84.84 -307.28,0 -84.85,-84.85 -84.85,-222.44 0,-307.29l307.28 307.29zm415.96 -416l-415.96 416 -307.28 -307.29 415.96 -415.99 307.28 307.28zm-307.28 -307.28c84.84,-84.84 222.44,-84.84 307.28,0 84.84,84.84 84.84,222.44 0,307.28l-307.28 -307.28z"/>
     </g>
     <g>
      <path class="fil2" d="M24322.61 7191.85c-84.85,84.84 -222.44,84.84 -307.29,0 -84.84,-84.85 -84.84,-222.44 0,-307.28l307.29 307.28zm415.96 -415.96l-415.96 415.96 -307.29 -307.28 415.97 -415.97 307.28 307.29zm-307.28 -307.29c84.84,-84.84 222.43,-84.84 307.28,0 84.84,84.85 84.84,222.44 0,307.29l-307.28 -307.29z"/>
     </g>
    </g>
   </g>
  </g>
 </g>
</svg>