<svg xmlns="http://www.w3.org/2000/svg" xmlns:xlink="http://www.w3.org/1999/xlink" xmlns:xodm="http://www.corel.com/coreldraw/odm/2003" xml:space="preserve" width="1098px" height="645px" version="1.1" style="shape-rendering:geometricPrecision; text-rendering:geometricPrecision; image-rendering:optimizeQuality; fill-rule:evenodd; clip-rule:evenodd" viewBox="0 0 225.26 132.4"><script xmlns="" id="eppiocemhmnlbhjplcgkofciiegomcon"/><script xmlns=""/><script xmlns=""/>
 <defs>
  <style type="text/css">
   <![CDATA[
    .str0 {stroke:#0D4176;stroke-width:3.42;stroke-miterlimit:22.9256}
    .fil1 {fill:none}
    .fil2 {fill:#0D4176;fill-rule:nonzero}
    .fil0 {fill:#FEFEFE;fill-opacity:0.000000}
   ]]>
  </style>
 </defs>
 <g id="Layer_x0020_1">
  <metadata id="CorelCorpID_0Corel-Layer"/>
  <polygon class="fil0" points="0,0 225.26,0 225.26,132.4 0,132.4 "/>
  <g id="_3100168531104">
   <circle class="fil1 str0" cx="112.63" cy="66.2" r="24.55"/>
   <g>
    <g>
     <path class="fil2" d="M110.92 17.61c0,-0.94 0.77,-1.71 1.71,-1.71 0.94,0 1.71,0.77 1.71,1.71l-3.42 0zm0 10.79l0 -10.79 3.42 0 0 10.79 -3.42 0zm3.42 0c0,0.95 -0.77,1.71 -1.71,1.71 -0.94,0 -1.71,-0.76 -1.71,-1.71l3.42 0z"/>
    </g>
    <g>
     <path class="fil2" d="M110.92 104c0,-0.94 0.77,-1.71 1.71,-1.71 0.94,0 1.71,0.77 1.71,1.71l-3.42 0zm0 10.79l0 -10.79 3.42 0 0 10.79 -3.42 0zm3.42 0c0,0.95 -0.77,1.71 -1.71,1.71 -0.94,0 -1.71,-0.76 -1.71,-1.71l3.42 0z"/>
    </g>
   </g>
   <g>
    <g>
     <path class="fil2" d="M77.06 33.05c-0.67,-0.67 -0.67,-1.75 0,-2.42 0.67,-0.66 1.75,-0.66 2.42,0l-2.42 2.42zm7.63 7.63l-7.63 -7.63 2.42 -2.42 7.63 7.64 -2.42 2.41zm2.42 -2.41c0.67,0.66 0.67,1.75 0,2.41 -0.67,0.67 -1.75,0.67 -2.42,0l2.42 -2.41z"/>
    </g>
    <g>
     <path class="fil2" d="M138.15 94.14c-0.67,-0.67 -0.67,-1.75 0,-2.42 0.67,-0.67 1.75,-0.67 2.42,0l-2.42 2.42zm7.63 7.63l-7.63 -7.63 2.42 -2.42 7.63 7.63 -2.42 2.42zm2.42 -2.42c0.67,0.67 0.67,1.75 0,2.42 -0.67,0.67 -1.75,0.67 -2.42,0l2.42 -2.42z"/>
    </g>
   </g>
   <g>
    <g>
     <path class="fil2" d="M64.04 67.91c-0.95,0 -1.71,-0.76 -1.71,-1.71 0,-0.94 0.76,-1.71 1.71,-1.71l0 3.42zm10.79 0l-10.79 0 0 -3.42 10.79 0 0 3.42zm0 -3.42c0.94,0 1.71,0.77 1.71,1.71 0,0.95 -0.77,1.71 -1.71,1.71l0 -3.42z"/>
    </g>
    <g>
     <path class="fil2" d="M150.43 67.91c-0.94,0 -1.71,-0.76 -1.71,-1.71 0,-0.94 0.77,-1.71 1.71,-1.71l0 3.42zm10.79 0l-10.79 0 0 -3.42 10.79 0 0 3.42zm0 -3.42c0.94,0 1.71,0.77 1.71,1.71 0,0.95 -0.77,1.71 -1.71,1.71l0 -3.42z"/>
    </g>
   </g>
   <g>
    <g>
     <path class="fil2" d="M79.48 101.77c-0.67,0.67 -1.75,0.67 -2.42,0 -0.67,-0.67 -0.67,-1.75 0,-2.42l2.42 2.42zm7.98 -7.98l-7.98 7.98 -2.42 -2.42 7.98 -7.98 2.42 2.42zm-2.42 -2.42c0.67,-0.66 1.75,-0.66 2.42,0 0.66,0.67 0.66,1.75 0,2.42l-2.42 -2.42z"/>
    </g>
    <g>
     <path class="fil2" d="M140.22 41.03c-0.67,0.67 -1.75,0.67 -2.42,0 -0.66,-0.67 -0.66,-1.75 0,-2.42l2.42 2.42zm7.98 -7.98l-7.98 7.98 -2.42 -2.42 7.98 -7.98 2.42 2.42zm-2.42 -2.42c0.67,-0.66 1.75,-0.66 2.42,0 0.67,0.67 0.67,1.75 0,2.42l-2.42 -2.42z"/>
    </g>
   </g>
  </g>
 </g>
</svg>