<svg xmlns="http://www.w3.org/2000/svg" xmlns:xlink="http://www.w3.org/1999/xlink" xmlns:xodm="http://www.corel.com/coreldraw/odm/2003" xml:space="preserve" width="1098px" height="645px" version="1.1" style="shape-rendering:geometricPrecision; text-rendering:geometricPrecision; image-rendering:optimizeQuality; fill-rule:evenodd; clip-rule:evenodd" viewBox="0 0 461.41 271.21"><script xmlns="" id="eppiocemhmnlbhjplcgkofciiegomcon"/><script xmlns=""/><script xmlns=""/>
 <defs>
  <style type="text/css">
   <![CDATA[
    .str0 {stroke:#0D4176;stroke-width:7;stroke-miterlimit:22.9256}
    .str1 {stroke:#0D4176;stroke-width:3.5;stroke-miterlimit:22.9256}
    .fil2 {fill:none}
    .fil1 {fill:none;fill-rule:nonzero}
    .fil0 {fill:#FEFEFE;fill-opacity:0.000000}
   ]]>
  </style>
 </defs>
 <g id="Layer_x0020_1">
  <metadata id="CorelCorpID_0Corel-Layer"/>
  <polygon class="fil0" points="0,0 461.41,0 461.41,271.21 0,271.21 "/>
  <g id="_3100161635216">
   <g>
    <path class="fil1 str0" d="M381.18 151.15c2.32,-7.45 3.64,-15.12 4.42,-21.02 0.78,-5.84 1.37,-12.52 0.5,-18.37 -0.81,-5.48 -2.93,-10.21 -7.46,-12.65 -5.33,-2.87 -14.87,-5.76 -26.73,-7.89 -10.64,-1.92 -23.1,-3.21 -36.03,-3.34 -11.51,-0.11 -27.73,1.04 -41.59,4.55 -9.98,2.52 -18.66,6.24 -23.22,11.54 -4.89,5.68 -4.72,16.3 -1.92,27.43 3.52,14.05 11.21,28.7 18.32,35.67 4.63,4.54 12.4,8.23 21.23,10.95 10.35,3.18 22.09,4.99 32.05,5.27 10,0.28 21.14,-0.72 30.8,-3.26 8.11,-2.14 15.13,-5.33 19.41,-9.73 4.68,-4.8 7.93,-11.85 10.22,-19.15z"/>
    <path class="fil1 str0" d="M172.71 178.02c8.83,-2.72 16.59,-6.41 21.23,-10.95 7.11,-6.97 14.79,-21.62 18.32,-35.68 2.79,-11.12 2.97,-21.74 -1.92,-27.42 -4.56,-5.3 -13.24,-9.02 -23.22,-11.54 -13.86,-3.51 -30.08,-4.66 -41.6,-4.55 -12.92,0.13 -25.39,1.42 -36.03,3.34 -11.85,2.13 -21.39,5.02 -26.72,7.89 -4.53,2.44 -6.65,7.17 -7.46,12.65 -0.87,5.85 -0.28,12.53 0.5,18.37 0.78,5.9 2.09,13.57 4.42,21.02 2.29,7.3 5.54,14.35 10.22,19.15 4.28,4.4 11.29,7.59 19.41,9.73 9.65,2.54 20.79,3.54 30.8,3.26 9.96,-0.28 21.7,-2.09 32.05,-5.27z"/>
    <path class="fil2 str0" d="M211.77 106.02c11.82,6.94 24.47,7.11 38.14,0"/>
   </g>
   <path class="fil2 str1" d="M76.72 136.15c24.59,11.24 33.43,26.42 33.14,43.88"/>
   <path class="fil2 str1" d="M207.23 146.01c-21.43,5.69 -28.54,17.22 -28.97,31.46"/>
   <path class="fil2 str1" d="M384.63 135.66c-24.6,11.24 -33.43,26.42 -33.15,43.88"/>
   <path class="fil2 str1" d="M253.72 145.52c21.43,5.69 28.53,17.21 28.97,31.46"/>
  </g>
 </g>
</svg>