<svg xmlns="http://www.w3.org/2000/svg" xmlns:xlink="http://www.w3.org/1999/xlink" xmlns:xodm="http://www.corel.com/coreldraw/odm/2003" xml:space="preserve" width="1098px" height="645px" version="1.1" style="shape-rendering:geometricPrecision; text-rendering:geometricPrecision; image-rendering:optimizeQuality; fill-rule:evenodd; clip-rule:evenodd" viewBox="0 0 228.86 134.52"><script xmlns="" id="eppiocemhmnlbhjplcgkofciiegomcon"/><script xmlns=""/><script xmlns=""/>
 <defs>
  <style type="text/css">
   <![CDATA[
    .str0 {stroke:#0D4176;stroke-width:3.47;stroke-miterlimit:22.9256}
    .fil2 {fill:none}
    .fil1 {fill:none;fill-rule:nonzero}
    .fil0 {fill:#FEFEFE;fill-opacity:0.000000}
   ]]>
  </style>
 </defs>
 <g id="Layer_x0020_1">
  <metadata id="CorelCorpID_0Corel-Layer"/>
  <polygon class="fil0" points="0,0 228.86,0 228.86,134.52 0,134.52 "/>
  <g id="_3099915027680">
   <path class="fil1 str0" d="M189.06 74.97c1.16,-3.69 1.81,-7.5 2.2,-10.42 0.39,-2.9 0.68,-6.22 0.25,-9.12 -0.41,-2.72 -1.45,-5.06 -3.7,-6.27 -2.65,-1.43 -7.38,-2.86 -13.26,-3.92 -5.28,-0.95 -11.46,-1.59 -17.87,-1.65 -5.71,-0.06 -13.76,0.51 -20.63,2.25 -4.95,1.26 -9.26,3.1 -11.52,5.73 -2.42,2.82 -2.34,8.08 -0.95,13.6 1.75,6.97 5.56,14.24 9.09,17.7 2.29,2.25 6.15,4.08 10.53,5.43 5.13,1.57 10.95,2.47 15.89,2.61 4.96,0.14 10.49,-0.36 15.28,-1.62 4.02,-1.05 7.5,-2.64 9.63,-4.82 2.32,-2.38 3.93,-5.88 5.06,-9.5z"/>
   <path class="fil1 str0" d="M85.66 88.3c4.38,-1.35 8.24,-3.18 10.53,-5.43 3.53,-3.46 7.34,-10.73 9.09,-17.7 1.39,-5.52 1.47,-10.78 -0.95,-13.6 -2.26,-2.63 -6.57,-4.47 -11.52,-5.73 -6.87,-1.74 -14.92,-2.31 -20.63,-2.25 -6.41,0.06 -12.59,0.7 -17.87,1.65 -5.88,1.06 -10.61,2.49 -13.25,3.92 -2.26,1.21 -3.3,3.56 -3.71,6.27 -0.43,2.9 -0.14,6.22 0.25,9.12 0.39,2.92 1.04,6.73 2.19,10.42 1.14,3.62 2.75,7.12 5.07,9.5 2.13,2.18 5.61,3.77 9.63,4.82 4.79,1.26 10.31,1.76 15.28,1.62 4.94,-0.14 10.76,-1.04 15.89,-2.61z"/>
   <path class="fil2 str0" d="M105.04 52.59c5.86,3.44 12.14,3.52 18.92,0"/>
  </g>
 </g>
</svg>