<svg xmlns="http://www.w3.org/2000/svg" xmlns:xlink="http://www.w3.org/1999/xlink" xmlns:xodm="http://www.corel.com/coreldraw/odm/2003" xml:space="preserve" width="2700px" height="457px" version="1.1" style="shape-rendering:geometricPrecision; text-rendering:geometricPrecision; image-rendering:optimizeQuality; fill-rule:evenodd; clip-rule:evenodd" viewBox="0 0 859.13 145.49"><script xmlns="" id="eppiocemhmnlbhjplcgkofciiegomcon"/><script xmlns=""/><script xmlns=""/>
 <defs>
  <style type="text/css">
   <![CDATA[
    .str3 {stroke:#373435;stroke-width:2.65;stroke-miterlimit:22.9256}
    .str0 {stroke:black;stroke-width:2.65;stroke-miterlimit:22.9256}
    .str2 {stroke:black;stroke-width:2.65;stroke-miterlimit:22.9256}
    .str9 {stroke:black;stroke-width:2.65;stroke-miterlimit:22.9256}
    .str7 {stroke:black;stroke-width:0.75;stroke-miterlimit:22.9256}
    .str1 {stroke:black;stroke-width:2.65;stroke-linecap:round;stroke-miterlimit:22.9256}
    .str6 {stroke:#373435;stroke-width:1.33;stroke-linecap:round;stroke-miterlimit:22.9256}
    .str8 {stroke:black;stroke-width:2.65;stroke-linecap:round;stroke-linejoin:round;stroke-miterlimit:22.9256}
    .str5 {stroke:black;stroke-width:1.99;stroke-linecap:round;stroke-linejoin:round;stroke-miterlimit:22.9256}
    .str4 {stroke:black;stroke-width:1.99;stroke-linecap:round;stroke-linejoin:round;stroke-miterlimit:22.9256}
    .fil1 {fill:none}
    .fil3 {fill:none;fill-rule:nonzero}
    .fil2 {fill:black}
    .fil4 {fill:#373435;fill-rule:nonzero}
    .fil6 {fill:#292929;fill-rule:nonzero}
    .fil5 {fill:black;fill-rule:nonzero}
    .fil7 {fill:black;fill-rule:nonzero}
    .fil0 {fill:#FEFEFE;fill-opacity:0.000000}
   ]]>
  </style>
 </defs>
 <g id="Layer_x0020_1">
  <metadata id="CorelCorpID_0Corel-Layer"/>
  <polygon class="fil0" points="0,0 859.13,0 859.13,145.49 0,145.49 "/>
  <g id="_1286316536736">
   <g>
    <rect class="fil1 str0" x="146.23" y="28.99" width="66.22" height="87.51" rx="2.18" ry="2.18"/>
    <line class="fil1 str1" x1="178.95" y1="46.01" x2="200.55" y2="46.01"/>
    <line class="fil1 str1" x1="158.12" y1="64.55" x2="200.55" y2="64.55"/>
    <line class="fil1 str1" x1="158.12" y1="75.63" x2="200.55" y2="75.63"/>
    <line class="fil1 str1" x1="158.12" y1="86.72" x2="200.55" y2="86.72"/>
   </g>
   <path class="fil2" d="M289.87 94.93l0 -3.14 0 -1.58 -5.03 0c-1.39,0 -2.53,-1.13 -2.53,-2.52l0 -19.69c0,-1.39 1.14,-2.53 2.53,-2.53l5.03 0 0 -20.05c0,-2.71 -2.23,-4.93 -4.94,-4.93l-15.46 0c-2.71,0 -4.94,2.22 -4.94,4.93l0 46.37 0 10.9 0 2.32 25.34 0 0 -10.08zm-14.37 -40.23c0,0.55 -0.44,0.99 -0.99,0.99l-4.97 0c-0.54,0 -0.99,-0.44 -0.99,-0.99l0 -0.22c0,-0.54 0.45,-0.99 0.99,-0.99l4.97 0c0.55,0 0.99,0.45 0.99,0.99l0 0.22zm0 39.07c0,0.55 -0.44,0.99 -0.99,0.99l-4.97 0c-0.54,0 -0.99,-0.44 -0.99,-0.99l0 -0.22c0,-0.55 0.45,-0.99 0.99,-0.99l4.97 0c0.55,0 0.99,0.44 0.99,0.99l0 0.22zm0 -9.76c0,0.54 -0.44,0.99 -0.99,0.99l-4.97 0c-0.54,-0.01 -0.99,-0.45 -0.99,-0.99l0 -0.23c0,-0.54 0.45,-0.98 0.99,-0.98l4.97 0c0.55,0 0.99,0.44 0.99,0.98l0 0.23zm0 -9.77c0,0.54 -0.44,0.99 -0.99,0.99l-4.97 0c-0.54,0 -0.99,-0.45 -0.99,-0.99l0 -0.22c0,-0.55 0.45,-0.99 0.99,-0.99l4.97 0c0.55,0 0.99,0.44 0.99,0.99l0 0.22zm0 -9.77c0,0.54 -0.44,0.99 -0.99,0.99l-4.97 0c-0.54,0 -0.99,-0.45 -0.99,-0.99l0 -0.22c0,-0.54 0.45,-0.99 0.99,-0.99l4.97 0c0.55,0 0.99,0.45 0.99,0.99l0 0.22z"/>
   <g>
    <path class="fil3 str2" d="M344.36 69.2c10.28,-9.22 20.66,-14.04 31.13,-14.16 10.6,-0.11 21.1,4.57 31.5,14.36 2.8,2.64 2.82,3.54 0.02,6.25 -10.4,10.09 -20.91,14.92 -31.52,14.8 -10.46,-0.12 -20.83,-5.06 -31.09,-14.52 -3.2,-2.96 -3.3,-3.8 -0.04,-6.73z"/>
    <path class="fil3 str3" d="M385.22 63.06c-2.48,-2.48 -5.91,-4.01 -9.69,-4.01 -3.79,0 -7.21,1.53 -9.69,4.01 -2.48,2.48 -4.01,5.9 -4.01,9.69 0,3.78 1.53,7.21 4.01,9.69 2.48,2.47 5.9,4.01 9.69,4.01 3.78,0 7.21,-1.54 9.69,-4.01 2.48,-2.48 4.01,-5.91 4.01,-9.69 0,-3.79 -1.53,-7.21 -4.01,-9.69z"/>
    <path class="fil4" d="M379.81 68.47c-1.1,-1.1 -2.61,-1.77 -4.28,-1.77 -1.01,0 -1.95,0.24 -2.79,0.67 0.16,0.11 0.31,0.23 0.44,0.37 0.55,0.54 0.89,1.3 0.89,2.14 0,0.84 -0.34,1.6 -0.89,2.15 -0.55,0.55 -1.31,0.89 -2.15,0.89 -0.56,0 -1.09,-0.16 -1.55,-0.43 0,0.09 0,0.17 0,0.26 0,1.67 0.67,3.18 1.77,4.27 1.09,1.1 2.61,1.78 4.28,1.78 1.67,0 3.18,-0.68 4.28,-1.78 1.09,-1.09 1.77,-2.6 1.77,-4.27 0,-1.67 -0.68,-3.19 -1.77,-4.28z"/>
   </g>
   <g>
    <path class="fil1 str4" d="M615.38 88.76l1.92 11.36 15.16 15.94c5.11,0.66 10.21,0.58 15.32,0l15.16 -15.94 1.91 -11.36"/>
    <polyline class="fil1 str5" points="615.78,91.77 612.3,90.61 607.81,71.97 609.59,69.11 612.37,70.27 614,72.43 "/>
    <polyline class="fil1 str5" points="664.3,91.77 667.79,90.61 672.27,71.97 670.49,69.11 667.71,70.27 666.08,72.43 "/>
    <path class="fil5" d="M631.56 101.6l6.9 -1.27 1.63 0.5 1.69 -0.5 6.9 1.27c0,0 -3.21,0.22 -3.8,0.24 -1.51,0.08 -3.23,0.11 -4.69,0.11 -1.78,0 -2.93,-0.04 -4.56,-0.16 -0.32,-0.03 -4.07,-0.19 -4.07,-0.19z"/>
    <path class="fil5" d="M636.23 104.7c0,0 2.9,0.19 3.95,0.19 1.11,0 3.83,-0.19 3.83,-0.19 0,0 -1.51,0.95 -3.83,0.95 -2.33,0 -3.95,-0.95 -3.95,-0.95z"/>
    <polyline class="fil1 str6" points="636.02,93.7 636.77,93.47 639.46,95.05 640.84,95.05 643.61,93.45 644.21,93.53 "/>
    <path class="fil5" d="M667.2 71.32c0,0 -0.42,-1.42 -2.69,-1.82 -2.27,-0.4 -4.87,-0.61 -6.1,-0.69 -1.23,-0.08 -5.2,-0.28 -7.28,-0.08 -2.08,0.2 -3.64,0.45 -5.3,1.05 -1.65,0.61 -3.36,1.38 -3.88,1.5 -0.48,0.11 -1.24,0.12 -1.33,0.12 -0.1,0 -0.85,-0.01 -1.34,-0.12 -0.52,-0.12 -2.22,-0.89 -3.87,-1.5 -1.66,-0.6 -3.22,-0.85 -5.3,-1.05 -2.08,-0.2 -6.05,0 -7.28,0.08 -1.23,0.08 -3.83,0.29 -6.1,0.69 -2.27,0.4 -2.69,1.82 -2.69,1.82 0,0 -0.19,2.63 0,2.83 1.27,1.29 0.94,1.21 1.65,4 0.68,2.65 1.99,3.87 3.36,4.53 -0.03,-0.02 -0.07,-0.04 -0.1,-0.07 -1.56,-1.52 -1.7,-4.65 -1.79,-5.62 -0.1,-0.97 0,-4.01 0,-4.01 0,0 0.09,-1.93 2.55,-2.39 2.46,-0.46 5.48,-0.51 5.48,-0.51 0,0 3.31,-0.04 4.97,0.14 1.65,0.18 4.63,0.64 5.86,1.56 0.7,0.53 1.7,1.39 1.28,3.92 -0.29,1.69 -0.96,4.71 -3.21,6.72 2.87,-1.67 4.06,-5.01 4.44,-6.38 0.41,-1.49 1.74,-1.45 2.05,-1.42l0 0.01c0,0 0.03,0 0.04,0 0.01,0 0.03,0 0.03,0l0 -0.01c0.32,-0.03 1.64,-0.07 2.06,1.42 0.38,1.37 1.56,4.71 4.43,6.38 -2.25,-2.01 -2.92,-5.03 -3.2,-6.72 -0.42,-2.53 0.58,-3.39 1.28,-3.92 1.23,-0.92 4.2,-1.38 5.86,-1.56 1.65,-0.18 4.96,-0.14 4.96,-0.14 0,0 3.03,0.05 5.49,0.51 2.45,0.46 2.55,2.39 2.55,2.39 0,0 0.1,3.04 0,4.01 -0.1,0.97 -0.24,4.1 -1.79,5.62 -0.03,0.03 -0.07,0.05 -0.1,0.07 1.37,-0.66 2.68,-1.88 3.36,-4.53 0.71,-2.79 0.37,-2.71 1.65,-4 0.19,-0.2 0,-2.83 0,-2.83z"/>
    <g>
     <path class="fil5" d="M629.96 75.68c-0.43,-0.09 -0.7,-0.51 -0.61,-0.94 0.1,-0.43 0.52,-0.7 0.95,-0.6 0.08,0.02 0.15,0.05 0.22,0.09 -0.29,-0.77 -0.94,-1.39 -1.81,-1.58 -1.35,-0.3 -2.69,0.55 -2.99,1.91 -0.3,1.35 0.56,2.69 1.91,2.99 1.35,0.3 2.7,-0.56 2.99,-1.91 0.01,-0.05 0.02,-0.09 0.02,-0.13 -0.18,0.16 -0.43,0.23 -0.68,0.17z"/>
     <path class="fil5" d="M633.6 75.95c0,-0.01 -2.46,-2.82 -5.46,-2.82 -2.43,0 -4.5,1.83 -5.2,2.54 0.33,0.31 0.93,0.82 1.72,1.29l-0.41 0.69c-1.33,-0.79 -2.16,-1.68 -2.16,-1.68l-0.26 -0.27 0.24 -0.28c0.01,-0.01 2.7,-3.09 6.07,-3.09 3.36,0 6.05,3.08 6.06,3.09l-0.6 0.53z"/>
     <path class="fil5" d="M654.17 75.68c-0.43,-0.09 -0.7,-0.51 -0.61,-0.94 0.1,-0.43 0.52,-0.7 0.95,-0.6 0.08,0.02 0.15,0.05 0.22,0.09 -0.29,-0.77 -0.94,-1.39 -1.81,-1.58 -1.35,-0.3 -2.69,0.55 -2.99,1.9 -0.3,1.36 0.56,2.7 1.91,3 1.35,0.3 2.69,-0.56 2.99,-1.91 0.01,-0.05 0.01,-0.09 0.02,-0.13 -0.18,0.16 -0.43,0.23 -0.68,0.17z"/>
     <path class="fil5" d="M657.81 75.95c0,-0.01 -2.46,-2.82 -5.46,-2.82 -2.43,0 -4.5,1.83 -5.2,2.54 0.33,0.31 0.93,0.82 1.72,1.29l-0.41 0.69c-1.33,-0.79 -2.16,-1.68 -2.16,-1.68l-0.26 -0.27 0.24 -0.28c0.01,-0.01 2.7,-3.09 6.07,-3.09 3.36,0 6.05,3.08 6.06,3.09l-0.6 0.53z"/>
    </g>
    <path class="fil5" d="M621.02 32.81l-10.46 13.76c0,0 1.71,20.1 1.94,21.26 0.24,1.17 3.74,8.23 3.74,8.23l1.53 -18.97 37.3 -8.66 9.06 8.21 2.76 17.58 2.21 -6.85 0.58 -14.57 -3.46 -13.94 -14.75 -9.89 -30.45 3.84z"/>
   </g>
   <path class="fil6 str7" d="M548.97 78.18c0,0 -1.14,4.26 -5.88,5.23 -1.42,0.33 -2.89,0.57 -4.35,0.77 -1.39,0.19 -2.79,0.33 -4.19,0.39 -1.42,0.06 -2.85,0.03 -4.27,-0.02 -1.36,-0.05 -2.72,-0.08 -4.05,-0.34 -1.79,-0.36 -3.56,-0.96 -5.03,-1.92 -0.47,-0.31 -0.8,-0.68 -1.15,-1.08 -0.65,-0.76 -1.27,-1.55 -1.82,-2.36 -1.51,-2.2 -2.58,-4.76 -3.12,-7.26 -0.13,-0.61 -0.23,-1.23 -0.26,-1.85 -0.03,-0.43 -0.02,-0.88 0.02,-1.33 0.13,-1.28 0.56,-2.58 1.47,-3.58 0.65,-0.72 1.52,-1.26 2.51,-1.58 0,0 6.78,-2.2 14.77,-2.48 0,0 6.94,-0.41 12.17,0.55 0,0 4.24,0.55 4.57,5.37 0,0 0.65,6.54 -1.39,11.49zm-46.8 -8.43c-0.03,0.62 -0.13,1.23 -0.26,1.84 -0.54,2.51 -1.61,5.07 -3.11,7.27 -0.56,0.81 -1.18,1.6 -1.83,2.36 -0.35,0.4 -0.68,0.77 -1.15,1.08 -1.46,0.96 -3.24,1.55 -5.03,1.91 -1.33,0.27 -2.69,0.3 -4.05,0.35 -1.42,0.05 -2.85,0.08 -4.27,0.01 -1.4,-0.06 -2.8,-0.19 -4.19,-0.38 -1.46,-0.2 -2.93,-0.44 -4.35,-0.78 -4.74,-0.96 -5.88,-5.22 -5.88,-5.22 -2.04,-4.96 -1.39,-11.49 -1.39,-11.49 0.33,-4.82 4.57,-5.37 4.57,-5.37 5.23,-0.96 12.17,-0.55 12.17,-0.55 8,0.28 14.77,2.48 14.77,2.48 0.99,0.32 1.87,0.86 2.51,1.57 0.91,1.01 1.35,2.3 1.47,3.58 0.04,0.46 0.05,0.91 0.02,1.34zm53.53 -7.79c-0.03,-0.39 -0.04,-0.86 -0.3,-1.21 -0.26,-0.35 -0.69,-0.51 -1.15,-0.6 -8.25,-1.51 -21.14,-0.96 -21.14,-0.96 -2.87,0.16 -5.72,0.47 -8.53,0.98 -2.02,0.36 -4.01,0.81 -5.96,1.39 -1.16,0.34 -2.31,0.72 -3.4,1.19 -4.16,1.81 -9.38,1.81 -13.52,0.01 -1.1,-0.48 -2.24,-0.85 -3.4,-1.2 -1.95,-0.57 -3.95,-1.03 -5.97,-1.39 -2.81,-0.5 -5.66,-0.82 -8.52,-0.97 0,0 -12.9,-0.55 -21.15,0.96 -0.46,0.09 -0.89,0.25 -1.15,0.6 -0.26,0.34 -0.27,0.81 -0.29,1.21 -0.05,0.58 -0.07,1.26 0.19,1.8 0.13,0.26 0.35,0.42 0.6,0.58 0.29,0.17 0.51,0.41 0.7,0.66 0.82,1.09 1.04,2.4 1.11,3.65 0.14,2.57 0.62,5.1 1.27,7.61 0.62,2.38 1.35,4.72 3.45,6.5 0.79,0.67 1.7,1.23 2.72,1.62 0.33,0.13 0.68,0.24 1.04,0.33 0,0 6.33,1.93 12.55,1.65 2.99,-0.13 6.18,-0.31 8.98,-1.28 0.94,-0.33 1.82,-0.77 2.59,-1.34 0.99,-0.73 1.86,-1.57 2.65,-2.46 1.49,-1.69 2.67,-3.56 3.59,-5.51 0.71,-1.51 1.27,-3.08 1.91,-4.6 1.71,-4.1 6.06,-4.11 7.77,-0.01 0.64,1.52 1.2,3.1 1.91,4.6 0.92,1.95 2.11,3.82 3.6,5.51 0.78,0.89 1.65,1.73 2.65,2.47 0.76,0.56 1.64,1 2.58,1.33 2.8,0.97 5.99,1.15 8.98,1.29 6.22,0.27 12.56,-1.66 12.56,-1.66 0.35,-0.08 0.7,-0.19 1.03,-0.32 1.02,-0.4 1.93,-0.96 2.72,-1.63 2.1,-1.78 2.84,-4.12 3.45,-6.5 0.65,-2.51 1.14,-5.04 1.28,-7.61 0.07,-1.25 0.29,-2.56 1.1,-3.64 0.19,-0.26 0.41,-0.49 0.7,-0.67 0.26,-0.16 0.48,-0.32 0.6,-0.58 0.26,-0.54 0.24,-1.22 0.2,-1.8z"/>
   <g>
    <path class="fil1 str8" d="M742.29 82.17l18.52 -36.77 -11.82 0c-4.26,0.28 -3.09,4.3 -0.4,6.09"/>
    <line class="fil1 str8" x1="756.09" y1="54.77" x2="792.07" y2="54.77"/>
    <line class="fil1 str8" x1="753.58" y1="59.75" x2="776.12" y2="77.91"/>
    <line class="fil1 str8" x1="794.36" y1="49.01" x2="782.07" y2="82.16"/>
    <circle class="fil1 str9" cx="782.07" cy="82.16" r="7.05"/>
    <line class="fil1 str8" x1="815.41" y1="82.16" x2="792.07" y2="54.77"/>
    <line class="fil1 str8" x1="782.07" y1="82.16" x2="815.41" y2="82.16"/>
    <circle class="fil1 str9" cx="742.29" cy="82.17" r="17.93"/>
    <circle class="fil1 str9" cx="815.41" cy="82.17" r="17.93"/>
    <path class="fil1 str8" d="M786.38 49.58c8.04,-0.18 14.16,-1.08 14.68,-4.07"/>
   </g>
   <polygon class="fil5" points="240.57,66.99 240.57,70.44 245.75,70.44 245.75,74.6 240.57,74.6 240.57,79.78 236.41,79.78 236.41,74.6 231.23,74.6 231.23,70.44 236.41,70.44 236.41,65.26 240.57,65.26 "/>
   <polygon class="fil5" points="317.99,66.99 317.99,70.44 323.17,70.44 323.17,74.6 317.99,74.6 317.99,79.78 313.83,79.78 313.83,74.6 308.65,74.6 308.65,70.44 313.83,70.44 313.83,65.26 317.99,65.26 "/>
   <polygon class="fil5" points="437.23,66.99 437.23,70.44 442.4,70.44 442.4,74.6 437.23,74.6 437.23,79.78 433.06,79.78 433.06,74.6 427.89,74.6 427.89,70.44 433.06,70.44 433.06,65.26 437.23,65.26 "/>
   <polygon class="fil5" points="583.85,66.99 583.85,70.44 589.03,70.44 589.03,74.6 583.85,74.6 583.85,79.78 579.68,79.78 579.68,74.6 574.51,74.6 574.51,70.44 579.68,70.44 579.68,65.26 583.85,65.26 "/>
   <polygon class="fil5" points="700.4,66.99 700.4,70.44 705.58,70.44 705.58,74.6 700.4,74.6 700.4,79.78 696.23,79.78 696.23,74.6 691.06,74.6 691.06,70.44 696.23,70.44 696.23,65.26 700.4,65.26 "/>
   <g>
    <path class="fil7" d="M45.98 86.67l27.85 0 0 -27.85 -27.85 0 0 27.85zm28.97 2.24l-30.09 0c-0.62,0 -1.12,-0.5 -1.12,-1.12l0 -30.09c0,-0.62 0.5,-1.12 1.12,-1.12l30.09 0c0.61,0 1.12,0.5 1.12,1.12l0 30.09c0,0.62 -0.51,1.12 -1.12,1.12z"/>
    <path class="fil7" d="M52.36 58.82c-0.62,0 -1.12,-0.5 -1.12,-1.12l0 -8.61c0,-0.62 0.5,-1.12 1.12,-1.12 0.62,0 1.12,0.5 1.12,1.12l0 8.61c0,0.62 -0.5,1.12 -1.12,1.12z"/>
    <path class="fil7" d="M52.36 50.21l-5.95 0c-0.61,0 -1.12,-0.51 -1.12,-1.12 0,-0.62 0.51,-1.12 1.12,-1.12l5.95 0c0.62,0 1.12,0.5 1.12,1.12 0,0.61 -0.5,1.12 -1.12,1.12z"/>
    <path class="fil7" d="M43.49 47.28c-0.99,0 -1.8,0.81 -1.8,1.81 0,0.99 0.81,1.8 1.8,1.8 1,0 1.8,-0.81 1.8,-1.8 0,-1 -0.8,-1.81 -1.8,-1.81zm0 5.85c-2.23,0 -4.04,-1.81 -4.04,-4.04 0,-2.23 1.81,-4.05 4.04,-4.05 2.23,0 4.04,1.82 4.04,4.05 0,2.23 -1.81,4.04 -4.04,4.04z"/>
    <path class="fil7" d="M67.18 58.82c-0.62,0 -1.12,-0.5 -1.12,-1.12l0 -8.61c0,-0.62 0.5,-1.12 1.12,-1.12 0.61,0 1.11,0.5 1.11,1.12l0 8.61c0,0.62 -0.5,1.12 -1.11,1.12z"/>
    <path class="fil7" d="M73.12 50.21l-5.94 0c-0.62,0 -1.12,-0.51 -1.12,-1.12 0,-0.62 0.5,-1.12 1.12,-1.12l5.94 0c0.62,0 1.12,0.5 1.12,1.12 0,0.61 -0.5,1.12 -1.12,1.12z"/>
    <path class="fil7" d="M76.04 47.28c-0.99,0 -1.8,0.81 -1.8,1.81 0,0.99 0.81,1.8 1.8,1.8 0.99,0 1.8,-0.81 1.8,-1.8 0,-1 -0.81,-1.81 -1.8,-1.81zm0 5.85c-2.23,0 -4.04,-1.81 -4.04,-4.04 0,-2.23 1.81,-4.05 4.04,-4.05 2.23,0 4.04,1.82 4.04,4.05 0,2.23 -1.81,4.04 -4.04,4.04z"/>
    <path class="fil7" d="M59.77 40.88c-1,0 -1.81,0.81 -1.81,1.8 0,1 0.81,1.8 1.81,1.8 0.99,0 1.8,-0.8 1.8,-1.8 0,-0.99 -0.81,-1.8 -1.8,-1.8zm0 5.84c-2.23,0 -4.05,-1.81 -4.05,-4.04 0,-2.23 1.82,-4.04 4.05,-4.04 2.23,0 4.04,1.81 4.04,4.04 0,2.23 -1.81,4.04 -4.04,4.04z"/>
    <path class="fil7" d="M59.77 58.26c-0.62,0 -1.12,-0.5 -1.12,-1.12l0 -11.54c0,-0.61 0.5,-1.12 1.12,-1.12 0.61,0 1.12,0.51 1.12,1.12l0 11.54c0,0.62 -0.51,1.12 -1.12,1.12z"/>
    <path class="fil7" d="M44.86 81.27l-8.62 0c-0.62,0 -1.12,-0.5 -1.12,-1.12 0,-0.62 0.5,-1.12 1.12,-1.12l8.62 0c0.61,0 1.12,0.5 1.12,1.12 0,0.62 -0.51,1.12 -1.12,1.12z"/>
    <path class="fil7" d="M36.24 87.22c-0.62,0 -1.12,-0.51 -1.12,-1.12l0 -5.95c0,-0.62 0.5,-1.12 1.12,-1.12 0.62,0 1.12,0.5 1.12,1.12l0 5.95c0,0.61 -0.5,1.12 -1.12,1.12z"/>
    <path class="fil7" d="M36.24 87.22c-0.99,0 -1.8,0.8 -1.8,1.8 0,0.99 0.81,1.8 1.8,1.8 1,0 1.8,-0.81 1.8,-1.8 0,-1 -0.8,-1.8 -1.8,-1.8zm0 5.84c-2.23,0 -4.04,-1.81 -4.04,-4.04 0,-2.23 1.81,-4.04 4.04,-4.04 2.23,0 4.04,1.81 4.04,4.04 0,2.23 -1.81,4.04 -4.04,4.04z"/>
    <path class="fil7" d="M44.86 66.45l-8.62 0c-0.62,0 -1.12,-0.5 -1.12,-1.12 0,-0.61 0.5,-1.11 1.12,-1.11l8.62 0c0.61,0 1.12,0.5 1.12,1.11 0,0.62 -0.51,1.12 -1.12,1.12z"/>
    <path class="fil7" d="M36.24 66.45c-0.62,0 -1.12,-0.5 -1.12,-1.12l0 -5.94c0,-0.62 0.5,-1.12 1.12,-1.12 0.62,0 1.12,0.5 1.12,1.12l0 5.94c0,0.62 -0.5,1.12 -1.12,1.12z"/>
    <path class="fil7" d="M36.24 54.67c-0.99,0 -1.8,0.81 -1.8,1.8 0,0.99 0.81,1.8 1.8,1.8 1,0 1.8,-0.81 1.8,-1.8 0,-0.99 -0.8,-1.8 -1.8,-1.8zm0 5.84c-2.23,0 -4.04,-1.81 -4.04,-4.04 0,-2.23 1.81,-4.04 4.04,-4.04 2.23,0 4.04,1.81 4.04,4.04 0,2.23 -1.81,4.04 -4.04,4.04z"/>
    <path class="fil7" d="M29.84 70.94c-1,0 -1.8,0.81 -1.8,1.8 0,1 0.8,1.81 1.8,1.81 0.99,0 1.8,-0.81 1.8,-1.81 0,-0.99 -0.81,-1.8 -1.8,-1.8zm0 5.85c-2.23,0 -4.04,-1.82 -4.04,-4.05 0,-2.22 1.81,-4.04 4.04,-4.04 2.22,0 4.04,1.82 4.04,4.04 0,2.23 -1.82,4.05 -4.04,4.05z"/>
    <path class="fil7" d="M44.3 73.86l-11.54 0c-0.62,0 -1.12,-0.5 -1.12,-1.12 0,-0.61 0.5,-1.12 1.12,-1.12l11.54 0c0.61,0 1.12,0.51 1.12,1.12 0,0.62 -0.51,1.12 -1.12,1.12z"/>
    <path class="fil7" d="M67.31 97.53c-0.62,0 -1.12,-0.51 -1.12,-1.12l0 -8.62c0,-0.62 0.5,-1.12 1.12,-1.12 0.62,0 1.12,0.5 1.12,1.12l0 8.62c0,0.61 -0.5,1.12 -1.12,1.12z"/>
    <path class="fil7" d="M73.25 97.53l-5.94 0c-0.62,0 -1.12,-0.51 -1.12,-1.12 0,-0.62 0.5,-1.12 1.12,-1.12l5.94 0c0.62,0 1.12,0.5 1.12,1.12 0,0.61 -0.5,1.12 -1.12,1.12z"/>
    <path class="fil7" d="M76.18 94.6c-1,0 -1.81,0.81 -1.81,1.81 0,0.99 0.81,1.8 1.81,1.8 0.99,0 1.8,-0.81 1.8,-1.8 0,-1 -0.81,-1.81 -1.8,-1.81zm0 5.85c-2.23,0 -4.05,-1.81 -4.05,-4.04 0,-2.23 1.82,-4.04 4.05,-4.04 2.22,0 4.04,1.81 4.04,4.04 0,2.23 -1.82,4.04 -4.04,4.04z"/>
    <path class="fil7" d="M52.49 97.53c-0.62,0 -1.12,-0.51 -1.12,-1.12l0 -8.62c0,-0.62 0.5,-1.12 1.12,-1.12 0.62,0 1.12,0.5 1.12,1.12l0 8.62c0,0.61 -0.5,1.12 -1.12,1.12z"/>
    <path class="fil7" d="M52.49 97.53l-5.94 0c-0.62,0 -1.12,-0.51 -1.12,-1.12 0,-0.62 0.5,-1.12 1.12,-1.12l5.94 0c0.62,0 1.12,0.5 1.12,1.12 0,0.61 -0.5,1.12 -1.12,1.12z"/>
    <path class="fil7" d="M43.63 94.6c-1,0 -1.81,0.81 -1.81,1.81 0,0.99 0.81,1.8 1.81,1.8 0.99,0 1.8,-0.81 1.8,-1.8 0,-1 -0.81,-1.81 -1.8,-1.81zm0 5.85c-2.23,0 -4.04,-1.81 -4.04,-4.04 0,-2.23 1.81,-4.04 4.04,-4.04 2.23,0 4.04,1.81 4.04,4.04 0,2.23 -1.81,4.04 -4.04,4.04z"/>
    <path class="fil7" d="M59.9 101.01c-0.99,0 -1.8,0.81 -1.8,1.8 0,0.99 0.81,1.8 1.8,1.8 1,0 1.8,-0.81 1.8,-1.8 0,-0.99 -0.8,-1.8 -1.8,-1.8zm0 5.84c-2.23,0 -4.04,-1.81 -4.04,-4.04 0,-2.23 1.81,-4.04 4.04,-4.04 2.23,0 4.04,1.81 4.04,4.04 0,2.23 -1.81,4.04 -4.04,4.04z"/>
    <path class="fil7" d="M59.9 101.01c-0.62,0 -1.12,-0.5 -1.12,-1.12l0 -11.54c0,-0.62 0.5,-1.12 1.12,-1.12 0.62,0 1.12,0.5 1.12,1.12l0 11.54c0,0.62 -0.5,1.12 -1.12,1.12z"/>
    <path class="fil7" d="M83.69 66.46l-8.61 0c-0.62,0 -1.12,-0.5 -1.12,-1.12 0,-0.62 0.5,-1.12 1.12,-1.12l8.61 0c0.62,0 1.12,0.5 1.12,1.12 0,0.62 -0.5,1.12 -1.12,1.12z"/>
    <path class="fil7" d="M83.69 66.46c-0.62,0 -1.12,-0.5 -1.12,-1.12l0 -5.95c0,-0.61 0.5,-1.12 1.12,-1.12 0.62,0 1.12,0.51 1.12,1.12l0 5.95c0,0.62 -0.5,1.12 -1.12,1.12z"/>
    <path class="fil7" d="M83.69 54.67c-0.99,0 -1.8,0.81 -1.8,1.8 0,1 0.81,1.8 1.8,1.8 1,0 1.81,-0.8 1.81,-1.8 0,-0.99 -0.81,-1.8 -1.81,-1.8zm0 5.84c-2.23,0 -4.04,-1.81 -4.04,-4.04 0,-2.23 1.81,-4.04 4.04,-4.04 2.23,0 4.04,1.81 4.04,4.04 0,2.23 -1.81,4.04 -4.04,4.04z"/>
    <path class="fil7" d="M83.69 81.27l-8.61 0c-0.62,0 -1.12,-0.5 -1.12,-1.12 0,-0.61 0.5,-1.11 1.12,-1.11l8.61 0c0.62,0 1.12,0.5 1.12,1.11 0,0.62 -0.5,1.12 -1.12,1.12z"/>
    <path class="fil7" d="M83.69 87.22c-0.62,0 -1.12,-0.5 -1.12,-1.12l0 -5.95c0,-0.61 0.5,-1.11 1.12,-1.11 0.62,0 1.12,0.5 1.12,1.11l0 5.95c0,0.62 -0.5,1.12 -1.12,1.12z"/>
    <path class="fil7" d="M83.69 87.22c-0.99,0 -1.8,0.81 -1.8,1.8 0,0.99 0.81,1.8 1.8,1.8 1,0 1.81,-0.81 1.81,-1.8 0,-0.99 -0.81,-1.8 -1.81,-1.8zm0 5.84c-2.23,0 -4.04,-1.81 -4.04,-4.04 0,-2.23 1.81,-4.04 4.04,-4.04 2.23,0 4.04,1.81 4.04,4.04 0,2.23 -1.81,4.04 -4.04,4.04z"/>
    <path class="fil7" d="M90.1 70.94c-1,0 -1.81,0.81 -1.81,1.81 0,0.99 0.81,1.8 1.81,1.8 0.99,0 1.8,-0.81 1.8,-1.8 0,-1 -0.81,-1.81 -1.8,-1.81zm0 5.85c-2.23,0 -4.05,-1.82 -4.05,-4.04 0,-2.23 1.82,-4.04 4.05,-4.04 2.23,0 4.04,1.81 4.04,4.04 0,2.22 -1.81,4.04 -4.04,4.04z"/>
    <path class="fil7" d="M87.17 73.87l-11.53 0c-0.62,0 -1.12,-0.5 -1.12,-1.12 0,-0.62 0.5,-1.12 1.12,-1.12l11.53 0c0.62,0 1.12,0.5 1.12,1.12 0,0.62 -0.5,1.12 -1.12,1.12z"/>
    <path class="fil7" d="M52.43 80.14l15.08 0 0 -15.08 -15.08 0 0 15.08zm16.2 2.24l-17.32 0c-0.62,0 -1.12,-0.5 -1.12,-1.12l0 -17.32c0,-0.62 0.5,-1.12 1.12,-1.12l17.32 0c0.62,0 1.12,0.5 1.12,1.12l0 17.32c0,0.62 -0.5,1.12 -1.12,1.12z"/>
   </g>
   <polygon class="fil5" points="122.26,66.99 122.26,70.44 127.44,70.44 127.44,74.6 122.26,74.6 122.26,79.78 118.1,79.78 118.1,74.6 112.92,74.6 112.92,70.44 118.1,70.44 118.1,65.26 122.26,65.26 "/>
  </g>
 </g>
</svg>