<svg xmlns="http://www.w3.org/2000/svg" xmlns:xlink="http://www.w3.org/1999/xlink" xmlns:xodm="http://www.corel.com/coreldraw/odm/2003" xml:space="preserve" width="2700px" height="457px" version="1.1" style="shape-rendering:geometricPrecision; text-rendering:geometricPrecision; image-rendering:optimizeQuality; fill-rule:evenodd; clip-rule:evenodd" viewBox="0 0 859.13 145.49"><script xmlns="" id="eppiocemhmnlbhjplcgkofciiegomcon"/><script xmlns=""/><script xmlns=""/>
 <defs>
  <style type="text/css">
   <![CDATA[
    .str2 {stroke:#373435;stroke-width:2.65;stroke-miterlimit:22.9256}
    .str0 {stroke:black;stroke-width:2.65;stroke-miterlimit:22.9256}
    .str3 {stroke:black;stroke-width:0.75;stroke-miterlimit:22.9256}
    .str1 {stroke:black;stroke-width:2.65;stroke-linecap:round;stroke-miterlimit:22.9256}
    .str4 {stroke:black;stroke-width:2.4;stroke-linejoin:round;stroke-miterlimit:10}
    .fil1 {fill:none}
    .fil3 {fill:none;fill-rule:nonzero}
    .fil2 {fill:black}
    .fil7 {fill:black}
    .fil4 {fill:#373435;fill-rule:nonzero}
    .fil5 {fill:#292929;fill-rule:nonzero}
    .fil6 {fill:black;fill-rule:nonzero}
    .fil0 {fill:#FEFEFE;fill-opacity:0.000000}
   ]]>
  </style>
 </defs>
 <g id="Layer_x0020_1">
  <metadata id="CorelCorpID_0Corel-Layer"/>
  <polygon class="fil0" points="0,0 859.13,0 859.13,145.49 0,145.49 "/>
  <g id="_1727257558464">
   <g>
    <rect class="fil1 str0" x="163.66" y="28.99" width="66.22" height="87.51" rx="2.18" ry="2.18"/>
    <line class="fil1 str1" x1="196.39" y1="46.01" x2="217.99" y2="46.01"/>
    <line class="fil1 str1" x1="175.56" y1="64.55" x2="217.99" y2="64.55"/>
    <line class="fil1 str1" x1="175.56" y1="75.63" x2="217.99" y2="75.63"/>
    <line class="fil1 str1" x1="175.56" y1="86.72" x2="217.99" y2="86.72"/>
   </g>
   <path class="fil2" d="M307.25 94.93l0 -3.14 0 -1.58 -5.02 0c-1.39,0 -2.53,-1.13 -2.53,-2.52l0 -19.69c0,-1.39 1.14,-2.53 2.53,-2.53l5.02 0 0 -20.05c0,-2.71 -2.22,-4.93 -4.94,-4.93l-15.45 0c-2.71,0 -4.94,2.22 -4.94,4.93l0 46.37 0 10.9 0 2.32 25.33 0 0 -10.08zm-14.36 -40.23c0,0.55 -0.45,0.99 -0.99,0.99l-4.97 0c-0.55,0 -0.99,-0.44 -0.99,-0.99l0 -0.22c0,-0.54 0.44,-0.99 0.99,-0.99l4.97 0c0.54,0 0.99,0.45 0.99,0.99l0 0.22zm0 39.07c0,0.55 -0.45,0.99 -0.99,0.99l-4.97 0c-0.55,0 -0.99,-0.44 -0.99,-0.99l0 -0.22c0,-0.55 0.44,-0.99 0.99,-0.99l4.97 0c0.54,0 0.99,0.44 0.99,0.99l0 0.22zm0 -9.76c0,0.54 -0.45,0.99 -0.99,0.99l-4.97 0c-0.55,-0.01 -0.99,-0.45 -0.99,-0.99l0 -0.23c0,-0.54 0.44,-0.98 0.99,-0.98l4.97 0c0.54,0 0.99,0.44 0.99,0.98l0 0.23zm0 -9.77c0,0.54 -0.45,0.99 -0.99,0.99l-4.97 0c-0.55,0 -0.99,-0.45 -0.99,-0.99l0 -0.22c0,-0.55 0.44,-0.99 0.99,-0.99l4.97 0c0.54,0 0.99,0.44 0.99,0.99l0 0.22zm0 -9.77c0,0.54 -0.45,0.99 -0.99,0.99l-4.97 0c-0.55,0 -0.99,-0.45 -0.99,-0.99l0 -0.22c0,-0.54 0.44,-0.99 0.99,-0.99l4.97 0c0.54,0 0.99,0.45 0.99,0.99l0 0.22z"/>
   <g>
    <path class="fil3 str0" d="M361.7 69.2c10.28,-9.22 20.65,-14.04 31.13,-14.16 10.6,-0.11 21.1,4.57 31.5,14.36 2.8,2.64 2.82,3.54 0.02,6.25 -10.4,10.09 -20.91,14.92 -31.52,14.8 -10.47,-0.12 -20.83,-5.06 -31.09,-14.52 -3.21,-2.96 -3.31,-3.8 -0.04,-6.73z"/>
    <path class="fil3 str2" d="M402.55 63.06c-2.47,-2.48 -5.9,-4.01 -9.68,-4.01 -3.79,0 -7.21,1.53 -9.69,4.01 -2.48,2.48 -4.02,5.9 -4.02,9.69 0,3.78 1.54,7.21 4.02,9.69 2.48,2.47 5.9,4.01 9.69,4.01 3.78,0 7.21,-1.54 9.68,-4.01 2.48,-2.48 4.02,-5.91 4.02,-9.69 0,-3.79 -1.54,-7.21 -4.02,-9.69z"/>
    <path class="fil4" d="M397.14 68.47c-1.09,-1.1 -2.6,-1.77 -4.27,-1.77 -1.01,0 -1.96,0.24 -2.79,0.67 0.16,0.11 0.3,0.23 0.44,0.37 0.55,0.54 0.89,1.3 0.89,2.14 0,0.84 -0.34,1.6 -0.89,2.15 -0.55,0.55 -1.31,0.89 -2.15,0.89 -0.57,0 -1.1,-0.16 -1.55,-0.43 0,0.09 0,0.17 0,0.26 0,1.67 0.67,3.18 1.77,4.27 1.09,1.1 2.61,1.78 4.28,1.78 1.67,0 3.18,-0.68 4.27,-1.78 1.1,-1.09 1.78,-2.6 1.78,-4.27 0,-1.67 -0.68,-3.19 -1.78,-4.28z"/>
   </g>
   <path class="fil5 str3" d="M566.26 78.18c0,0 -1.14,4.26 -5.88,5.23 -1.42,0.33 -2.89,0.57 -4.35,0.77 -1.39,0.19 -2.79,0.33 -4.19,0.39 -1.42,0.06 -2.85,0.03 -4.27,-0.02 -1.36,-0.05 -2.72,-0.08 -4.05,-0.34 -1.79,-0.36 -3.57,-0.96 -5.03,-1.92 -0.47,-0.31 -0.8,-0.68 -1.15,-1.08 -0.66,-0.76 -1.27,-1.55 -1.83,-2.36 -1.5,-2.2 -2.57,-4.76 -3.11,-7.26 -0.13,-0.61 -0.23,-1.23 -0.26,-1.85 -0.03,-0.43 -0.02,-0.88 0.02,-1.33 0.12,-1.28 0.56,-2.58 1.47,-3.58 0.64,-0.72 1.52,-1.26 2.51,-1.58 0,0 6.77,-2.2 14.77,-2.48 0,0 6.94,-0.41 12.17,0.55 0,0 4.24,0.55 4.57,5.37 0,0 0.65,6.54 -1.39,11.49zm-46.8 -8.43c-0.03,0.62 -0.13,1.23 -0.26,1.84 -0.54,2.51 -1.61,5.07 -3.12,7.27 -0.55,0.81 -1.17,1.6 -1.82,2.36 -0.35,0.4 -0.68,0.77 -1.15,1.08 -1.47,0.96 -3.24,1.55 -5.03,1.91 -1.33,0.27 -2.69,0.3 -4.05,0.35 -1.42,0.05 -2.85,0.08 -4.27,0.01 -1.4,-0.06 -2.8,-0.19 -4.19,-0.38 -1.46,-0.2 -2.93,-0.44 -4.35,-0.78 -4.74,-0.96 -5.88,-5.22 -5.88,-5.22 -2.04,-4.96 -1.39,-11.49 -1.39,-11.49 0.33,-4.82 4.57,-5.37 4.57,-5.37 5.23,-0.96 12.17,-0.55 12.17,-0.55 8,0.28 14.77,2.48 14.77,2.48 0.99,0.32 1.86,0.86 2.51,1.57 0.91,1.01 1.34,2.3 1.47,3.58 0.04,0.46 0.05,0.91 0.02,1.34zm53.53 -7.79c-0.03,-0.39 -0.04,-0.86 -0.3,-1.21 -0.26,-0.35 -0.69,-0.51 -1.15,-0.6 -8.25,-1.51 -21.14,-0.96 -21.14,-0.96 -2.87,0.16 -5.72,0.47 -8.53,0.98 -2.02,0.36 -4.02,0.81 -5.97,1.39 -1.15,0.34 -2.3,0.72 -3.39,1.19 -4.16,1.81 -9.38,1.81 -13.53,0.01 -1.09,-0.48 -2.24,-0.85 -3.39,-1.2 -1.95,-0.57 -3.95,-1.03 -5.97,-1.39 -2.81,-0.5 -5.66,-0.82 -8.53,-0.97 0,0 -12.89,-0.55 -21.14,0.96 -0.46,0.09 -0.89,0.25 -1.15,0.6 -0.26,0.34 -0.27,0.81 -0.3,1.21 -0.04,0.58 -0.06,1.26 0.2,1.8 0.12,0.26 0.35,0.42 0.6,0.58 0.29,0.17 0.51,0.41 0.7,0.66 0.81,1.09 1.03,2.4 1.1,3.65 0.15,2.57 0.63,5.1 1.28,7.61 0.62,2.38 1.35,4.72 3.45,6.5 0.79,0.67 1.7,1.23 2.72,1.62 0.33,0.13 0.68,0.24 1.03,0.33 0,0 6.34,1.93 12.56,1.65 2.99,-0.13 6.18,-0.31 8.98,-1.28 0.94,-0.33 1.82,-0.77 2.59,-1.34 0.99,-0.73 1.86,-1.57 2.65,-2.46 1.49,-1.69 2.67,-3.56 3.59,-5.51 0.71,-1.51 1.27,-3.08 1.91,-4.6 1.71,-4.1 6.06,-4.11 7.77,-0.01 0.64,1.52 1.2,3.1 1.91,4.6 0.92,1.95 2.11,3.82 3.59,5.51 0.79,0.89 1.66,1.73 2.65,2.47 0.77,0.56 1.65,1 2.59,1.33 2.8,0.97 5.99,1.15 8.98,1.29 6.22,0.27 12.56,-1.66 12.56,-1.66 0.35,-0.08 0.7,-0.19 1.03,-0.32 1.02,-0.4 1.93,-0.96 2.72,-1.63 2.1,-1.78 2.83,-4.12 3.45,-6.5 0.65,-2.51 1.13,-5.04 1.28,-7.61 0.07,-1.25 0.28,-2.56 1.1,-3.64 0.19,-0.26 0.41,-0.49 0.7,-0.67 0.25,-0.16 0.48,-0.32 0.6,-0.58 0.26,-0.54 0.24,-1.22 0.2,-1.8z"/>
   <polygon class="fil6" points="257.99,66.99 257.99,70.44 263.16,70.44 263.16,74.6 257.99,74.6 257.99,79.78 253.82,79.78 253.82,74.6 248.64,74.6 248.64,70.44 253.82,70.44 253.82,65.26 257.99,65.26 "/>
   <polygon class="fil6" points="335.36,66.99 335.36,70.44 340.53,70.44 340.53,74.6 335.36,74.6 335.36,79.78 331.19,79.78 331.19,74.6 326.01,74.6 326.01,70.44 331.19,70.44 331.19,65.26 335.36,65.26 "/>
   <polygon class="fil6" points="454.54,66.99 454.54,70.44 459.72,70.44 459.72,74.6 454.54,74.6 454.54,79.78 450.38,79.78 450.38,74.6 445.2,74.6 445.2,70.44 450.38,70.44 450.38,65.26 454.54,65.26 "/>
   <g>
    <path class="fil3 str4" d="M649.06 98.27c0.61,-0.62 1.24,-1.6 3.2,-1.6 1.96,0 20.45,0 22.4,0 1.78,0 11.57,-9.81 12.81,-11.21 1.19,-1.34 6.52,-9.34 8,-12.8 -0.93,-1.25 -3.44,-2.29 -6.4,-1.6 -2.83,0.66 -4.5,2.69 -6.4,6.4l-6.41 5.6"/>
    <path class="fil3 str4" d="M658.66 87.06c0,0 11.2,0 12.8,0 6.41,0 6.41,-8 0,-8 -1.6,0 -4,0 -8.45,0 -1.34,0 -3.84,-3.2 -5.95,-3.2 -0.94,0 -5.84,0 -8,0 -2.16,0 -4.85,1.76 -6.4,3.2 -2.4,2.4 -6.41,6.4 -6.41,6.4"/>
    <polygon class="fil3 str4" points="644.26,109.47 652.26,101.47 633.05,82.26 625.05,90.27 "/>
    <line class="fil3 str4" x1="633.05" y1="90.27" x2="636.25" y2="93.47"/>
    <g>
     <path class="fil7" d="M656.74 53.04c0.04,-0.1 0.14,-0.17 0.26,-0.2 1.42,-0.34 2.2,-1.34 2.2,-2.51 0,-1.27 -0.65,-2.03 -2.31,-2.62 -1.19,-0.43 -1.68,-0.74 -1.68,-1.18 0,-0.39 0.29,-0.79 1.2,-0.79 0.72,0 1.26,0.16 1.64,0.32 0.1,0.04 0.2,0.04 0.29,-0.01 0.09,-0.05 0.15,-0.12 0.18,-0.23l0.24 -0.88c0.04,-0.17 -0.05,-0.35 -0.22,-0.41 -0.37,-0.15 -0.81,-0.27 -1.4,-0.32 -0.11,-0.01 -0.21,-0.08 -0.25,-0.18l0 -0.84c0,-0.16 -0.14,-0.3 -0.31,-0.3l-0.91 0c-0.16,0 -0.3,0.14 -0.3,0.3l0 1.01c-0.04,0.07 -0.11,0.12 -0.2,0.15 -1.33,0.33 -2.09,1.25 -2.09,2.42 0,1.35 1.02,2.04 2.51,2.55 1.04,0.34 1.49,0.68 1.49,1.21 0,0.54 -0.54,0.86 -1.35,0.86 -0.73,0 -1.4,-0.19 -1.94,-0.43 -0.1,-0.04 -0.2,-0.04 -0.3,0 -0.09,0.05 -0.16,0.13 -0.18,0.23l-0.24 0.94c-0.04,0.17 0.04,0.34 0.2,0.41 0.46,0.2 1.13,0.38 1.81,0.44 0.05,0.01 0.1,0.02 0.14,0.04l0 1.08c0,0.17 0.14,0.3 0.3,0.3l0.91 0c0.17,0 0.31,-0.13 0.31,-0.3l0 -1.06zm-0.61 -11.97c4.18,0 7.57,3.39 7.57,7.58 0,0.64 -0.08,1.25 -0.22,1.85 -2.5,1.24 -4.57,3.19 -5.96,5.59 -0.45,0.09 -0.92,0.13 -1.39,0.13 -4.18,0 -7.58,-3.39 -7.58,-7.57 0,-4.19 3.4,-7.58 7.58,-7.58l0 0z"/>
     <path class="fil7" d="M670.57 69.03c0.06,-0.14 0.2,-0.24 0.35,-0.28 1.9,-0.44 2.94,-1.78 2.94,-3.34 0,-1.69 -0.87,-2.71 -3.08,-3.49 -1.6,-0.58 -2.24,-0.98 -2.24,-1.58 0,-0.52 0.39,-1.06 1.6,-1.06 0.96,0 1.68,0.22 2.18,0.43 0.13,0.05 0.26,0.05 0.39,-0.01 0.13,-0.06 0.21,-0.17 0.24,-0.3l0.32 -1.17c0.05,-0.24 -0.06,-0.47 -0.29,-0.56 -0.5,-0.19 -1.08,-0.36 -1.86,-0.43 -0.16,-0.01 -0.28,-0.1 -0.35,-0.23l0 -1.12c0,-0.22 -0.18,-0.4 -0.4,-0.4l-1.21 0c-0.23,0 -0.41,0.18 -0.41,0.4l0 1.34c-0.06,0.1 -0.15,0.17 -0.27,0.2 -1.77,0.45 -2.78,1.68 -2.78,3.23 0,1.8 1.35,2.73 3.34,3.4 1.39,0.46 1.99,0.9 1.99,1.61 0,0.72 -0.73,1.15 -1.8,1.15 -0.97,0 -1.87,-0.25 -2.59,-0.57 -0.13,-0.06 -0.26,-0.05 -0.39,0 -0.13,0.07 -0.21,0.17 -0.25,0.31l-0.32 1.25c-0.05,0.22 0.05,0.45 0.26,0.54 0.63,0.27 1.52,0.5 2.42,0.59 0.07,0.01 0.13,0.03 0.19,0.06l0 1.43c0,0.23 0.18,0.41 0.4,0.41l1.22 0c0.22,0 0.4,-0.18 0.4,-0.41l0 -1.4zm-0.81 -15.97c5.58,0 10.1,4.53 10.1,10.1 0,5.58 -4.52,10.1 -10.1,10.1 -5.57,0 -10.1,-4.52 -10.1,-10.1 0,-5.57 4.53,-10.1 10.1,-10.1l0 0z"/>
     <path class="fil7" d="M669.79 44.01c0.03,-0.07 0.1,-0.12 0.17,-0.14 0.95,-0.23 1.47,-0.9 1.47,-1.68 0,-0.84 -0.43,-1.35 -1.54,-1.74 -0.8,-0.29 -1.12,-0.49 -1.12,-0.79 0,-0.26 0.2,-0.53 0.8,-0.53 0.48,0 0.84,0.11 1.09,0.22 0.07,0.02 0.13,0.02 0.2,-0.01 0.06,-0.03 0.1,-0.08 0.12,-0.15l0.16 -0.59c0.02,-0.11 -0.03,-0.23 -0.15,-0.27 -0.25,-0.1 -0.54,-0.18 -0.93,-0.22 -0.08,0 -0.14,-0.05 -0.17,-0.12l0 -0.55c0,-0.11 -0.09,-0.21 -0.2,-0.21l-0.61 0c-0.11,0 -0.2,0.1 -0.2,0.21l0 0.67c-0.03,0.05 -0.08,0.08 -0.14,0.09 -0.88,0.23 -1.39,0.84 -1.39,1.62 0,0.9 0.68,1.37 1.67,1.7 0.7,0.23 1,0.45 1,0.8 0,0.37 -0.37,0.58 -0.9,0.58 -0.49,0 -0.94,-0.12 -1.3,-0.28 -0.06,-0.03 -0.13,-0.03 -0.19,0 -0.07,0.03 -0.11,0.08 -0.13,0.15l-0.16 0.62c-0.02,0.12 0.03,0.23 0.13,0.28 0.32,0.13 0.76,0.25 1.21,0.29 0.04,0 0.07,0.01 0.1,0.03l0 0.72c0,0.11 0.09,0.2 0.2,0.2l0.61 0c0.11,0 0.2,-0.09 0.2,-0.2l0 -0.7zm-0.41 -7.99c2.79,0 5.05,2.27 5.05,5.05 0,2.79 -2.26,5.05 -5.05,5.05 -2.79,0 -5.05,-2.26 -5.05,-5.05 0,-2.78 2.26,-5.05 5.05,-5.05l0 0z"/>
    </g>
   </g>
   <polygon class="fil6" points="601.11,66.99 601.11,70.44 606.29,70.44 606.29,74.6 601.11,74.6 601.11,79.78 596.95,79.78 596.95,74.6 591.77,74.6 591.77,70.44 596.95,70.44 596.95,65.26 601.11,65.26 "/>
  </g>
 </g>
</svg>