<svg xmlns="http://www.w3.org/2000/svg" xmlns:xlink="http://www.w3.org/1999/xlink" xmlns:xodm="http://www.corel.com/coreldraw/odm/2003" xml:space="preserve" width="2700px" height="457px" version="1.1" style="shape-rendering:geometricPrecision; text-rendering:geometricPrecision; image-rendering:optimizeQuality; fill-rule:evenodd; clip-rule:evenodd" viewBox="0 0 859.13 145.49"><script xmlns="" id="eppiocemhmnlbhjplcgkofciiegomcon"/><script xmlns=""/><script xmlns=""/>
 <defs>
  <style type="text/css">
   <![CDATA[
    .str2 {stroke:#373435;stroke-width:2.65;stroke-miterlimit:22.9256}
    .str0 {stroke:black;stroke-width:2.65;stroke-miterlimit:22.9256}
    .str1 {stroke:black;stroke-width:2.65;stroke-linecap:round;stroke-miterlimit:22.9256}
    .str3 {stroke:black;stroke-width:2.4;stroke-linejoin:round;stroke-miterlimit:10}
    .fil1 {fill:none}
    .fil3 {fill:none;fill-rule:nonzero}
    .fil2 {fill:black}
    .fil6 {fill:black}
    .fil4 {fill:#373435;fill-rule:nonzero}
    .fil5 {fill:black;fill-rule:nonzero}
    .fil0 {fill:#FEFEFE;fill-opacity:0.000000}
   ]]>
  </style>
 </defs>
 <g id="Layer_x0020_1">
  <metadata id="CorelCorpID_0Corel-Layer"/>
  <polygon class="fil0" points="0,0 859.13,0 859.13,145.49 0,145.49 "/>
  <g id="_1727359828256">
   <g>
    <rect class="fil1 str0" x="235.89" y="28.99" width="66.22" height="87.51" rx="2.18" ry="2.18"/>
    <line class="fil1 str1" x1="268.62" y1="46.01" x2="290.22" y2="46.01"/>
    <line class="fil1 str1" x1="247.79" y1="64.55" x2="290.22" y2="64.55"/>
    <line class="fil1 str1" x1="247.79" y1="75.63" x2="290.22" y2="75.63"/>
    <line class="fil1 str1" x1="247.79" y1="86.72" x2="290.22" y2="86.72"/>
   </g>
   <path class="fil2" d="M380.19 94.93l0 -3.14 0 -1.58 -5.03 0c-1.39,0 -2.53,-1.13 -2.53,-2.52l0 -19.69c0,-1.39 1.14,-2.53 2.53,-2.53l5.03 0 0 -20.05c0,-2.71 -2.23,-4.93 -4.94,-4.93l-15.45 0c-2.72,0 -4.94,2.22 -4.94,4.93l0 46.37 0 10.9 0 2.32 25.33 0 0 -10.08zm-14.37 -40.23c0,0.55 -0.44,0.99 -0.99,0.99l-4.97 0c-0.54,0 -0.99,-0.44 -0.99,-0.99l0 -0.22c0,-0.54 0.45,-0.99 0.99,-0.99l4.97 0c0.55,0 0.99,0.45 0.99,0.99l0 0.22zm0 39.07c0,0.55 -0.44,0.99 -0.99,0.99l-4.97 0c-0.54,0 -0.99,-0.44 -0.99,-0.99l0 -0.22c0,-0.55 0.45,-0.99 0.99,-0.99l4.97 0c0.55,0 0.99,0.44 0.99,0.99l0 0.22zm0 -9.76c0,0.54 -0.44,0.99 -0.99,0.99l-4.97 0c-0.54,-0.01 -0.99,-0.45 -0.99,-0.99l0 -0.23c0,-0.54 0.45,-0.98 0.99,-0.98l4.97 0c0.55,0 0.99,0.44 0.99,0.98l0 0.23zm0 -9.77c0,0.54 -0.44,0.99 -0.99,0.99l-4.97 0c-0.54,0 -0.99,-0.45 -0.99,-0.99l0 -0.22c0,-0.55 0.45,-0.99 0.99,-0.99l4.97 0c0.55,0 0.99,0.44 0.99,0.99l0 0.22zm0 -9.77c0,0.54 -0.44,0.99 -0.99,0.99l-4.97 0c-0.54,0 -0.99,-0.45 -0.99,-0.99l0 -0.22c0,-0.54 0.45,-0.99 0.99,-0.99l4.97 0c0.55,0 0.99,0.45 0.99,0.99l0 0.22z"/>
   <g>
    <path class="fil3 str0" d="M435.34 69.2c10.28,-9.22 20.65,-14.04 31.13,-14.16 10.6,-0.11 21.1,4.57 31.49,14.36 2.81,2.64 2.83,3.54 0.03,6.25 -10.4,10.09 -20.91,14.92 -31.52,14.8 -10.47,-0.12 -20.83,-5.06 -31.09,-14.52 -3.21,-2.96 -3.31,-3.8 -0.04,-6.73z"/>
    <path class="fil3 str2" d="M476.19 63.06c-2.48,-2.48 -5.9,-4.01 -9.69,-4.01 -3.78,0 -7.21,1.53 -9.69,4.01 -2.47,2.48 -4.01,5.9 -4.01,9.69 0,3.78 1.54,7.21 4.01,9.69 2.48,2.47 5.91,4.01 9.69,4.01 3.79,0 7.21,-1.54 9.69,-4.01 2.48,-2.48 4.01,-5.91 4.01,-9.69 0,-3.79 -1.53,-7.21 -4.01,-9.69z"/>
    <path class="fil4" d="M470.78 68.47c-1.09,-1.1 -2.61,-1.77 -4.28,-1.77 -1,0 -1.95,0.24 -2.78,0.67 0.16,0.11 0.3,0.23 0.43,0.37 0.55,0.54 0.89,1.3 0.89,2.14 0,0.84 -0.34,1.6 -0.89,2.15 -0.54,0.55 -1.3,0.89 -2.14,0.89 -0.57,0 -1.1,-0.16 -1.55,-0.43 0,0.09 -0.01,0.17 -0.01,0.26 0,1.67 0.68,3.18 1.78,4.27 1.09,1.1 2.6,1.78 4.27,1.78 1.67,0 3.19,-0.68 4.28,-1.78 1.1,-1.09 1.77,-2.6 1.77,-4.27 0,-1.67 -0.67,-3.19 -1.77,-4.28z"/>
   </g>
   <polygon class="fil5" points="330.57,66.99 330.57,70.44 335.74,70.44 335.74,74.6 330.57,74.6 330.57,79.78 326.4,79.78 326.4,74.6 321.23,74.6 321.23,70.44 326.4,70.44 326.4,65.26 330.57,65.26 "/>
   <polygon class="fil5" points="408.64,66.99 408.64,70.44 413.82,70.44 413.82,74.6 408.64,74.6 408.64,79.78 404.48,79.78 404.48,74.6 399.3,74.6 399.3,70.44 404.48,70.44 404.48,65.26 408.64,65.26 "/>
   <polygon class="fil5" points="528.53,66.99 528.53,70.44 533.71,70.44 533.71,74.6 528.53,74.6 528.53,79.78 524.36,79.78 524.36,74.6 519.19,74.6 519.19,70.44 524.36,70.44 524.36,65.26 528.53,65.26 "/>
   <g>
    <path class="fil3 str3" d="M576.83 98.27c0.61,-0.62 1.24,-1.6 3.2,-1.6 1.96,0 20.44,0 22.4,0 1.78,0 11.56,-9.81 12.81,-11.21 1.19,-1.34 6.52,-9.34 8,-12.8 -0.93,-1.25 -3.44,-2.29 -6.4,-1.6 -2.83,0.66 -4.5,2.69 -6.4,6.4l-6.41 5.6"/>
    <path class="fil3 str3" d="M586.43 87.06c0,0 11.2,0 12.8,0 6.4,0 6.4,-8 0,-8 -1.6,0 -4,0 -8.46,0 -1.33,0 -3.83,-3.2 -5.94,-3.2 -0.94,0 -5.84,0 -8,0 -2.17,0 -4.85,1.76 -6.41,3.2 -2.4,2.4 -6.4,6.4 -6.4,6.4"/>
    <polygon class="fil3 str3" points="572.02,109.47 580.03,101.47 560.82,82.26 552.82,90.27 "/>
    <line class="fil3 str3" x1="560.82" y1="90.27" x2="564.02" y2="93.47"/>
    <g>
     <path class="fil6" d="M584.5 53.04c0.05,-0.1 0.15,-0.17 0.26,-0.2 1.43,-0.34 2.21,-1.34 2.21,-2.51 0,-1.27 -0.65,-2.03 -2.31,-2.62 -1.2,-0.43 -1.68,-0.74 -1.68,-1.18 0,-0.39 0.29,-0.79 1.2,-0.79 0.72,0 1.26,0.16 1.64,0.32 0.1,0.04 0.19,0.04 0.29,-0.01 0.09,-0.05 0.15,-0.12 0.18,-0.23l0.23 -0.88c0.05,-0.17 -0.04,-0.35 -0.21,-0.41 -0.37,-0.15 -0.81,-0.27 -1.4,-0.32 -0.12,-0.01 -0.21,-0.08 -0.26,-0.18l0 -0.84c0,-0.16 -0.13,-0.3 -0.3,-0.3l-0.91 0c-0.16,0 -0.3,0.14 -0.3,0.3l0 1.01c-0.05,0.07 -0.12,0.12 -0.2,0.15 -1.33,0.33 -2.09,1.25 -2.09,2.42 0,1.35 1.01,2.04 2.51,2.55 1.04,0.34 1.49,0.68 1.49,1.21 0,0.54 -0.55,0.86 -1.35,0.86 -0.73,0 -1.4,-0.19 -1.94,-0.43 -0.1,-0.04 -0.2,-0.04 -0.3,0 -0.09,0.05 -0.16,0.13 -0.18,0.23l-0.24 0.94c-0.05,0.17 0.04,0.34 0.19,0.41 0.47,0.2 1.14,0.38 1.82,0.44 0.05,0.01 0.09,0.02 0.14,0.04l0 1.08c0,0.17 0.13,0.3 0.3,0.3l0.91 0c0.17,0 0.3,-0.13 0.3,-0.3l0 -1.06zm-0.6 -11.97c4.18,0 7.57,3.39 7.57,7.58 0,0.64 -0.08,1.25 -0.23,1.85 -2.49,1.24 -4.57,3.19 -5.96,5.59 -0.45,0.09 -0.91,0.13 -1.38,0.13 -4.19,0 -7.58,-3.39 -7.58,-7.57 0,-4.19 3.39,-7.58 7.58,-7.58l0 0z"/>
     <path class="fil6" d="M598.34 69.03c0.06,-0.14 0.19,-0.24 0.34,-0.28 1.91,-0.44 2.95,-1.78 2.95,-3.34 0,-1.69 -0.87,-2.71 -3.08,-3.49 -1.6,-0.58 -2.24,-0.98 -2.24,-1.58 0,-0.52 0.39,-1.06 1.59,-1.06 0.97,0 1.69,0.22 2.19,0.43 0.13,0.05 0.26,0.05 0.39,-0.01 0.12,-0.06 0.2,-0.17 0.24,-0.3l0.31 -1.17c0.06,-0.24 -0.05,-0.47 -0.28,-0.56 -0.5,-0.19 -1.08,-0.36 -1.87,-0.43 -0.15,-0.01 -0.28,-0.1 -0.34,-0.23l0 -1.12c0,-0.22 -0.18,-0.4 -0.4,-0.4l-1.22 0c-0.22,0 -0.4,0.18 -0.4,0.4l0 1.34c-0.06,0.1 -0.15,0.17 -0.27,0.2 -1.77,0.45 -2.78,1.68 -2.78,3.23 0,1.8 1.35,2.73 3.34,3.4 1.39,0.46 1.99,0.9 1.99,1.61 0,0.72 -0.73,1.15 -1.81,1.15 -0.96,0 -1.86,-0.25 -2.58,-0.57 -0.13,-0.06 -0.26,-0.05 -0.39,0 -0.13,0.07 -0.22,0.17 -0.25,0.31l-0.32 1.25c-0.06,0.22 0.05,0.45 0.26,0.54 0.63,0.27 1.52,0.5 2.42,0.59 0.07,0.01 0.13,0.03 0.19,0.06l0 1.43c0,0.23 0.18,0.41 0.4,0.41l1.21 0c0.23,0 0.41,-0.18 0.41,-0.41l0 -1.4zm-0.81 -15.97c5.58,0 10.1,4.53 10.1,10.1 0,5.58 -4.52,10.1 -10.1,10.1 -5.58,0 -10.1,-4.52 -10.1,-10.1 0,-5.57 4.52,-10.1 10.1,-10.1l0 0z"/>
     <path class="fil6" d="M597.56 44.01c0.03,-0.07 0.09,-0.12 0.17,-0.14 0.95,-0.23 1.47,-0.9 1.47,-1.68 0,-0.84 -0.43,-1.35 -1.54,-1.74 -0.8,-0.29 -1.12,-0.49 -1.12,-0.79 0,-0.26 0.19,-0.53 0.8,-0.53 0.48,0 0.84,0.11 1.09,0.22 0.07,0.02 0.13,0.02 0.19,-0.01 0.07,-0.03 0.11,-0.08 0.13,-0.15l0.15 -0.59c0.03,-0.11 -0.03,-0.23 -0.14,-0.27 -0.25,-0.1 -0.54,-0.18 -0.93,-0.22 -0.08,0 -0.14,-0.05 -0.17,-0.12l0 -0.55c0,-0.11 -0.09,-0.21 -0.21,-0.21l-0.6 0c-0.11,0 -0.2,0.1 -0.2,0.21l0 0.67c-0.03,0.05 -0.08,0.08 -0.14,0.09 -0.89,0.23 -1.39,0.84 -1.39,1.62 0,0.9 0.68,1.37 1.67,1.7 0.7,0.23 0.99,0.45 0.99,0.8 0,0.37 -0.36,0.58 -0.9,0.58 -0.48,0 -0.93,-0.12 -1.29,-0.28 -0.06,-0.03 -0.13,-0.03 -0.2,0 -0.06,0.03 -0.1,0.08 -0.12,0.15l-0.16 0.62c-0.03,0.12 0.03,0.23 0.13,0.28 0.31,0.13 0.76,0.25 1.21,0.29 0.03,0 0.07,0.01 0.1,0.03l0 0.72c0,0.11 0.09,0.2 0.2,0.2l0.6 0c0.11,0 0.21,-0.09 0.21,-0.2l0 -0.7zm-0.41 -7.99c2.79,0 5.05,2.27 5.05,5.05 0,2.79 -2.26,5.05 -5.05,5.05 -2.79,0 -5.05,-2.26 -5.05,-5.05 0,-2.78 2.26,-5.05 5.05,-5.05l0 0z"/>
    </g>
   </g>
  </g>
 </g>
</svg>