<svg xmlns="http://www.w3.org/2000/svg" xmlns:xlink="http://www.w3.org/1999/xlink" xmlns:xodm="http://www.corel.com/coreldraw/odm/2003" xml:space="preserve" width="2700px" height="457px" version="1.1" style="shape-rendering:geometricPrecision; text-rendering:geometricPrecision; image-rendering:optimizeQuality; fill-rule:evenodd; clip-rule:evenodd" viewBox="0 0 859.13 145.49"><script xmlns="" id="eppiocemhmnlbhjplcgkofciiegomcon"/><script xmlns=""/><script xmlns=""/>
 <defs>
  <style type="text/css">
   <![CDATA[
    .str3 {stroke:#373435;stroke-width:2.65;stroke-miterlimit:22.9256}
    .str0 {stroke:black;stroke-width:2.65;stroke-miterlimit:22.9256}
    .str2 {stroke:black;stroke-width:2.65;stroke-miterlimit:22.9256}
    .str4 {stroke:black;stroke-width:0.75;stroke-miterlimit:22.9256}
    .str1 {stroke:black;stroke-width:2.65;stroke-linecap:round;stroke-miterlimit:22.9256}
    .fil1 {fill:none}
    .fil3 {fill:none;fill-rule:nonzero}
    .fil2 {fill:black}
    .fil4 {fill:#373435;fill-rule:nonzero}
    .fil5 {fill:#292929;fill-rule:nonzero}
    .fil6 {fill:black;fill-rule:nonzero}
    .fil7 {fill:black;fill-rule:nonzero}
    .fil0 {fill:#FEFEFE;fill-opacity:0.000000}
   ]]>
  </style>
 </defs>
 <g id="Layer_x0020_1">
  <metadata id="CorelCorpID_0Corel-Layer"/>
  <polygon class="fil0" points="0,0 859.13,0 859.13,145.49 0,145.49 "/>
  <g id="_1286516675904">
   <g>
    <rect class="fil1 str0" x="285.03" y="28.99" width="66.22" height="87.51" rx="2.18" ry="2.18"/>
    <line class="fil1 str1" x1="317.76" y1="46.01" x2="339.36" y2="46.01"/>
    <line class="fil1 str1" x1="296.93" y1="64.55" x2="339.36" y2="64.55"/>
    <line class="fil1 str1" x1="296.93" y1="75.63" x2="339.36" y2="75.63"/>
    <line class="fil1 str1" x1="296.93" y1="86.72" x2="339.36" y2="86.72"/>
   </g>
   <path class="fil2" d="M428.67 94.93l0 -3.14 0 -1.58 -5.02 0c-1.39,0 -2.53,-1.13 -2.53,-2.52l0 -19.69c0,-1.39 1.14,-2.53 2.53,-2.53l5.02 0 0 -20.05c0,-2.71 -2.22,-4.93 -4.94,-4.93l-15.45 0c-2.71,0 -4.94,2.22 -4.94,4.93l0 46.37 0 10.9 0 2.32 25.33 0 0 -10.08zm-14.36 -40.23c0,0.55 -0.45,0.99 -0.99,0.99l-4.97 0c-0.55,0 -0.99,-0.44 -0.99,-0.99l0 -0.22c0,-0.54 0.44,-0.99 0.99,-0.99l4.97 0c0.54,0 0.99,0.45 0.99,0.99l0 0.22zm0 39.07c0,0.55 -0.45,0.99 -0.99,0.99l-4.97 0c-0.55,0 -0.99,-0.44 -0.99,-0.99l0 -0.22c0,-0.55 0.44,-0.99 0.99,-0.99l4.97 0c0.54,0 0.99,0.44 0.99,0.99l0 0.22zm0 -9.76c0,0.54 -0.45,0.99 -0.99,0.99l-4.97 0c-0.55,-0.01 -0.99,-0.45 -0.99,-0.99l0 -0.23c0,-0.54 0.44,-0.98 0.99,-0.98l4.97 0c0.54,0 0.99,0.44 0.99,0.98l0 0.23zm0 -9.77c0,0.54 -0.45,0.99 -0.99,0.99l-4.97 0c-0.55,0 -0.99,-0.45 -0.99,-0.99l0 -0.22c0,-0.55 0.44,-0.99 0.99,-0.99l4.97 0c0.54,0 0.99,0.44 0.99,0.99l0 0.22zm0 -9.77c0,0.54 -0.45,0.99 -0.99,0.99l-4.97 0c-0.55,0 -0.99,-0.45 -0.99,-0.99l0 -0.22c0,-0.54 0.44,-0.99 0.99,-0.99l4.97 0c0.54,0 0.99,0.45 0.99,0.99l0 0.22z"/>
   <g>
    <path class="fil3 str2" d="M483.17 69.2c10.28,-9.22 20.65,-14.04 31.13,-14.16 10.6,-0.11 21.1,4.57 31.5,14.36 2.8,2.64 2.82,3.54 0.02,6.25 -10.4,10.09 -20.91,14.92 -31.52,14.8 -10.47,-0.12 -20.83,-5.06 -31.09,-14.52 -3.21,-2.96 -3.31,-3.8 -0.04,-6.73z"/>
    <path class="fil3 str3" d="M524.02 63.06c-2.47,-2.48 -5.9,-4.01 -9.68,-4.01 -3.79,0 -7.21,1.53 -9.69,4.01 -2.48,2.48 -4.02,5.9 -4.02,9.69 0,3.78 1.54,7.21 4.02,9.69 2.48,2.47 5.9,4.01 9.69,4.01 3.78,0 7.21,-1.54 9.68,-4.01 2.48,-2.48 4.02,-5.91 4.02,-9.69 0,-3.79 -1.54,-7.21 -4.02,-9.69z"/>
    <path class="fil4" d="M518.61 68.47c-1.09,-1.1 -2.6,-1.77 -4.27,-1.77 -1.01,0 -1.96,0.24 -2.79,0.67 0.16,0.11 0.3,0.23 0.44,0.37 0.55,0.54 0.89,1.3 0.89,2.14 0,0.84 -0.34,1.6 -0.89,2.15 -0.55,0.55 -1.31,0.89 -2.15,0.89 -0.57,0 -1.1,-0.16 -1.55,-0.43 0,0.09 0,0.17 0,0.26 0,1.67 0.67,3.18 1.77,4.27 1.09,1.1 2.6,1.78 4.28,1.78 1.67,0 3.18,-0.68 4.27,-1.78 1.1,-1.09 1.78,-2.6 1.78,-4.27 0,-1.67 -0.68,-3.19 -1.78,-4.28z"/>
   </g>
   <path class="fil5 str4" d="M687.78 78.18c0,0 -1.15,4.26 -5.88,5.23 -1.43,0.33 -2.89,0.57 -4.35,0.77 -1.39,0.19 -2.79,0.33 -4.19,0.39 -1.43,0.06 -2.85,0.03 -4.27,-0.02 -1.36,-0.05 -2.72,-0.08 -4.05,-0.34 -1.8,-0.36 -3.57,-0.96 -5.03,-1.92 -0.47,-0.31 -0.8,-0.68 -1.15,-1.08 -0.66,-0.76 -1.27,-1.55 -1.83,-2.36 -1.51,-2.2 -2.57,-4.76 -3.11,-7.26 -0.14,-0.61 -0.23,-1.23 -0.26,-1.85 -0.03,-0.43 -0.02,-0.88 0.02,-1.33 0.12,-1.28 0.56,-2.58 1.47,-3.58 0.64,-0.72 1.52,-1.26 2.51,-1.58 0,0 6.77,-2.2 14.77,-2.48 0,0 6.94,-0.41 12.16,0.55 0,0 4.25,0.55 4.58,5.37 0,0 0.65,6.54 -1.39,11.49zm-46.8 -8.43c-0.04,0.62 -0.13,1.23 -0.26,1.84 -0.55,2.51 -1.61,5.07 -3.12,7.27 -0.56,0.81 -1.17,1.6 -1.82,2.36 -0.35,0.4 -0.68,0.77 -1.15,1.08 -1.47,0.96 -3.24,1.55 -5.03,1.91 -1.33,0.27 -2.69,0.3 -4.05,0.35 -1.42,0.05 -2.85,0.08 -4.27,0.01 -1.4,-0.06 -2.8,-0.19 -4.19,-0.38 -1.46,-0.2 -2.93,-0.44 -4.35,-0.78 -4.74,-0.96 -5.88,-5.22 -5.88,-5.22 -2.04,-4.96 -1.39,-11.49 -1.39,-11.49 0.33,-4.82 4.57,-5.37 4.57,-5.37 5.23,-0.96 12.16,-0.55 12.16,-0.55 8,0.28 14.78,2.48 14.78,2.48 0.99,0.32 1.86,0.86 2.51,1.57 0.91,1.01 1.34,2.3 1.47,3.58 0.04,0.46 0.05,0.91 0.02,1.34zm53.52 -7.79c-0.02,-0.39 -0.03,-0.86 -0.29,-1.21 -0.26,-0.35 -0.69,-0.51 -1.15,-0.6 -8.25,-1.51 -21.15,-0.96 -21.15,-0.96 -2.86,0.16 -5.71,0.47 -8.52,0.98 -2.02,0.36 -4.02,0.81 -5.97,1.39 -1.16,0.34 -2.3,0.72 -3.4,1.19 -4.15,1.81 -9.37,1.81 -13.52,0.01 -1.09,-0.48 -2.24,-0.85 -3.4,-1.2 -1.94,-0.57 -3.94,-1.03 -5.96,-1.39 -2.81,-0.5 -5.66,-0.82 -8.53,-0.97 0,0 -12.89,-0.55 -21.14,0.96 -0.46,0.09 -0.89,0.25 -1.15,0.6 -0.27,0.34 -0.27,0.81 -0.3,1.21 -0.04,0.58 -0.06,1.26 0.2,1.8 0.12,0.26 0.34,0.42 0.6,0.58 0.29,0.17 0.51,0.41 0.7,0.66 0.81,1.09 1.03,2.4 1.1,3.65 0.14,2.57 0.63,5.1 1.28,7.61 0.61,2.38 1.35,4.72 3.45,6.5 0.79,0.67 1.7,1.23 2.72,1.62 0.33,0.13 0.68,0.24 1.03,0.33 0,0 6.34,1.93 12.56,1.65 2.99,-0.13 6.18,-0.31 8.98,-1.28 0.94,-0.33 1.82,-0.77 2.59,-1.34 0.99,-0.73 1.86,-1.57 2.64,-2.46 1.49,-1.69 2.68,-3.56 3.6,-5.51 0.71,-1.51 1.27,-3.08 1.91,-4.6 1.71,-4.1 6.06,-4.11 7.77,-0.01 0.64,1.52 1.2,3.1 1.91,4.6 0.92,1.95 2.1,3.82 3.59,5.51 0.79,0.89 1.66,1.73 2.65,2.47 0.77,0.56 1.65,1 2.59,1.33 2.8,0.97 5.99,1.15 8.98,1.29 6.22,0.27 12.55,-1.66 12.55,-1.66 0.36,-0.08 0.71,-0.19 1.04,-0.32 1.02,-0.4 1.93,-0.96 2.72,-1.63 2.1,-1.78 2.83,-4.12 3.45,-6.5 0.65,-2.51 1.13,-5.04 1.27,-7.61 0.07,-1.25 0.29,-2.56 1.11,-3.64 0.19,-0.26 0.41,-0.49 0.7,-0.67 0.25,-0.16 0.48,-0.32 0.6,-0.58 0.26,-0.54 0.24,-1.22 0.19,-1.8z"/>
   <polygon class="fil6" points="379.38,66.99 379.38,70.44 384.56,70.44 384.56,74.6 379.38,74.6 379.38,79.78 375.21,79.78 375.21,74.6 370.04,74.6 370.04,70.44 375.21,70.44 375.21,65.26 379.38,65.26 "/>
   <polygon class="fil6" points="456.8,66.99 456.8,70.44 461.98,70.44 461.98,74.6 456.8,74.6 456.8,79.78 452.63,79.78 452.63,74.6 447.46,74.6 447.46,70.44 452.63,70.44 452.63,65.26 456.8,65.26 "/>
   <polygon class="fil6" points="576.04,66.99 576.04,70.44 581.21,70.44 581.21,74.6 576.04,74.6 576.04,79.78 571.87,79.78 571.87,74.6 566.69,74.6 566.69,70.44 571.87,70.44 571.87,65.26 576.04,65.26 "/>
   <g>
    <path class="fil7" d="M184.78 86.67l27.85 0 0 -27.85 -27.85 0 0 27.85zm28.97 2.24l-30.08 0c-0.62,0 -1.12,-0.5 -1.12,-1.12l0 -30.09c0,-0.62 0.5,-1.12 1.12,-1.12l30.08 0c0.62,0 1.12,0.5 1.12,1.12l0 30.09c0,0.62 -0.5,1.12 -1.12,1.12z"/>
    <path class="fil7" d="M191.16 58.82c-0.61,0 -1.12,-0.5 -1.12,-1.12l0 -8.61c0,-0.62 0.51,-1.12 1.12,-1.12 0.62,0 1.12,0.5 1.12,1.12l0 8.61c0,0.62 -0.5,1.12 -1.12,1.12z"/>
    <path class="fil7" d="M191.16 50.21l-5.94 0c-0.62,0 -1.12,-0.51 -1.12,-1.12 0,-0.62 0.5,-1.12 1.12,-1.12l5.94 0c0.62,0 1.12,0.5 1.12,1.12 0,0.61 -0.5,1.12 -1.12,1.12z"/>
    <path class="fil7" d="M182.3 47.28c-0.99,0 -1.8,0.81 -1.8,1.81 0,0.99 0.81,1.8 1.8,1.8 0.99,0 1.8,-0.81 1.8,-1.8 0,-1 -0.81,-1.81 -1.8,-1.81zm0 5.85c-2.23,0 -4.04,-1.81 -4.04,-4.04 0,-2.23 1.81,-4.05 4.04,-4.05 2.23,0 4.04,1.82 4.04,4.05 0,2.23 -1.81,4.04 -4.04,4.04z"/>
    <path class="fil7" d="M205.98 58.82c-0.61,0 -1.12,-0.5 -1.12,-1.12l0 -8.61c0,-0.62 0.51,-1.12 1.12,-1.12 0.62,0 1.12,0.5 1.12,1.12l0 8.61c0,0.62 -0.5,1.12 -1.12,1.12z"/>
    <path class="fil7" d="M211.93 50.21l-5.95 0c-0.61,0 -1.12,-0.51 -1.12,-1.12 0,-0.62 0.51,-1.12 1.12,-1.12l5.95 0c0.62,0 1.12,0.5 1.12,1.12 0,0.61 -0.5,1.12 -1.12,1.12z"/>
    <path class="fil7" d="M214.85 47.28c-1,0 -1.8,0.81 -1.8,1.81 0,0.99 0.8,1.8 1.8,1.8 0.99,0 1.8,-0.81 1.8,-1.8 0,-1 -0.81,-1.81 -1.8,-1.81zm0 5.85c-2.23,0 -4.04,-1.81 -4.04,-4.04 0,-2.23 1.81,-4.05 4.04,-4.05 2.23,0 4.04,1.82 4.04,4.05 0,2.23 -1.81,4.04 -4.04,4.04z"/>
    <path class="fil7" d="M198.58 40.88c-1,0 -1.81,0.81 -1.81,1.8 0,1 0.81,1.8 1.81,1.8 0.99,0 1.8,-0.8 1.8,-1.8 0,-0.99 -0.81,-1.8 -1.8,-1.8zm0 5.84c-2.23,0 -4.05,-1.81 -4.05,-4.04 0,-2.23 1.82,-4.04 4.05,-4.04 2.22,0 4.04,1.81 4.04,4.04 0,2.23 -1.82,4.04 -4.04,4.04z"/>
    <path class="fil7" d="M198.58 58.26c-0.62,0 -1.12,-0.5 -1.12,-1.12l0 -11.54c0,-0.61 0.5,-1.12 1.12,-1.12 0.61,0 1.11,0.51 1.11,1.12l0 11.54c0,0.62 -0.5,1.12 -1.11,1.12z"/>
    <path class="fil7" d="M183.67 81.27l-8.62 0c-0.62,0 -1.12,-0.5 -1.12,-1.12 0,-0.62 0.5,-1.12 1.12,-1.12l8.62 0c0.61,0 1.11,0.5 1.11,1.12 0,0.62 -0.5,1.12 -1.11,1.12z"/>
    <path class="fil7" d="M175.05 87.22c-0.62,0 -1.12,-0.51 -1.12,-1.12l0 -5.95c0,-0.62 0.5,-1.12 1.12,-1.12 0.62,0 1.12,0.5 1.12,1.12l0 5.95c0,0.61 -0.5,1.12 -1.12,1.12z"/>
    <path class="fil7" d="M175.05 87.22c-1,0 -1.8,0.8 -1.8,1.8 0,0.99 0.8,1.8 1.8,1.8 0.99,0 1.8,-0.81 1.8,-1.8 0,-1 -0.81,-1.8 -1.8,-1.8zm0 5.84c-2.23,0 -4.04,-1.81 -4.04,-4.04 0,-2.23 1.81,-4.04 4.04,-4.04 2.23,0 4.04,1.81 4.04,4.04 0,2.23 -1.81,4.04 -4.04,4.04z"/>
    <path class="fil7" d="M183.67 66.45l-8.62 0c-0.62,0 -1.12,-0.5 -1.12,-1.12 0,-0.61 0.5,-1.11 1.12,-1.11l8.62 0c0.61,0 1.11,0.5 1.11,1.11 0,0.62 -0.5,1.12 -1.11,1.12z"/>
    <path class="fil7" d="M175.05 66.45c-0.62,0 -1.12,-0.5 -1.12,-1.12l0 -5.94c0,-0.62 0.5,-1.12 1.12,-1.12 0.62,0 1.12,0.5 1.12,1.12l0 5.94c0,0.62 -0.5,1.12 -1.12,1.12z"/>
    <path class="fil7" d="M175.05 54.67c-1,0 -1.8,0.81 -1.8,1.8 0,0.99 0.8,1.8 1.8,1.8 0.99,0 1.8,-0.81 1.8,-1.8 0,-0.99 -0.81,-1.8 -1.8,-1.8zm0 5.84c-2.23,0 -4.04,-1.81 -4.04,-4.04 0,-2.23 1.81,-4.04 4.04,-4.04 2.23,0 4.04,1.81 4.04,4.04 0,2.23 -1.81,4.04 -4.04,4.04z"/>
    <path class="fil7" d="M168.65 70.94c-1,0 -1.81,0.81 -1.81,1.8 0,1 0.81,1.81 1.81,1.81 0.99,0 1.8,-0.81 1.8,-1.81 0,-0.99 -0.81,-1.8 -1.8,-1.8zm0 5.85c-2.23,0 -4.05,-1.82 -4.05,-4.05 0,-2.22 1.82,-4.04 4.05,-4.04 2.22,0 4.04,1.82 4.04,4.04 0,2.23 -1.82,4.05 -4.04,4.05z"/>
    <path class="fil7" d="M183.1 73.86l-11.53 0c-0.62,0 -1.12,-0.5 -1.12,-1.12 0,-0.61 0.5,-1.12 1.12,-1.12l11.53 0c0.62,0 1.12,0.51 1.12,1.12 0,0.62 -0.5,1.12 -1.12,1.12z"/>
    <path class="fil7" d="M206.12 97.53c-0.62,0 -1.12,-0.51 -1.12,-1.12l0 -8.62c0,-0.62 0.5,-1.12 1.12,-1.12 0.62,0 1.12,0.5 1.12,1.12l0 8.62c0,0.61 -0.5,1.12 -1.12,1.12z"/>
    <path class="fil7" d="M212.06 97.53l-5.94 0c-0.62,0 -1.12,-0.51 -1.12,-1.12 0,-0.62 0.5,-1.12 1.12,-1.12l5.94 0c0.62,0 1.12,0.5 1.12,1.12 0,0.61 -0.5,1.12 -1.12,1.12z"/>
    <path class="fil7" d="M214.98 94.6c-0.99,0 -1.8,0.81 -1.8,1.81 0,0.99 0.81,1.8 1.8,1.8 1,0 1.81,-0.81 1.81,-1.8 0,-1 -0.81,-1.81 -1.81,-1.81zm0 5.85c-2.22,0 -4.04,-1.81 -4.04,-4.04 0,-2.23 1.82,-4.04 4.04,-4.04 2.23,0 4.04,1.81 4.04,4.04 0,2.23 -1.81,4.04 -4.04,4.04z"/>
    <path class="fil7" d="M191.3 97.53c-0.62,0 -1.12,-0.51 -1.12,-1.12l0 -8.62c0,-0.62 0.5,-1.12 1.12,-1.12 0.62,0 1.12,0.5 1.12,1.12l0 8.62c0,0.61 -0.5,1.12 -1.12,1.12z"/>
    <path class="fil7" d="M191.3 97.53l-5.94 0c-0.62,0 -1.12,-0.51 -1.12,-1.12 0,-0.62 0.5,-1.12 1.12,-1.12l5.94 0c0.62,0 1.12,0.5 1.12,1.12 0,0.61 -0.5,1.12 -1.12,1.12z"/>
    <path class="fil7" d="M182.43 94.6c-0.99,0 -1.8,0.81 -1.8,1.81 0,0.99 0.81,1.8 1.8,1.8 1,0 1.81,-0.81 1.81,-1.8 0,-1 -0.81,-1.81 -1.81,-1.81zm0 5.85c-2.22,0 -4.04,-1.81 -4.04,-4.04 0,-2.23 1.82,-4.04 4.04,-4.04 2.23,0 4.05,1.81 4.05,4.04 0,2.23 -1.82,4.04 -4.05,4.04z"/>
    <path class="fil7" d="M198.71 101.01c-1,0 -1.8,0.81 -1.8,1.8 0,0.99 0.8,1.8 1.8,1.8 0.99,0 1.8,-0.81 1.8,-1.8 0,-0.99 -0.81,-1.8 -1.8,-1.8zm0 5.84c-2.23,0 -4.04,-1.81 -4.04,-4.04 0,-2.23 1.81,-4.04 4.04,-4.04 2.23,0 4.04,1.81 4.04,4.04 0,2.23 -1.81,4.04 -4.04,4.04z"/>
    <path class="fil7" d="M198.71 101.01c-0.62,0 -1.12,-0.5 -1.12,-1.12l0 -11.54c0,-0.62 0.5,-1.12 1.12,-1.12 0.62,0 1.12,0.5 1.12,1.12l0 11.54c0,0.62 -0.5,1.12 -1.12,1.12z"/>
    <path class="fil7" d="M222.5 66.46l-8.62 0c-0.61,0 -1.11,-0.5 -1.11,-1.12 0,-0.62 0.5,-1.12 1.11,-1.12l8.62 0c0.62,0 1.12,0.5 1.12,1.12 0,0.62 -0.5,1.12 -1.12,1.12z"/>
    <path class="fil7" d="M222.5 66.46c-0.62,0 -1.12,-0.5 -1.12,-1.12l0 -5.95c0,-0.61 0.5,-1.12 1.12,-1.12 0.62,0 1.12,0.51 1.12,1.12l0 5.95c0,0.62 -0.5,1.12 -1.12,1.12z"/>
    <path class="fil7" d="M222.5 54.67c-0.99,0 -1.8,0.81 -1.8,1.8 0,1 0.81,1.8 1.8,1.8 0.99,0 1.8,-0.8 1.8,-1.8 0,-0.99 -0.81,-1.8 -1.8,-1.8zm0 5.84c-2.23,0 -4.04,-1.81 -4.04,-4.04 0,-2.23 1.81,-4.04 4.04,-4.04 2.23,0 4.04,1.81 4.04,4.04 0,2.23 -1.81,4.04 -4.04,4.04z"/>
    <path class="fil7" d="M222.5 81.27l-8.62 0c-0.61,0 -1.11,-0.5 -1.11,-1.12 0,-0.61 0.5,-1.11 1.11,-1.11l8.62 0c0.62,0 1.12,0.5 1.12,1.11 0,0.62 -0.5,1.12 -1.12,1.12z"/>
    <path class="fil7" d="M222.5 87.22c-0.62,0 -1.12,-0.5 -1.12,-1.12l0 -5.95c0,-0.61 0.5,-1.11 1.12,-1.11 0.62,0 1.12,0.5 1.12,1.11l0 5.95c0,0.62 -0.5,1.12 -1.12,1.12z"/>
    <path class="fil7" d="M222.5 87.22c-0.99,0 -1.8,0.81 -1.8,1.8 0,0.99 0.81,1.8 1.8,1.8 0.99,0 1.8,-0.81 1.8,-1.8 0,-0.99 -0.81,-1.8 -1.8,-1.8zm0 5.84c-2.23,0 -4.04,-1.81 -4.04,-4.04 0,-2.23 1.81,-4.04 4.04,-4.04 2.23,0 4.04,1.81 4.04,4.04 0,2.23 -1.81,4.04 -4.04,4.04z"/>
    <path class="fil7" d="M228.9 70.94c-0.99,0 -1.8,0.81 -1.8,1.81 0,0.99 0.81,1.8 1.8,1.8 1,0 1.81,-0.81 1.81,-1.8 0,-1 -0.81,-1.81 -1.81,-1.81zm0 5.85c-2.22,0 -4.04,-1.82 -4.04,-4.04 0,-2.23 1.82,-4.04 4.04,-4.04 2.23,0 4.04,1.81 4.04,4.04 0,2.22 -1.81,4.04 -4.04,4.04z"/>
    <path class="fil7" d="M225.98 73.87l-11.54 0c-0.61,0 -1.11,-0.5 -1.11,-1.12 0,-0.62 0.5,-1.12 1.11,-1.12l11.54 0c0.62,0 1.12,0.5 1.12,1.12 0,0.62 -0.5,1.12 -1.12,1.12z"/>
    <path class="fil7" d="M191.24 80.14l15.08 0 0 -15.08 -15.08 0 0 15.08zm16.2 2.24l-17.32 0c-0.62,0 -1.12,-0.5 -1.12,-1.12l0 -17.32c0,-0.62 0.5,-1.12 1.12,-1.12l17.32 0c0.61,0 1.11,0.5 1.11,1.12l0 17.32c0,0.62 -0.5,1.12 -1.11,1.12z"/>
   </g>
   <polygon class="fil6" points="261.07,66.99 261.07,70.44 266.25,70.44 266.25,74.6 261.07,74.6 261.07,79.78 256.91,79.78 256.91,74.6 251.73,74.6 251.73,70.44 256.91,70.44 256.91,65.26 261.07,65.26 "/>
  </g>
 </g>
</svg>