<svg xmlns="http://www.w3.org/2000/svg" xmlns:xlink="http://www.w3.org/1999/xlink" xmlns:xodm="http://www.corel.com/coreldraw/odm/2003" xml:space="preserve" width="2700px" height="457px" version="1.1" style="shape-rendering:geometricPrecision; text-rendering:geometricPrecision; image-rendering:optimizeQuality; fill-rule:evenodd; clip-rule:evenodd" viewBox="0 0 859.13 145.49"><script xmlns="" id="eppiocemhmnlbhjplcgkofciiegomcon"/><script xmlns=""/><script xmlns=""/>
 <defs>
  <style type="text/css">
   <![CDATA[
    .str3 {stroke:#373435;stroke-width:2.65;stroke-miterlimit:22.9256}
    .str0 {stroke:black;stroke-width:2.65;stroke-miterlimit:22.9256}
    .str2 {stroke:black;stroke-width:2.65;stroke-miterlimit:22.9256}
    .str7 {stroke:black;stroke-width:0.75;stroke-miterlimit:22.9256}
    .str1 {stroke:black;stroke-width:2.65;stroke-linecap:round;stroke-miterlimit:22.9256}
    .str6 {stroke:#373435;stroke-width:1.33;stroke-linecap:round;stroke-miterlimit:22.9256}
    .str5 {stroke:black;stroke-width:1.99;stroke-linecap:round;stroke-linejoin:round;stroke-miterlimit:22.9256}
    .str4 {stroke:black;stroke-width:1.99;stroke-linecap:round;stroke-linejoin:round;stroke-miterlimit:22.9256}
    .fil1 {fill:none}
    .fil3 {fill:none;fill-rule:nonzero}
    .fil2 {fill:black}
    .fil4 {fill:#373435;fill-rule:nonzero}
    .fil6 {fill:#292929;fill-rule:nonzero}
    .fil5 {fill:black;fill-rule:nonzero}
    .fil7 {fill:black;fill-rule:nonzero}
    .fil0 {fill:#FEFEFE;fill-opacity:0.000000}
   ]]>
  </style>
 </defs>
 <g id="Layer_x0020_1">
  <metadata id="CorelCorpID_0Corel-Layer"/>
  <polygon class="fil0" points="0,0 859.13,0 859.13,145.49 0,145.49 "/>
  <g id="_1286520758800">
   <g>
    <rect class="fil1 str0" x="226.76" y="28.99" width="66.22" height="87.51" rx="2.18" ry="2.18"/>
    <line class="fil1 str1" x1="259.49" y1="46.01" x2="281.08" y2="46.01"/>
    <line class="fil1 str1" x1="238.65" y1="64.55" x2="281.08" y2="64.55"/>
    <line class="fil1 str1" x1="238.65" y1="75.63" x2="281.08" y2="75.63"/>
    <line class="fil1 str1" x1="238.65" y1="86.72" x2="281.08" y2="86.72"/>
   </g>
   <path class="fil2" d="M370.4 94.93l0 -3.14 0 -1.58 -5.03 0c-1.39,0 -2.53,-1.13 -2.53,-2.52l0 -19.69c0,-1.39 1.14,-2.53 2.53,-2.53l5.03 0 0 -20.05c0,-2.71 -2.23,-4.93 -4.94,-4.93l-15.45 0c-2.72,0 -4.94,2.22 -4.94,4.93l0 46.37 0 10.9 0 2.32 25.33 0 0 -10.08zm-14.37 -40.23c0,0.55 -0.44,0.99 -0.99,0.99l-4.97 0c-0.54,0 -0.99,-0.44 -0.99,-0.99l0 -0.22c0,-0.54 0.45,-0.99 0.99,-0.99l4.97 0c0.55,0 0.99,0.45 0.99,0.99l0 0.22zm0 39.07c0,0.55 -0.44,0.99 -0.99,0.99l-4.97 0c-0.54,0 -0.99,-0.44 -0.99,-0.99l0 -0.22c0,-0.55 0.45,-0.99 0.99,-0.99l4.97 0c0.55,0 0.99,0.44 0.99,0.99l0 0.22zm0 -9.76c0,0.54 -0.44,0.99 -0.99,0.99l-4.97 0c-0.54,-0.01 -0.99,-0.45 -0.99,-0.99l0 -0.23c0,-0.54 0.45,-0.98 0.99,-0.98l4.97 0c0.55,0 0.99,0.44 0.99,0.98l0 0.23zm0 -9.77c0,0.54 -0.44,0.99 -0.99,0.99l-4.97 0c-0.54,0 -0.99,-0.45 -0.99,-0.99l0 -0.22c0,-0.55 0.45,-0.99 0.99,-0.99l4.97 0c0.55,0 0.99,0.44 0.99,0.99l0 0.22zm0 -9.77c0,0.54 -0.44,0.99 -0.99,0.99l-4.97 0c-0.54,0 -0.99,-0.45 -0.99,-0.99l0 -0.22c0,-0.54 0.45,-0.99 0.99,-0.99l4.97 0c0.55,0 0.99,0.45 0.99,0.99l0 0.22z"/>
   <g>
    <path class="fil3 str2" d="M424.89 69.2c10.28,-9.22 20.66,-14.04 31.13,-14.16 10.6,-0.11 21.1,4.57 31.5,14.36 2.81,2.64 2.82,3.54 0.03,6.25 -10.41,10.09 -20.92,14.92 -31.53,14.8 -10.46,-0.12 -20.82,-5.06 -31.08,-14.52 -3.21,-2.96 -3.31,-3.8 -0.05,-6.73z"/>
    <path class="fil3 str3" d="M465.75 63.06c-2.48,-2.48 -5.91,-4.01 -9.69,-4.01 -3.78,0 -7.21,1.53 -9.69,4.01 -2.48,2.48 -4.01,5.9 -4.01,9.69 0,3.78 1.53,7.21 4.01,9.69 2.48,2.47 5.91,4.01 9.69,4.01 3.78,0 7.21,-1.54 9.69,-4.01 2.48,-2.48 4.01,-5.91 4.01,-9.69 0,-3.79 -1.53,-7.21 -4.01,-9.69z"/>
    <path class="fil4" d="M460.34 68.47c-1.1,-1.1 -2.61,-1.77 -4.28,-1.77 -1,0 -1.95,0.24 -2.78,0.67 0.15,0.11 0.3,0.23 0.43,0.37 0.55,0.54 0.89,1.3 0.89,2.14 0,0.84 -0.34,1.6 -0.89,2.15 -0.55,0.55 -1.31,0.89 -2.14,0.89 -0.57,0 -1.1,-0.16 -1.55,-0.43 -0.01,0.09 -0.01,0.17 -0.01,0.26 0,1.67 0.68,3.18 1.77,4.27 1.1,1.1 2.61,1.78 4.28,1.78 1.67,0 3.18,-0.68 4.28,-1.78 1.09,-1.09 1.77,-2.6 1.77,-4.27 0,-1.67 -0.68,-3.19 -1.77,-4.28z"/>
   </g>
   <g>
    <path class="fil1 str4" d="M695.92 88.76l1.91 11.36 15.16 15.94c5.11,0.66 10.21,0.58 15.32,0l15.16 -15.94 1.92 -11.36"/>
    <polyline class="fil1 str5" points="696.31,91.77 692.83,90.61 688.34,71.97 690.12,69.11 692.91,70.27 694.53,72.43 "/>
    <polyline class="fil1 str5" points="744.84,91.77 748.32,90.61 752.8,71.97 751.03,69.11 748.24,70.27 746.62,72.43 "/>
    <path class="fil5" d="M712.09 101.6l6.9 -1.27 1.64 0.5 1.68 -0.5 6.91 1.27c0,0 -3.22,0.22 -3.81,0.24 -1.51,0.08 -3.23,0.11 -4.68,0.11 -1.78,0 -2.94,-0.04 -4.57,-0.16 -0.32,-0.03 -4.07,-0.19 -4.07,-0.19z"/>
    <path class="fil5" d="M716.76 104.7c0,0 2.9,0.19 3.95,0.19 1.12,0 3.83,-0.19 3.83,-0.19 0,0 -1.51,0.95 -3.83,0.95 -2.32,0 -3.95,-0.95 -3.95,-0.95z"/>
    <polyline class="fil1 str6" points="716.56,93.7 717.3,93.47 720,95.05 721.38,95.05 724.14,93.45 724.75,93.53 "/>
    <path class="fil5" d="M747.73 71.32c0,0 -0.42,-1.42 -2.69,-1.82 -2.27,-0.4 -4.87,-0.61 -6.1,-0.69 -1.23,-0.08 -5.2,-0.28 -7.28,-0.08 -2.08,0.2 -3.64,0.45 -5.3,1.05 -1.65,0.61 -3.35,1.38 -3.87,1.5 -0.49,0.11 -1.24,0.12 -1.34,0.12 -0.09,0 -0.85,-0.01 -1.33,-0.12 -0.52,-0.12 -2.23,-0.89 -3.88,-1.5 -1.66,-0.6 -3.22,-0.85 -5.3,-1.05 -2.08,-0.2 -6.05,0 -7.28,0.08 -1.23,0.08 -3.83,0.29 -6.09,0.69 -2.28,0.4 -2.7,1.82 -2.7,1.82 0,0 -0.19,2.63 0,2.83 1.28,1.29 0.95,1.21 1.65,4 0.68,2.65 1.99,3.87 3.36,4.53 -0.03,-0.02 -0.06,-0.04 -0.09,-0.07 -1.56,-1.52 -1.7,-4.65 -1.8,-5.62 -0.09,-0.97 0,-4.01 0,-4.01 0,0 0.1,-1.93 2.55,-2.39 2.46,-0.46 5.49,-0.51 5.49,-0.51 0,0 3.31,-0.04 4.96,0.14 1.66,0.18 4.63,0.64 5.86,1.56 0.7,0.53 1.71,1.39 1.28,3.92 -0.28,1.69 -0.95,4.71 -3.21,6.72 2.88,-1.67 4.06,-5.01 4.44,-6.38 0.41,-1.49 1.74,-1.45 2.06,-1.42l0 0.01c0,0 0.02,0 0.03,0 0.01,0 0.04,0 0.04,0l0 -0.01c0.31,-0.03 1.64,-0.07 2.05,1.42 0.39,1.37 1.57,4.71 4.44,6.38 -2.25,-2.01 -2.92,-5.03 -3.21,-6.72 -0.42,-2.53 0.58,-3.39 1.28,-3.92 1.23,-0.92 4.21,-1.38 5.86,-1.56 1.66,-0.18 4.96,-0.14 4.96,-0.14 0,0 3.03,0.05 5.49,0.51 2.46,0.46 2.55,2.39 2.55,2.39 0,0 0.1,3.04 0,4.01 -0.09,0.97 -0.23,4.1 -1.79,5.62 -0.03,0.03 -0.07,0.05 -0.1,0.07 1.37,-0.66 2.68,-1.88 3.36,-4.53 0.71,-2.79 0.38,-2.71 1.65,-4 0.19,-0.2 0,-2.83 0,-2.83z"/>
    <g>
     <path class="fil5" d="M710.49 75.68c-0.43,-0.09 -0.7,-0.51 -0.6,-0.94 0.09,-0.43 0.51,-0.7 0.94,-0.6 0.08,0.02 0.15,0.05 0.23,0.09 -0.29,-0.77 -0.95,-1.39 -1.82,-1.58 -1.35,-0.3 -2.69,0.55 -2.99,1.91 -0.29,1.35 0.56,2.69 1.91,2.99 1.35,0.3 2.7,-0.56 3,-1.91 0,-0.05 0.01,-0.09 0.02,-0.13 -0.19,0.16 -0.44,0.23 -0.69,0.17z"/>
     <path class="fil5" d="M714.13 75.95c0,-0.01 -2.46,-2.82 -5.46,-2.82 -2.42,0 -4.49,1.83 -5.2,2.54 0.33,0.31 0.93,0.82 1.72,1.29l-0.41 0.69c-1.32,-0.79 -2.15,-1.68 -2.16,-1.68l-0.26 -0.27 0.25 -0.28c0,-0.01 2.7,-3.09 6.06,-3.09 3.36,0 6.06,3.08 6.06,3.09l-0.6 0.53z"/>
     <path class="fil5" d="M734.7 75.68c-0.43,-0.09 -0.7,-0.51 -0.6,-0.94 0.09,-0.43 0.51,-0.7 0.94,-0.6 0.08,0.02 0.16,0.05 0.23,0.09 -0.29,-0.77 -0.95,-1.39 -1.82,-1.58 -1.35,-0.3 -2.69,0.55 -2.99,1.9 -0.29,1.36 0.56,2.7 1.91,3 1.35,0.3 2.7,-0.56 3,-1.91 0,-0.05 0.01,-0.09 0.02,-0.13 -0.19,0.16 -0.44,0.23 -0.69,0.17z"/>
     <path class="fil5" d="M738.34 75.95c0,-0.01 -2.46,-2.82 -5.46,-2.82 -2.42,0 -4.49,1.83 -5.2,2.54 0.33,0.31 0.93,0.82 1.72,1.29l-0.41 0.69c-1.32,-0.79 -2.15,-1.68 -2.16,-1.68l-0.26 -0.27 0.25 -0.28c0,-0.01 2.7,-3.09 6.06,-3.09 3.37,0 6.06,3.08 6.06,3.09l-0.6 0.53z"/>
    </g>
    <path class="fil5" d="M701.55 32.81l-10.46 13.76c0,0 1.71,20.1 1.95,21.26 0.23,1.17 3.73,8.23 3.73,8.23l1.53 -18.97 37.3 -8.66 9.06 8.21 2.76 17.58 2.21 -6.85 0.58 -14.57 -3.45 -13.94 -14.76 -9.89 -30.45 3.84z"/>
   </g>
   <path class="fil6 str7" d="M629.5 78.18c0,0 -1.14,4.26 -5.87,5.23 -1.43,0.33 -2.9,0.57 -4.36,0.77 -1.38,0.19 -2.78,0.33 -4.19,0.39 -1.42,0.06 -2.85,0.03 -4.27,-0.02 -1.35,-0.05 -2.72,-0.08 -4.05,-0.34 -1.79,-0.36 -3.56,-0.96 -5.03,-1.92 -0.46,-0.31 -0.8,-0.68 -1.14,-1.08 -0.66,-0.76 -1.27,-1.55 -1.83,-2.36 -1.51,-2.2 -2.57,-4.76 -3.12,-7.26 -0.13,-0.61 -0.22,-1.23 -0.26,-1.85 -0.03,-0.43 -0.02,-0.88 0.02,-1.33 0.13,-1.28 0.56,-2.58 1.47,-3.58 0.65,-0.72 1.52,-1.26 2.51,-1.58 0,0 6.78,-2.2 14.78,-2.48 0,0 6.94,-0.41 12.16,0.55 0,0 4.24,0.55 4.57,5.37 0,0 0.65,6.54 -1.39,11.49zm-46.79 -8.43c-0.04,0.62 -0.13,1.23 -0.27,1.84 -0.54,2.51 -1.6,5.07 -3.11,7.27 -0.56,0.81 -1.17,1.6 -1.83,2.36 -0.34,0.4 -0.68,0.77 -1.15,1.08 -1.46,0.96 -3.23,1.55 -5.03,1.91 -1.33,0.27 -2.69,0.3 -4.05,0.35 -1.42,0.05 -2.84,0.08 -4.27,0.01 -1.4,-0.06 -2.8,-0.19 -4.19,-0.38 -1.46,-0.2 -2.92,-0.44 -4.35,-0.78 -4.73,-0.96 -5.88,-5.22 -5.88,-5.22 -2.04,-4.96 -1.38,-11.49 -1.38,-11.49 0.32,-4.82 4.57,-5.37 4.57,-5.37 5.22,-0.96 12.16,-0.55 12.16,-0.55 8,0.28 14.77,2.48 14.77,2.48 1,0.32 1.87,0.86 2.51,1.57 0.91,1.01 1.35,2.3 1.47,3.58 0.05,0.46 0.05,0.91 0.03,1.34zm53.52 -7.79c-0.03,-0.39 -0.03,-0.86 -0.29,-1.21 -0.27,-0.35 -0.7,-0.51 -1.16,-0.6 -8.24,-1.51 -21.14,-0.96 -21.14,-0.96 -2.86,0.16 -5.72,0.47 -8.52,0.98 -2.02,0.36 -4.02,0.81 -5.97,1.39 -1.16,0.34 -2.31,0.72 -3.4,1.19 -4.16,1.81 -9.38,1.81 -13.52,0.01 -1.09,-0.48 -2.24,-0.85 -3.4,-1.2 -1.95,-0.57 -3.95,-1.03 -5.97,-1.39 -2.81,-0.5 -5.66,-0.82 -8.52,-0.97 0,0 -12.9,-0.55 -21.14,0.96 -0.46,0.09 -0.89,0.25 -1.16,0.6 -0.26,0.34 -0.26,0.81 -0.29,1.21 -0.04,0.58 -0.06,1.26 0.2,1.8 0.12,0.26 0.34,0.42 0.6,0.58 0.28,0.17 0.5,0.41 0.7,0.66 0.81,1.09 1.03,2.4 1.1,3.65 0.14,2.57 0.63,5.1 1.27,7.61 0.62,2.38 1.35,4.72 3.46,6.5 0.78,0.67 1.7,1.23 2.71,1.62 0.34,0.13 0.68,0.24 1.04,0.33 0,0 6.34,1.93 12.55,1.65 2.99,-0.13 6.18,-0.31 8.98,-1.28 0.94,-0.33 1.83,-0.77 2.59,-1.34 0.99,-0.73 1.86,-1.57 2.65,-2.46 1.49,-1.69 2.67,-3.56 3.59,-5.51 0.71,-1.51 1.27,-3.08 1.91,-4.6 1.71,-4.1 6.06,-4.11 7.78,-0.01 0.63,1.52 1.2,3.1 1.9,4.6 0.92,1.95 2.11,3.82 3.6,5.51 0.79,0.89 1.66,1.73 2.65,2.47 0.76,0.56 1.65,1 2.59,1.33 2.8,0.97 5.98,1.15 8.97,1.29 6.22,0.27 12.56,-1.66 12.56,-1.66 0.35,-0.08 0.7,-0.19 1.04,-0.32 1.01,-0.4 1.92,-0.96 2.71,-1.63 2.1,-1.78 2.84,-4.12 3.45,-6.5 0.65,-2.51 1.14,-5.04 1.28,-7.61 0.07,-1.25 0.29,-2.56 1.1,-3.64 0.19,-0.26 0.41,-0.49 0.7,-0.67 0.26,-0.16 0.48,-0.32 0.6,-0.58 0.26,-0.54 0.24,-1.22 0.2,-1.8z"/>
   <polygon class="fil5" points="321.11,66.99 321.11,70.44 326.28,70.44 326.28,74.6 321.11,74.6 321.11,79.78 316.94,79.78 316.94,74.6 311.76,74.6 311.76,70.44 316.94,70.44 316.94,65.26 321.11,65.26 "/>
   <polygon class="fil5" points="398.53,66.99 398.53,70.44 403.7,70.44 403.7,74.6 398.53,74.6 398.53,79.78 394.36,79.78 394.36,74.6 389.18,74.6 389.18,70.44 394.36,70.44 394.36,65.26 398.53,65.26 "/>
   <polygon class="fil5" points="517.76,66.99 517.76,70.44 522.94,70.44 522.94,74.6 517.76,74.6 517.76,79.78 513.59,79.78 513.59,74.6 508.42,74.6 508.42,70.44 513.59,70.44 513.59,65.26 517.76,65.26 "/>
   <polygon class="fil5" points="664.38,66.99 664.38,70.44 669.56,70.44 669.56,74.6 664.38,74.6 664.38,79.78 660.22,79.78 660.22,74.6 655.04,74.6 655.04,70.44 660.22,70.44 660.22,65.26 664.38,65.26 "/>
   <g>
    <path class="fil7" d="M126.51 86.67l27.85 0 0 -27.85 -27.85 0 0 27.85zm28.97 2.24l-30.09 0c-0.62,0 -1.12,-0.5 -1.12,-1.12l0 -30.09c0,-0.62 0.5,-1.12 1.12,-1.12l30.09 0c0.62,0 1.12,0.5 1.12,1.12l0 30.09c0,0.62 -0.5,1.12 -1.12,1.12z"/>
    <path class="fil7" d="M132.89 58.82c-0.62,0 -1.12,-0.5 -1.12,-1.12l0 -8.61c0,-0.62 0.5,-1.12 1.12,-1.12 0.62,0 1.12,0.5 1.12,1.12l0 8.61c0,0.62 -0.5,1.12 -1.12,1.12z"/>
    <path class="fil7" d="M132.89 50.21l-5.94 0c-0.62,0 -1.12,-0.51 -1.12,-1.12 0,-0.62 0.5,-1.12 1.12,-1.12l5.94 0c0.62,0 1.12,0.5 1.12,1.12 0,0.61 -0.5,1.12 -1.12,1.12z"/>
    <path class="fil7" d="M124.02 47.28c-0.99,0 -1.8,0.81 -1.8,1.81 0,0.99 0.81,1.8 1.8,1.8 1,0 1.81,-0.81 1.81,-1.8 0,-1 -0.81,-1.81 -1.81,-1.81zm0 5.85c-2.22,0 -4.04,-1.81 -4.04,-4.04 0,-2.23 1.82,-4.05 4.04,-4.05 2.23,0 4.05,1.82 4.05,4.05 0,2.23 -1.82,4.04 -4.05,4.04z"/>
    <path class="fil7" d="M147.71 58.82c-0.62,0 -1.12,-0.5 -1.12,-1.12l0 -8.61c0,-0.62 0.5,-1.12 1.12,-1.12 0.62,0 1.12,0.5 1.12,1.12l0 8.61c0,0.62 -0.5,1.12 -1.12,1.12z"/>
    <path class="fil7" d="M153.65 50.21l-5.94 0c-0.62,0 -1.12,-0.51 -1.12,-1.12 0,-0.62 0.5,-1.12 1.12,-1.12l5.94 0c0.62,0 1.12,0.5 1.12,1.12 0,0.61 -0.5,1.12 -1.12,1.12z"/>
    <path class="fil7" d="M156.57 47.28c-0.99,0 -1.8,0.81 -1.8,1.81 0,0.99 0.81,1.8 1.8,1.8 1,0 1.81,-0.81 1.81,-1.8 0,-1 -0.81,-1.81 -1.81,-1.81zm0 5.85c-2.23,0 -4.04,-1.81 -4.04,-4.04 0,-2.23 1.81,-4.05 4.04,-4.05 2.23,0 4.05,1.82 4.05,4.05 0,2.23 -1.82,4.04 -4.05,4.04z"/>
    <path class="fil7" d="M140.3 40.88c-1,0 -1.8,0.81 -1.8,1.8 0,1 0.8,1.8 1.8,1.8 0.99,0 1.8,-0.8 1.8,-1.8 0,-0.99 -0.81,-1.8 -1.8,-1.8zm0 5.84c-2.23,0 -4.04,-1.81 -4.04,-4.04 0,-2.23 1.81,-4.04 4.04,-4.04 2.23,0 4.04,1.81 4.04,4.04 0,2.23 -1.81,4.04 -4.04,4.04z"/>
    <path class="fil7" d="M140.3 58.26c-0.62,0 -1.12,-0.5 -1.12,-1.12l0 -11.54c0,-0.61 0.5,-1.12 1.12,-1.12 0.62,0 1.12,0.51 1.12,1.12l0 11.54c0,0.62 -0.5,1.12 -1.12,1.12z"/>
    <path class="fil7" d="M125.39 81.27l-8.62 0c-0.61,0 -1.12,-0.5 -1.12,-1.12 0,-0.62 0.51,-1.12 1.12,-1.12l8.62 0c0.62,0 1.12,0.5 1.12,1.12 0,0.62 -0.5,1.12 -1.12,1.12z"/>
    <path class="fil7" d="M116.77 87.22c-0.61,0 -1.12,-0.51 -1.12,-1.12l0 -5.95c0,-0.62 0.51,-1.12 1.12,-1.12 0.62,0 1.12,0.5 1.12,1.12l0 5.95c0,0.61 -0.5,1.12 -1.12,1.12z"/>
    <path class="fil7" d="M116.77 87.22c-0.99,0 -1.8,0.8 -1.8,1.8 0,0.99 0.81,1.8 1.8,1.8 1,0 1.81,-0.81 1.81,-1.8 0,-1 -0.81,-1.8 -1.81,-1.8zm0 5.84c-2.22,0 -4.04,-1.81 -4.04,-4.04 0,-2.23 1.82,-4.04 4.04,-4.04 2.23,0 4.04,1.81 4.04,4.04 0,2.23 -1.81,4.04 -4.04,4.04z"/>
    <path class="fil7" d="M125.39 66.45l-8.62 0c-0.61,0 -1.12,-0.5 -1.12,-1.12 0,-0.61 0.51,-1.11 1.12,-1.11l8.62 0c0.62,0 1.12,0.5 1.12,1.11 0,0.62 -0.5,1.12 -1.12,1.12z"/>
    <path class="fil7" d="M116.77 66.45c-0.61,0 -1.12,-0.5 -1.12,-1.12l0 -5.94c0,-0.62 0.51,-1.12 1.12,-1.12 0.62,0 1.12,0.5 1.12,1.12l0 5.94c0,0.62 -0.5,1.12 -1.12,1.12z"/>
    <path class="fil7" d="M116.77 54.67c-0.99,0 -1.8,0.81 -1.8,1.8 0,0.99 0.81,1.8 1.8,1.8 1,0 1.81,-0.81 1.81,-1.8 0,-0.99 -0.81,-1.8 -1.81,-1.8zm0 5.84c-2.22,0 -4.04,-1.81 -4.04,-4.04 0,-2.23 1.82,-4.04 4.04,-4.04 2.23,0 4.04,1.81 4.04,4.04 0,2.23 -1.81,4.04 -4.04,4.04z"/>
    <path class="fil7" d="M110.37 70.94c-0.99,0 -1.8,0.81 -1.8,1.8 0,1 0.81,1.81 1.8,1.81 0.99,0 1.8,-0.81 1.8,-1.81 0,-0.99 -0.81,-1.8 -1.8,-1.8zm0 5.85c-2.23,0 -4.04,-1.82 -4.04,-4.05 0,-2.22 1.81,-4.04 4.04,-4.04 2.23,0 4.04,1.82 4.04,4.04 0,2.23 -1.81,4.05 -4.04,4.05z"/>
    <path class="fil7" d="M124.83 73.86l-11.54 0c-0.62,0 -1.12,-0.5 -1.12,-1.12 0,-0.61 0.5,-1.12 1.12,-1.12l11.54 0c0.62,0 1.12,0.51 1.12,1.12 0,0.62 -0.5,1.12 -1.12,1.12z"/>
    <path class="fil7" d="M147.84 97.53c-0.62,0 -1.12,-0.51 -1.12,-1.12l0 -8.62c0,-0.62 0.5,-1.12 1.12,-1.12 0.62,0 1.12,0.5 1.12,1.12l0 8.62c0,0.61 -0.5,1.12 -1.12,1.12z"/>
    <path class="fil7" d="M153.79 97.53l-5.95 0c-0.62,0 -1.12,-0.51 -1.12,-1.12 0,-0.62 0.5,-1.12 1.12,-1.12l5.95 0c0.62,0 1.12,0.5 1.12,1.12 0,0.61 -0.5,1.12 -1.12,1.12z"/>
    <path class="fil7" d="M156.71 94.6c-1,0 -1.8,0.81 -1.8,1.81 0,0.99 0.8,1.8 1.8,1.8 0.99,0 1.8,-0.81 1.8,-1.8 0,-1 -0.81,-1.81 -1.8,-1.81zm0 5.85c-2.23,0 -4.04,-1.81 -4.04,-4.04 0,-2.23 1.81,-4.04 4.04,-4.04 2.23,0 4.04,1.81 4.04,4.04 0,2.23 -1.81,4.04 -4.04,4.04z"/>
    <path class="fil7" d="M133.02 97.53c-0.61,0 -1.11,-0.51 -1.11,-1.12l0 -8.62c0,-0.62 0.5,-1.12 1.11,-1.12 0.62,0 1.12,0.5 1.12,1.12l0 8.62c0,0.61 -0.5,1.12 -1.12,1.12z"/>
    <path class="fil7" d="M133.02 97.53l-5.94 0c-0.62,0 -1.12,-0.51 -1.12,-1.12 0,-0.62 0.5,-1.12 1.12,-1.12l5.94 0c0.62,0 1.12,0.5 1.12,1.12 0,0.61 -0.5,1.12 -1.12,1.12z"/>
    <path class="fil7" d="M124.16 94.6c-0.99,0 -1.8,0.81 -1.8,1.81 0,0.99 0.81,1.8 1.8,1.8 0.99,0 1.8,-0.81 1.8,-1.8 0,-1 -0.81,-1.81 -1.8,-1.81zm0 5.85c-2.23,0 -4.04,-1.81 -4.04,-4.04 0,-2.23 1.81,-4.04 4.04,-4.04 2.23,0 4.04,1.81 4.04,4.04 0,2.23 -1.81,4.04 -4.04,4.04z"/>
    <path class="fil7" d="M140.43 101.01c-0.99,0 -1.8,0.81 -1.8,1.8 0,0.99 0.81,1.8 1.8,1.8 1,0 1.81,-0.81 1.81,-1.8 0,-0.99 -0.81,-1.8 -1.81,-1.8zm0 5.84c-2.22,0 -4.04,-1.81 -4.04,-4.04 0,-2.23 1.82,-4.04 4.04,-4.04 2.23,0 4.05,1.81 4.05,4.04 0,2.23 -1.82,4.04 -4.05,4.04z"/>
    <path class="fil7" d="M140.43 101.01c-0.61,0 -1.12,-0.5 -1.12,-1.12l0 -11.54c0,-0.62 0.51,-1.12 1.12,-1.12 0.62,0 1.12,0.5 1.12,1.12l0 11.54c0,0.62 -0.5,1.12 -1.12,1.12z"/>
    <path class="fil7" d="M164.23 66.46l-8.62 0c-0.62,0 -1.12,-0.5 -1.12,-1.12 0,-0.62 0.5,-1.12 1.12,-1.12l8.62 0c0.61,0 1.11,0.5 1.11,1.12 0,0.62 -0.5,1.12 -1.11,1.12z"/>
    <path class="fil7" d="M164.23 66.46c-0.62,0 -1.12,-0.5 -1.12,-1.12l0 -5.95c0,-0.61 0.5,-1.12 1.12,-1.12 0.61,0 1.11,0.51 1.11,1.12l0 5.95c0,0.62 -0.5,1.12 -1.11,1.12z"/>
    <path class="fil7" d="M164.23 54.67c-1,0 -1.81,0.81 -1.81,1.8 0,1 0.81,1.8 1.81,1.8 0.99,0 1.8,-0.8 1.8,-1.8 0,-0.99 -0.81,-1.8 -1.8,-1.8zm0 5.84c-2.23,0 -4.05,-1.81 -4.05,-4.04 0,-2.23 1.82,-4.04 4.05,-4.04 2.22,0 4.04,1.81 4.04,4.04 0,2.23 -1.82,4.04 -4.04,4.04z"/>
    <path class="fil7" d="M164.23 81.27l-8.62 0c-0.62,0 -1.12,-0.5 -1.12,-1.12 0,-0.61 0.5,-1.11 1.12,-1.11l8.62 0c0.61,0 1.11,0.5 1.11,1.11 0,0.62 -0.5,1.12 -1.11,1.12z"/>
    <path class="fil7" d="M164.23 87.22c-0.62,0 -1.12,-0.5 -1.12,-1.12l0 -5.95c0,-0.61 0.5,-1.11 1.12,-1.11 0.61,0 1.11,0.5 1.11,1.11l0 5.95c0,0.62 -0.5,1.12 -1.11,1.12z"/>
    <path class="fil7" d="M164.23 87.22c-1,0 -1.81,0.81 -1.81,1.8 0,0.99 0.81,1.8 1.81,1.8 0.99,0 1.8,-0.81 1.8,-1.8 0,-0.99 -0.81,-1.8 -1.8,-1.8zm0 5.84c-2.23,0 -4.05,-1.81 -4.05,-4.04 0,-2.23 1.82,-4.04 4.05,-4.04 2.22,0 4.04,1.81 4.04,4.04 0,2.23 -1.82,4.04 -4.04,4.04z"/>
    <path class="fil7" d="M170.63 70.94c-0.99,0 -1.8,0.81 -1.8,1.81 0,0.99 0.81,1.8 1.8,1.8 0.99,0 1.8,-0.81 1.8,-1.8 0,-1 -0.81,-1.81 -1.8,-1.81zm0 5.85c-2.23,0 -4.04,-1.82 -4.04,-4.04 0,-2.23 1.81,-4.04 4.04,-4.04 2.23,0 4.04,1.81 4.04,4.04 0,2.22 -1.81,4.04 -4.04,4.04z"/>
    <path class="fil7" d="M167.71 73.87l-11.54 0c-0.62,0 -1.12,-0.5 -1.12,-1.12 0,-0.62 0.5,-1.12 1.12,-1.12l11.54 0c0.62,0 1.12,0.5 1.12,1.12 0,0.62 -0.5,1.12 -1.12,1.12z"/>
    <path class="fil7" d="M132.96 80.14l15.08 0 0 -15.08 -15.08 0 0 15.08zm16.2 2.24l-17.32 0c-0.62,0 -1.12,-0.5 -1.12,-1.12l0 -17.32c0,-0.62 0.5,-1.12 1.12,-1.12l17.32 0c0.62,0 1.12,0.5 1.12,1.12l0 17.32c0,0.62 -0.5,1.12 -1.12,1.12z"/>
   </g>
   <polygon class="fil5" points="202.8,66.99 202.8,70.44 207.97,70.44 207.97,74.6 202.8,74.6 202.8,79.78 198.63,79.78 198.63,74.6 193.45,74.6 193.45,70.44 198.63,70.44 198.63,65.26 202.8,65.26 "/>
  </g>
 </g>
</svg>