<svg xmlns="http://www.w3.org/2000/svg" xmlns:xlink="http://www.w3.org/1999/xlink" xmlns:xodm="http://www.corel.com/coreldraw/odm/2003" xml:space="preserve" width="8533px" height="4500px" version="1.1" style="shape-rendering:geometricPrecision; text-rendering:geometricPrecision; image-rendering:optimizeQuality; fill-rule:evenodd; clip-rule:evenodd" viewBox="0 0 8532.33 4499.47">
 <defs>
  <style type="text/css">
   <![CDATA[
    .str0 {stroke:#FEFEFE;stroke-width:2.36;stroke-miterlimit:10;stroke-opacity:0.101961}
    .str2 {stroke:#FEFEFE;stroke-width:2.36;stroke-miterlimit:10;stroke-opacity:0.101961}
    .str3 {stroke:#FEFEFE;stroke-width:2.36;stroke-miterlimit:10;stroke-opacity:0.101961}
    .str1 {stroke:#FEFEFE;stroke-width:2.36;stroke-miterlimit:10}
    .str4 {stroke:#FEFEFE;stroke-width:2.36;stroke-miterlimit:10}
    .str5 {stroke:#FEFEFE;stroke-width:2.36;stroke-miterlimit:10}
    .fil3 {fill:#FEFEFE;fill-rule:nonzero}
    .fil4 {fill:#91D8F7;fill-rule:nonzero}
    .fil0 {fill:black;fill-opacity:0.000000}
    .fil2 {fill:#FEFEFE;fill-rule:nonzero;fill-opacity:0.031373}
    .fil1 {fill:#FEFEFE;fill-rule:nonzero;fill-opacity:0.101961}
    .fil5 {fill:#FEFEFE;fill-rule:nonzero;fill-opacity:0.160784}
   ]]>
  </style>
   <mask id="id0">
  <linearGradient id="id1" gradientUnits="userSpaceOnUse" x1="1621.52" y1="504.81" x2="1621.52" y2="2015.85">
   <stop offset="0" style="stop-opacity:1; stop-color:white"/>
   <stop offset="1" style="stop-opacity:0; stop-color:white"/>
  </linearGradient>
    <rect style="fill:url(#id1)" x="1438.09" y="1334.63" width="1328.64" height="1830.23"/>
   </mask>
   <mask id="id2">
  <linearGradient id="id3" gradientUnits="userSpaceOnUse" x1="3951.02" y1="4019.4" x2="3951.02" y2="2486.47">
   <stop offset="0" style="stop-opacity:1; stop-color:white"/>
   <stop offset="1" style="stop-opacity:0; stop-color:white"/>
  </linearGradient>
    <rect style="fill:url(#id3)" x="2629.84" y="1334.61" width="1514.7" height="1830.25"/>
   </mask>
   <mask id="id4">
  <linearGradient id="id5" gradientUnits="userSpaceOnUse" x1="80.08" y1="463.6" x2="1874.06" y2="1842.6">
   <stop offset="0" style="stop-opacity:1; stop-color:white"/>
   <stop offset="0.34902" style="stop-opacity:0.501961; stop-color:white"/>
   <stop offset="1" style="stop-opacity:0; stop-color:white"/>
  </linearGradient>
    <rect style="fill:url(#id5)" x="1437.16" y="1333.7" width="1330.5" height="1832.09"/>
   </mask>
   <mask id="id6">
  <linearGradient id="id7" gradientUnits="userSpaceOnUse" x1="4696.5" y1="3840.21" x2="3374.21" y2="2711.24">
   <stop offset="0" style="stop-opacity:1; stop-color:white"/>
   <stop offset="1" style="stop-opacity:0; stop-color:white"/>
  </linearGradient>
    <rect style="fill:url(#id7)" x="2628.91" y="1333.68" width="1516.56" height="1832.11"/>
   </mask>
   <mask id="id8">
  <linearGradient id="id9" gradientUnits="userSpaceOnUse" x1="159.98" y1="-20.98" x2="2526.19" y2="2342.65">
   <stop offset="0" style="stop-opacity:1; stop-color:white"/>
   <stop offset="0.0588235" style="stop-opacity:0.501961; stop-color:white"/>
   <stop offset="1" style="stop-opacity:0; stop-color:white"/>
  </linearGradient>
    <rect style="fill:url(#id9)" x="1471.52" y="1334.31" width="2653.93" height="1830.85"/>
   </mask>
   <mask id="id10">
  <linearGradient id="id11" gradientUnits="userSpaceOnUse" x1="6908.61" y1="504.81" x2="6908.61" y2="2015.85">
   <stop offset="0" style="stop-opacity:1; stop-color:white"/>
   <stop offset="1" style="stop-opacity:0; stop-color:white"/>
  </linearGradient>
    <rect style="fill:url(#id11)" x="5763.4" y="1334.63" width="1328.64" height="1830.23"/>
   </mask>
   <mask id="id12">
  <linearGradient id="id13" gradientUnits="userSpaceOnUse" x1="4579.12" y1="4019.4" x2="4579.11" y2="2486.47">
   <stop offset="0" style="stop-opacity:1; stop-color:white"/>
   <stop offset="1" style="stop-opacity:0; stop-color:white"/>
  </linearGradient>
    <rect style="fill:url(#id13)" x="4385.59" y="1334.61" width="1514.7" height="1830.25"/>
   </mask>
   <mask id="id14">
  <linearGradient id="id15" gradientUnits="userSpaceOnUse" x1="8450.05" y1="463.6" x2="6656.07" y2="1842.6">
   <stop offset="0" style="stop-opacity:1; stop-color:white"/>
   <stop offset="0.34902" style="stop-opacity:0.501961; stop-color:white"/>
   <stop offset="1" style="stop-opacity:0; stop-color:white"/>
  </linearGradient>
    <rect style="fill:url(#id15)" x="5762.47" y="1333.7" width="1330.5" height="1832.09"/>
   </mask>
   <mask id="id16">
  <linearGradient id="id17" gradientUnits="userSpaceOnUse" x1="3833.63" y1="3840.21" x2="5155.93" y2="2711.24">
   <stop offset="0" style="stop-opacity:1; stop-color:white"/>
   <stop offset="1" style="stop-opacity:0; stop-color:white"/>
  </linearGradient>
    <rect style="fill:url(#id17)" x="4384.66" y="1333.68" width="1516.56" height="1832.11"/>
   </mask>
   <mask id="id18">
  <linearGradient id="id19" gradientUnits="userSpaceOnUse" x1="8370.15" y1="-20.98" x2="6003.94" y2="2342.65">
   <stop offset="0" style="stop-opacity:1; stop-color:white"/>
   <stop offset="0.0588235" style="stop-opacity:0.501961; stop-color:white"/>
   <stop offset="1" style="stop-opacity:0; stop-color:white"/>
  </linearGradient>
    <rect style="fill:url(#id19)" x="4404.69" y="1334.31" width="2653.92" height="1830.85"/>
   </mask>
 </defs>
 <g id="Layer_x0020_1">
  <metadata id="CorelCorpID_0Corel-Layer"/>
  <polygon class="fil0" points="0,0 8532.33,0 8532.33,4499.47 0,4499.47 "/>
  <path class="fil1" d="M1552.67 1555.63c125.59,-97.15 448.23,-223.05 1052.19,-220.72 -582.3,2.39 -895.25,125.39 -1018.49,220.72 -169.18,130.52 -136.16,705.75 4.8,1011.04 140.93,304.97 248.91,418.3 563.81,523.03 139.05,46.14 369.95,73.62 611.5,74.87 -253.62,1.25 -499.7,-26.59 -645.2,-74.87 -314.9,-104.73 -422.88,-218.06 -563.8,-523.03 -140.96,-305.29 -173.99,-880.52 -4.81,-1011.04z"/>
  <path class="fil1" d="M2630.09 1334.88c215.61,-0.59 467.89,15.31 761,55.21 0,0 695.5,126.38 747.09,509.66 51.89,383.6 -234.83,954.38 -549.74,1128.83 -174.08,96.52 -492.11,136.88 -794.8,136.02 296.81,-0.88 605.07,-41.56 775.44,-136.02 314.91,-174.45 601.63,-745.23 549.73,-1128.83 -51.58,-383.28 -747.08,-509.66 -747.08,-509.66 -284.39,-38.71 -530.32,-54.82 -741.64,-55.21z"/>
  <path class="fil2" d="M1586.37 1555.63c169.14,-130.84 695.5,-313.88 1785.36,-165.54 0,0 695.5,126.38 747.08,509.66 51.9,383.6 -234.82,954.38 -549.73,1128.83 -314.63,174.45 -1099.47,165.53 -1414.1,61.12 -314.9,-104.73 -422.88,-218.06 -563.81,-523.03 -140.96,-305.29 -173.98,-880.52 -4.8,-1011.04z"/>
  <path class="fil3" style="mask:url(#id0)" d="M1552.67 1555.63c125.59,-97.15 448.23,-223.05 1052.19,-220.72 -582.3,2.39 -895.25,125.39 -1018.49,220.72 -169.18,130.52 -136.16,705.75 4.8,1011.04 140.93,304.97 248.91,418.3 563.81,523.03 139.05,46.14 369.95,73.62 611.5,74.87 -253.62,1.25 -499.7,-26.59 -645.2,-74.87 -314.9,-104.73 -422.88,-218.06 -563.8,-523.03 -140.96,-305.29 -173.99,-880.52 -4.81,-1011.04z"/>
  <path class="fil3" style="mask:url(#id2)" d="M2630.09 1334.88c215.61,-0.59 467.89,15.31 761,55.21 0,0 695.5,126.38 747.09,509.66 51.89,383.6 -234.83,954.38 -549.74,1128.83 -174.08,96.52 -492.11,136.88 -794.8,136.02 296.81,-0.88 605.07,-41.56 775.44,-136.02 314.91,-174.45 601.63,-745.23 549.73,-1128.83 -51.58,-383.28 -747.08,-509.66 -747.08,-509.66 -284.39,-38.71 -530.32,-54.82 -741.64,-55.21z"/>
  <path class="fil1 str0" d="M1552.67 1555.63c125.59,-97.15 448.23,-223.05 1052.19,-220.72 -582.3,2.39 -895.25,125.39 -1018.49,220.72 -169.18,130.52 -136.16,705.75 4.8,1011.04 140.93,304.97 248.91,418.3 563.81,523.03 139.05,46.14 369.95,73.62 611.5,74.87 -253.62,1.25 -499.7,-26.59 -645.2,-74.87 -314.9,-104.73 -422.88,-218.06 -563.8,-523.03 -140.96,-305.29 -173.99,-880.52 -4.81,-1011.04z"/>
  <path class="fil1 str0" d="M2630.09 1334.88c215.61,-0.59 467.89,15.31 761,55.21 0,0 695.5,126.38 747.09,509.66 51.89,383.6 -234.83,954.38 -549.74,1128.83 -174.08,96.52 -492.11,136.88 -794.8,136.02 296.81,-0.88 605.07,-41.56 775.44,-136.02 314.91,-174.45 601.63,-745.23 549.73,-1128.83 -51.58,-383.28 -747.08,-509.66 -747.08,-509.66 -284.39,-38.71 -530.32,-54.82 -741.64,-55.21z"/>
  <path class="fil1" d="M1586.37 1555.63c169.14,-130.84 695.5,-313.88 1785.36,-165.54 0,0 695.5,126.38 747.08,509.66 37.24,275.23 -99.85,646.8 -296.59,899.23 -197.82,-232.94 -582.09,-390.95 -1023.74,-390.95 -464.24,0 -865.06,174.59 -1052.59,427.27 -55.13,-69.57 -102.68,-156.03 -154.72,-268.63 -140.96,-305.29 -173.98,-880.52 -4.8,-1011.04z"/>
  <path class="fil3 str1" style="mask:url(#id4)" d="M1552.67 1555.63c125.59,-97.15 448.23,-223.05 1052.19,-220.72 -582.3,2.39 -895.25,125.39 -1018.49,220.72 -169.18,130.52 -136.16,705.75 4.8,1011.04 140.93,304.97 248.91,418.3 563.81,523.03 139.05,46.14 369.95,73.62 611.5,74.87 -253.62,1.25 -499.7,-26.59 -645.2,-74.87 -314.9,-104.73 -422.88,-218.06 -563.8,-523.03 -140.96,-305.29 -173.99,-880.52 -4.81,-1011.04z"/>
  <path class="fil3 str1" style="mask:url(#id6)" d="M2630.09 1334.88c215.61,-0.59 467.89,15.31 761,55.21 0,0 695.5,126.38 747.09,509.66 51.89,383.6 -234.83,954.38 -549.74,1128.83 -174.08,96.52 -492.11,136.88 -794.8,136.02 296.81,-0.88 605.07,-41.56 775.44,-136.02 314.91,-174.45 601.63,-745.23 549.73,-1128.83 -51.58,-383.28 -747.08,-509.66 -747.08,-509.66 -284.39,-38.71 -530.32,-54.82 -741.64,-55.21z"/>
  <path class="fil4" style="mask:url(#id8)" d="M1586.37 1555.63c169.14,-130.84 695.5,-313.88 1785.36,-165.54 0,0 695.5,126.38 747.08,509.66 51.9,383.6 -234.82,954.38 -549.73,1128.83 -314.63,174.45 -1099.47,165.53 -1414.1,61.12 -314.9,-104.73 -422.88,-218.06 -563.81,-523.03 -140.96,-305.29 -173.98,-880.52 -4.8,-1011.04z"/>
  <g>
   <path class="fil5" d="M3372.47 1385.99l-1.49 8.2 0.18 0.03 -100.47 -12.94 -97.2 -11.07 -93.98 -9.27 -90.79 -7.54 -87.63 -5.88 -84.52 -4.29 -81.44 -2.77 -78.4 -1.32 -75.4 0.06 -72.44 1.36 -69.51 2.61 -66.62 3.77 -63.77 4.86 -60.96 5.9 -58.18 6.85 -55.45 7.74 -52.74 8.55 -50.09 9.3 -47.46 9.97 -44.87 10.57 -42.32 11.11 -39.81 11.58 -37.34 11.96 -34.9 12.29 -32.5 12.53 -30.13 12.72 -27.82 12.82 -25.53 12.86 -23.27 12.83 -21.06 12.72 -18.89 12.54 -16.74 12.28 -5.12 -6.58 17.08 -12.53 19.19 -12.75 21.36 -12.9 23.55 -12.98 25.8 -12.99 28.07 -12.95 30.38 -12.81 32.74 -12.63 35.13 -12.37 37.55 -12.03 40.03 -11.64 42.53 -11.16 45.07 -10.63 47.66 -10.01 50.27 -9.33 52.93 -8.58 55.63 -7.76 58.36 -6.88 61.13 -5.91 63.93 -4.88 66.79 -3.78 69.67 -2.61 72.59 -1.37 75.55 -0.05 78.55 1.32 81.58 2.78 84.66 4.29 87.76 5.89 90.92 7.55 94.1 9.28 97.33 11.08 100.59 12.96 0.18 0.03zm-0.18 -0.03l0.09 0.01 0.09 0.02 -0.18 -0.03zm750.66 513.24l-8.28 1.11 0 0 -6.6 -34.75 -10.08 -33.29 -13.33 -31.86 -16.35 -30.47 -19.13 -29.11 -21.67 -27.76 -23.97 -26.44 -26.04 -25.13 -27.85 -23.85 -29.44 -22.58 -30.76 -21.34 -31.86 -20.11 -32.69 -18.91 -33.29 -17.72 -33.64 -16.56 -33.74 -15.43 -33.6 -14.31 -33.2 -13.21 -32.58 -12.15 -31.69 -11.1 -30.57 -10.07 -29.19 -9.07 -27.58 -8.1 -25.71 -7.14 -23.6 -6.22 -21.25 -5.3 -18.65 -4.43 -15.8 -3.56 -12.71 -2.73 -9.38 -1.92 -5.79 -1.14 -1.95 -0.36 1.49 -8.2 2.05 0.38 5.86 1.15 9.44 1.93 12.79 2.75 15.89 3.58 18.74 4.45 21.35 5.33 23.71 6.24 25.82 7.18 27.7 8.13 29.33 9.11 30.71 10.13 31.84 11.15 32.74 12.2 33.39 13.29 33.79 14.39 33.95 15.52 33.86 16.68 33.54 17.85 32.96 19.07 32.14 20.29 31.08 21.55 29.77 22.85 28.21 24.15 26.42 25.5 24.36 26.87 22.07 28.27 19.51 29.7 16.72 31.16 13.64 32.62 10.34 34.12 6.77 35.62 -0.01 0zm-551.84 1133.02l-4.06 -7.29 0 0 29.22 -17.37 29.02 -19.58 28.76 -21.7 28.44 -23.7 28.07 -25.59 27.63 -27.39 27.14 -29.08 26.59 -30.65 25.97 -32.12 25.31 -33.48 24.58 -34.74 23.79 -35.89 22.95 -36.92 22.05 -37.87 21.1 -38.68 20.08 -39.41 19 -40.02 17.88 -40.52 16.7 -40.92 15.45 -41.21 14.15 -41.39 12.79 -41.46 11.38 -41.43 9.92 -41.28 8.38 -41.04 6.8 -40.68 5.17 -40.21 3.47 -39.64 1.72 -38.95 -0.09 -38.17 -1.94 -37.27 -3.86 -36.26 8.28 -1.11 3.91 36.72 1.97 37.7 0.08 38.56 -1.73 39.33 -3.5 39.98 -5.21 40.54 -6.85 40.98 -8.45 41.32 -9.97 41.55 -11.45 41.69 -12.87 41.7 -14.23 41.63 -15.54 41.43 -16.78 41.14 -17.98 40.73 -19.1 40.23 -20.19 39.61 -21.2 38.9 -22.17 38.06 -23.08 37.14 -23.93 36.09 -24.73 34.95 -25.47 33.7 -26.15 32.34 -26.78 30.87 -27.35 29.3 -27.87 27.63 -28.34 25.84 -28.74 23.94 -29.1 21.95 -29.4 19.84 -29.64 17.63 0 0zm-1417.45 61.43l2.64 -7.91 0 0 30.68 9.46 33.29 8.89 35.71 8.31 37.97 7.71 40.05 7.09 41.94 6.45 43.68 5.8 45.24 5.13 46.61 4.45 47.82 3.74 48.86 3.02 49.72 2.29 50.42 1.53 50.92 0.77 51.28 -0.02 51.44 -0.82 51.44 -1.63 51.27 -2.46 50.92 -3.31 50.4 -4.18 49.71 -5.06 48.84 -5.95 47.8 -6.86 46.59 -7.78 45.2 -8.73 43.64 -9.69 41.9 -10.66 40 -11.64 37.92 -12.63 35.65 -13.65 33.22 -14.67 30.62 -15.71 4.06 7.29 -31.08 15.94 -33.63 14.85 -36.02 13.79 -38.25 12.75 -40.28 11.72 -42.17 10.73 -43.88 9.74 -45.42 8.77 -46.79 7.82 -47.98 6.88 -49.01 5.98 -49.87 5.07 -50.55 4.19 -51.07 3.32 -51.41 2.47 -51.57 1.64 -51.58 0.81 -51.4 0.02 -51.05 -0.77 -50.54 -1.54 -49.86 -2.29 -48.99 -3.03 -47.96 -3.75 -46.76 -4.46 -45.39 -5.15 -43.84 -5.82 -42.13 -6.48 -40.24 -7.12 -38.19 -7.76 -35.96 -8.36 -33.57 -8.97 -31.01 -9.56 0 0zm-566.28 -525.24l7.59 -3.48 0 -0.01 13.1 28 12.96 26.9 12.84 25.84 12.78 24.81 12.75 23.82 12.78 22.85 12.84 21.93 12.95 21.03 13.11 20.17 13.29 19.35 13.54 18.55 13.82 17.79 14.15 17.07 14.51 16.38 14.93 15.73 15.39 15.11 15.9 14.53 16.45 13.97 17.04 13.47 17.68 12.98 18.37 12.53 19.1 12.13 19.87 11.74 20.7 11.4 21.56 11.09 22.48 10.81 23.43 10.56 24.43 10.35 25.47 10.17 26.56 10.02 27.69 9.91 28.86 9.83 -2.64 7.91 -28.99 -9.87 -27.81 -9.96 -26.7 -10.07 -25.63 -10.24 -24.6 -10.42 -23.61 -10.64 -22.66 -10.9 -21.77 -11.2 -20.92 -11.52 -20.09 -11.87 -19.33 -12.27 -18.61 -12.7 -17.91 -13.15 -17.28 -13.65 -16.67 -14.17 -16.12 -14.73 -15.6 -15.31 -15.14 -15.94 -14.7 -16.6 -14.32 -17.27 -13.97 -18 -13.68 -18.75 -13.43 -19.53 -13.21 -20.34 -13.06 -21.2 -12.93 -22.08 -12.85 -22.99 -12.82 -23.94 -12.84 -24.92 -12.89 -25.94 -13 -26.99 -13.14 -28.08 0 0zm-3.57 -1016.07l5.12 6.58 0 0.01 -14.86 13.15 -13.79 15.63 -12.71 18 -11.64 20.24 -10.57 22.35 -9.51 24.33 -8.45 26.18 -7.41 27.9 -6.38 29.47 -5.35 30.92 -4.36 32.23 -3.36 33.41 -2.39 34.46 -1.44 35.37 -0.49 36.14 0.43 36.8 1.33 37.32 2.23 37.7 3.09 37.95 3.95 38.07 4.79 38.06 5.61 37.92 6.41 37.65 7.2 37.24 7.96 36.7 8.72 36.04 9.45 35.23 10.16 34.3 10.86 33.24 11.53 32.04 12.19 30.71 12.84 29.25 -7.59 3.48 -12.96 -29.53 -12.3 -30.97 -11.62 -32.28 -10.93 -33.47 -10.23 -34.51 -9.5 -35.44 -8.76 -36.23 -8.01 -36.89 -7.23 -37.42 -6.44 -37.83 -5.64 -38.1 -4.81 -38.24 -3.97 -38.25 -3.11 -38.14 -2.23 -37.89 -1.35 -37.51 -0.43 -37 0.5 -36.37 1.45 -35.6 2.4 -34.7 3.39 -33.68 4.4 -32.52 5.41 -31.24 6.45 -29.84 7.52 -28.29 8.6 -26.62 9.7 -24.84 10.84 -22.91 12 -20.86 13.19 -18.68 14.42 -16.35 15.68 -13.88 0 0.01zm5.12 6.58l0 0.01 -0.39 0.29 0.39 -0.3z"/>
  </g>
  <path class="fil1" d="M6977.46 1555.63c-125.59,-97.15 -448.23,-223.05 -1052.19,-220.72 582.3,2.39 895.26,125.39 1018.49,220.72 169.18,130.52 136.16,705.75 -4.8,1011.04 -140.93,304.97 -248.91,418.3 -563.81,523.03 -139.05,46.14 -369.94,73.62 -611.5,74.87 253.62,1.25 499.7,-26.59 645.2,-74.87 314.9,-104.73 422.88,-218.06 563.81,-523.03 140.96,-305.29 173.98,-880.52 4.8,-1011.04z"/>
  <path class="fil1" d="M5900.04 1334.88c-215.61,-0.59 -467.89,15.31 -761,55.21 0,0 -695.5,126.38 -747.09,509.66 -51.89,383.6 234.83,954.38 549.74,1128.83 174.08,96.52 492.11,136.88 794.8,136.02 -296.81,-0.88 -605.06,-41.56 -775.44,-136.02 -314.9,-174.45 -601.63,-745.23 -549.73,-1128.83 51.58,-383.28 747.09,-509.66 747.09,-509.66 284.38,-38.71 530.32,-54.82 741.63,-55.21z"/>
  <path class="fil2" d="M6943.76 1555.63c-169.14,-130.84 -695.49,-313.88 -1785.35,-165.54 0,0 -695.51,126.38 -747.09,509.66 -51.9,383.6 234.83,954.38 549.73,1128.83 314.63,174.45 1099.47,165.53 1414.1,61.12 314.9,-104.73 422.88,-218.06 563.81,-523.03 140.96,-305.29 173.98,-880.52 4.8,-1011.04z"/>
  <path class="fil3" style="mask:url(#id10)" d="M6977.46 1555.63c-125.59,-97.15 -448.23,-223.05 -1052.19,-220.72 582.3,2.39 895.26,125.39 1018.49,220.72 169.18,130.52 136.16,705.75 -4.8,1011.04 -140.93,304.97 -248.91,418.3 -563.81,523.03 -139.05,46.14 -369.94,73.62 -611.5,74.87 253.62,1.25 499.7,-26.59 645.2,-74.87 314.9,-104.73 422.88,-218.06 563.81,-523.03 140.96,-305.29 173.98,-880.52 4.8,-1011.04z"/>
  <path class="fil3" style="mask:url(#id12)" d="M5900.04 1334.88c-215.61,-0.59 -467.89,15.31 -761,55.21 0,0 -695.5,126.38 -747.09,509.66 -51.89,383.6 234.83,954.38 549.74,1128.83 174.08,96.52 492.11,136.88 794.8,136.02 -296.81,-0.88 -605.06,-41.56 -775.44,-136.02 -314.9,-174.45 -601.63,-745.23 -549.73,-1128.83 51.58,-383.28 747.09,-509.66 747.09,-509.66 284.38,-38.71 530.32,-54.82 741.63,-55.21z"/>
  <path class="fil1 str2" d="M6977.46 1555.63c-125.59,-97.15 -448.23,-223.05 -1052.19,-220.72 582.3,2.39 895.26,125.39 1018.49,220.72 169.18,130.52 136.16,705.75 -4.8,1011.04 -140.93,304.97 -248.91,418.3 -563.81,523.03 -139.05,46.14 -369.94,73.62 -611.5,74.87 253.62,1.25 499.7,-26.59 645.2,-74.87 314.9,-104.73 422.88,-218.06 563.81,-523.03 140.96,-305.29 173.98,-880.52 4.8,-1011.04z"/>
  <path class="fil1 str3" d="M5900.04 1334.88c-215.61,-0.59 -467.89,15.31 -761,55.21 0,0 -695.5,126.38 -747.09,509.66 -51.89,383.6 234.83,954.38 549.74,1128.83 174.08,96.52 492.11,136.88 794.8,136.02 -296.81,-0.88 -605.06,-41.56 -775.44,-136.02 -314.9,-174.45 -601.63,-745.23 -549.73,-1128.83 51.58,-383.28 747.09,-509.66 747.09,-509.66 284.38,-38.71 530.32,-54.82 741.63,-55.21z"/>
  <path class="fil1" d="M6943.76 1555.63c-169.14,-130.84 -695.49,-313.88 -1785.35,-165.54 0,0 -695.51,126.38 -747.09,509.66 -37.24,275.23 99.85,646.8 296.59,899.23 197.82,-232.94 582.09,-390.95 1023.74,-390.95 464.24,0 865.06,174.59 1052.59,427.27 55.13,-69.57 102.68,-156.03 154.72,-268.63 140.96,-305.29 173.98,-880.52 4.8,-1011.04z"/>
  <path class="fil3 str4" style="mask:url(#id14)" d="M6977.46 1555.63c-125.59,-97.15 -448.23,-223.05 -1052.19,-220.72 582.3,2.39 895.26,125.39 1018.49,220.72 169.18,130.52 136.16,705.75 -4.8,1011.04 -140.93,304.97 -248.91,418.3 -563.81,523.03 -139.05,46.14 -369.94,73.62 -611.5,74.87 253.62,1.25 499.7,-26.59 645.2,-74.87 314.9,-104.73 422.88,-218.06 563.81,-523.03 140.96,-305.29 173.98,-880.52 4.8,-1011.04z"/>
  <path class="fil3 str5" style="mask:url(#id16)" d="M5900.04 1334.88c-215.61,-0.59 -467.89,15.31 -761,55.21 0,0 -695.5,126.38 -747.09,509.66 -51.89,383.6 234.83,954.38 549.74,1128.83 174.08,96.52 492.11,136.88 794.8,136.02 -296.81,-0.88 -605.06,-41.56 -775.44,-136.02 -314.9,-174.45 -601.63,-745.23 -549.73,-1128.83 51.58,-383.28 747.09,-509.66 747.09,-509.66 284.38,-38.71 530.32,-54.82 741.63,-55.21z"/>
  <path class="fil4" style="mask:url(#id18)" d="M6943.76 1555.63c-169.14,-130.84 -695.49,-313.88 -1785.35,-165.54 0,0 -695.51,126.38 -747.09,509.66 -51.9,383.6 234.83,954.38 549.73,1128.83 314.63,174.45 1099.47,165.53 1414.1,61.12 314.9,-104.73 422.88,-218.06 563.81,-523.03 140.96,-305.29 173.98,-880.52 4.8,-1011.04z"/>
  <g>
   <path class="fil5" d="M5157.66 1385.99l0.18 -0.03 100.59 -12.96 97.33 -11.08 94.1 -9.28 90.92 -7.55 87.77 -5.89 84.65 -4.29 81.59 -2.78 78.54 -1.32 75.55 0.05 72.59 1.37 69.67 2.61 66.79 3.78 63.93 4.88 61.13 5.91 58.36 6.88 55.63 7.76 52.93 8.58 50.27 9.33 47.66 10.01 45.07 10.63 42.53 11.16 40.03 11.64 37.55 12.03 35.13 12.37 32.74 12.63 30.38 12.81 28.07 12.95 25.8 12.99 23.55 12.98 21.36 12.9 19.19 12.75 17.08 12.53 -5.12 6.58 -16.74 -12.28 -18.89 -12.54 -21.06 -12.72 -23.27 -12.83 -25.53 -12.86 -27.81 -12.82 -30.14 -12.72 -32.5 -12.53 -34.9 -12.29 -37.34 -11.96 -39.81 -11.58 -42.32 -11.11 -44.87 -10.57 -47.46 -9.97 -50.08 -9.3 -52.75 -8.55 -55.45 -7.74 -58.18 -6.85 -60.96 -5.9 -63.77 -4.86 -66.62 -3.77 -69.51 -2.61 -72.44 -1.36 -75.4 -0.06 -78.4 1.32 -81.44 2.77 -84.52 4.29 -87.63 5.88 -90.79 7.54 -93.98 9.27 -97.2 11.07 -100.47 12.94 0.19 -0.03 -1.5 -8.2zm0 0l0.1 -0.02 0.08 -0.01 -0.18 0.03zm-750.48 513.21l0 0 6.76 -35.62 10.34 -34.12 13.65 -32.62 16.71 -31.16 19.51 -29.7 22.07 -28.27 24.36 -26.87 26.42 -25.5 28.21 -24.15 29.77 -22.85 31.08 -21.55 32.14 -20.29 32.97 -19.07 33.53 -17.85 33.86 -16.68 33.96 -15.52 33.79 -14.39 33.38 -13.29 32.74 -12.2 31.85 -11.15 30.7 -10.13 29.33 -9.11 27.7 -8.13 25.82 -7.18 23.71 -6.24 21.35 -5.33 18.74 -4.45 15.89 -3.58 12.79 -2.75 9.45 -1.93 5.85 -1.15 2.05 -0.38 1.5 8.2 -1.96 0.36 -5.79 1.14 -9.38 1.92 -12.71 2.73 -15.8 3.56 -18.64 4.43 -21.25 5.3 -23.61 6.22 -25.71 7.14 -27.58 8.1 -29.19 9.07 -30.57 10.07 -31.69 11.1 -32.57 12.15 -33.21 13.21 -33.6 14.31 -33.74 15.43 -33.64 16.56 -33.29 17.72 -32.69 18.91 -31.86 20.11 -30.76 21.34 -29.44 22.58 -27.85 23.85 -26.04 25.13 -23.97 26.44 -21.67 27.76 -19.13 29.11 -16.34 30.47 -13.34 31.86 -10.08 33.29 -6.6 34.75 0 0 -8.28 -1.11zm551.84 1133.02l0 0 -29.64 -17.63 -29.4 -19.84 -29.1 -21.95 -28.74 -23.94 -28.34 -25.84 -27.87 -27.63 -27.35 -29.3 -26.78 -30.87 -26.15 -32.34 -25.47 -33.7 -24.72 -34.95 -23.94 -36.09 -23.08 -37.14 -22.16 -38.06 -21.21 -38.9 -20.19 -39.61 -19.1 -40.23 -17.98 -40.73 -16.78 -41.14 -15.54 -41.43 -14.22 -41.63 -12.88 -41.7 -11.45 -41.69 -9.97 -41.55 -8.45 -41.32 -6.85 -40.98 -5.21 -40.54 -3.5 -39.98 -1.73 -39.33 0.08 -38.56 1.97 -37.7 3.91 -36.72 8.28 1.11 -3.86 36.26 -1.94 37.27 -0.09 38.17 1.72 38.95 3.47 39.64 5.17 40.21 6.8 40.68 8.39 41.04 9.91 41.28 11.38 41.43 12.79 41.46 14.15 41.39 15.46 41.21 16.69 40.92 17.88 40.52 19.01 40.02 20.07 39.41 21.1 38.68 22.05 37.87 22.95 36.92 23.8 35.89 24.57 34.74 25.31 33.48 25.97 32.12 26.59 30.65 27.14 29.08 27.63 27.39 28.07 25.59 28.45 23.7 28.76 21.7 29.02 19.58 29.21 17.37 0 0 -4.06 7.29zm1417.45 61.43l0 0 -31.01 9.56 -33.57 8.97 -35.96 8.36 -38.19 7.76 -40.24 7.12 -42.13 6.48 -43.84 5.82 -45.39 5.15 -46.76 4.46 -47.96 3.75 -48.99 3.03 -49.85 2.29 -50.54 1.54 -51.06 0.77 -51.4 -0.02 -51.58 -0.81 -51.57 -1.64 -51.41 -2.47 -51.06 -3.32 -50.56 -4.19 -49.87 -5.07 -49.01 -5.98 -47.98 -6.88 -46.79 -7.82 -45.42 -8.77 -43.87 -9.74 -42.17 -10.73 -40.29 -11.72 -38.24 -12.75 -36.03 -13.79 -33.63 -14.85 -31.08 -15.94 4.06 -7.29 30.62 15.71 33.22 14.67 35.65 13.65 37.92 12.63 40 11.64 41.9 10.66 43.64 9.69 45.21 8.73 46.58 7.78 47.81 6.86 48.84 5.95 49.7 5.06 50.4 4.18 50.92 3.31 51.27 2.46 51.44 1.63 51.45 0.82 51.27 0.02 50.92 -0.77 50.42 -1.53 49.72 -2.29 48.86 -3.02 47.82 -3.74 46.62 -4.45 45.23 -5.13 43.68 -5.8 41.95 -6.45 40.04 -7.09 37.97 -7.71 35.72 -8.31 33.28 -8.89 30.68 -9.46 0 0 2.64 7.91zm566.28 -525.24l0 0 -13.14 28.08 -12.99 26.99 -12.9 25.94 -12.83 24.92 -12.83 23.94 -12.85 22.99 -12.93 22.08 -13.05 21.2 -13.22 20.34 -13.43 19.53 -13.68 18.75 -13.97 18 -14.32 17.27 -14.7 16.6 -15.13 15.94 -15.61 15.31 -16.12 14.73 -16.67 14.17 -17.28 13.65 -17.91 13.15 -18.6 12.7 -19.33 12.27 -20.1 11.87 -20.92 11.52 -21.76 11.2 -22.67 10.9 -23.61 10.64 -24.6 10.42 -25.62 10.24 -26.71 10.07 -27.81 9.96 -28.99 9.87 -2.64 -7.91 28.87 -9.83 27.69 -9.91 26.55 -10.02 25.48 -10.17 24.43 -10.35 23.42 -10.56 22.48 -10.81 21.56 -11.09 20.7 -11.4 19.87 -11.74 19.1 -12.13 18.37 -12.53 17.68 -12.98 17.04 -13.47 16.45 -13.97 15.9 -14.53 15.39 -15.11 14.93 -15.73 14.52 -16.38 14.14 -17.07 13.82 -17.79 13.54 -18.55 13.3 -19.35 13.1 -20.17 12.95 -21.03 12.84 -21.93 12.78 -22.85 12.75 -23.82 12.78 -24.81 12.85 -25.84 12.95 -26.9 13.1 -28 0 0.01 7.59 3.48zm3.57 -1016.07l0 -0.01 15.68 13.88 14.42 16.35 13.19 18.68 12.01 20.86 10.83 22.91 9.71 24.84 8.59 26.62 7.52 28.29 6.45 29.84 5.41 31.24 4.4 32.52 3.39 33.68 2.41 34.7 1.44 35.6 0.5 36.37 -0.43 37 -1.34 37.51 -2.24 37.89 -3.11 38.14 -3.97 38.25 -4.81 38.24 -5.64 38.1 -6.44 37.83 -7.23 37.42 -8.01 36.89 -8.76 36.23 -9.5 35.44 -10.23 34.51 -10.93 33.47 -11.62 32.28 -12.3 30.97 -12.96 29.53 -7.59 -3.48 12.84 -29.25 12.19 -30.71 11.54 -32.04 10.85 -33.24 10.16 -34.3 9.45 -35.23 8.72 -36.04 7.96 -36.7 7.2 -37.24 6.41 -37.65 5.61 -37.92 4.79 -38.06 3.95 -38.07 3.1 -37.95 2.22 -37.7 1.33 -37.32 0.43 -36.8 -0.49 -36.14 -1.44 -35.37 -2.39 -34.46 -3.36 -33.41 -4.36 -32.23 -5.35 -30.92 -6.38 -29.47 -7.41 -27.9 -8.45 -26.18 -9.51 -24.33 -10.57 -22.35 -11.64 -20.24 -12.71 -18 -13.78 -15.63 -14.87 -13.15 0 -0.01 5.12 -6.58zm-5.12 6.59l0 -0.01 0.39 0.3 -0.39 -0.29z"/>
  </g>
 </g>
</svg>