<svg width="100" height="100" viewBox="0 0 100 100" fill="none" xmlns="http://www.w3.org/2000/svg">
<path fill-rule="evenodd" clip-rule="evenodd" d="M44.5417 95.5833H61.2083L46.7619 70.5833L35.6875 82.0416L44.5417 95.5833Z" fill="#ADD8E6" stroke="white" stroke-linecap="round" stroke-linejoin="round"/>
<path fill-rule="evenodd" clip-rule="evenodd" d="M30.8614 95.5635L31 34.125L16.7434 47.7047L16.4167 95.5833L30.8614 95.5635Z" fill="#ADD8E6" stroke="white" stroke-linecap="round" stroke-linejoin="round"/>
<path fill-rule="evenodd" clip-rule="evenodd" d="M64.4621 95.5635L64.3333 34.125L77.5716 47.7047L77.875 95.5833L64.4621 95.5635Z" fill="#ADD8E6" stroke="white" stroke-linecap="round" stroke-linejoin="round"/>
<path fill-rule="evenodd" clip-rule="evenodd" d="M64.3333 25.7595L70.9558 18.5L77.875 25.7595V41.4167H64.3333V25.7595Z" fill="#ADD8E6" stroke="white" stroke-linecap="round" stroke-linejoin="round"/>
<path fill-rule="evenodd" clip-rule="evenodd" d="M47.6766 38.8592L47.7166 31C52.0684 31.474 55.5181 34.7431 56 38.8592H47.6766ZM45.3471 38.8592H37.25C37.7264 34.7894 41.1043 31.547 45.3869 31.0164L45.3471 38.8592ZM45.2973 48.6722C41.1344 48.1181 37.846 44.9974 37.2795 41.0594H45.3359L45.2973 48.6722ZM47.6654 41.0594H55.9704C55.3892 45.0995 51.9425 48.2779 47.6266 48.7083L47.6654 41.0594Z" fill="#002366" stroke="#002366" stroke-linecap="round" stroke-linejoin="round"/>
<path d="M71.6048 23.2829C71.5092 23.2262 71.3966 23.2026 71.2846 23.2173C70.1057 23.3723 69.1761 24.3149 69.0447 25.5023C69.0322 25.6151 69.0585 25.728 69.1179 25.8228C69.062 25.9184 69.039 26.0309 69.0542 26.1424C69.2103 27.2908 70.114 28.1979 71.2598 28.3599C71.3715 28.3757 71.4843 28.3532 71.5804 28.2976C71.6749 28.3573 71.7875 28.3841 71.9003 28.3722C73.0891 28.2464 74.0354 27.3201 74.1958 26.1426C74.211 26.031 74.188 25.9185 74.132 25.8228C74.1914 25.7279 74.2178 25.6151 74.2053 25.5023C74.0723 24.3015 73.1232 23.3501 71.925 23.2116C71.8125 23.1986 71.6998 23.2243 71.6048 23.2829Z" fill="#002366" stroke="white" stroke-linecap="round" stroke-linejoin="round"/>
<path fill-rule="evenodd" clip-rule="evenodd" d="M71.4804 15.375L82.0416 26.8333H80.2492L71.4692 20.3409L63.1476 26.79L61.2083 26.8333L71.4804 15.375Z" fill="#002366" stroke="white" stroke-linecap="round" stroke-linejoin="round"/>
<path fill-rule="evenodd" clip-rule="evenodd" d="M47.1391 6L89.3333 53.3452L79.1639 53.1207L46.8684 21.0732L16.7065 52.9427L6 53.9167L47.1391 6Z" fill="#002366" stroke="white" stroke-linecap="round" stroke-linejoin="round"/>
<path d="M38.8125 85.6875C39.2534 85.9232 39.2535 85.9231 39.2535 85.923L39.254 85.9222L39.256 85.9184L39.2645 85.9026L39.2994 85.8382C39.3306 85.7807 39.3778 85.6943 39.4412 85.5795C39.568 85.3498 39.7596 85.0065 40.0179 84.5538C40.5343 83.6485 41.3172 82.3058 42.3807 80.5603C44.5078 77.0693 47.7574 71.9672 52.2435 65.5307C61.2157 52.6575 75.1336 34.4466 94.9084 13.1107C95.0776 12.9281 95.0867 12.6489 94.9298 12.4557C94.773 12.2624 94.4978 12.214 94.2844 12.3421C83.804 18.6303 69.3822 32.3214 57.6122 44.3977C51.7195 50.4438 46.4789 56.0984 42.7115 60.2414C40.8277 62.313 39.312 64.0069 38.2671 65.1831C37.7447 65.7713 37.3399 66.23 37.0656 66.5418C37.0421 66.5685 37.0195 66.5942 36.9979 66.6187C36.972 66.5934 36.9449 66.5669 36.9164 66.5393C36.617 66.2479 36.1795 65.8284 35.6254 65.3139C34.5176 64.2852 32.9426 62.8757 31.0727 61.3514C27.3424 58.3104 22.4019 54.7818 17.6395 52.9298C17.439 52.8518 17.2111 52.9109 17.0737 53.0764C16.9362 53.2418 16.92 53.4767 17.0335 53.6595C21.7257 61.2192 27.0682 69.298 31.2363 75.4851C33.3207 78.579 35.1119 81.2008 36.3822 83.0491C37.0173 83.9733 37.5222 84.7042 37.8684 85.2041C38.0415 85.4541 38.1749 85.6463 38.265 85.7761L38.3674 85.9233L38.3935 85.9607L38.4 85.9702L38.4017 85.9725L38.4021 85.9732C38.4022 85.9733 38.4023 85.9734 38.8125 85.6875ZM38.8125 85.6875L39.2534 85.9232C39.1714 86.0766 39.0156 86.1764 38.8419 86.1866C38.6683 86.1969 38.5018 86.1161 38.4023 85.9734L38.8125 85.6875Z" fill="#FFD700" stroke="white" stroke-linecap="round" stroke-linejoin="round"/>
</svg>
