<svg xmlns="http://www.w3.org/2000/svg" xmlns:xlink="http://www.w3.org/1999/xlink" xmlns:xodm="http://www.corel.com/coreldraw/odm/2003" xml:space="preserve" width="1712px" height="1358px" version="1.1" style="shape-rendering:geometricPrecision; text-rendering:geometricPrecision; image-rendering:optimizeQuality; fill-rule:evenodd; clip-rule:evenodd" viewBox="0 0 125.38 99.45">
 <defs>
  <style type="text/css">
   <![CDATA[
    .fil2 {fill:#FEFEFE;fill-rule:nonzero}
    .fil1 {fill:#328FC9;fill-rule:nonzero}
    .fil0 {fill:#FEFEFE;fill-opacity:0.000000}
   ]]>
  </style>
 </defs>
 <g id="Layer_x0020_1">
  <metadata id="CorelCorpID_0Corel-Layer"/>
  <polygon class="fil0" points="0,0 125.38,0 125.38,99.45 0,99.45 "/>
  <g id="_1569221556848">
   <polygon class="fil1" points="20.34,92.08 105.04,92.08 105.04,7.37 20.34,7.37 "/>
   <polygon class="fil2" points="62.25,81.19 64.76,81.19 64.76,69.28 62.25,69.28 "/>
   <path class="fil2" d="M80.92 79.01c-2.11,0 -3.73,-1.6 -3.73,-3.77 0,-2.18 1.62,-3.78 3.73,-3.78 2.1,0 3.72,1.6 3.72,3.78 0,2.17 -1.62,3.77 -3.72,3.77zm0 -10.06c-3.49,0 -6.31,2.73 -6.31,6.29 0,3.53 2.82,6.28 6.31,6.28 3.51,0 6.3,-2.75 6.3,-6.28 0,-3.56 -2.79,-6.29 -6.3,-6.29z"/>
   <path class="fil2" d="M70.01 77.62l0 -8.34 -2.52 0 0 8.61c0,2.25 1.28,3.3 3.71,3.3l3.22 0 0 -2.46 -3.14 0c-0.92,0 -1.27,-0.25 -1.27,-1.11z"/>
   <path class="fil2" d="M98.84 73.37c0,-2.61 -1.69,-4.09 -4.47,-4.09l-5.46 0 0 11.91 2.51 0 0 -9.45 2.89 0c1.05,0 1.89,0.55 1.89,1.7 0,1.1 -0.7,1.54 -1.53,1.89 -0.15,0.07 -0.47,0.21 -0.68,0.34 -0.73,0.45 -0.86,1.33 -0.25,2.14l2.56 3.38 3.3 0 -3.24 -3.98c1.68,-0.85 2.48,-1.95 2.48,-3.84z"/>
   <path class="fil2" d="M29.13 74.33c0.27,-1.82 1.71,-2.92 3.48,-2.92 1.94,0 3.18,1.19 3.38,2.92l-6.86 0zm3.51 -5.38c-3.67,0 -6.26,2.85 -6.26,6.3 0,3.72 2.86,6.27 6.57,6.27 2.36,0 4.03,-0.89 5.24,-2.26l-1.79 -1.54c-1.02,0.93 -1.97,1.37 -3.4,1.37 -1.8,0 -3.51,-0.92 -3.83,-2.75l9.56 0c0.02,-0.41 0.05,-0.66 0.05,-0.91 0,-3.47 -2.07,-6.48 -6.14,-6.48z"/>
   <path class="fil2" d="M56.82 74.28c-1.5,-0.53 -2.92,-1.02 -2.92,-1.81 0,-0.55 0.58,-1.11 1.55,-1.11 1.01,0 2.35,0.48 3.44,1.11l1.11 -2.1c-1.29,-0.88 -2.94,-1.4 -4.46,-1.4 -2.41,0 -4.32,1.32 -4.32,3.72 0,1.66 1.5,2.77 3.48,3.36 1.57,0.48 2.95,0.92 2.95,1.81 0,0.65 -0.6,1.26 -1.77,1.26 -1.2,0 -2.66,-0.43 -4.08,-1.46l-1.26 2.08c1.61,1.16 3.48,1.76 5.16,1.76 2.59,0 4.57,-1.11 4.57,-3.8 0,-1.84 -1.5,-2.77 -3.45,-3.42z"/>
   <path class="fil2" d="M46.03 74.28c-1.51,-0.53 -2.92,-1.02 -2.92,-1.81 0,-0.55 0.58,-1.11 1.54,-1.11 1.01,0 2.36,0.48 3.44,1.11l1.12 -2.1c-1.3,-0.88 -2.95,-1.4 -4.46,-1.4 -2.41,0 -4.33,1.32 -4.33,3.72 0,1.66 1.5,2.77 3.49,3.36 1.56,0.48 2.94,0.92 2.94,1.81 0,0.65 -0.6,1.26 -1.76,1.26 -1.2,0 -2.66,-0.43 -4.09,-1.46l-1.25 2.08c1.61,1.16 3.48,1.76 5.15,1.76 2.59,0 4.58,-1.11 4.58,-3.8 0,-1.84 -1.5,-2.77 -3.45,-3.42z"/>
   <path class="fil2" d="M62.7 52.33c-8.03,0 -14.44,-6.51 -14.44,-14.44 0,-8.06 6.55,-14.44 14.44,-14.44 3.86,0 7.48,1.5 10.21,4.23 1.07,1.07 1.81,2.01 1.81,2.01l-10.1 10.12c-1.06,1.07 -2.78,1.07 -3.84,0 -1.07,-1.06 -1.07,-2.78 0,-3.84l6.06 -6.07c-1.26,-0.66 -2.67,-1.01 -4.14,-1.01 -4.96,0 -9,4.02 -9,9 0,5.01 4.07,9 9,9 4.05,0 8.13,-2.83 8.89,-7.68l5.48 0c-0.75,7.88 -7.32,13.12 -14.37,13.12zm0 -33.28c-13.43,0 -25.16,7.57 -31.49,18.84 6.33,11.27 18.06,18.84 31.49,18.84 13.43,0 25.16,-7.57 31.49,-18.84 -6.33,-11.27 -18.06,-18.84 -31.49,-18.84z"/>
  </g>
 </g>
</svg>