<svg xmlns="http://www.w3.org/2000/svg" xmlns:xlink="http://www.w3.org/1999/xlink" xmlns:xodm="http://www.corel.com/coreldraw/odm/2003" xml:space="preserve" width="445px" height="353px" version="1.1" style="shape-rendering:geometricPrecision; text-rendering:geometricPrecision; image-rendering:optimizeQuality; fill-rule:evenodd; clip-rule:evenodd" viewBox="0 0 1898.94 1506.24">
 <defs>
  <style type="text/css">
   <![CDATA[
    .str0 {stroke:#E80E0E;stroke-width:13.81;stroke-miterlimit:10}
    .str1 {stroke:#E80E0E;stroke-width:13.81;stroke-linejoin:round;stroke-miterlimit:10}
    .fil3 {fill:none;fill-rule:nonzero}
    .fil0 {fill:#FEFEFE}
    .fil1 {fill:#0F4BAA;fill-rule:nonzero}
    .fil2 {fill:#E80E0E;fill-rule:nonzero}
   ]]>
  </style>
 </defs>
 <g id="Camada_x0020_1">
  <metadata id="CorelCorpID_0Corel-Layer"/>
  <rect class="fil0" width="1898.94" height="1506.24"/>
  <g id="_1748188668112">
   <polygon class="fil1" points="430.54,690.76 543.36,690.76 543.36,716.5 460.01,716.5 460.01,754.55 534.79,754.55 534.79,780.28 460.01,780.28 460.01,818.98 546,818.98 546,844.72 430.54,844.72 "/>
   <path id="1" class="fil1" d="M672.68 730.35c-7.92,-4.84 -16.02,-8.58 -24.3,-11.22 -8.29,-2.63 -15.58,-3.95 -21.89,-3.95 -7.04,0 -12.61,1.32 -16.71,3.95 -4.11,2.64 -6.16,6.31 -6.16,11 0,4.26 1.43,7.81 4.29,10.67 2.86,2.86 6.45,5.2 10.78,7.04 4.32,1.83 10.22,3.85 17.7,6.05 10.41,3.07 18.95,6.15 25.62,9.23 6.67,3.08 12.35,7.62 17.04,13.64 4.7,6.01 7.04,13.92 7.04,23.75 0,9.38 -2.53,17.56 -7.59,24.52 -5.05,6.97 -12.02,12.28 -20.89,15.95 -8.87,3.66 -19.02,5.49 -30.46,5.49 -12.02,0 -23.75,-2.23 -35.19,-6.7 -11.44,-4.47 -21.4,-10.45 -29.91,-17.92l12.32 -25.08c7.77,7.19 16.49,12.83 26.17,16.94 9.67,4.1 18.69,6.16 27.05,6.16 8.21,0 14.66,-1.58 19.36,-4.73 4.68,-3.16 7.03,-7.45 7.03,-12.87 0,-4.4 -1.43,-8.03 -4.28,-10.89 -2.86,-2.86 -6.5,-5.16 -10.89,-6.93 -4.4,-1.75 -10.41,-3.73 -18.04,-5.93 -10.4,-3.08 -18.91,-6.09 -25.51,-9.02 -6.6,-2.93 -12.24,-7.37 -16.93,-13.31 -4.7,-5.93 -7.04,-13.74 -7.04,-23.42 0,-8.94 2.38,-16.75 7.15,-23.42 4.76,-6.67 11.51,-11.84 20.23,-15.51 8.72,-3.66 18.8,-5.49 30.24,-5.49 9.97,0 19.83,1.46 29.58,4.39 9.75,2.93 18.44,6.89 26.06,11.88l-11.87 25.73z"/>
   <polygon id="2" class="fil1" points="696.87,690.76 822.45,690.76 822.45,716.93 774.51,716.93 774.51,844.72 744.82,844.72 744.82,716.93 696.87,716.93 "/>
   <path id="3" class="fil1" d="M904.49 688.78c15.25,0 29.14,3.45 41.67,10.34 12.54,6.89 22.4,16.35 29.59,28.37 7.18,12.03 10.77,25.37 10.77,40.03 0,14.66 -3.59,28.04 -10.77,40.14 -7.19,12.1 -17.05,21.66 -29.59,28.7 -12.53,7.04 -26.42,10.56 -41.67,10.56 -15.25,0 -29.14,-3.52 -41.68,-10.56 -12.53,-7.04 -22.39,-16.6 -29.58,-28.7 -7.18,-12.1 -10.78,-25.48 -10.78,-40.14 0,-14.66 3.6,-28 10.78,-40.03 7.19,-12.02 17.05,-21.48 29.58,-28.37 12.54,-6.89 26.43,-10.34 41.68,-10.34zm0.44 26.4c-9.38,0 -18.11,2.31 -26.18,6.93 -8.06,4.61 -14.44,10.92 -19.13,18.91 -4.69,7.99 -7.04,16.83 -7.04,26.5 0,9.68 2.39,18.55 7.15,26.61 4.76,8.07 11.15,14.44 19.13,19.14 8,4.69 16.69,7.03 26.07,7.03 9.24,0 17.81,-2.34 25.73,-7.03 7.92,-4.7 14.18,-11.07 18.8,-19.14 4.62,-8.06 6.93,-16.93 6.93,-26.61 0,-9.67 -2.31,-18.51 -6.93,-26.5 -4.62,-7.99 -10.88,-14.3 -18.8,-18.91 -7.92,-4.62 -16.49,-6.93 -25.73,-6.93z"/>
   <path id="4" class="fil1" d="M1167.97 862.31c-5.87,5.28 -12.61,9.42 -20.23,12.43 -7.63,3 -15.11,4.51 -22.44,4.51 -9.68,0 -18.69,-2.83 -27.05,-8.47 -8.36,-5.65 -15.47,-13.6 -21.33,-23.86 -15.25,0 -29.11,-3.52 -41.57,-10.56 -12.47,-7.04 -22.29,-16.6 -29.47,-28.7 -7.19,-12.1 -10.78,-25.48 -10.78,-40.14 0,-14.66 3.59,-28 10.78,-40.03 7.18,-12.02 17.04,-21.48 29.58,-28.37 12.54,-6.89 26.43,-10.34 41.67,-10.34 15.25,0 29.14,3.45 41.68,10.34 12.54,6.89 22.4,16.35 29.59,28.37 7.18,12.03 10.77,25.37 10.77,40.03 0,11.44 -2.24,22.18 -6.71,32.22 -4.47,10.04 -10.74,18.73 -18.8,26.06 -8.06,7.33 -17.38,12.83 -27.93,16.5 7.77,8.21 15.46,12.31 23.09,12.31 7.92,0 17.15,-4.1 27.71,-12.31l11.44 20.01zm-142.74 -94.79c0,9.68 2.38,18.55 7.15,26.61 4.76,8.07 11.14,14.44 19.13,19.14 8,4.69 16.68,7.03 26.07,7.03 9.23,0 17.81,-2.34 25.73,-7.03 7.92,-4.7 14.18,-11.07 18.8,-19.14 4.62,-8.06 6.93,-16.93 6.93,-26.61 0,-9.67 -2.31,-18.51 -6.93,-26.5 -4.62,-7.99 -10.88,-14.3 -18.8,-18.91 -7.92,-4.62 -16.5,-6.93 -25.73,-6.93 -9.39,0 -18.11,2.31 -26.18,6.93 -8.06,4.61 -14.44,10.92 -19.13,18.91 -4.69,7.99 -7.04,16.83 -7.04,26.5z"/>
   <path id="5" class="fil1" d="M1213.27 781.38c0,12.16 3.45,21.69 10.34,28.59 6.89,6.89 16.13,10.33 27.71,10.33 11.58,0 20.71,-3.44 27.38,-10.33 6.67,-6.9 10.01,-16.43 10.01,-28.59l0 -90.62 29.46 0 0 90.62c0,13.34 -2.71,24.96 -8.13,34.85 -5.43,9.9 -13.16,17.49 -23.2,22.77 -10.04,5.28 -21.88,7.92 -35.52,7.92 -13.78,0 -25.77,-2.64 -35.96,-7.92 -10.19,-5.28 -18,-12.87 -23.42,-22.77 -5.43,-9.89 -8.14,-21.51 -8.14,-34.85l0 -90.62 29.47 0 0 90.62z"/>
   <polygon id="6" class="fil1" points="1352.92,690.76 1465.75,690.76 1465.75,716.5 1382.39,716.5 1382.39,754.55 1457.17,754.55 1457.17,780.28 1382.39,780.28 1382.39,818.98 1468.39,818.98 1468.39,844.72 1352.92,844.72 "/>
   <polygon class="fil2" points="430.51,932.11 507.46,932.11 507.46,1127.06 616.22,1127.06 616.22,1191.42 430.51,1191.42 "/>
   <path id="1" class="fil2" d="M791.77 927.31c26.64,0 50.74,5.79 72.32,17.38 21.58,11.59 38.47,27.56 50.68,47.9 12.2,20.35 18.31,43.22 18.31,68.62 0,25.65 -6.11,48.77 -18.31,69.36 -12.21,20.6 -29.1,36.75 -50.68,48.46 -21.58,11.71 -45.68,17.57 -72.32,17.57 -26.88,0 -51.05,-5.86 -72.5,-17.57 -21.45,-11.71 -38.29,-27.86 -50.5,-48.46 -12.2,-20.59 -18.31,-43.71 -18.31,-69.36 0,-25.4 6.11,-48.27 18.31,-68.62 12.21,-20.34 29.05,-36.31 50.5,-47.9 21.45,-11.59 45.62,-17.38 72.5,-17.38zm1.11 63.99c-11.34,0 -21.88,3.08 -31.62,9.25 -9.75,6.16 -17.52,14.61 -23.31,25.34 -5.8,10.72 -8.7,22.62 -8.7,35.69 0,13.08 2.9,25.03 8.7,35.89 5.79,10.84 13.56,19.42 23.31,25.7 9.74,6.29 20.28,9.44 31.62,9.44 11.1,0 21.4,-3.15 30.89,-9.44 9.49,-6.28 16.95,-14.79 22.38,-25.52 5.43,-10.73 8.14,-22.75 8.14,-36.07 0,-13.07 -2.71,-24.97 -8.14,-35.69 -5.43,-10.73 -12.83,-19.18 -22.19,-25.34 -9.38,-6.17 -19.73,-9.25 -31.08,-9.25z"/>
   <path id="2" class="fil2" d="M1142.29 1105.6c0,28.11 -8.45,50 -25.34,65.66 -16.89,15.66 -39.89,23.49 -68.99,23.49 -37.73,0 -69.66,-14.42 -95.8,-43.28l35.14 -50.67c9.37,9.61 18.92,16.89 28.66,21.82 9.75,4.93 18.32,7.4 25.72,7.4 7.15,0 12.76,-2.22 16.83,-6.66 4.07,-4.44 6.1,-10.98 6.1,-19.61l0 -110.23 -88.04 0 0 -61.41 165.72 0 0 173.49z"/>
   <path id="3" class="fil2" d="M1386.28 1191.42l-15.17 -41.43 -104.68 0 -15.54 41.43 -79.17 0 110.61 -259.31 79.16 0 106.91 259.31 -82.12 0zm-98.4 -97.66l62.88 0 -31.07 -84.71 -31.81 84.71z"/>
   <g>
    <path class="fil3 str0" d="M810.43 448.68c0,15.35 12.45,27.8 27.81,27.8 15.36,0 27.81,-12.45 27.81,-27.8 0,15.35 12.45,27.8 27.8,27.8 15.36,0 27.81,-12.45 27.81,-27.8 0,15.35 12.46,27.8 27.81,27.8 15.36,0 27.81,-12.45 27.81,-27.8 0,15.35 12.45,27.8 27.81,27.8 15.35,0 27.8,-12.45 27.8,-27.8 0,15.35 12.46,27.8 27.81,27.8 15.36,0 27.81,-12.45 27.81,-27.8l0 -41.72 -278.08 0 0 41.72z"/>
    <line class="fil3 str0" x1="866.05" y1="434.77" x2="866.05" y2="448.68"/>
    <line class="fil3 str0" x1="921.66" y1="434.77" x2="921.66" y2="448.68"/>
    <line class="fil3 str0" x1="977.28" y1="434.77" x2="977.28" y2="448.68"/>
    <line class="fil3 str0" x1="1032.89" y1="434.77" x2="1032.89" y2="448.68"/>
    <polyline class="fil3 str0" points="1067.65,476.48 1067.65,601.62 831.29,601.62 831.29,476.48 "/>
    <polyline class="fil3 str0" points="935.57,469.53 935.57,601.62 831.29,601.62 831.29,476.48 "/>
    <line class="fil3 str0" x1="907.76" y1="518.2" x2="907.76" y2="546.01"/>
    <line class="fil3 str0" x1="1046.8" y1="525.15" x2="991.18" y2="580.77"/>
    <line class="fil3 str0" x1="1046.8" y1="559.91" x2="1025.94" y2="580.77"/>
    <polygon class="fil3 str0" points="1039.85,351.35 859.1,351.35 810.43,400.01 810.43,406.96 1088.51,406.96 1088.51,400.01 "/>
    <polygon class="fil3 str0" points="859.1,351.35 1039.85,351.35 1039.85,309.64 859.1,309.64 "/>
    <polyline class="fil3 str1" points="866.05,406.96 866.05,400.01 886.9,365.25 886.9,351.35 "/>
    <polyline class="fil3 str1" points="1032.89,406.96 1032.89,400.01 1012.04,365.25 1012.04,351.35 "/>
    <polyline class="fil3 str1" points="921.66,406.96 921.66,400.01 928.62,365.25 928.62,351.35 "/>
    <polyline class="fil3 str1" points="977.28,406.96 977.28,400.01 970.33,365.25 970.33,351.35 "/>
   </g>
  </g>
 </g>
</svg>