<svg xmlns="http://www.w3.org/2000/svg" xmlns:xlink="http://www.w3.org/1999/xlink" xmlns:xodm="http://www.corel.com/coreldraw/odm/2003" xml:space="preserve" width="1712px" height="1358px" version="1.1" style="shape-rendering:geometricPrecision; text-rendering:geometricPrecision; image-rendering:optimizeQuality; fill-rule:evenodd; clip-rule:evenodd" viewBox="0 0 1300.54 1031.57">

 <defs>

  <style type="text/css">

   <![CDATA[
    .fil4 {fill:#2487D9}
    .fil5 {fill:#50A7B8}
    .fil3 {fill:#59B6E2}
    .fil1 {fill:#6D7AE1}
    .fil2 {fill:#82D3C0}
    .fil6 {fill:#219ECA;fill-rule:nonzero}
    .fil0 {fill:#FEFEFE;fill-opacity:0.000000}
   ]]>

  </style>

 </defs>

 <g id="Layer_x0020_1">

  <metadata id="CorelCorpID_0Corel-Layer"/>

  <polygon class="fil0" points="0,0 1300.54,0 1300.54,1031.57 0,1031.57 "/>

  <g id="_2921899942144">

   <g>

    <circle class="fil1" cx="234.73" cy="496.26" r="76.17"/>

    <circle class="fil2" cx="289.58" cy="568.72" r="54.01"/>

    <circle class="fil3" cx="278.55" cy="423.66" r="43.81"/>

    <path class="fil4" d="M234.89 420.09c29.13,0.05 54.42,16.47 67.18,40.54 -6.79,4.33 -14.86,6.84 -23.52,6.84 -24.19,0 -43.81,-19.61 -43.81,-43.81 0,-1.2 0.05,-2.39 0.15,-3.57z"/>

    <path class="fil5" d="M307.79 517.86c-9.23,31.25 -37.95,54.13 -72.09,54.56 -0.08,-1.22 -0.13,-2.46 -0.13,-3.7 0,-29.83 24.18,-54.01 54.01,-54.01 6.39,0 12.52,1.12 18.21,3.15z"/>

   </g>

   <path class="fil6" d="M573.78 461.84c18.25,0 34.76,7.4 46.72,19.36 11.96,11.95 19.35,28.47 19.35,46.71 0,1.41 -0.04,2.8 -0.13,4.19 0.09,0.5 0.13,1.02 0.13,1.55l0 52.24c0,5.08 -4.11,9.2 -9.19,9.2 -5.08,0 -9.19,-4.12 -9.19,-9.2l0 -12.25c-0.32,0.34 -0.64,0.66 -0.97,0.99 -11.96,11.96 -28.47,19.35 -46.72,19.35 -18.24,0 -34.76,-7.39 -46.71,-19.35 -11.96,-11.96 -19.36,-28.47 -19.36,-46.72 0,-18.24 7.4,-34.76 19.36,-46.71 11.95,-11.96 28.47,-19.36 46.71,-19.36zm455.41 -49.92c0,-5.08 4.11,-9.19 9.19,-9.19 5.08,0 9.19,4.11 9.19,9.19l0 101.49 80.15 -53.54c4.21,-2.82 9.9,-1.69 12.71,2.51 2.82,4.21 1.7,9.9 -2.51,12.72l-56.44 37.7 57.33 65.42c3.33,3.81 2.95,9.6 -0.86,12.93 -3.81,3.33 -9.6,2.95 -12.93,-0.86l-58.91 -67.22 -18.54 12.38 0 53.69c0,5.08 -4.11,9.19 -9.19,9.19 -5.08,0 -9.19,-4.11 -9.19,-9.19l0 -177.22zm-19.06 112.85c0.05,0.38 0.08,0.77 0.08,1.16 0,5.07 -4.12,9.19 -9.2,9.19l-103.98 0c1.56,10.28 6.4,19.49 13.42,26.51 8.63,8.63 20.55,13.97 33.72,13.97 5.81,0 11.47,-1.03 16.72,-3 5.29,-1.97 10.24,-4.9 14.6,-8.69 3.83,-3.31 9.61,-2.9 12.93,0.93 3.31,3.83 2.89,9.62 -0.94,12.93 -5.99,5.2 -12.84,9.25 -20.19,12 -7.4,2.76 -15.22,4.21 -23.12,4.21 -18.24,0 -34.76,-7.39 -46.72,-19.35 -11.95,-11.96 -19.35,-28.47 -19.35,-46.72 0,-18.24 7.4,-34.76 19.35,-46.71 11.96,-11.96 28.48,-19.36 46.72,-19.36 17.77,0 33.96,7.05 45.87,18.55 11.71,11.31 19.26,26.93 20.09,44.38zm-112.32 -8.04l92.76 0c-2.15,-8.96 -6.84,-16.93 -13.25,-23.12 -8.58,-8.3 -20.28,-13.38 -33.15,-13.38 -13.17,0 -25.09,5.34 -33.72,13.97 -6.1,6.1 -10.56,13.86 -12.64,22.53zm-102.6 -37.55c-5.08,0 -9.19,-4.12 -9.19,-9.2 0,-5.07 4.11,-9.19 9.19,-9.19l14.24 0 0 -51.6c0,-5.08 4.12,-9.19 9.2,-9.19 5.07,0 9.19,4.11 9.19,9.19l0 51.6 20.81 0c5.07,0 9.19,4.12 9.19,9.19 0,5.08 -4.12,9.2 -9.19,9.2l-20.81 0 0 56.04 -0.03 0c0.19,14.37 2.11,25.18 6,32.06 2.93,5.2 7.35,7.89 13.42,7.85l0.03 -0.04 9.31 0c5.08,0 9.19,4.12 9.19,9.2 0,5.07 -4.11,9.19 -9.19,9.19l-9.31 0 0 -0.04c-13.3,0.09 -22.98,-5.8 -29.4,-17.18 -5.46,-9.69 -8.15,-23.45 -8.37,-40.94l-0.04 -0.1 0 -56.04 -14.24 0zm-97.06 166.96c-1.98,4.66 -7.37,6.83 -12.03,4.85 -4.66,-1.99 -6.83,-7.37 -4.85,-12.03l23.18 -54.01 -48.04 -117.64c-1.9,-4.7 0.37,-10.06 5.07,-11.96 4.7,-1.91 10.05,0.36 11.96,5.06l41.17 100.85 43.33 -100.99c1.99,-4.66 7.37,-6.83 12.03,-4.85 4.66,1.98 6.83,7.37 4.85,12.03l-51.82 120.78c-0.11,0.28 -0.22,0.55 -0.35,0.82l-24.5 57.09zm-313.78 -60.25c0,5.08 -4.12,9.2 -9.19,9.2 -5.08,0 -9.2,-4.12 -9.2,-9.2l0 -176.7c0,-5.08 4.12,-9.19 9.2,-9.19 5.07,0 9.19,4.11 9.19,9.19l0 71.36c11.2,-11.57 26.48,-18.71 43.34,-18.71 17.16,0 32.7,7.4 43.95,19.36 11.25,11.95 18.21,28.47 18.21,46.71 0,0.38 -0.01,0.75 -0.01,1.12l-0.01 0 0 56.86c0,5.08 -4.12,9.2 -9.2,9.2 -5.07,0 -9.19,-4.12 -9.19,-9.2l0 -65.95c-1.55,-20.31 -24.02,-39.71 -43.75,-39.71 -12.39,0 -23.61,5.34 -31.72,13.97 -5.49,5.82 -9.56,13.15 -11.62,21.36l0 70.33zm223.13 -91.69c-8.63,-8.63 -20.55,-13.97 -33.72,-13.97 -13.17,0 -25.09,5.34 -33.72,13.97 -8.62,8.62 -13.96,20.54 -13.96,33.71 0,13.17 5.34,25.09 13.96,33.72 8.63,8.63 20.55,13.97 33.72,13.97 13.17,0 25.09,-5.34 33.72,-13.97 8.63,-8.63 13.97,-20.55 13.97,-33.72 0,-13.17 -5.34,-25.09 -13.97,-33.71z"/>

  </g>

 </g>

</svg>