<svg xmlns="http://www.w3.org/2000/svg" xmlns:xlink="http://www.w3.org/1999/xlink" xmlns:xodm="http://www.corel.com/coreldraw/odm/2003" xml:space="preserve" width="1712px" height="1358px" version="1.1" style="shape-rendering:geometricPrecision; text-rendering:geometricPrecision; image-rendering:optimizeQuality; fill-rule:evenodd; clip-rule:evenodd" viewBox="0 0 125.38 99.45">
 <defs>
  <style type="text/css">
   <![CDATA[
    .fil1 {fill:#0070B7}
    .fil0 {fill:#FEFEFE;fill-opacity:0.000000}
   ]]>
  </style>
 </defs>
 <g id="Layer_x0020_1">
  <metadata id="CorelCorpID_0Corel-Layer"/>
  <polygon class="fil0" points="0,0 125.38,0 125.38,99.45 0,99.45 "/>
  <g id="_1569983657824">
   <path class="fil1" d="M22.93 38.07l-5.32 0 0 10.18c-2.86,0.49 -5.63,1.12 -8.27,1.86l8.27 0 0 11.17 5.32 0 0 -11.17 10.78 0 0 11.17 5.32 0 0 -11.17 5.25 0c0.12,3.55 1.75,6.74 4.67,8.99 2.32,1.79 5.21,2.8 8.17,2.8 3.36,0 6.59,-1.27 9.08,-3.58 2.42,-2.23 3.73,-5.29 3.73,-8.6 0,-3.27 -1.28,-6.29 -3.73,-8.6 -2.42,-2.27 -5.72,-3.57 -9.08,-3.57 -3.36,0 -6.69,1.3 -9.11,3.57 -1.91,1.79 -3.1,3.99 -3.54,6.44 -1.79,-0.21 -3.6,-0.38 -5.44,-0.48l0 -9.01 -5.32 0 0 8.84c-0.1,0 -0.19,0 -0.29,0 -3.59,0 -7.09,0.2 -10.49,0.58l0 -9.42zm26.74 10.25c2.7,0.49 5.32,1.09 7.84,1.79l-7.95 0c0.18,4.14 3.09,7.37 7.56,7.37 4.47,0 7.53,-3.44 7.53,-7.76 0,-4.28 -3.12,-7.79 -7.53,-7.79 -3.97,0 -6.86,2.77 -7.45,6.39zm40.62 12.96l5.84 0 1.79 -4.94 9.86 0 2.07 4.94 6.2 0 -10.53 -23.21 -5.31 0 -9.92 23.21zm16.21 -8.83l-7.05 0 2.74 -7.4c0.11,-0.29 0.39,-1.36 0.75,-3.21 0.32,1.68 0.57,2.72 0.71,3.11l2.85 7.5zm-27.78 8.83l5.63 0 0 -10.58 8.86 -12.63 -5.74 0 -5.95 9.83 -5.92 -9.83 -5.78 0 8.9 12.63 0 10.58z"/>
  </g>
 </g>
</svg>