<svg xmlns="http://www.w3.org/2000/svg" xmlns:xlink="http://www.w3.org/1999/xlink" xmlns:xodm="http://www.corel.com/coreldraw/odm/2003" xml:space="preserve" width="445px" height="353px" version="1.1" style="shape-rendering:geometricPrecision; text-rendering:geometricPrecision; image-rendering:optimizeQuality; fill-rule:evenodd; clip-rule:evenodd" viewBox="0 0 43.24 34.3">
 <defs>
  <style type="text/css">
   <![CDATA[
    .fil0 {fill:white}
    .fil3 {fill:#103154;fill-rule:nonzero}
    .fil12 {fill:#EEEEEE;fill-rule:nonzero;fill-opacity:0.058824}
    .fil7 {fill:#F0F0F0;fill-rule:nonzero;fill-opacity:0.070588}
    .fil4 {fill:#F2F2F2;fill-rule:nonzero;fill-opacity:0.078431}
    .fil8 {fill:#F6F6F6;fill-rule:nonzero;fill-opacity:0.109804}
    .fil9 {fill:#F7F7F7;fill-rule:nonzero;fill-opacity:0.129412}
    .fil17 {fill:#F9F9F9;fill-rule:nonzero;fill-opacity:0.160784}
    .fil13 {fill:#F9F9F9;fill-rule:nonzero;fill-opacity:0.180392}
    .fil10 {fill:#FAFAFA;fill-rule:nonzero;fill-opacity:0.200000}
    .fil1 {fill:#FBFBFB;fill-rule:nonzero;fill-opacity:0.239216}
    .fil15 {fill:#FCFCFC;fill-rule:nonzero;fill-opacity:0.301961}
    .fil2 {fill:#FCFCFC;fill-rule:nonzero;fill-opacity:0.349020}
    .fil11 {fill:#FCFCFC;fill-rule:nonzero;fill-opacity:0.360784}
    .fil14 {fill:#FCFCFC;fill-rule:nonzero;fill-opacity:0.388235}
    .fil18 {fill:#FCFCFC;fill-rule:nonzero;fill-opacity:0.400000}
    .fil6 {fill:#FDFDFD;fill-rule:nonzero;fill-opacity:0.419608}
    .fil16 {fill:#FDFDFD;fill-rule:nonzero;fill-opacity:0.439216}
    .fil5 {fill:#FDFDFD;fill-rule:nonzero;fill-opacity:0.450980}
   ]]>
  </style>
 </defs>
 <g id="Camada_x0020_1">
  <metadata id="CorelCorpID_0Corel-Layer"/>
  <rect class="fil0" width="43.24" height="34.3"/>
  <g id="_1602402397296">
   <path class="fil1" d="M20.63 9.47c0.28,0.01 0.73,0.01 1.01,0 0.27,0 0.04,0 -0.51,0 -0.56,0 -0.78,0 -0.5,0l0 0zm2.8 13.47c0.03,0 0.09,0 0.13,0 0.04,-0.01 0.01,-0.01 -0.07,-0.01 -0.07,0 -0.1,0 -0.06,0.01z"/>
   <path class="fil2" d="M20.12 14.71c0,2.88 0,4.06 0,2.62 0.01,-1.44 0.01,-3.8 0,-5.24 0,-1.44 0,-0.26 0,2.62zm-5.59 9.28c0,0.19 0,0.27 0,0.17 0.01,-0.09 0.01,-0.25 0,-0.35 0,-0.1 0,-0.02 0,0.18z"/>
   <path class="fil3" d="M20.13 14.72l0 5.24 0.87 0c0.57,0 0.89,-0.01 0.92,-0.02 0.06,-0.02 0.14,-0.1 0.18,-0.15 0.01,-0.03 0.02,-0.22 0.03,-0.62l0 -0.58 0.09 0.11c0.12,0.16 0.46,0.5 0.62,0.63 0.42,0.35 0.94,0.6 1.47,0.7 0.25,0.05 0.74,0.07 0.99,0.04 1.49,-0.19 2.83,-1.45 3.25,-3.04 0.31,-1.16 0.19,-2.48 -0.3,-3.44 -0.42,-0.83 -1.18,-1.54 -2.02,-1.87 -0.84,-0.34 -1.93,-0.32 -2.73,0.06 -0.43,0.21 -0.69,0.42 -1.15,0.93l-0.22 0.24 0 -1.74 0 -1.73 -2 0 0 5.24zm4.55 -1.6c0.45,0.06 0.85,0.27 1.19,0.61 0.41,0.41 0.67,0.9 0.78,1.51 0.05,0.24 0.05,0.88 0,1.13 -0.04,0.23 -0.15,0.56 -0.24,0.73 -0.2,0.42 -0.58,0.82 -0.98,1.05 -0.56,0.33 -1.3,0.38 -1.9,0.12 -0.47,-0.2 -0.92,-0.64 -1.15,-1.14 -0.38,-0.8 -0.37,-1.94 0.02,-2.71 0.47,-0.95 1.34,-1.44 2.28,-1.3zm9.12 -2.29c-1.08,0.15 -2.03,0.6 -2.8,1.34 -0.46,0.44 -0.86,1.02 -1.1,1.59 -0.64,1.51 -0.49,3.24 0.4,4.61 0.78,1.19 2.01,1.96 3.45,2.18 0.33,0.04 1.01,0.04 1.35,-0.01 1.31,-0.2 2.44,-0.88 3.22,-1.92 0.52,-0.7 0.83,-1.48 0.94,-2.37 0.04,-0.27 0.03,-0.91 -0.01,-1.18 -0.09,-0.69 -0.35,-1.42 -0.7,-1.97 -0.26,-0.41 -0.65,-0.86 -1.02,-1.16 -0.4,-0.34 -0.98,-0.67 -1.47,-0.85 -0.26,-0.09 -0.66,-0.2 -0.94,-0.24 -0.25,-0.04 -1.07,-0.05 -1.32,-0.02l0 0zm-0.84 1.23c0.01,0.01 -0.06,0.08 -0.14,0.15 -0.74,0.62 -1.14,1.38 -1.22,2.35 -0.03,0.36 0,0.72 0.1,1.11 0.06,0.22 0.07,0.24 0.12,0.24 0.08,0 0.09,-0.03 0.08,-0.31 -0.03,-0.54 0.07,-1.03 0.29,-1.49 0.49,-1.02 1.57,-1.73 2.78,-1.87 0.25,-0.02 0.69,-0.01 0.93,0.04 0.53,0.11 0.99,0.34 1.35,0.69 0.2,0.18 0.28,0.29 0.25,0.32 -0.01,0.02 -0.05,0 -0.15,-0.08 -0.19,-0.14 -0.29,-0.19 -0.52,-0.31 -0.75,-0.36 -1.6,-0.41 -2.42,-0.15 -0.21,0.07 -0.59,0.25 -0.78,0.37 -0.27,0.17 -0.73,0.58 -0.73,0.64 0,0.03 0.05,0.09 0.08,0.09 0.02,0 0.11,-0.06 0.21,-0.13 0.64,-0.43 1.39,-0.61 2.15,-0.51 1.29,0.17 2.32,0.98 2.73,2.15 0.11,0.31 0.15,0.55 0.16,0.91 0.01,0.35 -0.01,0.51 -0.08,0.8 -0.08,0.33 -0.16,0.5 -0.23,0.47 -0.03,-0.01 -0.04,0.01 0.02,-0.32 0.03,-0.23 0.03,-0.61 0,-0.86 -0.16,-1.08 -0.86,-2.05 -1.85,-2.55 -0.1,-0.05 -0.18,-0.09 -0.19,-0.09 -0.03,0 -0.07,0.05 -0.07,0.09 0,0.02 0.06,0.08 0.17,0.17 0.36,0.29 0.64,0.63 0.84,1.02 0.39,0.76 0.45,1.66 0.18,2.51 -0.27,0.85 -0.82,1.53 -1.54,1.9 -0.38,0.2 -0.74,0.29 -1.18,0.31 -0.28,0.01 -0.42,-0.01 -0.42,-0.06 0,-0.03 0.02,-0.04 0.14,-0.06 0.57,-0.09 1.14,-0.37 1.6,-0.77 0.53,-0.47 0.94,-1.17 1.08,-1.86 0.03,-0.14 0.03,-0.16 0,-0.19 -0.05,-0.05 -0.1,-0.02 -0.18,0.14 -0.41,0.82 -1.09,1.42 -1.94,1.71 -0.71,0.23 -1.45,0.23 -2.16,0 -0.45,-0.15 -0.77,-0.35 -1.1,-0.68 -0.32,-0.31 -0.5,-0.61 -0.63,-1.02 -0.07,-0.2 -0.07,-0.26 -0.03,-0.26 0.03,0 0.07,0.05 0.15,0.17 0.48,0.73 1.26,1.27 2.06,1.43 0.11,0.02 0.31,0.04 0.44,0.05 0.21,0.01 0.25,0 0.27,-0.02 0.02,-0.02 0.03,-0.05 0.03,-0.08 0,-0.03 -0.01,-0.05 -0.09,-0.08 -0.05,-0.03 -0.14,-0.06 -0.19,-0.08 -0.3,-0.09 -0.65,-0.29 -0.93,-0.49 -1.24,-0.93 -1.67,-2.68 -1,-4.08 0.28,-0.6 0.74,-1.07 1.33,-1.37 0.17,-0.09 0.22,-0.1 0.23,-0.06l0 0zm-17.9 -0.55c-0.92,0.08 -1.88,0.36 -2.61,0.76 -0.24,0.13 -0.54,0.32 -0.54,0.34 0,0.01 0.19,0.29 0.42,0.62l0.41 0.6 0.14 -0.09c1.07,-0.67 2.54,-0.9 3.3,-0.52 0.49,0.23 0.75,0.75 0.75,1.49l0 0.21 -1.32 0.01c-1.41,0.01 -1.49,0.01 -1.99,0.11 -0.76,0.16 -1.39,0.54 -1.8,1.09 -0.91,1.2 -0.41,2.96 1.04,3.69 0.21,0.1 0.52,0.21 0.78,0.27 0.16,0.03 0.24,0.04 0.57,0.04 0.34,0 0.42,-0.01 0.6,-0.04 0.81,-0.17 1.49,-0.6 2.08,-1.33l0.19 -0.23 0.01 0.63c0.01,0.62 0.01,0.63 0.05,0.69 0.03,0.04 0.07,0.09 0.12,0.11 0.07,0.03 0.1,0.04 0.88,0.04l0.81 0 -0.01 -2.92c-0.01,-3.2 0,-3.01 -0.12,-3.44 -0.31,-1.2 -1.23,-1.93 -2.66,-2.11 -0.21,-0.03 -0.87,-0.04 -1.1,-0.02zm1.61 4.72l0.24 0.01 0.01 0.12c0.03,0.25 -0.02,0.67 -0.11,0.95 -0.24,0.74 -0.8,1.17 -1.65,1.25 -0.57,0.06 -1.07,-0.09 -1.38,-0.4 -0.21,-0.21 -0.32,-0.45 -0.33,-0.74 -0.04,-0.71 0.5,-1.11 1.62,-1.2 0.2,-0.02 1.18,-0.01 1.6,0.01zm-11.78 -4.04l-0.92 0.31 0 7.46 3.58 0c2.85,0 3.59,-0.01 3.59,-0.02 0.01,-0.02 -0.65,-1.73 -0.69,-1.79 -0.01,-0.02 -0.47,-0.02 -2.2,-0.02l-2.18 0 0 -3.04c-0.01,-3.04 -0.01,-3.04 -0.05,-3.09 -0.04,-0.06 -0.11,-0.11 -0.17,-0.12 -0.03,-0.01 -0.35,0.1 -0.96,0.31l0 0zm22.23 10.41c-0.07,0.08 -0.07,0.18 0,0.26 0.05,0.05 0.07,0.05 0.14,0.04 0.09,-0.01 0.14,-0.05 0.16,-0.13 0.05,-0.18 -0.17,-0.3 -0.3,-0.17zm-3.6 0.14l-0.15 0.18 0.13 0 0.12 0.01 0.12 -0.11c0.06,-0.05 0.15,-0.14 0.2,-0.18l0.08 -0.07 -0.18 0 -0.18 0 -0.14 0.17zm-7.72 0.32l0 0.38 -0.07 -0.08c-0.09,-0.11 -0.2,-0.15 -0.36,-0.15 -0.23,-0.01 -0.4,0.1 -0.5,0.31 -0.05,0.12 -0.05,0.4 0.01,0.52 0.09,0.21 0.27,0.32 0.52,0.3 0.17,-0.01 0.28,-0.06 0.35,-0.17l0.05 -0.07 0 0.23 0.16 0 0 -1.64 -0.16 0 0 0.37zm-0.24 0.31c0.15,0.06 0.24,0.21 0.24,0.4 0,0.28 -0.14,0.43 -0.39,0.45 -0.15,0.01 -0.28,-0.06 -0.36,-0.19 -0.05,-0.08 -0.05,-0.1 -0.05,-0.25 0,-0.17 0.03,-0.26 0.12,-0.35 0.1,-0.09 0.3,-0.12 0.44,-0.06l0 0zm1.32 -0.52c-0.16,0.18 -0.16,0.18 -0.09,0.18 0.04,0 0.08,-0.03 0.21,-0.14 0.09,-0.08 0.16,-0.16 0.16,-0.17 0,0 -0.03,-0.01 -0.08,-0.01 -0.07,0 -0.08,0.01 -0.2,0.14l0 0zm-3.91 -0.07c-0.03,0.06 -0.01,0.12 0.04,0.15 0.09,0.04 0.17,-0.03 0.13,-0.12 -0.01,-0.05 -0.03,-0.06 -0.08,-0.06 -0.05,0 -0.07,0 -0.09,0.03zm7.43 -0.01c-0.05,0.05 0,0.17 0.08,0.17 0.04,0 0.1,-0.06 0.1,-0.1 0,-0.08 -0.12,-0.13 -0.18,-0.07zm5.75 0.16l0 0.18 -0.19 0 0 0.25 0.19 0 0 0.35c0,0.31 0.01,0.37 0.04,0.43 0.04,0.08 0.11,0.16 0.18,0.19 0.07,0.02 0.28,0.02 0.39,0l0.08 -0.02 0 -0.13c0,-0.12 -0.01,-0.13 -0.04,-0.12 -0.13,0.03 -0.18,0.04 -0.24,0.02 -0.09,-0.04 -0.1,-0.09 -0.1,-0.43l0 -0.29 0.36 0 0 -0.25 -0.36 0 0 -0.36 -0.31 0 0 0.18zm-7.37 -0.03c-0.01,0.01 -0.02,0.08 -0.02,0.16l0 0.15 -0.18 0 0 0.13 0.18 0 0.01 0.4c0,0.36 0.01,0.4 0.04,0.46 0.06,0.11 0.14,0.15 0.29,0.15 0.07,0 0.15,-0.01 0.18,-0.02 0.05,-0.02 0.06,-0.03 0.06,-0.09 0,-0.05 -0.01,-0.06 -0.03,-0.05 -0.06,0.03 -0.22,0.03 -0.28,0.01 -0.1,-0.04 -0.1,-0.08 -0.1,-0.49l0 -0.37 0.39 0 0 -0.13 -0.39 0 0 -0.32 -0.07 0c-0.04,0 -0.08,0.01 -0.08,0.01l0 0zm4.57 0.21c-0.18,0.05 -0.33,0.17 -0.4,0.34 -0.03,0.06 -0.04,0.11 -0.04,0.27 0,0.23 0.04,0.33 0.17,0.46 0.14,0.13 0.22,0.16 0.47,0.16 0.19,0 0.21,0 0.32,-0.06 0.19,-0.09 0.29,-0.23 0.33,-0.45 0.01,-0.13 -0.01,-0.3 -0.07,-0.42 -0.06,-0.11 -0.2,-0.24 -0.31,-0.28 -0.11,-0.04 -0.37,-0.05 -0.47,-0.02l0 0zm0.35 0.28c0.2,0.09 0.25,0.43 0.08,0.6 -0.16,0.16 -0.43,0.12 -0.52,-0.08 -0.05,-0.11 -0.05,-0.28 0,-0.39 0.07,-0.14 0.28,-0.21 0.44,-0.13l0 0zm1.36 -0.29c-0.08,0.03 -0.15,0.07 -0.2,0.12 -0.06,0.07 -0.07,0.06 -0.07,-0.03l0 -0.08 -0.29 0 0 1.72 0.3 0 0 -0.67 0.04 0.05c0.02,0.02 0.08,0.06 0.13,0.09 0.08,0.04 0.12,0.05 0.23,0.05 0.15,-0.01 0.24,-0.03 0.35,-0.1 0.16,-0.12 0.26,-0.36 0.24,-0.59 -0.02,-0.16 -0.06,-0.27 -0.15,-0.37 -0.12,-0.13 -0.23,-0.19 -0.4,-0.2 -0.08,0 -0.16,0 -0.18,0.01zm0.23 0.28c0.27,0.15 0.23,0.62 -0.07,0.7 -0.17,0.04 -0.35,-0.06 -0.4,-0.21 -0.05,-0.2 0.01,-0.39 0.16,-0.48 0.06,-0.04 0.23,-0.05 0.31,-0.01zm2.87 -0.27c-0.32,0.08 -0.52,0.38 -0.46,0.72 0.03,0.22 0.15,0.37 0.34,0.46 0.1,0.05 0.36,0.07 0.5,0.04 0.09,-0.02 0.26,-0.11 0.26,-0.14 0,-0.01 -0.04,-0.06 -0.09,-0.11l-0.08 -0.09 -0.05 0.03c-0.13,0.1 -0.34,0.09 -0.46,-0.02 -0.17,-0.15 -0.14,-0.49 0.06,-0.6 0.09,-0.06 0.26,-0.06 0.35,-0.01l0.06 0.04 0.08 -0.09c0.05,-0.06 0.09,-0.11 0.09,-0.11 0,-0.01 -0.05,-0.04 -0.12,-0.07 -0.1,-0.05 -0.15,-0.06 -0.27,-0.07 -0.08,0 -0.17,0.01 -0.21,0.02l0 0zm1.2 0c-0.11,0.04 -0.18,0.08 -0.25,0.16 -0.27,0.3 -0.2,0.83 0.14,1.01 0.08,0.05 0.12,0.06 0.25,0.06 0.14,0.01 0.17,0.01 0.26,-0.04 0.05,-0.02 0.11,-0.07 0.13,-0.09 0.02,-0.02 0.04,-0.04 0.05,-0.04 0,0 0.01,0.03 0.01,0.08l0 0.08 0.28 0 0 -1.22 -0.28 0 0 0.18 -0.07 -0.06c-0.04,-0.04 -0.1,-0.08 -0.13,-0.1 -0.08,-0.04 -0.29,-0.05 -0.39,-0.02zm0.39 0.27c0.11,0.06 0.18,0.19 0.18,0.35 0,0.12 -0.05,0.24 -0.12,0.29 -0.13,0.09 -0.33,0.09 -0.43,-0.01 -0.18,-0.17 -0.14,-0.53 0.07,-0.63 0.07,-0.03 0.23,-0.03 0.3,0zm-2.66 0.34l0 0.61 0.3 0 0 -1.22 -0.3 0 0 0.61 0 0zm-13.15 -0.5c-0.09,0.02 -0.16,0.05 -0.21,0.11l-0.05 0.05 0 -0.08c-0.01,-0.08 -0.01,-0.08 -0.09,-0.08l-0.07 0 0 0.55 -0.01 0.56 0.17 0 0 -0.38c0,-0.35 0,-0.37 0.04,-0.45 0.05,-0.11 0.15,-0.16 0.3,-0.16 0.06,0 0.12,0.01 0.15,0.02 0.08,0.03 0.17,0.12 0.19,0.19 0.01,0.04 0.02,0.23 0.02,0.42l0 0.36 0.14 0 0 -0.41c0,-0.4 0,-0.42 -0.04,-0.49 -0.1,-0.18 -0.32,-0.27 -0.54,-0.21l0 0zm3.92 0c-0.11,0.03 -0.16,0.07 -0.21,0.15 -0.04,0.08 -0.05,0.2 -0.01,0.27 0.03,0.07 0.11,0.12 0.3,0.18 0.2,0.06 0.27,0.1 0.3,0.16 0.03,0.07 0.03,0.11 -0.02,0.17 -0.09,0.09 -0.32,0.11 -0.48,0.02 -0.06,-0.03 -0.06,-0.02 -0.09,0.02 -0.04,0.05 -0.04,0.06 0.06,0.11 0.09,0.04 0.34,0.06 0.45,0.03 0.15,-0.04 0.24,-0.15 0.24,-0.3 0,-0.16 -0.09,-0.25 -0.39,-0.34 -0.18,-0.05 -0.24,-0.1 -0.24,-0.19 0,-0.16 0.2,-0.22 0.44,-0.14 0.1,0.03 0.11,0.03 0.13,0 0.04,-0.05 0.03,-0.07 -0.06,-0.11 -0.11,-0.05 -0.33,-0.06 -0.42,-0.03l0 0zm2.13 0c-0.1,0.03 -0.21,0.1 -0.23,0.15 -0.01,0.02 -0.02,0 -0.03,-0.06l0 -0.09 -0.15 0 0 0.55 -0.01 0.56 0.16 0 0 -0.36c0,-0.27 0.01,-0.38 0.03,-0.42 0.05,-0.12 0.21,-0.21 0.36,-0.21 0.04,0 0.05,-0.01 0.05,-0.07 0,-0.09 -0.02,-0.09 -0.18,-0.05l0 0zm1.27 0c-0.19,0.05 -0.31,0.18 -0.37,0.38 -0.08,0.32 0.07,0.65 0.35,0.73 0.04,0.01 0.13,0.02 0.21,0.01 0.15,-0.01 0.26,-0.06 0.34,-0.16l0.04 -0.06 0.02 0.11 0.01 0.1 0.14 0 0 -0.56 -0.01 -0.55 -0.06 0 -0.07 -0.01 -0.01 0.11 -0.02 0.11 -0.06 -0.08c-0.04,-0.04 -0.1,-0.09 -0.14,-0.1 -0.1,-0.05 -0.27,-0.06 -0.37,-0.03zm0.36 0.15c0.08,0.04 0.17,0.14 0.2,0.24 0.01,0.03 0.02,0.12 0.02,0.18 0,0.16 -0.07,0.29 -0.18,0.37 -0.07,0.05 -0.09,0.05 -0.22,0.05 -0.12,0 -0.15,0 -0.22,-0.05 -0.21,-0.13 -0.26,-0.46 -0.1,-0.67 0.1,-0.14 0.32,-0.19 0.5,-0.12l0 0zm-8.63 -0.15c-0.01,0.01 -0.02,0.26 -0.02,0.56l0 0.55 0.17 0 -0.01 -0.56 0 -0.55 -0.07 0c-0.03,-0.01 -0.07,0 -0.07,0l0 0zm3.34 0.02c-0.01,0.01 -0.01,0.2 -0.01,0.41 0.01,0.41 0.01,0.44 0.12,0.56 0.1,0.1 0.18,0.13 0.37,0.13 0.2,0 0.28,-0.03 0.37,-0.13 0.11,-0.12 0.12,-0.14 0.12,-0.58l0 -0.41 -0.15 0 0 0.4c-0.01,0.35 -0.02,0.4 -0.05,0.46 -0.11,0.18 -0.45,0.19 -0.57,0 -0.04,-0.06 -0.04,-0.09 -0.05,-0.46l-0.01 -0.4 -0.07 0c-0.04,-0.01 -0.07,0 -0.07,0.02l0 0zm4.07 0.53l0 0.56 0.16 0 0 -0.56 -0.01 -0.55 -0.07 0 -0.08 -0.01 0 0.56z"/>
   <path class="fil1" d="M22.13 11.2c0,0.96 0.01,1.35 0.01,0.87 0,-0.48 0,-1.26 0,-1.73 0,-0.48 -0.01,-0.09 -0.01,0.86z"/>
   <path class="fil4" d="M23.76 22.56c0.05,0 0.13,0 0.18,0 0.04,0 0,0 -0.1,0 -0.1,0 -0.13,0 -0.08,0z"/>
   <path class="fil5" d="M17.08 19.13c0,0.32 0,0.46 0.01,0.29 0,-0.16 0,-0.42 0,-0.58 -0.01,-0.16 -0.01,-0.03 -0.01,0.29z"/>
   <path class="fil6" d="M18.63 23.35c0.02,0.01 0.07,0.01 0.09,0 0.03,0 0.01,-0.01 -0.05,-0.01 -0.05,0 -0.07,0.01 -0.04,0.01l0 0zm0.39 0c0.06,0.01 0.15,0.01 0.21,0 0.05,0 0.01,0 -0.11,0 -0.11,0 -0.16,0 -0.1,0z"/>
   <path class="fil7" d="M26.84 24.18c0,0.06 0.01,0.09 0.01,0.05 0,-0.03 0,-0.09 0,-0.12 0,-0.03 -0.01,0 -0.01,0.07z"/>
   <path class="fil8" d="M19.34 24.24c0,0.03 0.01,0.05 0.01,0.03 0.01,-0.02 0.01,-0.05 0,-0.06 0,-0.02 -0.01,-0.01 -0.01,0.03z"/>
   <path class="fil9" d="M17.97 20.01c0.18,0 0.47,0 0.65,0 0.17,0 0.02,-0.01 -0.33,-0.01 -0.36,0 -0.5,0.01 -0.32,0.01z"/>
   <path class="fil10" d="M26 23.37c0.02,0 0.07,0 0.1,0 0.02,0 0,-0.01 -0.05,-0.01 -0.06,0 -0.08,0.01 -0.05,0.01l0 0zm0.54 0c0.06,0 0.14,0 0.19,0 0.05,0 0.01,-0.01 -0.09,-0.01 -0.11,0 -0.15,0.01 -0.1,0.01zm-13.52 0.97c0.03,0 0.06,0 0.08,0 0.01,0 -0.01,-0.01 -0.04,-0.01 -0.04,0 -0.06,0.01 -0.04,0.01zm0.54 0c0.03,0 0.06,0 0.08,0 0.01,0 -0.01,-0.01 -0.05,-0.01 -0.04,0 -0.05,0.01 -0.03,0.01zm0.85 0c0.02,0 0.06,0 0.08,0 0.02,0 0,-0.01 -0.04,-0.01 -0.05,0 -0.06,0.01 -0.04,0.01zm1.44 0c0.02,0 0.05,0 0.07,0 0.02,0 0,-0.01 -0.04,-0.01 -0.04,0 -0.06,0.01 -0.03,0.01zm3.77 0c0.02,0 0.06,0 0.07,0 0.02,0 0,-0.01 -0.04,-0.01 -0.04,0 -0.05,0.01 -0.03,0.01zm0.83 0c0.02,0 0.05,0 0.07,0 0.02,0 0,-0.01 -0.04,-0.01 -0.04,0 -0.05,0.01 -0.03,0.01zm1.44 0c0.02,0 0.05,0 0.07,0 0.02,0 0,-0.01 -0.04,-0.01 -0.04,0 -0.05,0.01 -0.03,0.01zm5.28 0c0.05,0 0.11,0 0.16,0 0.04,0 0,-0.01 -0.08,-0.01 -0.08,0 -0.12,0.01 -0.08,0.01l0 0zm2.84 0c0.05,0 0.11,0 0.16,0 0.04,0 0.01,-0.01 -0.08,-0.01 -0.08,0 -0.12,0.01 -0.07,0.01l-0.01 0z"/>
   <path class="fil11" d="M27.4 23.73c0,0.33 0,0.47 0.01,0.3 0,-0.17 0,-0.45 0,-0.62 -0.01,-0.16 -0.01,-0.02 -0.01,0.32z"/>
   <path class="fil12" d="M26.82 23.24c0,0.07 0.01,0.1 0.01,0.06 0,-0.04 0,-0.1 0,-0.13 0,-0.03 -0.01,0 -0.01,0.07zm-12.45 0.76c0,0.18 0,0.26 0,0.16 0,-0.1 0,-0.25 0,-0.34 0,-0.09 0,-0.01 0,0.18z"/>
   <path class="fil5" d="M30.24 23.73c0,0.33 0.01,0.47 0.01,0.3 0,-0.17 0,-0.45 0,-0.62 0,-0.16 -0.01,-0.02 -0.01,0.32z"/>
   <path class="fil13" d="M19.32 23.29c0,0.03 0.01,0.04 0.01,0.03 0.01,-0.02 0.01,-0.05 0,-0.07 0,-0.01 -0.01,0 -0.01,0.04z"/>
   <path class="fil14" d="M24.91 20.1c0.01,0 0.03,0 0.04,0 0.01,-0.01 0.01,-0.01 -0.02,-0.01 -0.02,0 -0.03,0 -0.02,0.01zm1.03 3.14c0,0.07 0.01,0.1 0.01,0.06 0,-0.04 0,-0.1 0,-0.13 0,-0.03 -0.01,0 -0.01,0.07z"/>
   <path class="fil15" d="M18.57 23.29c0,0.03 0,0.04 0.01,0.03 0,-0.02 0,-0.05 0,-0.07 -0.01,-0.01 -0.01,0 -0.01,0.04z"/>
   <path class="fil16" d="M3.96 16.23c0,2.04 0,2.88 0,1.85 0,-1.02 0,-2.7 0,-3.72 0,-1.02 0,-0.18 0,1.87z"/>
   <path class="fil17" d="M26.14 22.93c0,0.1 0,0.14 0.01,0.09 0,-0.05 0,-0.13 0,-0.18 -0.01,-0.05 -0.01,0 -0.01,0.09zm0 0.74c0,0.17 0.01,0.24 0.01,0.16 0,-0.08 0,-0.22 0,-0.31 0,-0.08 -0.01,-0.02 -0.01,0.15z"/>
   <path class="fil18" d="M24.49 23.97c0,0.47 0,0.66 0,0.43 0.01,-0.24 0.01,-0.62 0,-0.86 0,-0.23 0,-0.04 0,0.43z"/>
  </g>
 </g>
</svg>