<svg xmlns="http://www.w3.org/2000/svg" xmlns:xlink="http://www.w3.org/1999/xlink" xmlns:xodm="http://www.corel.com/coreldraw/odm/2003" xml:space="preserve" width="445px" height="353px" version="1.1" style="shape-rendering:geometricPrecision; text-rendering:geometricPrecision; image-rendering:optimizeQuality; fill-rule:evenodd; clip-rule:evenodd" viewBox="0 0 245.71 194.9">
 <defs>
  <style type="text/css">
   <![CDATA[
    .fil0 {fill:#FEFEFE}
    .fil1 {fill:#E6E7E8}
    .fil3 {fill:#E80E0E}
    .fil2 {fill:#0F4BAA;fill-rule:nonzero}
   ]]>
  </style>
 </defs>
 <g id="Camada_x0020_1">
  <metadata id="CorelCorpID_0Corel-Layer"/>
  <rect class="fil0" width="245.71" height="194.9"/>
  <g id="_1746341533040">
   <path class="fil1" d="M105.65 26.27c4.96,-1.23 10.11,-1.94 15.4,-2.08l0 29.79c-2.63,0.11 -5.2,0.47 -7.69,1.04l-7.71 -28.75zm19.01 -2.09c5.3,0.11 10.46,0.79 15.42,1.98l-7.71 28.8c-2.5,-0.56 -5.07,-0.89 -7.71,-1l0 -29.78zm-74.59 71.46l-8.91 0 0 -6.63 9.38 0c0.35,-2.94 0.86,-5.83 1.54,-8.65l28.59 7.66c-0.55,2.46 -0.89,5.01 -1.01,7.62l-29.59 0zm145.59 0l8.89 0 0 -6.63 -9.33 0c-0.32,-2.95 -0.82,-5.85 -1.49,-8.68l-28.63 7.67c0.54,2.47 0.86,5.03 0.96,7.64l29.6 0zm-52.08 -68.54c5.03,1.48 9.84,3.5 14.35,5.98l-14.9 25.8c-2.28,-1.2 -4.67,-2.2 -7.17,-2.98l7.72 -28.8zm17.47 7.81c4.42,2.73 8.53,5.93 12.26,9.52l-21.03 21.04c-1.89,-1.77 -3.94,-3.36 -6.13,-4.76l14.9 -25.8zm14.8 12.1c3.54,3.76 6.67,7.9 9.35,12.35l-25.71 14.85c-1.38,-2.2 -2.94,-4.26 -4.67,-6.17l21.03 -21.03zm11.14 15.49c2.42,4.51 4.39,9.31 5.83,14.33l-28.64 7.67c-0.76,-2.48 -1.73,-4.88 -2.9,-7.15l25.71 -14.85zm-133.98 14.36c1.47,-4.99 3.45,-9.76 5.88,-14.25l25.64 14.8c-1.17,2.26 -2.16,4.64 -2.93,7.11l-28.59 -7.66zm7.68 -17.39c2.68,-4.43 5.82,-8.55 9.34,-12.29l20.96 20.96c-1.72,1.9 -3.28,3.95 -4.66,6.13l-25.64 -14.8zm11.88 -14.86c3.71,-3.59 7.8,-6.78 12.2,-9.51l14.85 25.72c-2.17,1.4 -4.21,2.99 -6.09,4.75l-20.96 -20.96zm15.31 -11.35c4.5,-2.49 9.28,-4.53 14.29,-6.04l7.7 28.75c-2.48,0.8 -4.87,1.81 -7.13,3.02l-14.86 -25.73z"/>
   <path class="fil1" d="M51.97 114.57c-1.15,-4.93 -1.81,-10.06 -1.92,-15.31l29.6 0c0.1,2.61 0.42,5.16 0.96,7.64l-28.64 7.67z"/>
   <path class="fil1" d="M58.72 132.39c-2.43,-4.51 -4.39,-9.31 -5.83,-14.32l28.63 -7.68c0.77,2.49 1.74,4.88 2.91,7.15l-25.71 14.85z"/>
   <path class="fil1" d="M69.86 147.89c-3.54,-3.76 -6.68,-7.91 -9.36,-12.36l25.72 -14.84c1.37,2.19 2.94,4.26 4.67,6.16l-21.03 21.04z"/>
   <path class="fil1" d="M84.66 159.99c-4.43,-2.74 -8.53,-5.94 -12.26,-9.53l21.03 -21.03c1.89,1.76 3.94,3.35 6.13,4.76l-14.9 25.8z"/>
   <path class="fil1" d="M102.13 167.8c-5.03,-1.49 -9.84,-3.51 -14.35,-5.99l14.9 -25.8c2.27,1.2 4.67,2.21 7.17,2.99l-7.72 28.8z"/>
   <path class="fil1" d="M121.05 170.72c-5.31,-0.11 -10.47,-0.79 -15.43,-1.99l7.72 -28.79c2.49,0.55 5.07,0.89 7.71,0.99l0 29.79z"/>
   <path class="fil1" d="M140.05 168.63c-4.95,1.22 -10.1,1.93 -15.39,2.08l0 -29.79c2.63,-0.12 5.2,-0.47 7.69,-1.04l7.7 28.75z"/>
   <path class="fil1" d="M157.82 161.63c-4.49,2.5 -9.27,4.53 -14.28,6.04l-7.7 -28.75c2.48,-0.79 4.86,-1.8 7.13,-3.01l14.85 25.72z"/>
   <path class="fil1" d="M173.14 150.29c-3.72,3.58 -7.81,6.77 -12.2,9.51l-14.85 -25.73c2.16,-1.4 4.2,-2.99 6.09,-4.74l20.96 20.96z"/>
   <path class="fil1" d="M185.02 135.43c-2.69,4.42 -5.82,8.54 -9.34,12.29l-20.97 -20.97c1.73,-1.9 3.29,-3.95 4.67,-6.13l25.64 14.81z"/>
   <path class="fil1" d="M192.69 118.03c-1.46,5 -3.44,9.77 -5.87,14.26l-25.65 -14.8c1.18,-2.27 2.16,-4.64 2.93,-7.12l28.59 7.66z"/>
   <path class="fil1" d="M195.64 99.26c-0.14,5.25 -0.83,10.36 -2.01,15.28l-28.59 -7.66c0.55,-2.47 0.89,-5.02 1,-7.62l29.6 0z"/>
  </g>
  <g id="_1746341536496">
   <path class="fil2" d="M45.3 114.52l13.99 13.99 13.99 -13.99 0 26.43 -6.44 0 0 -11.29 -7.81 8.14 -7.51 -8.14 0.18 11.29 -6.4 0 0 -26.43zm135.38 26.43l-5.96 0 12.59 -26.06 13.1 26.06 -6.4 0 -1.41 -3.26 -10.55 0 -1.37 3.26zm6.55 -14.77l0 0 -3.03 6.77 6.18 0 -3.15 -6.77zm-22.51 14.77l6.45 0 0 -26.1 -6.45 0 0 26.1zm-21.69 -26.1l6.44 0 0 20.47 11.11 0 0 5.63 -17.55 0 0 -26.1zm-1.7 -5.47l-5.4 -3.43 -4.45 5.33 2.78 1.77 7.07 -3.67zm-10.63 31.57l6.44 0 0 -26.1 -6.44 0 0 26.1zm-4.22 0l-7.07 0 -4.55 -7.18c-0.35,0.02 -0.69,0.04 -1.02,0.05 -0.33,0.02 -0.67,0.02 -1.02,0.02l-1.48 0 0 7.11 -6.33 0 0 -26.1 5.81 0c2.32,0 4.36,0.18 6.13,0.54 1.76,0.35 3.24,0.92 4.42,1.7 1.19,0.78 2.08,1.78 2.69,3.02 0.6,1.23 0.91,2.72 0.91,4.48 0,1.75 -0.36,3.24 -1.06,4.48 -0.7,1.23 -1.72,2.23 -3.05,2.99l5.62 8.89zm-13.81 -12.55l0 0c2.22,0 3.77,-0.33 4.63,-0.98 0.86,-0.66 1.3,-1.6 1.3,-2.83 0,-1.24 -0.44,-2.18 -1.3,-2.84 -0.86,-0.65 -2.41,-0.98 -4.63,-0.98l-1.33 0 0 7.63 1.33 0zm-30.76 12.55l-5.96 0 12.59 -26.06 13.1 26.06 -6.4 0 -1.41 -3.26 -10.55 0 -1.37 3.26zm6.55 -14.77l0 0 -3.03 6.77 6.18 0 -3.15 -6.77z"/>
   <path class="fil3" d="M88.88 94.91l-4.81 0 0 9.48 -5.31 0 0 -26.52 11.43 0c0.64,0 1.3,0.04 1.96,0.13 0.65,0.09 1.31,0.23 1.95,0.44 0.58,0.18 1.15,0.41 1.7,0.7 0.53,0.27 1.02,0.59 1.47,0.96 0.44,0.36 0.85,0.77 1.21,1.23 0.36,0.44 0.67,0.92 0.92,1.43 0.26,0.53 0.45,1.08 0.58,1.65 0.13,0.59 0.2,1.19 0.2,1.78l0 0.07c0,0.55 -0.05,1.11 -0.16,1.67 -0.1,0.55 -0.27,1.1 -0.51,1.64 -0.22,0.48 -0.48,0.94 -0.78,1.35 -0.3,0.42 -0.66,0.81 -1.06,1.18 -0.38,0.35 -0.79,0.66 -1.22,0.93 -0.46,0.28 -0.94,0.53 -1.42,0.73l-0.27 0.11 8.14 10.52 -6.72 0 -7.3 -9.48zm-24.69 3.02l0 -3.85 -7.66 0 0 -5.15 12.89 0 0 11.44 -0.61 0.54c-0.65,0.57 -1.35,1.07 -2.08,1.52 -0.71,0.43 -1.47,0.82 -2.24,1.17 -0.91,0.4 -1.85,0.69 -2.8,0.88 -1.01,0.21 -2.03,0.3 -3.06,0.3 -0.94,0 -1.89,-0.08 -2.83,-0.25 -0.94,-0.17 -1.87,-0.44 -2.76,-0.83 -0.81,-0.35 -1.58,-0.78 -2.29,-1.28 -0.7,-0.49 -1.34,-1.05 -1.93,-1.69 -0.58,-0.63 -1.08,-1.31 -1.51,-2.02 -0.45,-0.74 -0.82,-1.51 -1.12,-2.33 -0.3,-0.81 -0.52,-1.66 -0.67,-2.52 -0.15,-0.88 -0.22,-1.78 -0.22,-2.66l0 -0.07c0,-0.86 0.08,-1.73 0.23,-2.59 0.15,-0.86 0.38,-1.69 0.69,-2.5 0.3,-0.82 0.68,-1.6 1.12,-2.32 0.45,-0.73 0.96,-1.42 1.53,-2.04 0.58,-0.64 1.22,-1.21 1.9,-1.71 0.7,-0.51 1.45,-0.96 2.25,-1.33 0.85,-0.4 1.72,-0.68 2.6,-0.87 0.92,-0.2 1.86,-0.29 2.81,-0.29 0.46,0 0.94,0.02 1.43,0.05 0.47,0.03 0.95,0.09 1.44,0.17 0.43,0.07 0.86,0.17 1.27,0.28 0.41,0.11 0.83,0.24 1.26,0.42 0.38,0.15 0.76,0.32 1.12,0.5 0.35,0.17 0.7,0.37 1.05,0.59 0.35,0.21 0.7,0.44 1.03,0.69 0.32,0.23 0.64,0.48 0.95,0.75l1.37 1.19 -3.48 4 -1.36 -1.19c-0.38,-0.34 -0.8,-0.65 -1.24,-0.93 -0.46,-0.29 -0.92,-0.54 -1.39,-0.75 -0.51,-0.24 -1.09,-0.4 -1.68,-0.49 -0.61,-0.1 -1.24,-0.14 -1.87,-0.14 -0.54,0 -1.07,0.05 -1.58,0.16 -0.51,0.1 -1,0.27 -1.48,0.49 -0.46,0.22 -0.9,0.48 -1.31,0.77 -0.41,0.31 -0.78,0.65 -1.12,1.02 -0.35,0.4 -0.65,0.82 -0.92,1.26 -0.26,0.44 -0.49,0.92 -0.67,1.43 -0.19,0.52 -0.34,1.06 -0.43,1.59 -0.09,0.56 -0.14,1.13 -0.14,1.71l0 0.07c0,0.62 0.04,1.22 0.13,1.79 0.09,0.58 0.23,1.15 0.44,1.72 0.18,0.51 0.4,1 0.67,1.45 0.25,0.42 0.55,0.82 0.9,1.19 0.35,0.38 0.73,0.71 1.14,0.99 0.41,0.29 0.87,0.54 1.34,0.75 0.5,0.21 1.03,0.37 1.57,0.47 0.58,0.11 1.2,0.16 1.82,0.16 0.32,0 0.62,-0.01 0.89,-0.04 0.28,-0.02 0.57,-0.07 0.88,-0.13 0.28,-0.06 0.56,-0.13 0.84,-0.21 0.27,-0.08 0.56,-0.18 0.86,-0.29 0.25,-0.09 0.51,-0.2 0.76,-0.32 0.25,-0.12 0.5,-0.25 0.74,-0.39l0.53 -0.33zm69.65 -0.11c-0.26,0.73 -0.59,1.42 -0.98,2.06 -0.39,0.63 -0.84,1.21 -1.36,1.74 -0.52,0.53 -1.08,0.99 -1.68,1.38 -0.61,0.4 -1.25,0.73 -1.93,0.98 -0.7,0.27 -1.42,0.46 -2.14,0.58 -0.77,0.13 -1.55,0.19 -2.31,0.19 -0.76,0 -1.52,-0.06 -2.28,-0.19 -0.72,-0.12 -1.43,-0.31 -2.13,-0.57 -0.7,-0.26 -1.36,-0.58 -1.96,-0.96 -0.6,-0.38 -1.16,-0.83 -1.67,-1.34 -0.53,-0.54 -1,-1.13 -1.39,-1.75 -0.38,-0.62 -0.7,-1.29 -0.97,-1.99 -0.29,-0.79 -0.49,-1.61 -0.62,-2.43 -0.13,-0.82 -0.18,-1.64 -0.18,-2.46l0 -15.19 5.31 0 0 15.04c0,0.94 0.09,1.9 0.34,2.79 0.23,0.84 0.62,1.63 1.23,2.29 0.55,0.59 1.21,1 1.93,1.25 0.74,0.26 1.58,0.36 2.45,0.36 0.45,0 0.89,-0.02 1.29,-0.09 0.42,-0.06 0.83,-0.16 1.22,-0.31l0.01 -0.01c0.34,-0.12 0.65,-0.28 0.93,-0.46 0.29,-0.19 0.55,-0.41 0.8,-0.67 0.25,-0.26 0.46,-0.55 0.64,-0.85 0.2,-0.33 0.36,-0.7 0.49,-1.09 0.17,-0.48 0.28,-0.98 0.35,-1.48 0.07,-0.51 0.09,-1.04 0.09,-1.58l0 -15.19 5.31 0 0 15c0,0.82 -0.05,1.65 -0.17,2.48 -0.13,0.84 -0.33,1.67 -0.62,2.47zm66.55 -6.95l0.02 0.23 -0.02 0.23c-0.01,0.84 -0.09,1.68 -0.25,2.49 -0.16,0.84 -0.39,1.67 -0.7,2.47 -0.32,0.81 -0.71,1.59 -1.17,2.32 -0.44,0.71 -0.96,1.39 -1.54,2.02 -0.59,0.65 -1.24,1.22 -1.95,1.72 -0.71,0.51 -1.47,0.95 -2.27,1.31 -0.88,0.39 -1.78,0.67 -2.69,0.85 -0.91,0.19 -1.84,0.27 -2.78,0.27 -0.94,0 -1.87,-0.08 -2.78,-0.26 -0.92,-0.18 -1.82,-0.47 -2.7,-0.87 -0.8,-0.37 -1.57,-0.8 -2.27,-1.31 -0.69,-0.48 -1.33,-1.05 -1.92,-1.68 -0.59,-0.63 -1.1,-1.31 -1.55,-2.03 -0.45,-0.73 -0.83,-1.51 -1.14,-2.31 -0.31,-0.81 -0.54,-1.65 -0.7,-2.51 -0.16,-0.87 -0.24,-1.74 -0.24,-2.61l0 -0.07c0,-0.88 0.08,-1.75 0.24,-2.63 0.16,-0.86 0.4,-1.71 0.72,-2.52 0.31,-0.81 0.7,-1.58 1.15,-2.31 0.45,-0.73 0.97,-1.41 1.55,-2.04 0.59,-0.64 1.23,-1.21 1.93,-1.71 0.71,-0.5 1.47,-0.94 2.28,-1.31 0.85,-0.38 1.73,-0.66 2.64,-0.85 0.94,-0.19 1.89,-0.28 2.85,-0.28 0.95,0 1.9,0.09 2.83,0.28 0.9,0.19 1.78,0.47 2.62,0.85 0.81,0.36 1.57,0.8 2.28,1.3 0.7,0.5 1.35,1.06 1.94,1.7 0.58,0.62 1.09,1.3 1.54,2.02 0.46,0.74 0.84,1.52 1.15,2.32 0.3,0.79 0.53,1.61 0.69,2.45 0.15,0.81 0.23,1.63 0.24,2.47zm-5.38 0.26c0,-0.61 -0.05,-1.19 -0.15,-1.75 -0.1,-0.54 -0.25,-1.07 -0.45,-1.6 -0.21,-0.52 -0.45,-1.01 -0.73,-1.47 -0.27,-0.43 -0.58,-0.85 -0.94,-1.23 -0.35,-0.38 -0.73,-0.71 -1.15,-1.01 -0.42,-0.3 -0.89,-0.57 -1.37,-0.79 -0.5,-0.22 -1.01,-0.38 -1.53,-0.49 -0.53,-0.11 -1.09,-0.17 -1.65,-0.17 -0.57,0 -1.12,0.05 -1.64,0.16 -0.53,0.11 -1.05,0.27 -1.55,0.5 -0.47,0.21 -0.92,0.47 -1.34,0.76 -0.41,0.29 -0.79,0.63 -1.14,1.01 -0.36,0.38 -0.67,0.79 -0.95,1.23 -0.27,0.45 -0.51,0.94 -0.71,1.45 -0.2,0.5 -0.35,1.04 -0.44,1.58 -0.1,0.58 -0.15,1.16 -0.15,1.75l0 0.07c0,0.6 0.05,1.18 0.15,1.73 0.09,0.54 0.25,1.09 0.45,1.63 0.2,0.49 0.44,0.98 0.72,1.43 0.28,0.45 0.59,0.88 0.95,1.26 0.36,0.38 0.75,0.72 1.17,1.02 0.43,0.31 0.88,0.57 1.35,0.79 0.5,0.22 1,0.38 1.51,0.49 0.54,0.11 1.1,0.16 1.68,0.16 0.56,0 1.11,-0.05 1.64,-0.15 0.52,-0.1 1.04,-0.27 1.53,-0.49 0.49,-0.22 0.94,-0.48 1.35,-0.77 0.41,-0.28 0.79,-0.62 1.15,-1.01 0.35,-0.38 0.67,-0.8 0.95,-1.25 0.27,-0.46 0.51,-0.94 0.7,-1.43 0.2,-0.51 0.34,-1.04 0.44,-1.58 0.1,-0.58 0.15,-1.17 0.15,-1.76l0 -0.07zm-45.72 4.72l0 8.54 -5.32 0 0 -26.52 10.11 0c0.66,0 1.32,0.04 2,0.13 0.67,0.09 1.34,0.23 1.99,0.43 0.6,0.18 1.19,0.42 1.74,0.7 0.54,0.28 1.05,0.61 1.53,0.99 0.48,0.38 0.92,0.82 1.31,1.3 0.37,0.46 0.69,0.97 0.94,1.51 0.28,0.57 0.48,1.17 0.61,1.78 0.14,0.65 0.2,1.31 0.2,1.97l0 0.07c0,0.68 -0.07,1.37 -0.21,2.04 -0.15,0.67 -0.39,1.34 -0.71,1.97 -0.3,0.57 -0.66,1.1 -1.07,1.58 -0.41,0.49 -0.88,0.93 -1.39,1.32 -0.52,0.38 -1.06,0.7 -1.62,0.97 -0.6,0.29 -1.21,0.52 -1.83,0.69 -0.63,0.18 -1.27,0.31 -1.92,0.39 -0.67,0.09 -1.34,0.14 -1.99,0.14l-4.37 0zm0 -12.83l0 7.68 4.46 0c0.43,0 0.85,-0.02 1.23,-0.07 0.39,-0.05 0.78,-0.13 1.16,-0.24 0.31,-0.1 0.62,-0.21 0.9,-0.35 0.27,-0.13 0.53,-0.28 0.76,-0.47 0.2,-0.16 0.39,-0.34 0.55,-0.54 0.15,-0.19 0.29,-0.4 0.4,-0.64 0.12,-0.23 0.2,-0.48 0.26,-0.74 0.05,-0.26 0.08,-0.53 0.08,-0.81l0 -0.06c0,-0.31 -0.02,-0.6 -0.08,-0.87 -0.04,-0.27 -0.12,-0.52 -0.24,-0.76 -0.1,-0.21 -0.23,-0.41 -0.38,-0.6 -0.15,-0.18 -0.32,-0.34 -0.51,-0.48 -0.23,-0.17 -0.48,-0.32 -0.74,-0.44 -0.27,-0.12 -0.57,-0.23 -0.86,-0.31 -0.36,-0.11 -0.74,-0.18 -1.14,-0.23 -0.38,-0.05 -0.78,-0.07 -1.18,-0.07l-4.67 0zm-65.22 0l0 6.73 5.92 0c0.39,0 0.76,-0.02 1.11,-0.06 0.35,-0.05 0.71,-0.12 1.06,-0.22 0.3,-0.09 0.58,-0.19 0.84,-0.32 0.24,-0.12 0.47,-0.26 0.68,-0.42 0.18,-0.13 0.35,-0.3 0.5,-0.47 0.14,-0.16 0.27,-0.36 0.38,-0.57 0.1,-0.21 0.18,-0.42 0.23,-0.63 0.05,-0.23 0.07,-0.49 0.07,-0.76l0 -0.06c0,-0.49 -0.07,-0.92 -0.24,-1.29 -0.16,-0.36 -0.42,-0.69 -0.78,-0.97 -0.48,-0.37 -1.07,-0.61 -1.69,-0.75 -0.67,-0.16 -1.39,-0.21 -2.06,-0.21l-6.02 0z"/>
   <polygon class="fil2" points="45.3,54.17 48.47,54.17 53.29,63.53 58.06,54.17 61.24,54.17 61.24,68.7 58.68,68.7 58.68,58.28 54.16,67.21 52.37,67.21 47.83,58.28 47.83,68.7 45.3,68.7 "/>
   <path id="1" class="fil2" d="M67.32 62.72c0,1.15 0.32,2.05 0.97,2.7 0.65,0.65 1.52,0.98 2.62,0.98 1.09,0 1.95,-0.33 2.58,-0.98 0.63,-0.65 0.94,-1.55 0.94,-2.7l0 -8.55 2.79 0 0 8.55c0,1.26 -0.26,2.36 -0.77,3.29 -0.51,0.94 -1.24,1.65 -2.19,2.15 -0.95,0.5 -2.07,0.75 -3.35,0.75 -1.3,0 -2.44,-0.25 -3.4,-0.75 -0.96,-0.5 -1.7,-1.21 -2.21,-2.15 -0.51,-0.93 -0.76,-2.03 -0.76,-3.29l0 -8.55 2.78 0 0 8.55z"/>
   <polygon id="2" class="fil2" points="80.49,54.17 83.28,54.17 83.28,66.19 89.54,66.19 89.54,68.7 80.49,68.7 "/>
   <polygon id="3" class="fil2" points="90.1,54.17 101.95,54.17 101.95,56.64 97.43,56.64 97.43,68.7 94.63,68.7 94.63,56.64 90.1,56.64 "/>
   <polygon id="4" class="fil2" points="103.92,54.17 106.71,54.17 106.71,68.7 103.92,68.7 "/>
   <polygon id="5" class="fil2" points="110.28,54.17 113.45,54.17 118.27,63.53 123.04,54.17 126.21,54.17 126.21,68.7 123.66,68.7 123.66,58.28 119.14,67.21 117.35,67.21 112.81,58.28 112.81,68.7 110.28,68.7 "/>
   <path id="6" class="fil2" d="M140.53 68.7l-1.28 -3.07 -7.1 0 -1.29 3.07 -2.88 0 6.37 -14.53 2.88 0 6.29 14.53 -2.99 0zm-7.38 -5.46l5.1 0 -2.53 -6.1 -2.57 6.1z"/>
   <path id="7" class="fil2" d="M154.37 68.7l-2.51 -4.29c-0.11,0.01 -0.28,0.02 -0.52,0.02l-3.27 0 0 4.27 -2.78 0 0 -14.53 6.05 0c1.89,0 3.34,0.44 4.36,1.31 1.03,0.87 1.54,2.11 1.54,3.7 0,1.13 -0.25,2.1 -0.74,2.9 -0.49,0.8 -1.21,1.41 -2.15,1.81l3.2 4.81 -3.18 0zm-6.3 -6.72l3.27 0c1.06,0 1.86,-0.23 2.41,-0.69 0.56,-0.45 0.83,-1.13 0.83,-2.03 0,-0.89 -0.27,-1.55 -0.83,-1.99 -0.55,-0.45 -1.35,-0.67 -2.41,-0.67l-3.27 0 0 5.38z"/>
   <path id="8" class="fil2" d="M170.81 58.37c-0.51,-0.6 -1.12,-1.06 -1.81,-1.39 -0.7,-0.34 -1.41,-0.5 -2.13,-0.5 -0.9,0 -1.73,0.21 -2.47,0.64 -0.75,0.43 -1.34,1.02 -1.77,1.78 -0.42,0.75 -0.64,1.58 -0.64,2.48 0,0.9 0.22,1.72 0.64,2.48 0.43,0.75 1.02,1.34 1.77,1.78 0.74,0.44 1.57,0.65 2.47,0.65 0.69,0 1.38,-0.15 2.08,-0.45 0.7,-0.31 1.32,-0.73 1.86,-1.27l1.64 1.83c-0.76,0.77 -1.65,1.39 -2.66,1.83 -1.01,0.45 -2.03,0.68 -3.07,0.68 -1.4,0 -2.67,-0.33 -3.84,-1 -1.16,-0.66 -2.07,-1.56 -2.74,-2.71 -0.66,-1.14 -0.99,-2.4 -0.99,-3.78 0,-1.39 0.34,-2.65 1.01,-3.78 0.68,-1.13 1.61,-2.03 2.78,-2.68 1.16,-0.65 2.46,-0.97 3.89,-0.97 1.03,0 2.05,0.21 3.05,0.62 0.99,0.42 1.84,0.99 2.55,1.72l-1.62 2.04z"/>
   <path id="9" class="fil2" d="M185.36 68.7l-1.29 -3.07 -7.1 0 -1.28 3.07 -2.89 0 6.37 -14.53 2.89 0 6.29 14.53 -2.99 0zm-7.39 -5.46l5.11 0 -2.54 -6.1 -2.57 6.1z"/>
   <path id="10" class="fil2" d="M199.14 57.91c-0.75,-0.46 -1.51,-0.81 -2.29,-1.06 -0.79,-0.25 -1.47,-0.37 -2.07,-0.37 -0.66,0 -1.19,0.12 -1.58,0.37 -0.38,0.25 -0.58,0.6 -0.58,1.04 0,0.4 0.14,0.74 0.41,1.01 0.27,0.27 0.61,0.49 1.01,0.66 0.41,0.17 0.97,0.36 1.67,0.57 0.99,0.29 1.79,0.58 2.42,0.87 0.63,0.29 1.17,0.72 1.61,1.29 0.44,0.57 0.66,1.31 0.66,2.24 0,0.89 -0.23,1.66 -0.71,2.31 -0.48,0.66 -1.14,1.16 -1.97,1.51 -0.84,0.34 -1.8,0.52 -2.88,0.52 -1.13,0 -2.24,-0.21 -3.32,-0.64 -1.08,-0.42 -2.02,-0.98 -2.82,-1.69l1.16 -2.36c0.74,0.68 1.56,1.21 2.47,1.6 0.91,0.38 1.77,0.58 2.55,0.58 0.78,0 1.39,-0.15 1.83,-0.45 0.44,-0.3 0.66,-0.7 0.66,-1.21 0,-0.42 -0.13,-0.76 -0.4,-1.03 -0.27,-0.27 -0.61,-0.49 -1.03,-0.66 -0.41,-0.16 -0.98,-0.35 -1.7,-0.55 -0.98,-0.3 -1.78,-0.58 -2.41,-0.86 -0.62,-0.27 -1.15,-0.69 -1.59,-1.25 -0.45,-0.56 -0.67,-1.3 -0.67,-2.21 0,-0.85 0.23,-1.58 0.68,-2.21 0.45,-0.63 1.08,-1.12 1.91,-1.47 0.82,-0.34 1.77,-0.51 2.85,-0.51 0.94,0 1.87,0.13 2.79,0.41 0.92,0.28 1.74,0.65 2.46,1.12l-1.12 2.43z"/>
  </g>
 </g>
</svg>