<svg xmlns="http://www.w3.org/2000/svg" xmlns:xlink="http://www.w3.org/1999/xlink" xmlns:xodm="http://www.corel.com/coreldraw/odm/2003" xml:space="preserve" width="1642px" height="1302px" version="1.1" style="shape-rendering:geometricPrecision; text-rendering:geometricPrecision; image-rendering:optimizeQuality; fill-rule:evenodd; clip-rule:evenodd" viewBox="0 0 1640.32 1301.08">
 <defs>
  <style type="text/css">
   <![CDATA[
    .fil1 {fill:#0171BB}
    .fil2 {fill:#0171BB;fill-rule:nonzero}
    .fil0 {fill:#FEFEFE;fill-opacity:0.000000}
   ]]>
  </style>
 </defs>
 <g id="Layer_x0020_1">
  <metadata id="CorelCorpID_0Corel-Layer"/>
  <polygon class="fil0" points="0,0 1640.32,0 1640.32,1301.08 0,1301.08 "/>
  <g id="_1355332886560">
   <path class="fil1" d="M820.16 133.61c150.76,0 272.98,122.23 272.98,272.99 0,77.98 -32.69,148.32 -85.13,198.06 -182.51,-18.07 -327.1,-142.6 -248,-276.23l-137.61 -110.01c5.44,-5.72 11.13,-11.2 17.04,-16.42 295.94,28.09 323.77,182.2 143.95,218.48l64.77 101.79c287.01,-100.84 187.33,-338.23 -161.62,-353.78 39.5,-22.21 85.08,-34.88 133.62,-34.88zm62.37 538.81c-20.04,4.68 -40.91,7.17 -62.37,7.17 -150.77,0 -272.99,-122.23 -272.99,-272.99 0,-48.42 12.63,-93.89 34.74,-133.32 1.99,201.02 97.51,332.17 300.62,399.14z"/>
   <path class="fil2" d="M364.45 1002.05l19.61 0c11.13,0 18.47,-2.87 22.14,-8.49 3.61,-5.68 5.44,-15.31 5.44,-28.84 0,-4.82 -0.17,-8.83 -0.4,-12.1 -0.28,-3.21 -0.97,-6.54 -2.06,-9.92 -1.03,-3.33 -2.52,-6.02 -4.53,-7.97 -1.95,-1.95 -4.64,-3.56 -8.14,-4.76 -3.44,-1.26 -7.69,-1.83 -12.56,-1.83l-19.5 0 0 73.91zm-61.52 161.41l0 -278.5 92.95 0c24.59,0 43.06,6.88 55.21,20.64 12.22,13.76 18.35,33.83 18.35,60.15 0,10.38 -0.91,19.73 -2.81,28.04 -1.83,8.31 -4.53,15.31 -8.14,20.99 -3.55,5.73 -7.68,10.55 -12.38,14.56 -4.76,3.96 -10.21,7.05 -16.52,9.29 -6.25,2.24 -12.67,3.84 -19.21,4.82 -6.53,0.91 -13.82,1.43 -21.73,1.43l-24.2 0 0 118.58 -61.52 0z"/>
   <polygon id="_1" class="fil2" points="490.51,1163.46 490.51,884.96 615.68,884.96 615.68,926.93 552.03,926.93 552.03,995.8 600.54,995.8 600.54,1038.63 552.03,1038.63 552.03,1121.77 616.37,1121.77 616.37,1163.46 "/>
   <path id="_2" class="fil2" d="M698.15 1003.37l15.77 0c12.56,0 21.39,-3.27 26.55,-9.75 5.16,-6.48 7.74,-16.29 7.74,-29.42 0,-12.84 -2.35,-22.42 -7,-28.61 -4.64,-6.25 -12.67,-9.35 -24.08,-9.35l-18.98 0 0 77.13zm-61.52 160.09l0 -278.5 75.97 0c11.76,0 22.13,0.63 31.25,2.01 9.06,1.31 17.55,3.67 25.52,7.05 7.97,3.32 14.5,7.74 19.66,13.24 5.16,5.51 9.18,12.56 12.1,21.16 2.87,8.66 4.36,18.7 4.36,30.28 0,18.23 -2.46,32.91 -7.4,43.98 -4.93,11.12 -13.81,19.72 -26.72,25.86l38.31 134.92 -63.65 0 -30.62 -124.66 -17.26 0 0 124.66 -61.52 0z"/>
   <polygon id="_3" class="fil2" points="834.64,1163.46 834.64,884.96 959.81,884.96 959.81,926.93 896.16,926.93 896.16,995.8 944.67,995.8 944.67,1038.63 896.16,1038.63 896.16,1121.77 960.5,1121.77 960.5,1163.46 "/>
   <path id="_4" class="fil2" d="M1053.52 1167.47c-14.1,0 -26.2,-2.23 -36.18,-6.76 -10.03,-4.53 -17.95,-11.19 -23.79,-19.9 -5.8,-8.77 -10.04,-18.87 -12.68,-30.28 -2.63,-11.41 -3.95,-24.65 -3.95,-39.62l0 -92.6c0,-12.27 0.86,-23.34 2.58,-33.09 1.78,-9.74 4.64,-18.69 8.6,-26.83 3.96,-8.2 9.17,-14.97 15.54,-20.36 6.36,-5.39 14.33,-9.52 23.85,-12.5 9.52,-2.98 20.53,-4.47 33.09,-4.47 12.09,0 22.76,1.32 32.11,3.9 9.29,2.52 17.03,6.14 23.22,10.72 6.25,4.59 11.29,10.32 15.25,17.2 3.9,6.88 6.71,14.4 8.37,22.54 1.67,8.14 2.53,17.2 2.53,27.29l0 17.66 -60.15 0 0 -22.36c0,-4.24 -0.06,-7.74 -0.23,-10.44 -0.18,-2.69 -0.63,-5.61 -1.38,-8.88 -0.69,-3.27 -1.78,-5.79 -3.15,-7.57 -1.44,-1.78 -3.44,-3.33 -6.08,-4.59 -2.64,-1.32 -5.85,-1.95 -9.63,-1.95 -3.96,0 -7.29,0.75 -10.04,2.18 -2.69,1.43 -4.82,3.21 -6.25,5.28 -1.49,2.06 -2.64,4.87 -3.5,8.31 -0.8,3.5 -1.31,6.65 -1.49,9.52 -0.17,2.86 -0.23,6.36 -0.23,10.49l0 127.52c0,11.07 1.67,19.84 4.93,26.27 3.33,6.42 9.35,9.69 18.07,9.69 16.11,0 24.19,-12.39 24.19,-37.16l0 -31.25 -25.23 0 0 -36.75 80.85 0 0 144.78 -40.82 0 -3.56 -23.34c-8.14,18.23 -23.1,27.35 -44.84,27.35z"/>
   <path id="_5" class="fil2" d="M1253.03 1167.3c-15.48,0 -28.67,-2.01 -39.57,-6.14 -10.89,-4.07 -19.61,-10.15 -26.03,-18.29 -6.42,-8.14 -11.06,-17.66 -13.93,-28.61 -2.87,-11.01 -4.3,-23.91 -4.3,-38.82l0 -102.81c0,-15.02 1.43,-27.98 4.3,-38.87 2.87,-10.96 7.51,-20.42 13.93,-28.5 6.42,-8.09 15.14,-14.11 26.03,-18.12 10.9,-4.07 24.09,-6.08 39.57,-6.08 30.1,0 51.72,7.68 64.73,23.11 13.08,15.42 19.61,38.19 19.61,68.46l0 102.81c0,30.22 -6.53,53.1 -19.61,68.64 -13.01,15.48 -34.63,23.22 -64.73,23.22zm-9.52 -45.53c2.64,1.38 5.79,2.07 9.52,2.07 3.67,0 6.88,-0.69 9.57,-1.95 2.7,-1.32 4.76,-2.93 6.2,-4.88 1.49,-1.95 2.63,-4.53 3.44,-7.62 0.86,-3.16 1.37,-6.08 1.6,-8.83 0.23,-2.76 0.35,-6.02 0.35,-9.87l0 -133.54c0,-3.67 -0.12,-6.88 -0.35,-9.63 -0.23,-2.76 -0.74,-5.68 -1.6,-8.72 -0.81,-3.1 -1.95,-5.62 -3.44,-7.51 -1.44,-1.89 -3.5,-3.5 -6.2,-4.76 -2.69,-1.32 -5.9,-1.95 -9.57,-1.95 -3.73,0 -6.88,0.63 -9.52,1.95 -2.58,1.26 -4.65,2.81 -6.08,4.7 -1.49,1.84 -2.58,4.36 -3.38,7.57 -0.8,3.16 -1.26,6.08 -1.44,8.6 -0.17,2.58 -0.22,5.85 -0.22,9.75l0 133.54c0,3.96 0.05,7.23 0.22,9.87 0.18,2.63 0.64,5.5 1.44,8.71 0.8,3.21 1.89,5.74 3.38,7.63 1.43,1.95 3.5,3.55 6.08,4.87z"/>
  </g>
 </g>
</svg>