<svg xmlns="http://www.w3.org/2000/svg" xmlns:xlink="http://www.w3.org/1999/xlink" xmlns:xodm="http://www.corel.com/coreldraw/odm/2003" xml:space="preserve" width="1712px" height="1358px" version="1.1" style="shape-rendering:geometricPrecision; text-rendering:geometricPrecision; image-rendering:optimizeQuality; fill-rule:evenodd; clip-rule:evenodd" viewBox="0 0 99.32 78.78">
 <defs>
  <style type="text/css">
   <![CDATA[
    .fil9 {fill:#D9271D}
    .fil1 {fill:#DA251C}
    .fil6 {fill:#DB241C}
    .fil3 {fill:#FBFBFB}
    .fil4 {fill:#FEFEFC}
    .fil2 {fill:#FEFEFE}
    .fil7 {fill:#FFE6E3}
    .fil5 {fill:#FFEDEB}
    .fil8 {fill:#FFF1EE}
    .fil10 {fill:#FFF2F2}
    .fil0 {fill:white;fill-opacity:0.000000}
   ]]>
  </style>
 </defs>
 <g id="Layer_x0020_1">
  <metadata id="CorelCorpID_0Corel-Layer"/>
  <polygon class="fil0" points="0,0 99.32,0 99.32,78.78 0,78.78 "/>
  <g id="_2435768775536">
   <path class="fil1" d="M48.05 54.9c3.04,-0.81 2.79,4.53 0.51,5.18 -3.08,0.88 -2.9,-4.54 -0.51,-5.18zm-18.51 0.01c2.93,-0.79 2.76,4.63 0.36,5.19 -2.92,0.69 -2.92,-4.51 -0.36,-5.19zm28.17 -0.02c2.87,-0.75 2.78,4.51 0.38,5.19 -2.9,0.84 -3,-4.5 -0.38,-5.19zm-17 0l2.71 0.1c0.38,0.44 0.71,0.68 0.58,1.65 -0.07,0.49 -0.18,0.59 -0.41,0.85 -0.7,0.75 -0.71,-0.07 0.11,2.59l-1.22 -0.01c-0.4,-0.79 -0.29,-1.49 -0.99,-1.99 -0.08,0.74 -0.11,1.47 -0.44,1.99l-1.15 0.07 0.81 -5.25zm-16.46 0.01l2.74 0.05c0.33,0.49 1.09,1.56 0.15,2.57 -0.7,0.76 -0.75,-0.16 0.11,2.54l-1.29 -0.01 -0.7 -1.92c-0.47,0.49 -0.25,0.88 -0.49,1.58 -0.1,0.26 -0.09,0.21 -0.19,0.37l-1.13 -0.01 0.8 -5.17zm36.49 -0.01l2.72 0.1c0.63,0.7 0.95,1.69 0.18,2.5l-0.56 0.51 0.65 2.08 -1.31 -0.01c-0.17,-0.73 -0.32,-1.55 -0.87,-1.98l-0.3 1.99 -1.31 -0.05 0.8 -5.14zm-7.83 0.02l2.99 0 -0.17 1.13c-1.79,0.31 -1.54,-0.45 -1.81,0.6 0.44,0.34 0.92,0.23 1.54,0.24 0.17,1.85 -0.5,0.89 -1.47,1.18 -0.65,0.2 -0.31,1.21 -0.71,2.01l-1.18 -0.04 0.81 -5.12zm-16.78 5.16c0.14,-1.06 0.57,-4.39 0.91,-5.17l3.08 0.01 -0.17 1.15c-1.03,0.21 -1.74,-0.31 -1.98,0.58 0.47,0.23 1.11,0.14 1.78,0.15 -0.13,1.08 0.06,1.13 -0.9,1.16 -1.01,0.02 -1.17,-0.32 -1.18,0.73 0.46,0.2 1.34,0.11 1.98,0.12l-0.18 1.27 -3.34 0zm-0.23 -2.99c-0.11,1.87 -0.02,2.76 -1.72,3.03 -1.43,0.23 -2.12,-0.75 -2.15,-2.11 -0.07,-3.46 3.52,-4.39 4.03,-1.49 -2.4,0.21 -1.21,-1.15 -2.29,-0.22 -0.52,0.45 -0.51,1.74 -0.28,2.48 0.67,0.12 0.61,0.17 1.05,-0.11 -0.16,-1.27 -0.74,0.77 -0.48,-1.57l1.84 -0.01zm37.77 1.77c0.16,-1.09 -0.57,-0.62 -1.3,-1.44 -1.86,-2.11 2.9,-4.15 2.84,-0.97 -1.96,0.18 -0.57,-0.24 -1.74,-0.59l-0.26 0.43c0.65,0.63 2.77,1.31 1.47,3.25 -0.72,1.07 -3.01,1.07 -3.11,-1.26l1.07 -0.09c0.28,0.47 0.29,1.03 1.03,0.67zm-9.25 -3.75c0.62,-0.37 2.88,-0.2 3.67,-0.19l-0.24 1.35 -1.18 0.01 -0.62 3.8 -1.29 0 0.56 -3.6c-0.03,-0.02 -0.09,-0.04 -0.12,-0.05l-0.96 -0.29 0.18 -1.03zm-20.38 4.97c0.1,-0.94 0.27,-1.85 0.42,-2.75 0.42,-2.63 0.01,-2.47 1.67,-2.36l-0.74 5.12 -1.35 -0.01zm24.4 -5.15l3.18 0 -0.17 1.2c-2.3,0.06 -1.84,-0.2 -1.98,0.52 0.4,0.24 1.15,0.12 1.79,0.2l-0.22 1.1 -1.79 0.02 -0.1 0.83 2 0.02c-0.15,1.51 0.37,1.33 -3.51,1.25l0.8 -5.14zm-30.48 -0.25c0.34,-0.99 0.36,-1.16 1.45,-1.15 -0.37,0.63 -0.6,1.1 -1.45,1.15zm-7.45 -23.3c-0.93,-2.85 -4.78,-6.55 -1.86,-9.88 1.22,-1.38 3.02,-1.55 5.27,-1.55 5.88,0.02 11.7,-0.32 12.6,7.95 0.72,6.72 -2.77,8.51 -3.57,9.75 0.46,0.48 1.51,2.47 1.97,3.24 1.56,2.57 3.6,5.17 2.52,7.38 -0.53,1.08 -1.51,1.88 -2.81,2.28 -3.54,1.08 -4.63,-2.06 -5.82,-4.22l-2.78 -5.04c-0.17,-0.3 -0.31,-0.56 -0.49,-0.85 -0.35,-0.56 -0.12,-0.39 -0.66,-0.71 -0.03,2.49 0.53,8.04 -0.77,9.65 -1.75,2.16 -5.7,1.47 -6.7,-1 -0.45,-1.1 -0.23,-8.3 -0.23,-10.07 0,-4.03 -0.39,-6.01 3.33,-6.93zm26.47 -2.04c-1.89,-1.55 -5.18,-3.19 -4.43,-6.72 0.77,-3.59 5.1,-3.1 8.88,-3.1 2.04,0 4.08,0 6.11,0 5.69,-0.02 5,4.95 3.76,6.58 -1.23,1.58 -2.21,1.18 -4.58,1.32 1.38,1.98 5.74,3.61 4.41,7.87 -1.31,4.18 -5.1,2.84 -9.47,3.08 -0.35,2.97 0.73,8.75 -0.84,10.71 -1.8,2.23 -6.76,1.96 -7.59,-0.86 -0.37,-1.3 -0.14,-9.3 -0.14,-11.27 0,-7.04 1.2,-5.51 4.34,-7.13l-0.45 -0.48zm-37.23 32.07c0.26,2.48 3.26,2.08 4.66,2.08l47.21 0c8.02,0 7.98,0.73 7.98,-5.65 0,-3.13 0.15,-39.16 -0.04,-40.39 -0.12,-0.81 -0.86,-1.67 -1.46,-1.91 -1.12,-0.44 -48.86,-0.18 -50.47,-0.18 -7.92,0.01 -7.9,-0.72 -7.9,5.63 0,3.51 -0.15,38.76 0.02,40.42z"/>
   <path class="fil1" d="M58.16 47.81c0,-0.18 0.22,-0.28 0.29,-0.7 0.15,-0.87 -0.23,-0.58 0.26,-1.19 0.37,0.64 0.08,1.7 -0.06,1.86 -0.63,0.74 -0.48,0.03 -0.49,0.03zm0.38 -4.08c-0.24,-0.54 -0.24,-6.1 0,-6.58 0.35,0.18 0.26,-0.16 0.3,0.62l-0.02 2.74c0,1.2 0.22,2.94 -0.28,3.22zm7.98 -8.39c1.03,0 1.22,-0.36 1.43,-1.24 0.25,0.3 0.54,-0.51 0.25,0.74 -0.06,0.25 -0.21,0.35 -0.39,0.5 -0.46,0.41 -0.68,0.39 -1.29,0.39 -0.79,0 -3.35,0.17 -3.87,-0.15 0.18,-0.18 -0.35,-0.24 0.65,-0.24l3.22 0zm-5.25 -5.7c-0.56,-0.49 -1.03,-0.68 -1.48,-1.33 0.29,-0.38 0.89,0.34 1.63,0.99 0.55,0.49 0.98,0.68 1.47,1.3 -0.55,0.33 -0.3,0.16 -0.79,-0.25 -0.34,-0.29 -0.43,-0.35 -0.83,-0.71zm-1.99 -4.87c0.63,-0.54 3.06,-0.81 3.79,-0.39 -0.81,0.78 -2.57,-0.23 -3.44,0.68 0.33,0.74 0.7,0.57 0.75,1.32 -0.6,-0.22 -1.13,-0.76 -1.1,-1.61zm2.75 6.83c-1.36,0.06 -2.8,0.01 -4.17,0.01 -4.07,0 -2.96,3.01 -2.96,10.26 0,2.68 -0.71,6.39 1.69,7.04 1.29,0.36 2.55,-0.2 3.01,-1.06 0.46,-0.84 0.27,-3 0.27,-4.11 0,-3.39 -0.63,-6.75 1.58,-7.11 2.78,-0.44 5.76,0.78 7.47,-1.2 2.05,-2.38 -1.43,-4.49 -2.31,-5.37 -0.96,-0.94 -4.02,-3.32 -4.61,-4.23 3.82,-0.02 9.87,1.03 8.48,-3.37 -0.56,-1.78 -2.43,-1.61 -4.47,-1.61 -2.91,0 -9.32,-0.45 -11.03,0.99 -2.54,2.14 1.43,4.85 2.2,5.59l3.3 2.82c0.42,0.37 0.45,0.38 0.84,0.69 0.31,0.24 0.45,0.46 0.71,0.66z"/>
   <path class="fil1" d="M31.16 48.2c0.16,-0.61 0.36,-0.49 0.58,-0.87 0.3,-0.52 0.01,-0.52 0.31,-1.02 0.01,0.02 0.63,0.06 0.08,1.24 -0.2,0.44 -0.48,0.53 -0.97,0.65zm1.23 -5.84c-0.32,-0.56 -0.33,-4.27 0.55,-5.21 1.87,-2.01 4.33,-0.24 6.79,-1.69 0.43,-0.25 0.51,-0.54 1.08,-0.5 -0.25,0.71 -1.4,1.18 -2.38,1.39 -3.29,0.68 -5.83,-1.2 -5.8,4.16l-0.03 1.51c-0.13,0.46 0.04,0.06 -0.21,0.34zm11.55 -12.88c0.08,0.09 0.46,-0.27 0.07,1.22 -0.19,0.7 -1.03,3.12 -1.69,2.92 -0.26,-0.08 0.58,-1.23 0.82,-1.72 0.42,-0.82 0.45,-1.78 0.8,-2.42zm-6.5 -4.26c0.42,-0.3 -0.58,-0.15 0.55,-0.22 0.17,-0.01 0.61,0.08 0.78,0.12 0.49,0.1 0.86,0.25 1.22,0.47 0.51,0.34 0.92,0.8 1.03,1.41 0.18,1.06 0.04,0.35 -0.14,0.59 -0.53,-0.75 -0.5,-1.8 -2.15,-2.08l-0.9 -0.1c-0.48,-0.12 -0.22,-0.08 -0.39,-0.19zm-4.5 7.41l0.88 -0.01 -0.83 -1.63c1.11,0.22 0.84,1.33 1.44,1.62 1.32,0.1 2.8,0.08 3.92,-0.25 -0.64,-1.48 -3.04,-4.05 -2.89,-5.65 1.19,-0.85 4.22,-0.62 4.53,1.45 1.04,7.02 -4.49,4.79 -8.97,5.19 -2.66,0.23 -2.22,2.44 -2.22,4.95 0,2.32 0,4.64 0,6.96 -0.01,1.24 -0.12,2.26 0.61,2.98 0.52,0.53 1.61,0.99 2.57,0.53 3.25,-1.56 -1.1,-10.53 3.15,-11.1 2.59,-0.35 3.58,0.43 5.91,-1.07 5.15,-3.31 5.16,-11.45 0.47,-14.04 -1.83,-1.01 -3.54,-1.08 -5.9,-1.08 -4.7,0 -8.56,-0.14 -5.16,6.53 0.66,1.29 1.72,3.68 2.49,4.62z"/>
   <path class="fil2" d="M38.16 39.15l3.24 -1.03c0.47,1.25 4.46,7.33 4.65,8.25 0.46,2.16 -3.04,4.14 -4.58,1.36l-4.7 -8.57c1.15,-0.05 0.97,-0.1 1.49,0.91 0.29,0.56 0.46,1.14 1.04,1.24 -0.17,-0.65 -0.8,-1.56 -1.14,-2.16zm0.51 -9.19c-0.39,-0.32 -1.16,-1.6 -1.33,-2.21 1.41,-0.04 1.89,0.88 1.33,2.21zm2.37 6.64c-2.33,1.5 -3.32,0.72 -5.91,1.07 -4.25,0.57 0.1,9.54 -3.15,11.1 -0.96,0.46 -2.05,0 -2.57,-0.53 -0.73,-0.72 -0.62,-1.74 -0.61,-2.98 0,-2.32 0,-4.64 0,-6.96 0,-2.51 -0.44,-4.72 2.22,-4.95 4.48,-0.4 10.01,1.83 8.97,-5.19 -0.31,-2.07 -3.34,-2.3 -4.53,-1.45 -0.15,1.6 2.25,4.17 2.89,5.65 -1.12,0.33 -2.6,0.35 -3.92,0.25 -0.6,-0.29 -0.33,-1.4 -1.44,-1.62l0.83 1.63 -0.88 0.01c-0.77,-0.94 -1.83,-3.33 -2.49,-4.62 -3.4,-6.67 0.46,-6.53 5.16,-6.53 2.36,0 4.07,0.07 5.9,1.08 4.69,2.59 4.68,10.73 -0.47,14.04zm-10.53 -5.23c-3.72,0.92 -3.33,2.9 -3.33,6.93 0,1.77 -0.22,8.97 0.23,10.07 1,2.47 4.95,3.16 6.7,1 1.3,-1.61 0.74,-7.16 0.77,-9.65 0.54,0.32 0.31,0.15 0.66,0.71 0.18,0.29 0.32,0.55 0.49,0.85l2.78 5.04c1.19,2.16 2.28,5.3 5.82,4.22 1.3,-0.4 2.28,-1.2 2.81,-2.28 1.08,-2.21 -0.96,-4.81 -2.52,-7.38 -0.46,-0.77 -1.51,-2.76 -1.97,-3.24 0.8,-1.24 4.29,-3.03 3.57,-9.75 -0.9,-8.27 -6.72,-7.93 -12.6,-7.95 -2.25,0 -4.05,0.17 -5.27,1.55 -2.92,3.33 0.93,7.03 1.86,9.88z"/>
   <path class="fil3" d="M54.98 21.84c1.71,-1.44 8.12,-0.99 11.03,-0.99 2.04,0 3.91,-0.17 4.47,1.61 1.39,4.4 -4.66,3.35 -8.48,3.37 0.59,0.91 3.65,3.29 4.61,4.23 0.88,0.88 4.36,2.99 2.31,5.37 -1.71,1.98 -4.69,0.76 -7.47,1.2 -2.21,0.36 -1.58,3.72 -1.58,7.11 0,1.11 0.19,3.27 -0.27,4.11 -0.46,0.86 -1.72,1.42 -3.01,1.06 -2.4,-0.65 -1.69,-4.36 -1.69,-7.04 0,-7.25 -1.11,-10.26 2.96,-10.26 1.37,0 2.81,0.05 4.17,-0.01 -0.26,-0.2 -0.4,-0.42 -0.71,-0.66 -0.39,-0.31 -0.42,-0.32 -0.84,-0.69l-3.3 -2.82c-0.77,-0.74 -4.74,-3.45 -2.2,-5.59zm2.45 7.97c-3.14,1.62 -4.34,0.09 -4.34,7.13 0,1.97 -0.23,9.97 0.14,11.27 0.83,2.82 5.79,3.09 7.59,0.86 1.57,-1.96 0.49,-7.74 0.84,-10.71 4.37,-0.24 8.16,1.1 9.47,-3.08 1.33,-4.26 -3.03,-5.89 -4.41,-7.87 2.37,-0.14 3.35,0.26 4.58,-1.32 1.24,-1.63 1.93,-6.6 -3.76,-6.58 -2.03,0 -4.07,0 -6.11,0 -3.78,0 -8.11,-0.49 -8.88,3.1 -0.75,3.53 2.54,5.17 4.43,6.72l0.45 0.48z"/>
   <path class="fil1" d="M40.09 42.95c0.53,0.31 2.07,3.21 2.56,4.14 0.28,0.53 0.17,0.41 0.1,0.58 -0.43,0.03 -1.95,-3.08 -2.24,-3.57 -1.09,-1.81 -0.36,-0.46 -0.42,-1.15zm-1.93 -3.8c0.34,0.6 0.97,1.51 1.14,2.16 -0.58,-0.1 -0.75,-0.68 -1.04,-1.24 -0.52,-1.01 -0.34,-0.96 -1.49,-0.91l4.7 8.57c1.54,2.78 5.04,0.8 4.58,-1.36 -0.19,-0.92 -4.18,-7 -4.65,-8.25l-3.24 1.03z"/>
   <path class="fil3" d="M61.83 56.3c0.21,-0.13 0.08,-0.13 0.44,-0.21 0.25,-0.05 0.28,0.01 0.52,0.05 -0.04,0.81 -0.22,0.79 -1.03,0.81l0.07 -0.65zm-1.89 3.73l1.31 0.05 0.3 -1.99c0.55,0.43 0.7,1.25 0.87,1.98l1.31 0.01 -0.65 -2.08 0.56 -0.51c0.77,-0.81 0.45,-1.8 -0.18,-2.5l-2.72 -0.1 -0.8 5.14z"/>
   <path class="fil3" d="M25.36 56.06l0.93 0.06c0,0.87 -0.08,0.81 -1.01,0.82l0.08 -0.88zm-1.91 4.01l1.13 0.01c0.1,-0.16 0.09,-0.11 0.19,-0.37 0.24,-0.7 0.02,-1.09 0.49,-1.58l0.7 1.92 1.29 0.01c-0.86,-2.7 -0.81,-1.78 -0.11,-2.54 0.94,-1.01 0.18,-2.08 -0.15,-2.57l-2.74 -0.05 -0.8 5.17z"/>
   <path class="fil4" d="M41.82 56.05l0.93 0.09c0.01,0.87 -0.14,0.8 -1.03,0.8l0.1 -0.89zm-1.92 4.09l1.15 -0.07c0.33,-0.52 0.36,-1.25 0.44,-1.99 0.7,0.5 0.59,1.2 0.99,1.99l1.22 0.01c-0.82,-2.66 -0.81,-1.84 -0.11,-2.59 0.23,-0.26 0.34,-0.36 0.41,-0.85 0.13,-0.97 -0.2,-1.21 -0.58,-1.65l-2.71 -0.1 -0.81 5.25z"/>
   <path class="fil3" d="M29.21 58.79c-0.41,-0.73 -0.25,-2.11 0.3,-2.5 1.23,-0.87 1.4,2.64 -0.3,2.5zm0.33 -3.88c-2.56,0.68 -2.56,5.88 0.36,5.19 2.4,-0.56 2.57,-5.98 -0.36,-5.19z"/>
   <path class="fil2" d="M47.78 58.85c-0.33,-0.76 -0.27,-3.07 0.87,-2.69 0.53,0.17 0.4,1.04 0.29,1.57 -0.16,0.82 -0.25,1.08 -1.16,1.12zm0.27 -3.95c-2.39,0.64 -2.57,6.06 0.51,5.18 2.28,-0.65 2.53,-5.99 -0.51,-5.18z"/>
   <path class="fil3" d="M35.9 57.08l-1.84 0.01c-0.26,2.34 0.32,0.3 0.48,1.57 -0.44,0.28 -0.38,0.23 -1.05,0.11 -0.23,-0.74 -0.24,-2.03 0.28,-2.48 1.08,-0.93 -0.11,0.43 2.29,0.22 -0.51,-2.9 -4.1,-1.97 -4.03,1.49 0.03,1.36 0.72,2.34 2.15,2.11 1.7,-0.27 1.61,-1.16 1.72,-3.03z"/>
   <path class="fil3" d="M57.26 58.78c-0.21,-0.81 -0.38,-2.91 1.2,-2.56 0.22,0.8 0.35,2.81 -1.2,2.56zm0.45 -3.89c-2.62,0.69 -2.52,6.03 0.38,5.19 2.4,-0.68 2.49,-5.94 -0.38,-5.19z"/>
   <path class="fil3" d="M36.13 60.07l3.34 0 0.18 -1.27c-0.64,-0.01 -1.52,0.08 -1.98,-0.12 0.01,-1.05 0.17,-0.71 1.18,-0.73 0.96,-0.03 0.77,-0.08 0.9,-1.16 -0.67,-0.01 -1.31,0.08 -1.78,-0.15 0.24,-0.89 0.95,-0.37 1.98,-0.58l0.17 -1.15 -3.08 -0.01c-0.34,0.78 -0.77,4.11 -0.91,5.17z"/>
   <path class="fil3" d="M67.64 60.06c3.88,0.08 3.36,0.26 3.51,-1.25l-2 -0.02 0.1 -0.83 1.79 -0.02 0.22 -1.1c-0.64,-0.08 -1.39,0.04 -1.79,-0.2 0.14,-0.72 -0.32,-0.46 1.98,-0.52l0.17 -1.2 -3.18 0 -0.8 5.14z"/>
   <path class="fil3" d="M73.67 58.85c-0.74,0.36 -0.75,-0.2 -1.03,-0.67l-1.07 0.09c0.1,2.33 2.39,2.33 3.11,1.26 1.3,-1.94 -0.82,-2.62 -1.47,-3.25l0.26 -0.43c1.17,0.35 -0.22,0.77 1.74,0.59 0.06,-3.18 -4.7,-1.14 -2.84,0.97 0.73,0.82 1.46,0.35 1.3,1.44z"/>
   <path class="fil3" d="M52.1 60.03l1.18 0.04c0.4,-0.8 0.06,-1.81 0.71,-2.01 0.97,-0.29 1.64,0.67 1.47,-1.18 -0.62,-0.01 -1.1,0.1 -1.54,-0.24 0.27,-1.05 0.02,-0.29 1.81,-0.6l0.17 -1.13 -2.99 0 -0.81 5.12z"/>
   <path class="fil3" d="M64.42 55.1l-0.18 1.03 0.96 0.29c0.03,0.01 0.09,0.03 0.12,0.05l-0.56 3.6 1.29 0 0.62 -3.8 1.18 -0.01 0.24 -1.35c-0.79,-0.01 -3.05,-0.18 -3.67,0.19z"/>
   <path class="fil3" d="M44.04 60.07l1.35 0.01 0.74 -5.12c-1.66,-0.11 -1.25,-0.27 -1.67,2.36 -0.15,0.9 -0.32,1.81 -0.42,2.75z"/>
   <path class="fil5" d="M32.39 42.36c0.25,-0.28 0.08,0.12 0.21,-0.34l0.03 -1.51c-0.03,-5.36 2.51,-3.48 5.8,-4.16 0.98,-0.21 2.13,-0.68 2.38,-1.39 -0.57,-0.04 -0.65,0.25 -1.08,0.5 -2.46,1.45 -4.92,-0.32 -6.79,1.69 -0.88,0.94 -0.87,4.65 -0.55,5.21z"/>
   <path class="fil1" d="M57.26 58.78c1.55,0.25 1.42,-1.76 1.2,-2.56 -1.58,-0.35 -1.41,1.75 -1.2,2.56z"/>
   <path class="fil1" d="M47.78 58.85c0.91,-0.04 1,-0.3 1.16,-1.12 0.11,-0.53 0.24,-1.4 -0.29,-1.57 -1.14,-0.38 -1.2,1.93 -0.87,2.69z"/>
   <path class="fil6" d="M29.21 58.79c1.7,0.14 1.53,-3.37 0.3,-2.5 -0.55,0.39 -0.71,1.77 -0.3,2.5z"/>
   <path class="fil7" d="M58.54 43.73c0.5,-0.28 0.28,-2.02 0.28,-3.22l0.02 -2.74c-0.04,-0.78 0.05,-0.44 -0.3,-0.62 -0.24,0.48 -0.24,6.04 0,6.58z"/>
   <path class="fil8" d="M66.52 35.34l-3.22 0c-1,0 -0.47,0.06 -0.65,0.24 0.52,0.32 3.08,0.15 3.87,0.15 0.61,0 0.83,0.02 1.29,-0.39 0.18,-0.15 0.33,-0.25 0.39,-0.5 0.29,-1.25 0,-0.44 -0.25,-0.74 -0.21,0.88 -0.4,1.24 -1.43,1.24z"/>
   <path class="fil8" d="M42.65 47.09c-0.49,-0.93 -2.03,-3.83 -2.56,-4.14 0.06,0.69 -0.67,-0.66 0.42,1.15 0.29,0.49 1.81,3.6 2.24,3.57 0.07,-0.17 0.18,-0.05 -0.1,-0.58z"/>
   <path class="fil5" d="M59.28 24.77c-0.03,0.85 0.5,1.39 1.1,1.61 -0.05,-0.75 -0.42,-0.58 -0.75,-1.32 0.87,-0.91 2.63,0.1 3.44,-0.68 -0.73,-0.42 -3.16,-0.15 -3.79,0.39z"/>
   <path class="fil5" d="M43.94 29.48c-0.35,0.64 -0.38,1.6 -0.8,2.42 -0.24,0.49 -1.08,1.64 -0.82,1.72 0.66,0.2 1.5,-2.22 1.69,-2.92 0.39,-1.49 0.01,-1.13 -0.07,-1.22z"/>
   <path class="fil8" d="M37.44 25.22c0.17,0.11 -0.09,0.07 0.39,0.19l0.9 0.1c1.65,0.28 1.62,1.33 2.15,2.08 0.18,-0.24 0.32,0.47 0.14,-0.59 -0.11,-0.61 -0.52,-1.07 -1.03,-1.41 -0.36,-0.22 -0.73,-0.37 -1.22,-0.47 -0.17,-0.04 -0.61,-0.13 -0.78,-0.12 -1.13,0.07 -0.13,-0.08 -0.55,0.22z"/>
   <path class="fil9" d="M38.67 29.96c0.56,-1.33 0.08,-2.25 -1.33,-2.21 0.17,0.61 0.94,1.89 1.33,2.21z"/>
   <path class="fil10" d="M59.79 28.31c0.45,0.65 0.92,0.84 1.48,1.33 0.4,0.36 0.49,0.42 0.83,0.71 0.49,0.41 0.24,0.58 0.79,0.25 -0.49,-0.62 -0.92,-0.81 -1.47,-1.3 -0.74,-0.65 -1.34,-1.37 -1.63,-0.99z"/>
   <path class="fil3" d="M37.96 54.67c0.85,-0.05 1.08,-0.52 1.45,-1.15 -1.09,-0.01 -1.11,0.16 -1.45,1.15z"/>
   <path class="fil5" d="M31.16 48.2c0.49,-0.12 0.77,-0.21 0.97,-0.65 0.55,-1.18 -0.07,-1.22 -0.08,-1.24 -0.3,0.5 -0.01,0.5 -0.31,1.02 -0.22,0.38 -0.42,0.26 -0.58,0.87z"/>
   <path class="fil8" d="M58.16 47.81c0.01,0 -0.14,0.71 0.49,-0.03 0.14,-0.16 0.43,-1.22 0.06,-1.86 -0.49,0.61 -0.11,0.32 -0.26,1.19 -0.07,0.42 -0.29,0.52 -0.29,0.7z"/>
   <path class="fil9" d="M41.72 56.94c0.89,0 1.04,0.07 1.03,-0.8l-0.93 -0.09 -0.1 0.89z"/>
   <path class="fil6" d="M25.28 56.94c0.93,-0.01 1.01,0.05 1.01,-0.82l-0.93 -0.06 -0.08 0.88z"/>
   <path class="fil9" d="M61.83 56.3l-0.07 0.65c0.81,-0.02 0.99,0 1.03,-0.81 -0.24,-0.04 -0.27,-0.1 -0.52,-0.05 -0.36,0.08 -0.23,0.08 -0.44,0.21z"/>
  </g>
 </g>
</svg>