<svg xmlns="http://www.w3.org/2000/svg" xmlns:xlink="http://www.w3.org/1999/xlink" xmlns:xodm="http://www.corel.com/coreldraw/odm/2003" xml:space="preserve" width="445px" height="353px" version="1.1" style="shape-rendering:geometricPrecision; text-rendering:geometricPrecision; image-rendering:optimizeQuality; fill-rule:evenodd; clip-rule:evenodd" viewBox="0 0 64.54 51.19">
 <defs>
  <style type="text/css">
   <![CDATA[
    .fil0 {fill:#FEFEFE}
    .fil1 {fill:#3F4096}
    .fil2 {fill:#FEFEFE;fill-rule:nonzero}
    .fil3 {fill:#3F4096;fill-rule:nonzero}
   ]]>
  </style>
 </defs>
 <g id="Camada_x0020_1">
  <metadata id="CorelCorpID_0Corel-Layer"/>
  <rect class="fil0" width="64.54" height="51.19"/>
  <g id="_1604003381328">
   <g>
    <circle class="fil1" transform="matrix(0.431832 0.431832 -0.431832 0.431832 32.2675 21.4574)" r="20.95"/>
    <path class="fil2" d="M36.98 14.92c0.92,0.62 1.74,1.3 2.46,2.03 0.72,0.73 1.34,1.5 1.88,2.31 0.25,0.38 0.41,0.83 0.41,1.28l-0.01 0.01c0,0.49 -0.16,0.97 -0.56,1.37l-5.54 5.54 -0.7 0.7 -0.7 0.69c-0.07,0.07 -0.18,0.07 -0.25,0l-1.54 -1.54c-0.07,-0.07 -0.07,-0.18 0,-0.25l0.69 -0.7 0.7 -0.7 5.05 -5.04c0.16,-0.2 0.22,-0.14 0.07,-0.35 -0.39,-0.54 -0.82,-1.05 -1.3,-1.54 -0.49,-0.5 -1.04,-0.97 -1.67,-1.42 -0.21,-0.15 -0.15,-0.14 -0.33,0.04l-5.07 5.07 -0.69 0.69 -0.7 0.7c-0.07,0.07 -0.18,0.07 -0.26,0l-1.54 -1.54c-0.07,-0.07 -0.07,-0.19 0,-0.26l0.7 -0.69 0.7 -0.7 5.54 -5.54c0.4,-0.4 0.88,-0.57 1.38,-0.57 0.45,0 0.9,0.16 1.28,0.41zm-13.76 8.74c0.61,0.92 1.29,1.74 2.03,2.46 0.73,0.72 1.5,1.34 2.31,1.87 0.38,0.26 0.83,0.42 1.28,0.42l0 -0.01c0.5,0 0.98,-0.17 1.37,-0.56l5.55 -5.54 0.69 -0.7 0.7 -0.7c0.07,-0.07 0.07,-0.18 0,-0.25l-1.54 -1.54c-0.07,-0.07 -0.19,-0.07 -0.26,0l-0.69 0.69 -0.7 0.7 -5.04 5.04c-0.2,0.17 -0.14,0.23 -0.36,0.07 -0.53,-0.38 -1.04,-0.81 -1.53,-1.29 -0.5,-0.49 -0.97,-1.04 -1.42,-1.67 -0.16,-0.21 -0.15,-0.15 0.04,-0.34l5.06 -5.06 0.7 -0.69 0.7 -0.7c0.07,-0.07 0.07,-0.19 0,-0.26l-1.54 -1.54c-0.07,-0.07 -0.19,-0.07 -0.26,0l-0.7 0.7 -0.69 0.7 -5.55 5.54c-0.39,0.4 -0.56,0.88 -0.56,1.37 0,0.46 0.15,0.91 0.41,1.29z"/>
   </g>
   <path class="fil3" d="M15.56 37.37l0 4.18 3.41 0 0 -4.18 1.2 0 0 3.94c0,0.47 -0.09,0.79 -0.26,0.96 -0.18,0.17 -0.52,0.25 -1.02,0.25l-3.25 0c-0.5,0 -0.84,-0.08 -1.01,-0.25 -0.18,-0.17 -0.27,-0.49 -0.27,-0.96l0 -3.94 1.2 0zm5.8 5.15l0 -5.15 0.82 0 3.63 3.04c0.12,0.1 0.23,0.19 0.32,0.28 0.1,0.09 0.18,0.18 0.26,0.28 -0.02,-0.29 -0.03,-0.5 -0.04,-0.62 0,-0.12 -0.01,-0.21 -0.01,-0.27l0 -2.71 1.08 0 0 5.15 -0.82 0 -3.78 -3.18c-0.09,-0.08 -0.17,-0.15 -0.24,-0.22 -0.07,-0.07 -0.13,-0.13 -0.19,-0.2 0.01,0.16 0.03,0.31 0.04,0.45 0,0.14 0.01,0.27 0.01,0.37l0 2.78 -1.08 0zm7.45 0l0 -5.15 1.2 0 0 5.15 -1.2 0zm2.59 0l0 -5.15 1.2 0 0 4.18 3.86 0 0 0.97 -5.06 0zm7.82 -2.05l2.26 0 -1.11 -2.1 -1.15 2.1zm-2.3 2.05l2.91 -5.15 1.16 0 2.96 5.15 -1.35 0 -0.62 -1.13 -3.27 0 -0.6 1.13 -1.19 0zm11.56 -4.31l-2.74 0 0 1.23 2.74 0c0.2,0 0.35,-0.03 0.43,-0.09 0.08,-0.05 0.12,-0.15 0.12,-0.28l0 -0.49c0,-0.13 -0.04,-0.23 -0.12,-0.29 -0.08,-0.05 -0.23,-0.08 -0.43,-0.08zm0 2.08l-2.74 0 0 1.3 2.74 0c0.22,0 0.38,-0.03 0.46,-0.1 0.08,-0.07 0.12,-0.19 0.12,-0.36l0 -0.39c0,-0.17 -0.04,-0.29 -0.12,-0.35 -0.08,-0.07 -0.24,-0.1 -0.46,-0.1zm-3.92 2.23l0 -5.15 4.42 0c0.41,0 0.7,0.08 0.88,0.24 0.18,0.16 0.28,0.41 0.28,0.76l0 0.63c0,0.25 -0.08,0.44 -0.23,0.59 -0.16,0.15 -0.38,0.24 -0.66,0.28 0.29,0.03 0.52,0.14 0.68,0.31 0.17,0.17 0.25,0.4 0.25,0.68l0 0.65c0,0.34 -0.13,0.6 -0.38,0.76 -0.25,0.17 -0.63,0.25 -1.14,0.25l-4.1 0z"/>
  </g>
 </g>
</svg>