<svg xmlns="http://www.w3.org/2000/svg" xmlns:xlink="http://www.w3.org/1999/xlink" xmlns:xodm="http://www.corel.com/coreldraw/odm/2003" xml:space="preserve" width="1712px" height="1358px" version="1.1" style="shape-rendering:geometricPrecision; text-rendering:geometricPrecision; image-rendering:optimizeQuality; fill-rule:evenodd; clip-rule:evenodd" viewBox="0 0 125.38 99.45">
 <defs>
  <style type="text/css">
   <![CDATA[
    .fil2 {fill:#FEFEFE;fill-rule:nonzero}
    .fil1 {fill:#2957A4;fill-rule:nonzero}
    .fil0 {fill:#FEFEFE;fill-opacity:0.000000}
   ]]>
  </style>
 </defs>
 <g id="Layer_x0020_1">
  <metadata id="CorelCorpID_0Corel-Layer"/>
  <polygon class="fil0" points="0,0 125.38,0 125.38,99.45 0,99.45 "/>
  <g id="_1569986497648">
   <path class="fil1" d="M99.28 86.31c-11.16,-5.03 -23.55,-7.83 -36.59,-7.83 -13.03,0 -25.43,2.8 -36.58,7.83l0 -73.17 73.17 0 0 73.17z"/>
   <path class="fil2" d="M34.78 35.47c-3.44,0 -3.72,3.48 -3.72,3.48l-1.64 0 0 -5.16 12.8 0c0,0 0.1,3.99 -3.69,8.23 0,0 -3.6,4.18 -3.69,6.02l2.07 0c2.98,0 3.29,-3.49 3.29,-3.49l1.71 0 0 5.17 -13.08 0c0,0 -0.48,-3.91 4.06,-8.68 0,0 2.79,-3.12 3.44,-5.58l-1.55 0.01z"/>
   <path class="fil2" d="M67.39 49.71l0 -1.69 -0.39 0c-0.71,0 -1.28,-0.57 -1.28,-1.28l0 -9.98c0,-0.7 0.57,-1.28 1.28,-1.28l0.39 0 0 -1.69 -8.49 0 0 1.69 0.39 0c0.72,0 1.29,0.58 1.29,1.28l0 9.98c0,0.71 -0.57,1.28 -1.29,1.28l-0.39 0 0 1.69 8.49 0z"/>
   <path class="fil2" d="M57.14 49.72l0 -5.17 -1.71 0c0,0 -0.32,3.49 -3.3,3.49l-1.71 0 0 -5.44 0.61 0c0.71,0 1.29,0.58 1.29,1.3l0 0.64 1.69 0 0 -5.57 -1.69 0 0 0.64c0,0.72 -0.58,1.29 -1.29,1.29l-0.61 0 0 -5.43 1.71 0c2.98,0 3.3,3.48 3.3,3.48l1.71 0 0 -5.17 -13.49 0 0 1.7 0.39 0c0.7,0 1.27,0.58 1.27,1.28l0 9.98c0,0.71 -0.57,1.28 -1.27,1.28l-0.39 0 0 1.69 13.49 0.01z"/>
   <path class="fil2" d="M76.3 35.47c3.44,0 3.71,3.48 3.71,3.48l1.66 0 0 -5.16 -12.24 0c0,0 -1.94,2.54 3.12,8.23 0,0 3.59,4.18 3.68,6.02l-2.06 0c-2.98,0 -3.3,-3.49 -3.3,-3.49l-1.71 0 0 5.17 12.33 0c0,0 2.24,-2.41 -3.31,-8.68 0,0 -2.91,-2.99 -3.44,-5.58l1.56 0.01z"/>
   <path class="fil2" d="M90.62 35.47c3.42,0 3.7,3.48 3.7,3.48l1.65 0 0 -5.16 -12.23 0c0,0 -1.94,2.54 3.12,8.23 0,0 3.59,4.18 3.69,6.02l-2.07 0c-2.98,0 -3.3,-3.49 -3.3,-3.49l-1.71 0 0 5.17 12.33 0c0,0 2.24,-2.41 -3.31,-8.68 0,0 -2.9,-2.99 -3.43,-5.58l1.56 0.01z"/>
  </g>
 </g>
</svg>