<svg xmlns="http://www.w3.org/2000/svg" xmlns:xlink="http://www.w3.org/1999/xlink" xml:space="preserve" width="285px" height="285px" version="1.1" style="shape-rendering:geometricPrecision; text-rendering:geometricPrecision; image-rendering:optimizeQuality; fill-rule:evenodd; clip-rule:evenodd" viewBox="0 0 8225000 8225000"><script xmlns="" id="eppiocemhmnlbhjplcgkofciiegomcon"/><script xmlns=""/><script xmlns=""/>
 <defs>
  <style type="text/css">
   <![CDATA[
    .str0 {stroke:white;stroke-width:180000;stroke-linecap:round;stroke-linejoin:round;stroke-miterlimit:22.9256}
    .fil1 {fill:none}
    .fil2 {fill:#FEFEFE}
    .fil0 {fill:#00A859;fill-opacity:0.000000}
   ]]>
  </style>
 </defs>
 <g id="Layer_x0020_1">
  <metadata id="CorelCorpID_0Corel-Layer"/>
  <polygon class="fil0" points="0,0 8225000,0 8225000,8225000 0,8225000 "/>
  <path class="fil1 str0" d="M6736000 3624000c163000,1198000 -866000,2286000 -2309000,2444000 -1443000,157000 -2778000,-978000 -2940000,-2168000 -162000,-1198000 965000,-1568000 2408000,-1726000 1434000,-157000 2679000,260000 2841000,1450000z"/>
  <path class="fil2" d="M5270000 5172000c52000,0 95000,27000 95000,60000 0,34000 -43000,61000 -95000,61000 -53000,0 -95000,-27000 -95000,-61000 0,-33000 42000,-60000 95000,-60000zm-537000 186000c79000,0 142000,41000 142000,91000 0,51000 -63000,91000 -142000,91000 -79000,0 -142000,-40000 -142000,-91000 0,-50000 63000,-91000 142000,-91000zm-1609000 -1040000c29000,0 51000,20000 51000,44000 0,24000 -22000,43000 -51000,43000 -28000,0 -50000,-19000 -50000,-43000 0,-24000 22000,-44000 50000,-44000zm-642000 145000c28000,0 50000,19000 50000,43000 0,24000 -22000,43000 -50000,43000 -28000,0 -51000,-19000 -51000,-43000 0,-24000 23000,-43000 51000,-43000zm-533000 43000c28000,0 51000,19000 51000,43000 0,24000 -23000,44000 -51000,44000 -28000,0 -51000,-20000 -51000,-44000 0,-24000 23000,-43000 51000,-43000zm1328000 -578000c46000,0 84000,33000 84000,73000 0,39000 -38000,72000 -84000,72000 -47000,0 -85000,-33000 -85000,-72000 0,-40000 38000,-73000 85000,-73000zm-529000 0c91000,0 165000,63000 165000,141000 0,78000 -74000,141000 -165000,141000 -91000,0 -165000,-63000 -165000,-141000 0,-78000 74000,-141000 165000,-141000zm-131000 -1212000c25000,11000 55000,2000 68000,-19000 12000,-21000 2000,-47000 -23000,-58000 -25000,-11000 -55000,-2000 -68000,19000 -12000,21000 -2000,47000 23000,58000zm171000 -128000c25000,10000 55000,2000 68000,-19000 2000,-4000 3000,-7000 4000,-11000 0,24000 23000,43000 51000,43000 28000,0 51000,-19000 51000,-43000 0,-24000 -23000,-43000 -51000,-43000 -25000,0 -45000,14000 -50000,34000 0,-16000 -10000,-31000 -28000,-39000 -25000,-11000 -55000,-2000 -68000,19000 -12000,22000 -2000,48000 23000,59000zm-483000 580000c54000,23000 120000,5000 148000,-42000 27000,-46000 5000,-102000 -49000,-126000 -54000,-23000 -120000,-5000 -148000,42000 -27000,46000 -5000,102000 49000,126000zm-146000 176000c25000,11000 56000,2000 68000,-19000 13000,-22000 3000,-48000 -22000,-58000 -25000,-11000 -56000,-3000 -68000,19000 -13000,21000 -3000,47000 22000,58000zm-14000 -233000c25000,11000 56000,3000 69000,-19000 12000,-21000 2000,-47000 -23000,-58000 -25000,-11000 -55000,-2000 -68000,19000 -13000,21000 -3000,48000 22000,58000zm372000 -211000c25000,11000 56000,2000 68000,-19000 13000,-22000 3000,-48000 -22000,-59000 -25000,-10000 -56000,-2000 -68000,20000 -13000,21000 -3000,47000 22000,58000zm783000 -292000c28000,0 51000,20000 51000,44000 0,24000 -23000,43000 -51000,43000 -28000,0 -51000,-19000 -51000,-43000 0,-24000 23000,-44000 51000,-44000zm-474000 253000c28000,0 51000,20000 51000,43000 0,25000 -23000,44000 -51000,44000 -28000,0 -50000,-19000 -50000,-44000 0,-23000 22000,-43000 50000,-43000zm-194000 311000c28000,0 51000,19000 51000,43000 0,24000 -23000,43000 -51000,43000 -28000,0 -51000,-19000 -51000,-43000 0,-24000 23000,-43000 51000,-43000zm144000 296000c28000,0 50000,19000 50000,43000 0,24000 -22000,43000 -50000,43000 -29000,0 -51000,-19000 -51000,-43000 0,-24000 22000,-43000 51000,-43000zm-601000 209000c28000,0 51000,19000 51000,43000 0,24000 -23000,44000 -51000,44000 -28000,0 -51000,-20000 -51000,-44000 0,-24000 23000,-43000 51000,-43000zm778000 -621000c28000,0 51000,19000 51000,43000 0,24000 -23000,44000 -51000,44000 -28000,0 -51000,-20000 -51000,-44000 0,-24000 23000,-43000 51000,-43000zm-1023000 238000c28000,0 51000,20000 51000,44000 0,24000 -23000,43000 -51000,43000 -28000,0 -51000,-19000 -51000,-43000 0,-24000 23000,-44000 51000,-44000zm3991000 1159000c22000,7000 48000,1000 59000,-12000 11000,-14000 2000,-31000 -19000,-38000 -22000,-7000 -48000,-1000 -59000,12000 -11000,14000 -2000,31000 19000,38000zm148000 -83000c21000,7000 48000,1000 59000,-12000 1000,-3000 3000,-5000 3000,-7000 0,15000 20000,28000 44000,28000 24000,0 44000,-13000 44000,-28000 0,-16000 -20000,-28000 -44000,-28000 -21000,0 -38000,9000 -43000,22000 0,-10000 -9000,-20000 -24000,-25000 -21000,-7000 -48000,-1000 -59000,12000 -11000,14000 -2000,31000 20000,38000zm-250000 -264000c22000,7000 48000,2000 59000,-12000 11000,-14000 2000,-31000 -19000,-38000 -22000,-7000 -48000,-1000 -59000,13000 -11000,13000 -2000,30000 19000,37000zm-8000 -227000c22000,7000 48000,1000 59000,-12000 11000,-14000 2000,-31000 -19000,-38000 -22000,-7000 -48000,-1000 -59000,12000 -11000,14000 -2000,31000 19000,38000zm246000 -135000c22000,7000 48000,1000 59000,-12000 11000,-14000 2000,-31000 -19000,-38000 -22000,-7000 -48000,-1000 -59000,12000 -11000,14000 -3000,31000 19000,38000zm-199000 -441000c21000,7000 48000,2000 59000,-12000 11000,-14000 2000,-31000 -20000,-38000 -21000,-7000 -48000,-1000 -58000,13000 -11000,13000 -3000,30000 19000,37000zm-168000 171000c22000,7000 48000,1000 59000,-13000 11000,-13000 2000,-30000 -19000,-37000 -22000,-7000 -48000,-2000 -59000,12000 -11000,14000 -3000,31000 19000,38000zm-588000 -12000c22000,7000 48000,1000 59000,-13000 11000,-14000 2000,-30000 -19000,-37000 -22000,-7000 -48000,-2000 -59000,12000 -11000,14000 -2000,31000 19000,38000zm108000 -374000c21000,7000 48000,2000 58000,-12000 11000,-14000 3000,-30000 -19000,-37000 -21000,-7000 -48000,-2000 -59000,12000 -11000,14000 -2000,31000 20000,37000zm796000 938000c22000,7000 48000,1000 59000,-13000 11000,-14000 2000,-30000 -20000,-37000 -21000,-7000 -47000,-2000 -58000,12000 -11000,14000 -3000,31000 19000,38000zm-280000 301000c22000,7000 48000,2000 59000,-12000 11000,-14000 2000,-31000 -19000,-38000 -22000,-7000 -48000,-1000 -59000,13000 -11000,13000 -2000,30000 19000,37000zm-74000 418000c47000,15000 104000,3000 128000,-27000 23000,-30000 4000,-66000 -42000,-82000 -47000,-15000 -104000,-3000 -128000,27000 -24000,30000 -5000,67000 42000,82000zm-126000 114000c22000,7000 48000,1000 59000,-13000 11000,-14000 2000,-30000 -19000,-37000 -22000,-7000 -48000,-2000 -59000,12000 -11000,14000 -2000,31000 19000,38000zm-12000 -151000c22000,7000 48000,2000 59000,-12000 11000,-14000 2000,-31000 -19000,-38000 -22000,-7000 -48000,-1000 -59000,13000 -11000,13000 -2000,30000 19000,37000zm321000 -136000c22000,7000 48000,1000 59000,-13000 11000,-14000 2000,-30000 -19000,-37000 -22000,-7000 -48000,-2000 -59000,12000 -11000,14000 -2000,31000 19000,38000zm-509000 -939000c22000,7000 48000,2000 59000,-12000 11000,-14000 3000,-31000 -19000,-38000 -22000,-7000 -48000,-1000 -59000,13000 -11000,14000 -2000,30000 19000,37000zm313000 -777000c22000,7000 48000,2000 59000,-12000 11000,-14000 2000,-31000 -19000,-38000 -22000,-7000 -48000,-1000 -59000,13000 -11000,13000 -2000,30000 19000,37000zm-429000 -243000c21000,7000 48000,1000 59000,-12000 11000,-14000 2000,-31000 -20000,-38000 -21000,-7000 -47000,-2000 -58000,12000 -11000,14000 -3000,31000 19000,38000zm-391000 -158000c22000,7000 48000,2000 59000,-12000 11000,-14000 2000,-31000 -19000,-38000 -22000,-7000 -48000,-1000 -59000,13000 -11000,13000 -2000,30000 19000,37000zm120000 603000c21000,7000 48000,2000 59000,-12000 11000,-14000 2000,-30000 -20000,-37000 -21000,-7000 -48000,-2000 -59000,12000 -10000,14000 -2000,30000 20000,37000zm224000 183000c21000,7000 48000,1000 59000,-13000 11000,-13000 2000,-30000 -20000,-37000 -21000,-7000 -48000,-2000 -59000,12000 -10000,14000 -2000,31000 20000,38000zm-260000 173000c40000,13000 88000,3000 107000,-22000 20000,-25000 5000,-56000 -35000,-69000 -39000,-12000 -87000,-2000 -107000,23000 -19000,25000 -4000,55000 35000,68000zm675000 -295000c36000,11000 80000,2000 99000,-21000 18000,-23000 3000,-51000 -33000,-62000 -36000,-12000 -80000,-3000 -98000,20000 -18000,23000 -4000,51000 32000,63000zm-60000 190000c47000,15000 104000,3000 128000,-27000 23000,-30000 5000,-67000 -42000,-82000 -47000,-15000 -104000,-3000 -128000,27000 -23000,30000 -5000,66000 42000,82000zm-347000 -322000c70000,23000 156000,5000 191000,-40000 36000,-45000 8000,-99000 -62000,-122000 -70000,-23000 -156000,-5000 -192000,40000 -35000,45000 -7000,100000 63000,122000zm-2943000 393000c28000,0 50000,19000 50000,43000 0,24000 -22000,44000 -50000,44000 -28000,0 -51000,-20000 -51000,-44000 0,-24000 23000,-43000 51000,-43000zm169000 441000c28000,0 51000,19000 51000,43000 0,24000 -23000,43000 -51000,43000 -28000,0 -51000,-19000 -51000,-43000 0,-24000 23000,-43000 51000,-43000zm-516000 -268000c28000,0 51000,20000 51000,44000 0,24000 -23000,43000 -51000,43000 -28000,0 -51000,-19000 -51000,-43000 0,-24000 23000,-44000 51000,-44000zm-169000 174000c28000,0 50000,19000 50000,43000 0,24000 -22000,43000 -50000,43000 -28000,0 -51000,-19000 -51000,-43000 0,-24000 23000,-43000 51000,-43000zm4726000 540000c24000,0 44000,12000 44000,28000 0,15000 -20000,28000 -44000,28000 -24000,0 -44000,-13000 -44000,-28000 0,-16000 20000,-28000 44000,-28000zm73000 116000c24000,0 44000,13000 44000,28000 0,16000 -20000,28000 -44000,28000 -24000,0 -44000,-12000 -44000,-28000 0,-15000 20000,-28000 44000,-28000zm-409000 164000c24000,0 44000,12000 44000,28000 0,15000 -20000,28000 -44000,28000 -24000,0 -44000,-13000 -44000,-28000 0,-16000 20000,-28000 44000,-28000zm-168000 200000c24000,0 44000,13000 44000,28000 0,16000 -20000,28000 -44000,28000 -24000,0 -44000,-12000 -44000,-28000 0,-15000 20000,-28000 44000,-28000zm124000 192000c25000,0 44000,12000 44000,28000 0,15000 -19000,28000 -44000,28000 -24000,0 -44000,-13000 -44000,-28000 0,-16000 20000,-28000 44000,-28000zm-489000 335000c24000,0 44000,13000 44000,28000 0,16000 -20000,28000 -44000,28000 -24000,0 -44000,-12000 -44000,-28000 0,-15000 20000,-28000 44000,-28000zm-29000 -200000c24000,0 44000,12000 44000,28000 0,15000 -20000,28000 -44000,28000 -24000,0 -44000,-13000 -44000,-28000 0,-16000 20000,-28000 44000,-28000zm-533000 -159000c24000,0 44000,13000 44000,28000 0,16000 -20000,28000 -44000,28000 -24000,0 -44000,-12000 -44000,-28000 0,-15000 20000,-28000 44000,-28000zm-168000 364000c24000,0 44000,13000 44000,28000 0,16000 -20000,28000 -44000,28000 -24000,0 -44000,-12000 -44000,-28000 0,-15000 20000,-28000 44000,-28000zm-2476000 -1690000c47000,0 85000,33000 85000,73000 0,40000 -38000,72000 -85000,72000 -47000,0 -85000,-32000 -85000,-72000 0,-40000 38000,-73000 85000,-73000zm-347000 109000c61000,0 110000,42000 110000,94000 0,14000 -3000,27000 -10000,39000 6000,-2000 12000,-3000 19000,-3000 28000,0 50000,19000 50000,43000 0,24000 -22000,44000 -50000,44000 -29000,0 -51000,-20000 -51000,-44000 0,-2000 0,-4000 0,-6000 -18000,13000 -42000,21000 -68000,21000 -61000,0 -110000,-42000 -110000,-94000 0,-52000 49000,-94000 110000,-94000zm-144000 368000c61000,0 110000,42000 110000,94000 0,52000 -49000,94000 -110000,94000 -60000,0 -110000,-42000 -110000,-94000 0,-52000 50000,-94000 110000,-94000zm4340000 607000c24000,0 43000,12000 43000,28000 0,15000 -19000,28000 -43000,28000 -25000,0 -44000,-13000 -44000,-28000 0,-16000 19000,-28000 44000,-28000zm192000 -744000c52000,0 95000,27000 95000,60000 0,34000 -43000,61000 -95000,61000 -52000,0 -95000,-27000 -95000,-61000 0,-33000 43000,-60000 95000,-60000zm-32000 -138000c25000,0 44000,12000 44000,28000 0,15000 -19000,28000 -44000,28000 -24000,0 -44000,-13000 -44000,-28000 0,-16000 20000,-28000 44000,-28000zm-117000 131000c25000,0 44000,12000 44000,28000 0,15000 -19000,28000 -44000,28000 -24000,0 -43000,-13000 -43000,-28000 0,-16000 19000,-28000 43000,-28000zm190000 214000c25000,0 44000,13000 44000,28000 0,16000 -19000,28000 -44000,28000 -24000,0 -44000,-12000 -44000,-28000 0,-15000 20000,-28000 44000,-28000zm-1117000 691000c24000,0 44000,12000 44000,28000 0,15000 -20000,28000 -44000,28000 -24000,0 -44000,-13000 -44000,-28000 0,-16000 20000,-28000 44000,-28000zm-270000 783000c24000,0 44000,13000 44000,28000 0,16000 -20000,28000 -44000,28000 -24000,0 -44000,-12000 -44000,-28000 0,-15000 20000,-28000 44000,-28000zm-555000 94000c24000,0 44000,12000 44000,28000 0,15000 -20000,27000 -44000,27000 -24000,0 -44000,-12000 -44000,-27000 0,-16000 20000,-28000 44000,-28000zm-460000 28000c24000,0 44000,12000 44000,27000 0,16000 -20000,28000 -44000,28000 -24000,0 -44000,-12000 -44000,-28000 0,-15000 20000,-27000 44000,-27000zm533000 -504000c24000,0 44000,12000 44000,28000 0,15000 -20000,28000 -44000,28000 -24000,0 -44000,-13000 -44000,-28000 0,-16000 20000,-28000 44000,-28000zm329000 -98000c24000,0 43000,12000 43000,28000 0,15000 -19000,28000 -43000,28000 -25000,0 -44000,-13000 -44000,-28000 0,-16000 19000,-28000 44000,-28000zm-109000 -230000c44000,0 79000,23000 79000,51000 0,28000 -35000,51000 -79000,51000 -44000,0 -80000,-23000 -80000,-51000 0,-28000 36000,-51000 80000,-51000zm393000 458000c41000,0 73000,21000 73000,47000 0,26000 -32000,47000 -73000,47000 -40000,0 -73000,-21000 -73000,-47000 0,-26000 33000,-47000 73000,-47000z"/>
 </g>
</svg>