<svg xmlns="http://www.w3.org/2000/svg" id="ba6df836-f1c2-45ba-9735-205c4bb90169" data-name="Layer 1" viewBox="0 0 68.69 68.4"><script xmlns="" id="eppiocemhmnlbhjplcgkofciiegomcon"/><script xmlns=""/><script xmlns=""/><defs><style>.f12c1d03-8d48-4d70-a3ff-1b7ae86dbc02{fill:#00a54e;opacity:0;}.bce4bfc6-a4d1-49f4-8416-c6a7703141e6{fill:none;stroke:#fff;stroke-linecap:round;stroke-linejoin:round;stroke-width:1.5px;}</style></defs><title>Antirreflexo_Reflexo</title><rect class="f12c1d03-8d48-4d70-a3ff-1b7ae86dbc02" width="68.69" height="68.4"/><path class="bce4bfc6-a4d1-49f4-8416-c6a7703141e6" d="M294.89,384.72c3.38-2.8,8.88-4.05,15.11-4.81,11.08-1.28,20.73,2.15,22,12.07s-6.72,19-17.77,20.33a19.42,19.42,0,0,1-10.7-2" transform="translate(-272.11 -361.51)"/><path class="bce4bfc6-a4d1-49f4-8416-c6a7703141e6" d="M288.08,377.38c0,10.43,2.28,12.76,12.53,12.76-10.19,0-12.53,2.32-12.53,12.75,0-10.43-2.25-12.75-12.5-12.75,10.25,0,12.5-2.33,12.5-12.76Z" transform="translate(-272.11 -361.51)"/><path class="bce4bfc6-a4d1-49f4-8416-c6a7703141e6" d="M299.7,395.61c0,5.61,1.28,6.89,6.77,6.89-5.58,0-6.77,1.27-6.77,6.91,0-5.64-1.28-6.91-6.78-6.91,5.5.08,6.78-1.19,6.78-6.89Z" transform="translate(-272.11 -361.51)"/></svg>