<svg xmlns="http://www.w3.org/2000/svg" xmlns:xlink="http://www.w3.org/1999/xlink" xml:space="preserve" width="285px" height="285px" version="1.1" style="shape-rendering:geometricPrecision; text-rendering:geometricPrecision; image-rendering:optimizeQuality; fill-rule:evenodd; clip-rule:evenodd" viewBox="0 0 41405000 41405000"><script xmlns="" id="eppiocemhmnlbhjplcgkofciiegomcon"/><script xmlns=""/><script xmlns=""/>
 <defs>
  <style type="text/css">
   <![CDATA[
    .str0 {stroke:white;stroke-width:908000;stroke-linecap:round;stroke-linejoin:round;stroke-miterlimit:22.9256}
    .fil1 {fill:none}
    .fil2 {fill:#FEFEFE}
    .fil0 {fill:#00A859;fill-opacity:0.000000}
   ]]>
  </style>
 </defs>
 <g id="Layer_x0020_1">
  <metadata id="CorelCorpID_0Corel-Layer"/>
  <polygon class="fil0" points="0,0 41405000,0 41405000,41405000 0,41405000 "/>
  <path class="fil1 str0" d="M11219000 26553000c-2015000,-1953000 -3391000,-4411000 -3733000,-6918000 -817000,-6031000 4859000,-7896000 12124000,-8689000 7219000,-794000 13485000,1309000 14302000,7300000 737000,5435000 -3394000,10419000 -9534000,11932000"/>
  <path class="fil2" d="M19240000 22395000c-155000,382000 1485000,326000 1897000,2276000 283000,1333000 -255000,3527000 -1246000,4728000 -971000,1176000 -2931000,1668000 -3959000,271000 -43000,-58000 -172000,-252000 -226000,-274000 -74000,-30000 -567000,-16000 196000,717000 602000,578000 1354000,884000 2188000,702000 1175000,-256000 2230000,-1063000 2726000,-2286000 544000,-1338000 884000,-2409000 670000,-3852000 -238000,-1596000 -2085000,-2679000 -2246000,-2282000zm-7262000 6699000l-90000 223000c152000,109000 107000,161000 712000,12000 102000,-25000 180000,-47000 276000,-77000 100000,-31000 173000,-45000 272000,-82000 240000,-91000 832000,-371000 984000,-586000 122000,92000 90000,199000 154000,396000 236000,725000 658000,1394000 1273000,1863000 1083000,823000 2152000,958000 3358000,475000 231000,-93000 481000,-239000 710000,-286000 185000,891000 1301000,2338000 1509000,1824000 61000,-150000 -53000,-178000 -184000,-261000 -115000,-74000 -156000,-124000 -251000,-233000 -331000,-377000 -464000,-654000 -656000,-1107000 -204000,-480000 -115000,-533000 -341000,-625000 -111000,-45000 -106000,11000 -192000,56000 -1025000,543000 -2140000,845000 -3280000,211000 -898000,-501000 -1663000,-1521000 -1737000,-2466000 -17000,-227000 76000,-361000 -85000,-426000 -220000,-90000 -285000,388000 -1133000,741000 -498000,207000 -737000,291000 -1299000,348000zm4042000 -5800000l130000 102000c341000,-77000 357000,-574000 1531000,-1196000 536000,-284000 1288000,-391000 2059000,-77000 1141000,463000 1653000,1362000 1909000,2208000 179000,591000 190000,750000 244000,1405000 20000,247000 20000,496000 13000,733000 -14000,494000 -150000,668000 86000,764000 466000,189000 265000,-2733000 -308000,-3716000 -504000,-865000 -841000,-1293000 -1935000,-1737000 -781000,-317000 -1481000,-188000 -2172000,102000 -268000,112000 -645000,369000 -868000,567000 -223000,197000 -641000,542000 -689000,845000zm-4073000 7475000c-29000,71000 6000,175000 51000,193000 188000,77000 417000,-80000 780000,-192000 1181000,-366000 1561000,-293000 2420000,533000 764000,735000 755000,804000 1959000,873000 595000,34000 700000,-46000 1280000,189000 388000,158000 479000,912000 657000,1046000l191000 -60000c57000,-325000 -282000,-1253000 -1062000,-1420000 -550000,-118000 -1595000,-41000 -2031000,-217000 -285000,-116000 -739000,-619000 -933000,-806000 -274000,-264000 -657000,-578000 -1100000,-658000 -609000,-110000 -2143000,348000 -2212000,519000zm8919000 -8968000c68000,329000 695000,467000 1189000,1467000 138000,279000 245000,542000 325000,847000 46000,175000 69000,269000 97000,451000 130000,834000 3000,1618000 -87000,2498000 -127000,1249000 569000,2048000 740000,1626000 88000,-216000 -262000,-219000 -385000,-822000 -71000,-351000 -40000,-609000 -1000,-984000 164000,-1597000 295000,-3161000 -918000,-4535000 -181000,-205000 -498000,-549000 -773000,-689000 -116000,79000 -96000,20000 -187000,141000zm-5269000 4133000c-263000,648000 -200000,1599000 -31000,2075000 378000,1066000 1304000,1756000 2409000,1661000 568000,-49000 1166000,-366000 1581000,-775000 123000,-121000 590000,-632000 652000,-786000 25000,-61000 -58000,-163000 -88000,-208000 -295000,29000 -192000,110000 -639000,599000 -380000,416000 -873000,748000 -1432000,836000 -683000,108000 -1341000,-211000 -1794000,-726000 -485000,-549000 -618000,-1536000 -437000,-2246000 190000,-744000 -218000,-436000 -221000,-430000zm2078000 -324000c-34000,86000 -96000,221000 58000,283000 340000,138000 306000,-1000000 1135000,-664000 456000,185000 -77000,2348000 -852000,2935000 -649000,491000 -1267000,316000 -1295000,-366000 -13000,-317000 -240000,-313000 -292000,-185000 -243000,601000 536000,1649000 1674000,903000 964000,-631000 1732000,-3240000 923000,-3569000l-186000 -75000c-488000,-198000 -961000,236000 -1165000,738000zm4899000 -4500000c38000,183000 115000,209000 259000,352000 520000,517000 777000,1235000 1019000,1908000 310000,866000 345000,1791000 234000,2732000 -39000,327000 -107000,700000 -193000,1035000 -87000,341000 -304000,918000 -105000,998000 214000,87000 252000,-218000 287000,-366000 44000,-190000 107000,-394000 143000,-554000 236000,-1039000 359000,-2112000 162000,-3114000 -81000,-415000 -367000,-1409000 -584000,-1784000 -89000,-154000 -129000,-246000 -221000,-399000 -194000,-320000 -326000,-499000 -591000,-767000 -154000,-156000 -248000,-270000 -410000,-41000zm-10237000 10509000c278000,113000 1163000,-436000 1988000,-101000 874000,355000 178000,1073000 2466000,1322000 1943000,212000 1562000,828000 2241000,935000 175000,-247000 63000,-285000 -294000,-552000 -701000,-524000 -866000,-598000 -1865000,-699000 -2213000,-222000 -1277000,-836000 -2539000,-1349000 -656000,-266000 -1965000,128000 -2038000,205000 -53000,55000 -91000,186000 41000,239000zm5141000 -12448000c-68000,167000 101000,218000 233000,195000 242000,-42000 444000,-130000 794000,-168000 1440000,-155000 2643000,159000 3785000,1109000 364000,303000 735000,822000 849000,903000l209000 -89000c-28000,-278000 -136000,-316000 -330000,-537000 -998000,-1140000 -2441000,-1786000 -3962000,-1756000 -261000,6000 -1483000,109000 -1578000,343000zm-5465000 8985000c10000,101000 16000,137000 36000,231000 745000,118000 2057000,-615000 2590000,-1371000 25000,113000 -23000,687000 45000,1119000 57000,358000 114000,760000 338000,1027000l209000 -88000c17000,-139000 -111000,-382000 -166000,-638000 -113000,-524000 -111000,-1256000 -47000,-1796000 28000,-229000 34000,-179000 -93000,-329000 -335000,69000 -609000,779000 -1320000,1244000 -359000,235000 -759000,395000 -1180000,484000 -196000,41000 -249000,7000 -412000,117000zm4927000 -2758000c-50000,122000 147000,167000 229000,180000 182000,-165000 475000,-957000 1189000,-1193000 788000,-261000 1717000,580000 1182000,2068000 -231000,641000 -193000,637000 70000,678000 510000,-722000 769000,-2500000 -505000,-3017000 -531000,-215000 -920000,-76000 -1282000,171000 -291000,199000 -700000,661000 -883000,1113000zm-1341000 -2664000c-55000,134000 -26000,100000 -2000,216000 282000,88000 390000,-270000 942000,-757000 169000,-149000 306000,-254000 487000,-377000 98000,-67000 142000,-93000 243000,-154000 120000,-71000 161000,-80000 276000,-146000 121000,-70000 118000,-80000 258000,-119000 537000,-148000 893000,-292000 1559000,-169000 202000,37000 565000,222000 651000,10000 137000,-337000 -1505000,-741000 -2971000,178000 -382000,239000 -1288000,934000 -1443000,1318000zm3348000 278000c-167000,410000 1780000,246000 1415000,2909000 -90000,654000 -329000,1040000 -172000,1273000 364000,45000 438000,-807000 480000,-1095000 56000,-390000 92000,-856000 34000,-1215000 -165000,-1029000 -551000,-1556000 -1548000,-1961000 -87000,-35000 -174000,2000 -209000,89000zm-1491000 -2509000c78000,228000 -2000,228000 659000,102000 1080000,-206000 2042000,70000 2915000,757000 530000,418000 690000,892000 848000,504000 122000,-301000 -1201000,-1180000 -1690000,-1379000 -627000,-254000 -1258000,-340000 -1857000,-243000 -116000,19000 -205000,23000 -320000,43000 -230000,39000 -445000,60000 -555000,216000zm2555000 9690000c-54000,132000 147000,430000 655000,-270000l533000 -632000c-37000,297000 482000,1690000 970000,2116000 122000,107000 157000,88000 292000,-3000 41000,-258000 -188000,-276000 -568000,-960000 -272000,-488000 -342000,-1415000 -590000,-1532000 -382000,-180000 -811000,766000 -1084000,1045000 -90000,92000 -156000,108000 -208000,236000zm-7191000 1622000c-112000,277000 974000,1477000 1666000,1758000 390000,159000 489000,166000 862000,220000 442000,64000 611000,200000 700000,-18000 208000,-513000 -1173000,158000 -2438000,-1278000 -326000,-370000 -641000,-1048000 -790000,-682000zm1482000 -8872000c-66000,164000 -82000,183000 73000,246000 185000,75000 242000,-170000 331000,-310000 219000,-346000 672000,-857000 943000,-1119000l1010000 -887000c3000,-3000 649000,-344000 284000,-492000 -295000,-120000 -2309000,1746000 -2641000,2562000zm2862000 3714000c-474000,1167000 196000,1565000 290000,1252000 31000,-101000 -372000,-608000 139000,-1328000 233000,-328000 799000,-561000 357000,482000 -60000,143000 -151000,305000 -104000,417000 50000,117000 229000,130000 281000,1000 213000,-524000 598000,-1228000 -7000,-1474000 -363000,-147000 -802000,269000 -956000,650000zm3501000 -6279000c-143000,351000 866000,299000 1757000,1596000l606000 912000c117000,51000 310000,-56000 167000,-315000 -527000,-950000 -1250000,-1846000 -2321000,-2281000 -87000,-35000 -174000,1000 -209000,88000zm-5007000 3808000c46000,-115000 -6000,-133000 -103000,-172000 -181000,-73000 -390000,298000 -699000,530000 -719000,541000 -551000,500000 -1481000,937000 -399000,187000 -794000,169000 -688000,421000 205000,484000 2741000,-1151000 2971000,-1716000zm539000 910000c-128000,314000 -200000,389000 124000,440000 316000,-448000 327000,-797000 1044000,-1315000 280000,-202000 655000,-431000 1002000,-469000 275000,-31000 303000,48000 376000,-131000 243000,-601000 -1984000,92000 -2546000,1475000zm5404000 2887000c-179000,441000 495000,1896000 740000,2364000 47000,88000 239000,464000 314000,510000 109000,67000 289000,28000 222000,-214000 -1000,-1000 -90000,-174000 -91000,-176000l-529000 -1039000c-64000,-150000 -70000,-199000 -119000,-349000 -96000,-295000 -164000,-393000 -220000,-769000 -20000,-135000 12000,-324000 -124000,-379000 -71000,-29000 -175000,6000 -193000,52000zm-8872000 -3083000c71000,207000 -9000,126000 141000,187000 86000,35000 661000,-171000 770000,-217000 597000,-252000 1230000,-699000 1641000,-1219000 127000,-160000 180000,-190000 54000,-375000 -410000,-65000 -268000,616000 -1907000,1313000 -141000,61000 -191000,85000 -346000,127000 -223000,61000 -260000,52000 -353000,184000zm1360000 7733000c-99000,242000 174000,287000 518000,427000 365000,148000 2261000,505000 2359000,265000 155000,-382000 -533000,-212000 -1318000,-350000 -503000,-89000 -770000,-115000 -1253000,-352000 -112000,-56000 -239000,-157000 -306000,10000zm-431000 -8957000l0 0c105000,-256000 275000,-373000 383000,-623000l-95000 -176000c-264000,31000 -262000,123000 -583000,611000 -169000,258000 -385000,521000 -430000,803000 226000,169000 277000,67000 466000,-62000 161000,-111000 296000,-177000 469000,-276000 164000,-94000 283000,-156000 448000,-249000 180000,-103000 394000,-240000 51000,-389000 -71000,-5000 -545000,328000 -709000,361000zm-1273000 3031000c-320000,788000 3130000,-936000 2477000,-1201000 -175000,-71000 -302000,97000 -633000,323000 -179000,123000 -400000,270000 -586000,361000 -428000,209000 -466000,250000 -951000,369000 -104000,26000 -262000,38000 -307000,148000zm10670000 -3585000c-53000,130000 92000,442000 172000,666000 282000,780000 262000,1851000 380000,2024000 180000,29000 256000,-18000 258000,-197000 0,-49000 -14000,-128000 -17000,-182000 -3000,-78000 4000,-135000 -3000,-214000 -49000,-521000 -314000,-2033000 -634000,-2163000 -85000,-35000 -121000,-19000 -156000,66000zm-3704000 -3450000c-3000,-9000 -2000,-33000 -8000,-28000 -14000,14000 -14000,-42000 -20000,-53000 -60000,-103000 91000,-24000 -113000,-106000 -661000,-269000 -1750000,193000 -2362000,456000 -287000,124000 -191000,433000 150000,282000 638000,-284000 1312000,-525000 2028000,-447000 178000,20000 221000,33000 325000,-104000zm-5224000 2637000c215000,88000 221000,-106000 482000,-462000 263000,-359000 554000,-691000 880000,-975000 128000,-112000 391000,-316000 486000,-451000 -141000,-209000 -101000,-318000 -558000,61000 -238000,198000 -1706000,1659000 -1290000,1827000zm2158000 1612000c-47000,114000 6000,132000 103000,172000 145000,59000 441000,-386000 789000,-682000 215000,-183000 629000,-458000 886000,-525000 83000,-21000 283000,-45000 342000,-76000 365000,-193000 -150000,-596000 -1174000,145000 -227000,164000 -819000,651000 -946000,966000zm-4453000 6066000l60000 190000c432000,78000 1990000,-337000 2116000,-648000 27000,-67000 16000,-350000 -335000,-137000l-1298000 424000c-272000,42000 -427000,16000 -543000,171000zm5405000 4054000c-156000,384000 1090000,323000 1212000,319000 189000,-7000 936000,-69000 1006000,-240000 64000,-157000 -56000,-264000 -326000,-190000 -260000,72000 -513000,89000 -790000,98000 -569000,19000 -1021000,-185000 -1102000,13000zm3497000 -4031000c-78000,192000 45000,622000 106000,817000 47000,152000 38000,117000 115000,259000 90000,165000 180000,302000 311000,453000 191000,219000 528000,656000 657000,338000 100000,-246000 -655000,-468000 -844000,-1397000 -56000,-278000 -12000,-464000 -151000,-521000 -72000,-29000 -175000,6000 -194000,51000zm-4381000 -610000c-309000,-126000 -377000,366000 488000,717000 346000,140000 735000,177000 1079000,152000 195000,-15000 153000,-1000 290000,-116000l-77000 -213000c-283000,-34000 -366000,78000 -933000,-63000 -232000,-58000 -243000,-62000 -451000,-183000 -190000,-110000 -277000,-246000 -396000,-294000zm4051000 3980000c75000,-185000 -194000,-290000 -337000,-411000 -682000,-574000 -672000,-1210000 -912000,-1307000 -209000,-85000 -274000,131000 -91000,469000 101000,189000 188000,372000 314000,544000 74000,102000 859000,1117000 1026000,705000zm-3783000 368000c-35000,87000 1000,173000 88000,209000 108000,44000 357000,-104000 460000,-149000 1155000,-494000 1306000,380000 1469000,-20000 98000,-241000 -506000,-637000 -1249000,-408000 -164000,51000 -702000,206000 -768000,368000zm2660000 -6231000c-112000,274000 -139000,550000 -518000,887000 -139000,124000 -844000,463000 -480000,611000 416000,169000 1678000,-1352000 1191000,-1549000 -71000,-30000 -175000,5000 -193000,51000zm958000 3287000c-169000,416000 1066000,2085000 1194000,1494000 28000,-128000 -73000,-178000 -148000,-244000 -150000,-131000 -314000,-322000 -411000,-472000 -110000,-173000 -194000,-334000 -271000,-532000 -40000,-103000 -47000,-209000 -97000,-272000 -72000,-93000 -211000,-113000 -267000,26000zm3264000 -2179000l-265000 758000c-64000,159000 -545000,726000 -156000,725000 265000,-1000 709000,-1024000 714000,-1332000 5000,-240000 -143000,-182000 -293000,-151000zm-7296000 -2702000l-194000 759000c-31000,264000 -94000,551000 105000,632000 303000,123000 113000,-533000 386000,-1231000 55000,-142000 159000,-235000 -58000,-323000 -114000,-46000 -192000,49000 -239000,163000zm3353000 -6340000c-75000,186000 143000,217000 282000,238000 546000,80000 891000,329000 1071000,339000 216000,12000 232000,-236000 89000,-294000 -275000,-112000 -1315000,-595000 -1442000,-283000zm-6895000 7713000c-182000,447000 750000,6000 821000,-23000 192000,-80000 520000,-245000 633000,-468000l-298000 -120000c-431000,362000 -1083000,430000 -1156000,611000zm974000 4419000c-40000,101000 -24000,110000 -38000,201000 93000,66000 350000,131000 714000,345000 190000,112000 361000,311000 468000,48000 93000,-231000 -1061000,-797000 -1144000,-594000z"/>
 </g>
</svg>