<svg xmlns="http://www.w3.org/2000/svg" id="ac01cabe-8974-4c6e-a534-ecfc29050016" data-name="Layer 1" viewBox="0 0 68.69 68.4"><script xmlns="" id="eppiocemhmnlbhjplcgkofciiegomcon"/><script xmlns=""/><script xmlns=""/><defs><style>.eeab434a-c7e1-4f94-a4da-2c68a09d8265{fill:#00a54e;opacity:0;}.b6924a45-e1dd-4c89-b6b5-046d2b32a15f{fill:none;stroke:#fff;stroke-linecap:round;stroke-linejoin:round;stroke-width:1.5px;}</style></defs><title>Antirreflexo_Agua</title><rect class="eeab434a-c7e1-4f94-a4da-2c68a09d8265" width="68.69" height="68.4"/><path class="b6924a45-e1dd-4c89-b6b5-046d2b32a15f" d="M293.52,407.68c-4.84-3.43-8.28-8.53-9-13.74-1.33-9.95,8.06-13,20.13-14.35s22.38,2.16,23.71,12.05-7.23,19-19.27,20.33a21.49,21.49,0,0,1-9.17-1" transform="translate(-272.11 -361.51)"/><path class="b6924a45-e1dd-4c89-b6b5-046d2b32a15f" d="M300.18,408.9c0,3.29-1.51,4.65-3.39,4.65s-3.38-1.36-3.38-4.65,3.38-7,3.38-7.2,3.39,3.89,3.39,7.2Z" transform="translate(-272.11 -361.51)"/><path class="b6924a45-e1dd-4c89-b6b5-046d2b32a15f" d="M294.6,389.49c0,2-.91,2.83-2.05,2.83s-2-.82-2-2.83,2-4.28,2-4.43,2.05,2.39,2.05,4.43Z" transform="translate(-272.11 -361.51)"/><path class="b6924a45-e1dd-4c89-b6b5-046d2b32a15f" d="M312.31,399c0,3.74-1.74,5.3-3.84,5.3s-3.85-1.56-3.85-5.3,3.85-8.05,3.85-8.19,3.84,4.42,3.84,8.19Z" transform="translate(-272.11 -361.51)"/></svg>