<svg xmlns="http://www.w3.org/2000/svg" xmlns:xlink="http://www.w3.org/1999/xlink" xmlns:xodm="http://www.corel.com/coreldraw/odm/2003" xml:space="preserve" width="2700px" height="457px" version="1.1" style="shape-rendering:geometricPrecision; text-rendering:geometricPrecision; image-rendering:optimizeQuality; fill-rule:evenodd; clip-rule:evenodd" viewBox="0 0 3138.02 531.42"><script xmlns="" id="eppiocemhmnlbhjplcgkofciiegomcon"/><script xmlns=""/><script xmlns=""/>
 <defs>
  <style type="text/css">
   <![CDATA[
    .str6 {stroke:#373435;stroke-width:9.69;stroke-miterlimit:22.9256}
    .str4 {stroke:#373435;stroke-width:9.69;stroke-miterlimit:22.9256}
    .str5 {stroke:#373435;stroke-width:9.69;stroke-linecap:round;stroke-miterlimit:22.9256}
    .str1 {stroke:#373435;stroke-width:8.79;stroke-miterlimit:22.9256}
    .str3 {stroke:#373435;stroke-width:8.79;stroke-miterlimit:22.9256}
    .str0 {stroke:black;stroke-width:1.76;stroke-miterlimit:10}
    .str2 {stroke:#373435;stroke-width:8.79;stroke-linecap:round;stroke-miterlimit:22.9256}
    .str7 {stroke:black;stroke-width:8.79;stroke-linecap:round;stroke-linejoin:round;stroke-miterlimit:22.9256}
    .str8 {stroke:black;stroke-width:8.79;stroke-linecap:round;stroke-linejoin:round;stroke-miterlimit:22.9256}
    .str10 {stroke:black;stroke-width:8.79;stroke-linecap:round;stroke-linejoin:round;stroke-miterlimit:22.9256}
    .str13 {stroke:black;stroke-width:8.79;stroke-linecap:round;stroke-linejoin:round;stroke-miterlimit:22.9256}
    .str14 {stroke:black;stroke-width:8.79;stroke-linecap:round;stroke-linejoin:round;stroke-miterlimit:22.9256}
    .str11 {stroke:black;stroke-width:8.79;stroke-linecap:round;stroke-linejoin:round;stroke-miterlimit:22.9256}
    .str12 {stroke:black;stroke-width:8.79;stroke-linecap:round;stroke-linejoin:round;stroke-miterlimit:22.9256}
    .str9 {stroke:black;stroke-width:8.79;stroke-linecap:round;stroke-linejoin:round;stroke-miterlimit:22.9256}
    .str15 {stroke:black;stroke-width:8.79;stroke-linecap:round;stroke-linejoin:round;stroke-miterlimit:22.9256}
    .fil2 {fill:none}
    .fil4 {fill:none;fill-rule:nonzero}
    .fil5 {fill:#373435}
    .fil3 {fill:#373435;fill-rule:nonzero}
    .fil1 {fill:#282828;fill-rule:nonzero}
    .fil6 {fill:black;fill-rule:nonzero}
    .fil0 {fill:#FEFEFE;fill-opacity:0.000000}
   ]]>
  </style>
 </defs>
 <g id="Layer_x0020_1">
  <metadata id="CorelCorpID_0Corel-Layer"/>
  <polygon class="fil0" points="0,0 3138.02,0 3138.02,531.42 0,531.42 "/>
  <g id="_1286525172528">
   <g>
    <path class="fil1 str0" d="M611.3 194.75l58.7 0c1.44,0 2.6,-1.17 2.6,-2.6 0,-1.44 -1.16,-2.59 -2.6,-2.59l-58.7 0c-1.43,0 -2.6,1.15 -2.6,2.59 0,1.43 1.17,2.6 2.6,2.6z"/>
    <path class="fil1 str0" d="M611.3 216.55l42.72 0c1.44,0 2.6,-1.17 2.6,-2.6 0,-1.44 -1.16,-2.59 -2.6,-2.59l-42.72 0c-1.43,0 -2.6,1.15 -2.6,2.59 0,1.43 1.17,2.6 2.6,2.6z"/>
    <path class="fil1 str0" d="M611.3 238.35l50.71 0c1.44,0 2.6,-1.15 2.6,-2.59 0,-1.43 -1.16,-2.6 -2.6,-2.6l-50.71 0c-1.43,0 -2.6,1.17 -2.6,2.6 0,1.44 1.17,2.59 2.6,2.59z"/>
    <path class="fil1 str0" d="M611.3 260.15l58.7 0c1.44,0 2.6,-1.15 2.6,-2.59 0,-1.43 -1.16,-2.6 -2.6,-2.6l-58.7 0c-1.43,0 -2.6,1.17 -2.6,2.6 0,1.44 1.17,2.59 2.6,2.59z"/>
    <path class="fil1 str0" d="M662.01 276.77l-50.71 0c-1.43,0 -2.6,1.16 -2.6,2.59 0,1.44 1.17,2.6 2.6,2.6l50.71 0c1.44,0 2.6,-1.16 2.6,-2.6 0,-1.43 -1.16,-2.59 -2.6,-2.59z"/>
    <path class="fil1 str0" d="M835.87 336.47l-82.22 0c-17.76,0 -34.41,7.68 -45.89,20.88l0 -12.31c8.45,-12.21 22.29,-19.5 37.18,-19.5l77.26 0c1.43,0 2.6,-1.16 2.6,-2.6l0 -139.56 11.07 0 0 153.09zm-179.18 0l-82.22 0 0 -153.09 11.07 0 0 139.56c0,1.44 1.17,2.6 2.6,2.6l77.25 0c14.9,0 28.74,7.29 37.18,19.49l0 12.32c-11.47,-13.2 -28.12,-20.88 -45.88,-20.88zm-65.95 -167.48l74.65 0c14.9,0 28.73,7.27 37.18,19.49l0 148.23c-9.46,-10.35 -22.89,-16.37 -37.18,-16.37l-74.65 0 0 -151.35zm154.2 0l74.66 0 0 151.35 -74.66 0c-14.29,0 -27.71,6.02 -37.18,16.37l0 -148.23c8.45,-12.22 22.29,-19.49 37.18,-19.49zm93.53 9.19l-13.67 0 0 -11.8c0,-1.43 -1.17,-2.59 -2.6,-2.59l-77.26 0c-15.65,0 -30.26,7.21 -39.77,19.46 -9.51,-12.25 -24.12,-19.46 -39.78,-19.46l-77.25 0c-1.43,0 -2.6,1.16 -2.6,2.59l0 11.8 -13.66 0c-1.44,0 -2.61,1.16 -2.61,2.6l0 158.29c0,1.43 1.17,2.59 2.61,2.59l84.81 0c18.66,0 35.97,9.27 46.32,24.8 0,0.01 0.01,0.02 0.02,0.03 0.04,0.06 0.08,0.12 0.13,0.17 0.03,0.04 0.07,0.09 0.11,0.13 0.04,0.04 0.08,0.09 0.13,0.13 0.06,0.05 0.11,0.1 0.17,0.14 0.04,0.04 0.08,0.07 0.13,0.11 0.09,0.06 0.19,0.11 0.28,0.17 0.04,0.02 0.09,0.03 0.13,0.05 0.08,0.03 0.15,0.06 0.22,0.09 0.03,0.01 0.06,0.03 0.09,0.03 0.02,0.01 0.04,0.01 0.07,0.02 0.07,0.02 0.14,0.03 0.22,0.04 0.03,0.01 0.07,0.02 0.1,0.02 0.12,0.02 0.24,0.04 0.36,0.04 0.12,0 0.23,-0.02 0.35,-0.04 0.04,0 0.07,-0.01 0.1,-0.02 0.08,-0.01 0.15,-0.02 0.23,-0.04 0.02,-0.01 0.04,-0.01 0.07,-0.02 0.02,0 0.05,-0.02 0.08,-0.03 0.07,-0.03 0.15,-0.06 0.23,-0.09 0.04,-0.02 0.08,-0.03 0.11,-0.05 0.11,-0.06 0.22,-0.12 0.32,-0.2 0.02,-0.01 0.03,-0.02 0.05,-0.03 0.08,-0.06 0.16,-0.13 0.24,-0.2 0.03,-0.03 0.05,-0.05 0.08,-0.09 0.06,-0.06 0.12,-0.13 0.18,-0.2 0.02,-0.02 0.05,-0.05 0.07,-0.09 0.01,-0.02 0.03,-0.04 0.05,-0.06 10.35,-15.54 27.67,-24.81 46.32,-24.81l84.82 0c1.43,0 2.6,-1.16 2.6,-2.59l0 -158.29c0,-1.44 -1.17,-2.6 -2.6,-2.6z"/>
    <path class="fil1 str0" d="M740.34 194.75l42.72 0c1.44,0 2.6,-1.17 2.6,-2.6 0,-1.44 -1.16,-2.59 -2.6,-2.59l-42.72 0c-1.44,0 -2.6,1.15 -2.6,2.59 0,1.43 1.16,2.6 2.6,2.6z"/>
    <path class="fil1 str0" d="M740.34 238.35l26.74 0c1.44,0 2.6,-1.15 2.6,-2.59 0,-1.43 -1.16,-2.6 -2.6,-2.6l-26.74 0c-1.44,0 -2.6,1.17 -2.6,2.6 0,1.44 1.16,2.59 2.6,2.59z"/>
    <path class="fil1 str0" d="M740.34 260.15l42.72 0c1.44,0 2.6,-1.15 2.6,-2.59 0,-1.43 -1.16,-2.6 -2.6,-2.6l-42.72 0c-1.44,0 -2.6,1.17 -2.6,2.6 0,1.44 1.16,2.59 2.6,2.59z"/>
    <path class="fil1 str0" d="M740.34 281.96l42.72 0c1.44,0 2.6,-1.16 2.6,-2.6 0,-1.43 -1.16,-2.59 -2.6,-2.59l-42.72 0c-1.44,0 -2.6,1.16 -2.6,2.59 0,1.44 1.16,2.6 2.6,2.6z"/>
   </g>
   <g>
    <path class="fil2 str1" d="M1063.11 336.35l-75.23 0c-4.01,0 -7.3,-3.28 -7.3,-7.29l0 -162.51c0,-4.01 3.29,-7.29 7.3,-7.29l86.77 0c4.01,0 7.29,3.28 7.29,7.29l0 140.26"/>
    <line class="fil2 str2" x1="1026.18" y1="322.35" x2="1036.34" y2="322.35"/>
    <path class="fil2 str3" d="M1090.35 371.94l0 -10.9c-11.96,-6.13 -22.11,-15.33 -29.73,-28.8 -12.42,-18.44 -22.2,-30.77 -27.49,-38.52 -3.37,-10.41 13.62,-16.78 22.82,-6.92 8.07,8.84 16.07,18.92 25.99,20.01l0 -46.94 16.12 8.29c27.39,15.16 30.62,75.96 34.33,104"/>
    <g>
     <path class="fil3" d="M1020.04 175.5c-2.42,0 -4.37,-1.97 -4.37,-4.39 0,-2.43 1.95,-4.4 4.37,-4.4l0 8.79zm22.44 0l-22.44 0 0 -8.79 22.44 0 0 8.79zm0 -8.79c2.42,0 4.38,1.97 4.38,4.4 0,2.42 -1.96,4.39 -4.38,4.39l0 -8.79z"/>
    </g>
   </g>
   <g id="_1286525174832">
    <path class="fil4 str4" d="M1572.9 315.06l0 -152.5c0,-2.08 -0.85,-3.97 -2.23,-5.35 -1.37,-1.37 -3.27,-2.23 -5.35,-2.23l-230 0c-2.09,0 -3.98,0.86 -5.36,2.23 -1.37,1.38 -2.22,3.27 -2.22,5.35l0 49.63"/>
    <path class="fil4 str4" d="M1389.83 335.5l35.11 0 50.13 0 90.25 0c2.08,0 3.98,-0.86 5.35,-2.23 1.38,-1.38 2.23,-3.27 2.23,-5.35l0 -25.71 -183.07 0"/>
    <path class="fil4 str4" d="M1429.58 335.5l-1.13 17.78c-0.36,3.09 -1.61,5.55 -3.35,7.6 -1.62,1.91 -3.61,3.4 -5.65,4.71l-0.39 0.21 -5.81 2.63c-1.94,0.99 -3.16,2.23 -3.65,3.45 -0.22,0.56 -0.28,1.1 -0.16,1.58 0.1,0.47 0.39,0.92 0.86,1.31 1.11,0.94 3.04,1.57 5.87,1.57l67.68 0c2.83,0 4.76,-0.63 5.87,-1.57 0.47,-0.39 0.75,-0.84 0.86,-1.31 0.11,-0.48 0.06,-1.02 -0.17,-1.58 -0.49,-1.22 -1.7,-2.46 -3.64,-3.45l-5.81 -2.63 -0.39 -0.21c-2.04,-1.31 -4.03,-2.8 -5.65,-4.71 -1.74,-2.05 -3,-4.51 -3.35,-7.6l-1.13 -17.78"/>
    <line class="fil2 str5" x1="1323.61" y1="358.94" x2="1338.12" y2="358.94"/>
    <line class="fil2 str5" x1="1443.06" y1="168.28" x2="1457.57" y2="168.28"/>
    <circle class="fil5 str4" cx="1330.87" cy="228.78" r="5.25"/>
    <rect class="fil2 str6" x="1271.91" y="212.19" width="117.93" height="164.24" rx="5.03" ry="3.53"/>
   </g>
   <g id="_1286525174928">
    <g>
     <path class="fil6" d="M2051.77 146.75l-339.35 0 0 -8.79 339.35 0 4.37 4.4 -4.37 4.39zm0 -8.79c2.41,0 4.37,1.97 4.37,4.4 0,2.42 -1.96,4.39 -4.37,4.39l0 -8.79zm-4.37 207.24l0 -202.84 8.74 0 0 202.84 -4.37 4.39 -4.37 -4.39zm8.74 0c0,2.43 -1.96,4.39 -4.37,4.39 -2.41,0 -4.37,-1.96 -4.37,-4.39l8.74 0zm-343.72 -4.39l339.35 0 0 8.78 -339.35 0 -4.37 -4.39 4.37 -4.39zm0 8.78c-2.41,0 -4.37,-1.96 -4.37,-4.39 0,-2.42 1.96,-4.39 4.37,-4.39l0 8.78zm4.37 -207.23l0 202.84 -8.74 0 0 -202.84 4.37 -4.4 4.37 4.4zm-8.74 0c0,-2.43 1.96,-4.4 4.37,-4.4 2.41,0 4.37,1.97 4.37,4.4l-8.74 0z"/>
    </g>
    <line class="fil2 str7" x1="1882.09" y1="364.78" x2="1882.09" y2="345.5"/>
    <path class="fil2 str8" d="M1759.24 389.07c4.02,-13.89 14.73,-20.3 31.56,-19.85l105.23 0m108.92 19.85c-4.02,-13.89 -14.73,-20.3 -31.56,-19.85l-105.23 0"/>
   </g>
   <g>
    <polyline class="fil2 str9" points="2221.18,354.45 2337.34,219.27 2417.89,219.27 2531.63,354.25 "/>
    <polyline class="fil2 str10" points="2273.1,354.45 2355.47,219.27 2400.4,219.27 2480.74,354.25 "/>
    <line class="fil2 str11" x1="2377.33" y1="354.45" x2="2377.13" y2="307.5"/>
    <line class="fil2 str12" x1="2377.33" y1="284.43" x2="2377.13" y2="266.22"/>
    <line class="fil2 str13" x1="2377.33" y1="248.82" x2="2377.13" y2="240.72"/>
    <line class="fil2 str14" x1="2377.33" y1="227.96" x2="2377.13" y2="219.86"/>
    <path class="fil2 str9" d="M2186.28 282.61c0.03,-16.83 2.6,-33.09 12.35,-47.76 5.35,-2.43 10.71,8.9 16.68,6.07 4.55,-19.81 9.91,-39.89 28.23,-49.38 6.74,0.2 15.15,14.85 20.84,9.71 7.95,-7.15 16.45,-14.56 25.6,-22.26 15.92,-11.18 31.44,27.01 47.15,40.52"/>
    <path class="fil2 str15" d="M2568.74 282.61c-0.02,-16.83 -2.59,-33.09 -12.34,-47.76 -5.36,-2.43 -10.72,8.9 -16.68,6.07 -4.56,-19.81 -9.92,-39.89 -28.24,-49.38 -6.74,0.2 -15.15,14.85 -20.84,9.71 -7.94,-7.15 -16.44,-14.56 -25.6,-22.26 -15.92,-11.18 -31.43,27.01 -47.15,40.52"/>
   </g>
  </g>
 </g>
</svg>