<svg xmlns="http://www.w3.org/2000/svg" xmlns:xlink="http://www.w3.org/1999/xlink" xmlns:xodm="http://www.corel.com/coreldraw/odm/2003" xml:space="preserve" width="2700px" height="457px" version="1.1" style="shape-rendering:geometricPrecision; text-rendering:geometricPrecision; image-rendering:optimizeQuality; fill-rule:evenodd; clip-rule:evenodd" viewBox="0 0 3138.02 531.42"><script xmlns="" id="eppiocemhmnlbhjplcgkofciiegomcon"/><script xmlns=""/><script xmlns=""/>
 <defs>
  <style type="text/css">
   <![CDATA[
    .str6 {stroke:#373435;stroke-width:9.69;stroke-miterlimit:22.9256}
    .str4 {stroke:#373435;stroke-width:9.69;stroke-miterlimit:22.9256}
    .str5 {stroke:#373435;stroke-width:9.69;stroke-linecap:round;stroke-miterlimit:22.9256}
    .str1 {stroke:#373435;stroke-width:8.79;stroke-miterlimit:22.9256}
    .str3 {stroke:#373435;stroke-width:8.79;stroke-miterlimit:22.9256}
    .str0 {stroke:black;stroke-width:1.76;stroke-miterlimit:10}
    .str9 {stroke:black;stroke-width:8.79;stroke-linejoin:round;stroke-miterlimit:10}
    .str2 {stroke:#373435;stroke-width:8.79;stroke-linecap:round;stroke-miterlimit:22.9256}
    .str7 {stroke:black;stroke-width:8.79;stroke-linecap:round;stroke-linejoin:round;stroke-miterlimit:22.9256}
    .str8 {stroke:black;stroke-width:8.79;stroke-linecap:round;stroke-linejoin:round;stroke-miterlimit:22.9256}
    .str11 {stroke:black;stroke-width:8.79;stroke-linecap:round;stroke-linejoin:round;stroke-miterlimit:22.9256}
    .str12 {stroke:black;stroke-width:8.79;stroke-linecap:round;stroke-linejoin:round;stroke-miterlimit:22.9256}
    .str13 {stroke:black;stroke-width:8.79;stroke-linecap:round;stroke-linejoin:round;stroke-miterlimit:22.9256}
    .str14 {stroke:black;stroke-width:8.79;stroke-linecap:round;stroke-linejoin:round;stroke-miterlimit:22.9256}
    .str15 {stroke:black;stroke-width:8.79;stroke-linecap:round;stroke-linejoin:round;stroke-miterlimit:22.9256}
    .str10 {stroke:black;stroke-width:8.79;stroke-linecap:round;stroke-linejoin:round;stroke-miterlimit:22.9256}
    .str16 {stroke:black;stroke-width:8.79;stroke-linecap:round;stroke-linejoin:round;stroke-miterlimit:22.9256}
    .fil2 {fill:none}
    .fil4 {fill:none;fill-rule:nonzero}
    .fil5 {fill:#373435}
    .fil3 {fill:#373435;fill-rule:nonzero}
    .fil1 {fill:#282828;fill-rule:nonzero}
    .fil6 {fill:black;fill-rule:nonzero}
    .fil0 {fill:#FEFEFE;fill-opacity:0.000000}
   ]]>
  </style>
 </defs>
 <g id="Layer_x0020_1">
  <metadata id="CorelCorpID_0Corel-Layer"/>
  <polygon class="fil0" points="0,0 3138.02,0 3138.02,531.42 0,531.42 "/>
  <g id="_1286236072928">
   <g>
    <path class="fil1 str0" d="M386.71 194.75l58.7 0c1.44,0 2.6,-1.17 2.6,-2.6 0,-1.44 -1.16,-2.59 -2.6,-2.59l-58.7 0c-1.43,0 -2.59,1.15 -2.59,2.59 0,1.43 1.16,2.6 2.59,2.6z"/>
    <path class="fil1 str0" d="M386.71 216.55l42.72 0c1.44,0 2.6,-1.17 2.6,-2.6 0,-1.44 -1.16,-2.59 -2.6,-2.59l-42.72 0c-1.43,0 -2.59,1.15 -2.59,2.59 0,1.43 1.16,2.6 2.59,2.6z"/>
    <path class="fil1 str0" d="M386.71 238.35l50.71 0c1.44,0 2.6,-1.15 2.6,-2.59 0,-1.43 -1.16,-2.6 -2.6,-2.6l-50.71 0c-1.43,0 -2.59,1.17 -2.59,2.6 0,1.44 1.16,2.59 2.59,2.59z"/>
    <path class="fil1 str0" d="M386.71 260.15l58.7 0c1.44,0 2.6,-1.15 2.6,-2.59 0,-1.43 -1.16,-2.6 -2.6,-2.6l-58.7 0c-1.43,0 -2.59,1.17 -2.59,2.6 0,1.44 1.16,2.59 2.59,2.59z"/>
    <path class="fil1 str0" d="M437.42 276.77l-50.71 0c-1.43,0 -2.59,1.16 -2.59,2.59 0,1.44 1.16,2.6 2.59,2.6l50.71 0c1.44,0 2.6,-1.16 2.6,-2.6 0,-1.43 -1.16,-2.59 -2.6,-2.59z"/>
    <path class="fil1 str0" d="M611.28 336.47l-82.21 0c-17.76,0 -34.41,7.68 -45.89,20.88l0 -12.31c8.45,-12.21 22.28,-19.5 37.18,-19.5l77.25 0c1.44,0 2.6,-1.16 2.6,-2.6l0 -139.56 11.07 0 0 153.09zm-179.18 0l-82.22 0 0 -153.09 11.08 0 0 139.56c0,1.44 1.16,2.6 2.59,2.6l77.25 0c14.9,0 28.74,7.29 37.18,19.49l0 12.32c-11.47,-13.2 -28.12,-20.88 -45.88,-20.88zm-65.95 -167.48l74.65 0c14.9,0 28.74,7.27 37.18,19.49l0 148.23c-9.46,-10.35 -22.88,-16.37 -37.18,-16.37l-74.65 0 0 -151.35zm154.21 0l74.65 0 0 151.35 -74.65 0c-14.3,0 -27.72,6.02 -37.18,16.37l0 -148.23c8.44,-12.22 22.28,-19.49 37.18,-19.49zm93.52 9.19l-13.67 0 0 -11.8c0,-1.43 -1.16,-2.59 -2.6,-2.59l-77.25 0c-15.66,0 -30.27,7.21 -39.78,19.46 -9.51,-12.25 -24.12,-19.46 -39.78,-19.46l-77.25 0c-1.43,0 -2.59,1.16 -2.59,2.59l0 11.8 -13.67 0c-1.44,0 -2.6,1.16 -2.6,2.6l0 158.29c0,1.43 1.16,2.59 2.6,2.59l84.81 0c18.66,0 35.97,9.27 46.32,24.8 0,0.01 0.01,0.02 0.02,0.03 0.04,0.06 0.09,0.12 0.13,0.17 0.04,0.04 0.07,0.09 0.11,0.13 0.04,0.04 0.09,0.09 0.13,0.13 0.06,0.05 0.11,0.1 0.17,0.14 0.05,0.04 0.09,0.07 0.14,0.11 0.08,0.06 0.18,0.11 0.27,0.17 0.05,0.02 0.09,0.03 0.14,0.05 0.07,0.03 0.14,0.06 0.22,0.09 0.02,0.01 0.05,0.03 0.08,0.03 0.02,0.01 0.04,0.01 0.07,0.02 0.07,0.02 0.15,0.03 0.22,0.04 0.04,0.01 0.07,0.02 0.1,0.02 0.12,0.02 0.24,0.04 0.36,0.04 0.12,0 0.24,-0.02 0.35,-0.04 0.04,0 0.07,-0.01 0.11,-0.02 0.07,-0.01 0.15,-0.02 0.22,-0.04 0.02,-0.01 0.05,-0.01 0.07,-0.02 0.03,0 0.05,-0.02 0.08,-0.03 0.08,-0.03 0.16,-0.06 0.23,-0.09 0.04,-0.02 0.08,-0.03 0.12,-0.05 0.11,-0.06 0.21,-0.12 0.31,-0.2 0.02,-0.01 0.03,-0.02 0.05,-0.03 0.08,-0.06 0.16,-0.13 0.24,-0.2 0.03,-0.03 0.06,-0.05 0.08,-0.09 0.06,-0.06 0.12,-0.13 0.18,-0.2 0.02,-0.02 0.05,-0.05 0.07,-0.09 0.02,-0.02 0.04,-0.04 0.05,-0.06 10.35,-15.54 27.67,-24.81 46.33,-24.81l84.81 0c1.44,0 2.6,-1.16 2.6,-2.59l0 -158.29c0,-1.44 -1.16,-2.6 -2.6,-2.6z"/>
    <path class="fil1 str0" d="M515.75 194.75l42.72 0c1.44,0 2.6,-1.17 2.6,-2.6 0,-1.44 -1.16,-2.59 -2.6,-2.59l-42.72 0c-1.43,0 -2.6,1.15 -2.6,2.59 0,1.43 1.17,2.6 2.6,2.6z"/>
    <path class="fil1 str0" d="M515.75 238.35l26.74 0c1.44,0 2.6,-1.15 2.6,-2.59 0,-1.43 -1.16,-2.6 -2.6,-2.6l-26.74 0c-1.43,0 -2.6,1.17 -2.6,2.6 0,1.44 1.17,2.59 2.6,2.59z"/>
    <path class="fil1 str0" d="M515.75 260.15l42.72 0c1.44,0 2.6,-1.15 2.6,-2.59 0,-1.43 -1.16,-2.6 -2.6,-2.6l-42.72 0c-1.43,0 -2.6,1.17 -2.6,2.6 0,1.44 1.17,2.59 2.6,2.59z"/>
    <path class="fil1 str0" d="M515.75 281.96l42.72 0c1.44,0 2.6,-1.16 2.6,-2.6 0,-1.43 -1.16,-2.59 -2.6,-2.59l-42.72 0c-1.43,0 -2.6,1.16 -2.6,2.59 0,1.44 1.17,2.6 2.6,2.6z"/>
   </g>
   <g>
    <path class="fil2 str1" d="M838.52 336.35l-75.23 0c-4.01,0 -7.29,-3.28 -7.29,-7.29l0 -162.51c0,-4.01 3.28,-7.29 7.29,-7.29l86.77 0c4.01,0 7.29,3.28 7.29,7.29l0 140.26"/>
    <line class="fil2 str2" x1="801.6" y1="322.35" x2="811.75" y2="322.35"/>
    <path class="fil2 str3" d="M865.77 371.94l0 -10.9c-11.97,-6.13 -22.12,-15.33 -29.74,-28.8 -12.42,-18.44 -22.19,-30.77 -27.49,-38.52 -3.36,-10.41 13.62,-16.78 22.82,-6.92 8.07,8.84 16.07,18.92 25.99,20.01l0 -46.94 16.12 8.29c27.39,15.16 30.62,75.96 34.33,104"/>
    <g>
     <path class="fil3" d="M795.45 175.5c-2.41,0 -4.37,-1.97 -4.37,-4.39 0,-2.43 1.96,-4.4 4.37,-4.4l0 8.79zm22.45 0l-22.45 0 0 -8.79 22.45 0 0 8.79zm0 -8.79c2.41,0 4.37,1.97 4.37,4.4 0,2.42 -1.96,4.39 -4.37,4.39l0 -8.79z"/>
    </g>
   </g>
   <g id="_1286236066160">
    <path class="fil4 str4" d="M1348.31 315.06l0 -152.5c0,-2.08 -0.85,-3.97 -2.23,-5.35 -1.37,-1.37 -3.27,-2.23 -5.35,-2.23l-230 0c-2.08,0 -3.98,0.86 -5.35,2.23 -1.38,1.38 -2.23,3.27 -2.23,5.35l0 49.63"/>
    <path class="fil4 str4" d="M1165.24 335.5l35.11 0 50.14 0 90.24 0c2.08,0 3.98,-0.86 5.35,-2.23 1.38,-1.38 2.23,-3.27 2.23,-5.35l0 -25.71 -183.07 0"/>
    <path class="fil4 str4" d="M1204.99 335.5l-1.13 17.78c-0.35,3.09 -1.61,5.55 -3.35,7.6 -1.62,1.91 -3.61,3.4 -5.65,4.71l-0.39 0.21 -5.81 2.63c-1.94,0.99 -3.15,2.23 -3.65,3.45 -0.22,0.56 -0.28,1.1 -0.16,1.58 0.11,0.47 0.39,0.92 0.86,1.31 1.11,0.94 3.04,1.57 5.87,1.57l67.68 0c2.83,0 4.76,-0.63 5.87,-1.57 0.47,-0.39 0.75,-0.84 0.86,-1.31 0.12,-0.48 0.06,-1.02 -0.16,-1.58 -0.49,-1.22 -1.71,-2.46 -3.65,-3.45l-5.81 -2.63 -0.39 -0.21c-2.04,-1.31 -4.03,-2.8 -5.65,-4.71 -1.74,-2.05 -2.99,-4.51 -3.35,-7.6l-1.13 -17.78"/>
    <line class="fil2 str5" x1="1099.03" y1="358.94" x2="1113.54" y2="358.94"/>
    <line class="fil2 str5" x1="1218.47" y1="168.28" x2="1232.99" y2="168.28"/>
    <circle class="fil5 str4" cx="1106.28" cy="228.78" r="5.25"/>
    <rect class="fil2 str6" x="1047.32" y="212.19" width="117.93" height="164.24" rx="5.03" ry="3.53"/>
   </g>
   <g id="_1286236060304">
    <g>
     <path class="fil6" d="M1827.18 146.75l-339.35 0 0 -8.79 339.35 0 4.37 4.4 -4.37 4.39zm0 -8.79c2.41,0 4.37,1.97 4.37,4.4 0,2.42 -1.96,4.39 -4.37,4.39l0 -8.79zm-4.37 207.24l0 -202.84 8.74 0 0 202.84 -4.37 4.39 -4.37 -4.39zm8.74 0c0,2.43 -1.96,4.39 -4.37,4.39 -2.41,0 -4.37,-1.96 -4.37,-4.39l8.74 0zm-343.72 -4.39l339.35 0 0 8.78 -339.35 0 -4.37 -4.39 4.37 -4.39zm0 8.78c-2.41,0 -4.37,-1.96 -4.37,-4.39 0,-2.42 1.96,-4.39 4.37,-4.39l0 8.78zm4.37 -207.23l0 202.84 -8.74 0 0 -202.84 4.37 -4.4 4.37 4.4zm-8.74 0c0,-2.43 1.96,-4.4 4.37,-4.4 2.41,0 4.37,1.97 4.37,4.4l-8.74 0z"/>
    </g>
    <line class="fil2 str7" x1="1657.51" y1="364.78" x2="1657.51" y2="345.5"/>
    <path class="fil2 str8" d="M1534.66 389.07c4.02,-13.89 14.72,-20.3 31.56,-19.85l105.23 0m108.91 19.85c-4.02,-13.89 -14.73,-20.3 -31.56,-19.85l-105.23 0"/>
   </g>
   <g>
    <path class="fil4 str9" d="M2025.15 344.91l0 -11.73c0,-6.48 5.25,-11.73 11.74,-11.73l23.46 0c6.49,0 11.74,5.25 11.74,11.73l0 11.73"/>
    <path class="fil4 str9" d="M2095.55 344.91l0 -11.73c0,-6.48 5.25,-11.73 11.74,-11.73l23.47 0c6.48,0 11.73,5.25 11.73,11.73l0 11.73"/>
    <path class="fil4 str9" d="M2165.96 344.91l0 -11.73c0,-6.48 5.25,-11.73 11.73,-11.73l23.47 0c6.48,0 11.73,5.25 11.73,11.73l0 11.73"/>
    <path class="fil4 str9" d="M1989.95 385.98l0 -11.73c0,-6.49 5.25,-11.74 11.74,-11.74l23.46 0c6.49,0 11.74,5.25 11.74,11.74l0 11.73"/>
    <path class="fil4 str9" d="M2060.35 385.98l0 -11.73c0,-6.49 5.25,-11.74 11.74,-11.74l23.46 0c6.49,0 11.74,5.25 11.74,11.74l0 11.73"/>
    <path class="fil4 str9" d="M2130.76 385.98l0 -11.73c0,-6.49 5.25,-11.74 11.73,-11.74l23.47 0c6.48,0 11.73,5.25 11.73,11.74l0 11.73"/>
    <path class="fil4 str9" d="M2201.16 385.98l0 -11.73c0,-6.49 5.25,-11.74 11.73,-11.74l23.47 0c6.48,0 11.73,5.25 11.73,11.74l0 11.73"/>
    <g>
     <path class="fil6" d="M2271.35 296.51l-304.65 0 0 -8.79 304.65 0 4.39 4.39 -4.39 4.4zm0 -8.79c2.42,0 4.39,1.97 4.39,4.39 0,2.43 -1.97,4.4 -4.39,4.4l0 -8.79zm4.39 -142.28l0 146.67 -8.79 0 0 -146.67 4.4 -4.39 4.39 4.39zm-8.79 0c0,-2.42 1.97,-4.39 4.4,-4.39 2.42,0 4.39,1.97 4.39,4.39l-8.79 0zm-300.25 -4.39l304.65 0 0 8.79 -304.65 0 -4.39 -4.4 4.39 -4.39zm0 8.79c-2.42,0 -4.39,-1.97 -4.39,-4.4 0,-2.42 1.97,-4.39 4.39,-4.39l0 8.79zm-4.39 142.27l0 -146.67 8.79 0 0 146.67 -4.4 4.4 -4.39 -4.4zm8.79 0c0,2.43 -1.97,4.4 -4.4,4.4 -2.42,0 -4.39,-1.97 -4.39,-4.4l8.79 0z"/>
    </g>
   </g>
   <g>
    <polyline class="fil2 str10" points="2445.76,354.45 2561.93,219.27 2642.48,219.27 2756.21,354.25 "/>
    <polyline class="fil2 str11" points="2497.69,354.45 2580.06,219.27 2624.98,219.27 2705.33,354.25 "/>
    <line class="fil2 str12" x1="2601.91" y1="354.45" x2="2601.71" y2="307.5"/>
    <line class="fil2 str13" x1="2601.91" y1="284.43" x2="2601.71" y2="266.22"/>
    <line class="fil2 str14" x1="2601.91" y1="248.82" x2="2601.71" y2="240.72"/>
    <line class="fil2 str15" x1="2601.91" y1="227.96" x2="2601.71" y2="219.86"/>
    <path class="fil2 str10" d="M2410.87 282.61c0.02,-16.83 2.59,-33.09 12.34,-47.76 5.36,-2.43 10.72,8.9 16.68,6.07 4.56,-19.81 9.91,-39.89 28.23,-49.38 6.75,0.2 15.15,14.85 20.85,9.71 7.94,-7.15 16.44,-14.56 25.6,-22.26 15.92,-11.18 31.43,27.01 47.15,40.52"/>
    <path class="fil2 str16" d="M2793.33 282.61c-0.03,-16.83 -2.6,-33.09 -12.35,-47.76 -5.35,-2.43 -10.71,8.9 -16.68,6.07 -4.55,-19.81 -9.91,-39.89 -28.23,-49.38 -6.74,0.2 -15.15,14.85 -20.84,9.71 -7.95,-7.15 -16.45,-14.56 -25.61,-22.26 -15.91,-11.18 -31.43,27.01 -47.14,40.52"/>
   </g>
  </g>
 </g>
</svg>